<svg width="40" height="40" viewBox="0 0 40 40" fill="none" xmlns="http://www.w3.org/2000/svg">
    <circle cx="20" cy="20" r="20" fill="#009AFF"/>
    <path d="M15.5646 28.616L15.5646 28.616L9.20365 22.2549L9.20356 22.2548C8.26548 21.3172 8.26548 19.7947 9.20356 18.8571L9.20373 18.8569C10.1413 17.9188 11.6638 17.9187 12.602 18.857L12.602 18.857L16.3919 22.6464L16.3922 22.6467C16.8737 23.1273 17.6539 23.1268 18.1355 22.647L18.1362 22.6464L28.398 12.3843L28.3981 12.3842C29.3356 11.4462 30.8581 11.4461 31.7964 12.3843C32.2469 12.8348 32.5 13.4462 32.5 14.0833C32.5 14.7204 32.2469 15.3317 31.7964 15.7823L18.9629 28.616C18.0247 29.5542 16.5022 29.5541 15.5646 28.616Z" fill="white" stroke="#009AFF"/>
</svg>