<svg width="50" height="50" viewBox="0 0 50 50" fill="none" xmlns="http://www.w3.org/2000/svg">
    <path d="M25 0C11.2146 0 0 11.2146 0 25C0 38.7854 11.2146 50 25 50C38.7854 50 50 38.7854 50 25C50 11.2146 38.7854 0 25 0Z" fill="#EA6425"/>
    <path d="M24.6075 11.7666C24.9773 11.0345 26.0227 11.0345 26.3925 11.7666L29.8874 18.6837C30.0328 18.9716 30.3082 19.1716 30.6269 19.221L38.2855 20.4073C39.096 20.5328 39.419 21.527 38.8371 22.105L33.3384 27.5663C33.1096 27.7936 33.0044 28.1173 33.056 28.4356L34.2944 36.086C34.4255 36.8956 33.5798 37.5101 32.8502 37.1352L25.957 33.5933C25.6702 33.4459 25.3298 33.4459 25.043 33.5933L18.1498 37.1352C17.4203 37.5101 16.5745 36.8956 16.7056 36.086L17.944 28.4356C17.9956 28.1173 17.8904 27.7936 17.6616 27.5663L12.1629 22.105C11.581 21.527 11.904 20.5328 12.7145 20.4073L20.3731 19.221C20.6918 19.1716 20.9672 18.9716 21.1126 18.6837L24.6075 11.7666Z" fill="white"/>
</svg>