<svg width="15" height="18" viewBox="0 0 15 18" fill="none" xmlns="http://www.w3.org/2000/svg">
<path d="M2.04941 14.5968C3.58381 16.175 6.0368 16.1747 7.57082 14.5961L14.0046 7.83284C15.168 6.58109 15.1457 4.575 13.955 3.35208C12.7838 2.14925 10.9133 2.14925 9.74208 3.35208L3.91618 9.47626C3.1588 10.2724 3.1588 11.5633 3.91618 12.3594C4.67356 13.1556 5.90154 13.1556 6.65891 12.3594L12.2315 6.50152C12.4259 6.28996 12.4203 5.95284 12.2191 5.74852C12.0227 5.5492 11.7115 5.5492 11.5152 5.74852L5.94259 11.6064C5.57306 11.9785 4.98651 11.9653 4.63253 11.5768C4.28924 11.2001 4.28924 10.606 4.63253 10.2293L10.4584 4.10511C11.2454 3.28954 12.5124 3.29909 13.2883 4.12642C14.0563 4.94538 14.0563 6.26088 13.2883 7.07984L6.85447 13.8431C5.70844 15.0482 3.85007 15.0485 2.70364 13.8439C1.5572 12.6392 1.55687 10.6857 2.70286 9.48053L9.13669 2.71731C9.34919 2.526 9.37395 2.18982 9.19196 1.96643C9.00997 1.74305 8.69016 1.71702 8.47765 1.90833C8.45783 1.92618 8.43936 1.94559 8.42238 1.96643L1.98856 8.72966C0.4641 10.3675 0.491321 12.9943 2.04941 14.5968Z" fill="#009AFF"/>
</svg>
