<svg width="489" height="136" viewBox="0 0 489 136" fill="none" xmlns="http://www.w3.org/2000/svg">
    <path d="M420.141 54.5735L418.171 54.2264L421.307 56.1982L420.141 54.5735ZM422.531 29.4864L418.171 54.2264L422.11 54.9206L426.47 30.1806L422.531 29.4864ZM421.307 56.1982L443.927 39.9581L441.594 36.7089L418.974 52.9489L421.307 56.1982Z" fill="#009AFF"/>
    <path d="M457.84 60.9533L456.229 62.1397L459.587 61.9263L457.84 60.9533ZM486.26 9.91333L488.007 10.8863L485.17 8.23595L486.26 9.91333ZM441.248 41.8079L456.229 62.1397L459.45 59.7669L444.468 39.4351L441.248 41.8079ZM459.587 61.9263L488.007 10.8863L484.512 8.94036L456.092 59.9804L459.587 61.9263ZM444.468 39.4351L487.349 11.5907L485.17 8.23595L442.29 36.0804L444.468 39.4351ZM444.468 39.4351L442.29 36.0804C440.359 37.3341 439.883 39.9547 441.248 41.8079L444.468 39.4351Z" fill="#E65907"/>
    <path d="M487.392 9L401 25.5734L425.94 29.0534L487.392 9Z" stroke="#4DD6CB" stroke-width="4"/>
    <line x1="176.785" y1="130.373" x2="229.398" y2="85.4959" stroke="#4DD6CB" stroke-width="4"/>
    <line x1="325.622" y1="127.258" x2="269.789" y2="88.6624" stroke="#4DD6CB" stroke-width="4"/>
    <path d="M326.76 43.946L250.328 102.579L173.896 43.946" stroke="#E65907" stroke-width="4"/>
    <path d="M191.764 133.035L172.999 133.035L172.999 41.0002L328.625 41.0002L328.625 133.035L191.764 133.035Z" stroke="#009AFF" stroke-width="4"/>
    <path d="M72.0587 37.1231L54.6159 6.91116L8.48145 33.5469L43.3672 93.9707L66.4344 80.6528L77.968 73.9939" stroke="#009AFF" stroke-width="4"/>
    <line x1="23.7012" y1="39.3212" x2="51.5984" y2="23.2147" stroke="#E65907" stroke-width="4"/>
    <line x1="28.1816" y1="47.0814" x2="45.0253" y2="37.3568" stroke="#E65907" stroke-width="4"/>
    <line x1="32.7275" y1="54.7997" x2="50.6914" y2="44.4283" stroke="#E65907" stroke-width="4"/>
    <path fill-rule="evenodd" clip-rule="evenodd" d="M75.9288 38.2462L74.1558 37.7711L73.6807 39.5442L67.6711 61.9721L67.4858 62.6636L67.8177 63.298L71.3331 70.0184L72.3008 71.8684L74.0117 70.6718L79.985 66.4939L80.5329 66.1107L80.706 65.4648L86.7156 43.0368L87.1906 41.2638L85.4176 40.7887L75.9288 38.2462ZM73.6184 66.4668L71.4026 62.2308L74.7293 49.8153L80.6719 51.4076L77.3329 63.8687L73.6184 66.4668ZM81.6221 47.8615L82.6943 43.8597L76.7517 42.2674L75.6794 46.2692L81.6221 47.8615Z" fill="#4DD6CB"/>
</svg>