<svg width="139" height="111" viewBox="0 0 139 111" fill="none" xmlns="http://www.w3.org/2000/svg">
    <path d="M101.527 26.0666L100.543 25.893L102.111 26.8789L101.527 26.0666ZM102.941 12.2853L100.543 25.893L102.512 26.2401L104.91 12.6324L102.941 12.2853ZM102.111 26.8789L114.552 17.9464L113.386 16.3218L100.944 25.2543L102.111 26.8789Z" fill="#009AFF"/>
    <path d="M122.264 29.5754L121.459 30.1686L123.138 30.0619L122.264 29.5754ZM137.896 1.50195L138.77 1.98844L137.352 0.663261L137.896 1.50195ZM113.786 19.7542L121.459 30.1686L123.07 28.9822L115.396 18.5678L113.786 19.7542ZM123.138 30.0619L138.77 1.98844L137.023 1.01547L121.391 29.0889L123.138 30.0619ZM115.656 17.1359L138.441 2.34065L137.352 0.663261L114.567 15.4585L115.656 17.1359ZM115.396 18.5678C115.054 18.1045 115.174 17.4493 115.656 17.1359L114.567 15.4585C113.119 16.3988 112.761 18.3642 113.786 19.7542L115.396 18.5678Z" fill="#E65907"/>
    <path d="M138.518 1L91 10.1159L104.718 12.03L138.518 1Z" stroke="#4DD6CB" stroke-width="2"/>
    <path d="M43.3902 32.5088L33.9968 16.2389L9.15234 30.5829L27.9391 63.1225L40.3613 55.9505L46.5724 52.3645" stroke="#009AFF" stroke-width="2"/>
    <line x1="17.3867" y1="33.7591" x2="32.41" y2="25.0854" stroke="#E65907" stroke-width="2"/>
    <line x1="19.8008" y1="37.9383" x2="28.8715" y2="32.7013" stroke="#E65907" stroke-width="2"/>
    <line x1="22.248" y1="42.0947" x2="31.922" y2="36.5094" stroke="#E65907" stroke-width="2"/>
    <path fill-rule="evenodd" clip-rule="evenodd" d="M45.4774 33.1024L44.5114 32.8436L44.2526 33.8095L41.0163 45.8875L40.9154 46.2642L41.0962 46.6098L42.9893 50.2289L43.5165 51.2367L44.4485 50.5848L47.6653 48.3349L47.9638 48.1262L48.0581 47.7743L51.2944 35.6963L51.5532 34.7304L50.5873 34.4716L45.4774 33.1024ZM44.2343 48.294L43.0491 46.0284L44.8365 39.3578L48.0146 40.2093L46.2205 46.9048L44.2343 48.294ZM48.5322 38.2775L49.1037 36.1446L45.9257 35.2931L45.3542 37.4259L48.5322 38.2775Z" fill="#4DD6CB"/>
    <line x1="72.1538" y1="108.996" x2="92.9722" y2="91.2383" stroke="#4DD6CB" stroke-width="2"/>
    <line x1="131.064" y1="108.094" x2="108.972" y2="92.8222" stroke="#4DD6CB" stroke-width="2"/>
    <path d="M131.633 74.9571L101.389 98.1575L71.1461 74.9571" stroke="#E65907" stroke-width="2"/>
    <path d="M78.2162 110L71 110L71 74L132.162 74L132.162 110L78.2162 110Z" stroke="#009AFF" stroke-width="2"/>
</svg>
