<svg width="20" height="22" viewBox="0 0 20 22" fill="none" xmlns="http://www.w3.org/2000/svg">
<path d="M13.0007 6.00045L6.50068 12.5005C6.10286 12.8983 5.87936 13.4378 5.87936 14.0005C5.87936 14.5631 6.10286 15.1026 6.50068 15.5005C6.8985 15.8983 7.43807 16.1218 8.00068 16.1218C8.56329 16.1218 9.10286 15.8983 9.50068 15.5005L16.0007 9.00045C16.7963 8.2048 17.2433 7.12567 17.2433 6.00045C17.2433 4.87523 16.7963 3.7961 16.0007 3.00045C15.205 2.2048 14.1259 1.75781 13.0007 1.75781C11.8755 1.75781 10.7963 2.2048 10.0007 3.00045L3.50068 9.50045C2.30721 10.6939 1.63672 12.3126 1.63672 14.0005C1.63672 15.6883 2.30721 17.307 3.50068 18.5005C4.69415 19.6939 6.31285 20.3644 8.00068 20.3644C9.68851 20.3644 11.3072 19.6939 12.5007 18.5005L19.0007 12.0005" stroke="#004077" stroke-width="2" stroke-linecap="round" stroke-linejoin="round"/>
</svg>
