<svg width="80" height="87" viewBox="0 0 80 87" fill="none" xmlns="http://www.w3.org/2000/svg">
<path d="M42.5273 26.0666L41.5425 25.893L43.1106 26.8789L42.5273 26.0666ZM43.9407 12.2853L41.5425 25.893L43.5122 26.2401L45.9104 12.6324L43.9407 12.2853ZM43.1106 26.8789L55.5522 17.9464L54.3858 16.3218L41.9441 25.2542L43.1106 26.8789Z" fill="#009AFF"/>
<path d="M63.2635 29.5754L62.4585 30.1686L64.1372 30.0619L63.2635 29.5754ZM78.8953 1.50194L79.769 1.98843L78.3507 0.663251L78.8953 1.50194ZM54.7847 19.7542L62.4585 30.1686L64.0686 28.9822L56.3948 18.5678L54.7847 19.7542ZM64.1372 30.0619L79.769 1.98843L78.0216 1.01546L62.3898 29.0889L64.1372 30.0619ZM56.6552 17.1359L79.4399 2.34064L78.3507 0.663251L55.566 15.4585L56.6552 17.1359ZM56.3948 18.5678C56.0534 18.1045 56.1726 17.4493 56.6552 17.1359L55.566 15.4585C54.118 16.3988 53.7605 18.3642 54.7847 19.7542L56.3948 18.5678Z" fill="#E65907"/>
<path d="M79.5181 1L32 10.1159L45.7177 12.03L79.5181 1Z" stroke="#4DD6CB" stroke-width="2"/>
<line x1="1.63424" y1="85.1766" x2="18.5904" y2="70.7135" stroke="#4DD6CB" stroke-width="2"/>
<line x1="49.6306" y1="84.736" x2="31.6369" y2="72.2974" stroke="#4DD6CB" stroke-width="2"/>
<path d="M50.1992 57.594L25.5667 76.4902L0.934147 57.594" stroke="#E65907" stroke-width="2"/>
<path d="M6.69211 85.9501L1.00019 85.9501L1.00019 57L50.4443 57L50.4443 85.9501L6.69211 85.9501Z" stroke="#009AFF" stroke-width="2"/>
</svg>
