<svg width="256" height="256" viewBox="0 0 256 256" fill="none" xmlns="http://www.w3.org/2000/svg">
<circle cx="128" cy="128" r="128" fill="#F0F9FF"/>
<path fill-rule="evenodd" clip-rule="evenodd" d="M128 0C198.645 0 256 57.3547 256 128C256 198.645 198.645 256 128 256C57.3547 256 0 198.645 0 128C0 57.3547 57.3547 0 128 0ZM214.688 207.04C211.68 202.763 206.453 200.064 197.365 197.973C156.32 188.309 153.664 181.963 150.944 176.011C148.181 169.984 148.917 162.891 153.131 154.923C171.541 120.181 175.424 90.6667 164.085 71.8293C156.896 59.8933 144.085 53.3333 128 53.3333C111.776 53.3333 98.8587 60.0107 91.6373 72.1387C80.2667 91.2213 84.2453 120.608 102.827 154.88C107.115 162.795 107.904 169.877 105.173 175.936C102.347 182.187 98.656 188.629 58.6133 197.973C49.5253 200.064 44.2987 202.763 41.3013 207.019C62.7627 230.56 93.6747 245.333 128 245.333C162.325 245.333 193.227 230.56 214.688 207.04ZM221.621 198.699C236.501 179.029 245.333 154.539 245.333 128C245.333 63.2427 192.757 10.6667 128 10.6667C63.2427 10.6667 10.6667 63.2427 10.6667 128C10.6667 154.528 19.488 179.019 34.368 198.677C38.7307 193.856 45.5573 190.037 56.224 187.573C77.824 182.645 92.2347 178.656 95.456 171.552C96.7573 168.651 96.1067 164.853 93.4507 159.957C73.0027 122.251 69.1093 89.12 82.464 66.6773C91.5627 51.4133 108.149 42.6667 128 42.6667C147.68 42.6667 164.171 51.2853 173.227 66.3253C186.571 88.5013 182.784 121.739 162.56 159.915C159.947 164.853 159.317 168.672 160.651 171.584C163.904 178.709 178.187 182.656 199.765 187.573C210.432 190.027 217.259 193.867 221.621 198.699Z" fill="#B8E0FB"/>
</svg>
