<svg width="20" height="20" viewBox="0 0 20 20" fill="none" xmlns="http://www.w3.org/2000/svg">
<circle cx="10" cy="10" r="10" fill="#009AFF"/>
<path fill-rule="evenodd" clip-rule="evenodd" d="M10 11V12V13H9V12V11V10H9.00001C10.1383 10 10.9527 10 11.4431 9.63125C11.8144 9.35212 12 8.86168 12 8C12 6 11 6 10 6C9 6 8 6 8 8H7C7 7.63299 7.03367 7.29966 7.10102 7C7.40068 5.66667 8.36701 5 10 5C12 5 13 6 13 8C13 9.11495 12.6892 9.91912 12.0677 10.4125C11.5743 10.8042 10.8851 11 10 11ZM9.5 14C9.22386 14 9 14.2239 9 14.5C9 14.7761 9.22386 15 9.5 15C9.77614 15 10 14.7761 10 14.5C10 14.2239 9.77614 14 9.5 14Z" fill="white"/>
</svg>
