<svg width="52" height="52" viewBox="0 0 52 52" fill="none" xmlns="http://www.w3.org/2000/svg">
<path d="M51.8206 0H0.0422363V51.778H51.8206V0Z" fill="#4DD6CB"/>
<path d="M28.9669 26.1364L24.7657 29.1729C24.7337 29.2094 24.6932 29.2373 24.6478 29.2546C24.6024 29.2719 24.5536 29.2781 24.5055 29.2722C24.4554 29.2792 24.4043 29.2737 24.3567 29.2564C24.3092 29.2392 24.2667 29.2105 24.2328 29.1729C24.1517 29.1308 24.0842 29.0661 24.0381 28.9872C23.9921 28.9082 23.9692 28.8183 23.9725 28.727V22.6666C23.9711 22.5739 23.9945 22.4821 24.0403 22.4015C24.086 22.3209 24.1526 22.2542 24.2328 22.2079C24.3153 22.1655 24.4066 22.1431 24.4992 22.1431C24.5919 22.1431 24.6832 22.1655 24.7657 22.2079L28.9669 25.2444C29.0732 25.3695 29.1343 25.5264 29.1405 25.6904C29.1607 25.7307 29.1723 25.7748 29.1745 25.8199C29.1766 25.865 29.1694 25.9098 29.153 25.9518C29.1367 25.9939 29.1115 26.032 29.0795 26.0638C29.0474 26.0956 29.0091 26.1204 28.9669 26.1364ZM35.9318 20.7828C35.9374 20.7357 35.9326 20.688 35.9176 20.643C35.9026 20.598 35.8779 20.5569 35.8452 20.5226V20.4234C35.7137 20.0293 35.4603 19.6873 35.1217 19.4467C34.7831 19.2061 34.3767 19.0792 33.9614 19.0848H34.1473C31.4238 18.7198 28.6785 18.5415 25.9307 18.5517C23.183 18.5465 20.438 18.7247 17.7141 19.0848H17.9C17.4846 19.0792 17.0781 19.2061 16.7395 19.4467C16.4009 19.6873 16.1476 20.0293 16.0162 20.4234V20.5226C16.0218 20.5697 16.0168 20.6174 16.0018 20.6624C15.9869 20.7074 15.9621 20.7485 15.9294 20.7828C15.4502 24.0412 15.4502 27.3524 15.9294 30.6107C15.9238 30.6578 15.9288 30.7055 15.9438 30.7505C15.9588 30.7955 15.9835 30.8366 16.0162 30.8709V30.9696C16.1476 31.3636 16.4009 31.7063 16.7395 31.9469C17.0781 32.1875 17.4846 32.3137 17.9 32.3081H17.7141C20.4376 32.6731 23.1829 32.8514 25.9307 32.8412C28.6784 32.8465 31.4233 32.6682 34.1473 32.3081H33.9614C34.3729 32.3007 34.7716 32.1642 35.1008 31.9172C35.4301 31.6703 35.6732 31.3256 35.7955 30.9327C35.79 30.8856 35.7948 30.8379 35.8098 30.7929C35.8248 30.7479 35.8495 30.7068 35.8822 30.6725C36.0952 29.0281 36.2152 27.3731 36.2417 25.7152C36.261 24.0557 36.1407 22.3974 35.8822 20.758" fill="white"/>
</svg>
