<svg width="52" height="52" viewBox="0 0 52 52" fill="none" xmlns="http://www.w3.org/2000/svg">
<path d="M51.8628 0H0.0844727V51.778H51.8628V0Z" fill="#1877F2"/>
<path fill-rule="evenodd" clip-rule="evenodd" d="M26.4955 17.3009C26.607 21.1304 26.6937 22.8777 27.995 24.2781C29.2963 25.6785 30.9817 25.7405 34.6129 25.852C34.6129 22.4067 34.6129 19.8164 33.3736 18.5523C32.1342 17.2882 29.8292 17.313 26.4459 17.313L26.4955 17.3009ZM26.4459 34.6633C26.5574 30.8339 26.6441 29.0866 27.9454 27.6862C29.2467 26.2858 30.9322 26.2238 34.5634 26.1122C34.5634 29.5575 34.5634 32.1478 33.3241 33.4119C32.0848 34.676 29.7796 34.6512 26.3962 34.6512L26.4459 34.6633ZM19.295 33.4119C18.0557 32.1726 18.0557 29.5575 18.0557 26.1122C21.6869 26.2238 23.3475 26.3229 24.6736 27.6862C25.9996 29.0494 26.0617 30.8339 26.1733 34.6633C22.7899 34.6633 20.4475 34.6633 19.2454 33.424L19.295 33.4119ZM26.2848 17.3009C22.9014 17.3009 20.5592 17.3009 19.3571 18.5402C18.1549 19.7795 18.1178 22.3946 18.1178 25.8399C21.7489 25.7284 23.4096 25.6292 24.7356 24.266C26.0617 22.9027 26.1236 21.1183 26.2351 17.2888" fill="white"/>
</svg>
