<svg width="20" height="29" viewBox="0 0 20 29" fill="none" xmlns="http://www.w3.org/2000/svg">
<path fill-rule="evenodd" clip-rule="evenodd" d="M0 9.75452C0 4.62798 4.4861 0.457031 10 0.457031C15.5139 0.457031 20 4.62798 20 9.75446C20 11.2934 19.5862 12.8194 18.8025 14.1683L10.5469 28.0498C10.437 28.2348 10.2276 28.3494 10 28.3494C9.77236 28.3494 9.56301 28.2348 9.45315 28.0498L1.20058 14.1728C0.413847 12.8194 0 11.2935 0 9.75452ZM10.3843 13.3301C12.296 13.3301 13.8458 11.8892 13.8458 10.1118C13.8458 8.33443 12.296 6.89355 10.3843 6.89355C8.4726 6.89355 6.92285 8.33443 6.92285 10.1118C6.92285 11.8892 8.4726 13.3301 10.3843 13.3301Z" fill="#AAAAAA"/>
</svg>
