<svg width="129" height="129" viewBox="0 0 129 129" fill="none" xmlns="http://www.w3.org/2000/svg">
<path d="M120.967 4H8.03333C5.80578 4 4 5.81218 4 8.04762V84.9524C4 87.1878 5.80578 89 8.03333 89H120.967C123.194 89 125 87.1878 125 84.9524V8.04762C125 5.81218 123.194 4 120.967 4Z" fill="#4DD6CB"/>
<path d="M20.0769 81H108.923C108.923 78.8471 109.774 76.7823 111.289 75.26C112.803 73.7376 114.858 72.8824 117 72.8824V20.1176C114.858 20.1176 112.803 19.2624 111.289 17.74C109.774 16.2177 108.923 14.1529 108.923 12H20.0769C20.0769 14.1529 19.226 16.2177 17.7112 17.74C16.1965 19.2624 14.1421 20.1176 12 20.1176V72.8824C14.1421 72.8824 16.1965 73.7376 17.7112 75.26C19.226 76.7823 20.0769 78.8471 20.0769 81Z" fill="#F2F2F2"/>
<path d="M109 13.6889C108.881 13.1338 108.82 12.5678 108.818 12H20.0682C20.0682 14.1458 19.2182 16.2037 17.7051 17.721C16.192 19.2383 14.1398 20.0907 12 20.0907V72.68C14.1137 72.678 16.1429 73.5116 17.6477 75H104.966C106.036 75 107.062 74.5738 107.818 73.8152C108.575 73.0565 109 72.0276 109 70.9547V13.6889Z" fill="white"/>
<path d="M68 91.3455V111L60 102.76L52 111V88C53.0058 88.5049 54.1037 88.7856 55.222 88.824C56.5307 88.9143 57.7681 89.4707 58.722 90.3979C59.974 91.5431 61.5453 92.2516 63.2115 92.4221C64.8777 92.5927 66.5537 92.2166 68 91.3475V91.3455Z" fill="#F9D266"/>
<path d="M76 88V125L68 116.852L60 125V102.594L68 110.742V91.3099C68.4555 91.0416 68.8836 90.7277 69.278 90.373C70.2319 89.4562 71.4693 88.9061 72.778 88.8168C73.8963 88.7789 74.9942 88.5012 76 88.002V88Z" fill="#F0AE42"/>
<path d="M46.0074 77.2809C46.9071 78.2346 47.4471 79.4718 47.5347 80.7802C47.5988 82.7979 48.4288 84.7154 49.856 86.1429C51.2831 87.5703 53.2003 88.4005 55.2176 88.4645C56.5257 88.5522 57.7626 89.0923 58.7162 89.9922C60.1694 91.2855 62.0468 92 63.992 92C65.9372 92 67.8146 91.2855 69.2678 89.9922C70.2214 89.0923 71.4583 88.5522 72.7664 88.4645C74.7837 88.4005 76.7009 87.5703 78.1281 86.1429C79.5552 84.7154 80.3852 82.7979 80.4493 80.7802C80.5413 79.4697 81.087 78.2323 81.9926 77.2809C83.2857 75.8274 84 73.9496 84 72.004C84 70.0584 83.2857 68.1806 81.9926 66.7271C81.0929 65.7734 80.5529 64.5362 80.4653 63.2278C80.4012 61.2101 79.5712 59.2926 78.144 57.8651C76.7169 56.4377 74.7997 55.6075 72.7824 55.5435C71.4705 55.4554 70.2303 54.9123 69.2758 54.0078C67.8226 52.7145 65.9452 52 64 52C62.0548 52 60.1774 52.7145 58.7242 54.0078C57.7706 54.9077 56.5337 55.4478 55.2256 55.5355C53.2083 55.5995 51.2911 56.4297 49.8639 57.8571C48.4368 59.2846 47.6068 61.2021 47.5427 63.2198C47.4548 64.5321 46.9118 65.7724 46.0074 66.7271C44.7143 68.1806 44 70.0584 44 72.004C44 73.9496 44.7143 75.8274 46.0074 77.2809Z" fill="#EA6425"/>
<path d="M64 82C69.5228 82 74 77.5228 74 72C74 66.4772 69.5228 62 64 62C58.4772 62 54 66.4772 54 72C54 77.5228 58.4772 82 64 82Z" fill="#F9D266"/>
<path d="M54 72C54.011 73.6632 54.4409 75.2968 55.25 76.75C56.7032 77.5591 58.3368 77.989 60 78C62.6522 78 65.1957 76.9464 67.0711 75.0711C68.9464 73.1957 70 70.6522 70 68C69.989 66.3368 69.5591 64.7032 68.75 63.25C67.2968 62.4409 65.6632 62.011 64 62C61.3478 62 58.8043 63.0536 56.9289 64.9289C55.0536 66.8043 54 69.3478 54 72Z" fill="#FCE797"/>
<path d="M46 18H82V22H46V18Z" fill="#C0DAFC"/>
<path d="M34 26H95V30H34V26Z" fill="#C0DAFC"/>
<path d="M26 34H103V38H26V34Z" fill="#C0DAFC"/>
<path d="M91 71H103V75H91V71Z" fill="#78A0D4"/>
<path d="M26 71H38V75H26V71Z" fill="#78A0D4"/>
</svg>
