<svg width="192" height="192" viewBox="0 0 192 192" fill="none" xmlns="http://www.w3.org/2000/svg">
<path d="M137.226 55.1285C137.265 52.1542 139.676 49.7671 142.633 49.7671H142.839C145.826 49.7671 148.249 52.2012 148.249 55.2049V43.0316C148.249 40.0279 150.67 37.5924 153.658 37.5924H153.823C156.811 37.5924 159.233 40.0279 159.233 43.0316V39.4377C159.233 36.4341 161.654 34 164.642 34H164.807C167.795 34 170.217 36.4341 170.217 39.4377V47.2215C170.217 44.2193 172.638 41.7837 175.626 41.7837C178.614 41.7837 181.035 44.2193 181.035 47.2215V67.7525C181.035 64.6431 183.599 62.1342 186.717 62.2457C189.688 62.3514 192 64.8971 192 67.8861V79.3136C192 85.1961 190.53 91.0038 187.608 96.101C184.817 100.969 181.575 104.111 179.31 105.906C177.508 107.336 176.469 109.525 176.469 111.833V125H145.898V110.018C145.898 108.235 145.258 106.518 144.13 105.143C139.292 99.2485 137.699 90.9069 137.282 83.4917C136.757 74.0681 137.103 64.5917 137.226 55.1285Z" fill="#FED2A4"/>
<path d="M192 67.6267V79.0209C192 84.8842 190.517 90.6742 187.569 95.7559C184.754 100.609 181.486 103.741 179.201 105.533C177.382 106.955 176.335 109.139 176.335 111.44V122H172V110.009C172 107.708 173.049 104.64 174.866 103.217C177.148 101.426 180.42 98.2938 183.234 93.4405C186.182 88.3588 187.665 82.5687 187.665 76.7055V67.6267C187.665 65.3376 186.289 63.309 184.29 62.4455C185.017 62.1322 185.825 61.9742 186.672 62.0034C189.668 62.1103 192 64.6467 192 67.6267Z" fill="#FFBD86"/>
<path d="M141 135H181V123.931C181 122.864 180.137 122 179.073 122H142.927C141.863 122 141 122.864 141 123.931V135Z" fill="#FFC143"/>
<path d="M181 133H175V122H178.895C180.058 122 181 122.879 181 123.963V133Z" fill="#FFB509"/>
<path d="M184 192H138V134.341C138 133.601 138.601 133 139.342 133H181.059C182.683 133 184 134.316 184 135.938V192Z" fill="#E63950"/>
<path d="M184 135.938V192H176.873V135.939C176.873 134.313 175.588 133 174 133H181.127C182.715 133 184 134.313 184 135.938Z" fill="#CC2E43"/>
<path d="M54.7748 77.106C54.7353 74.1363 52.3244 71.7503 49.3659 71.7503H49.1615C46.1738 71.7503 43.7512 74.1833 43.7512 77.1823V65.022C43.7512 62.0215 41.3286 59.5885 38.3409 59.5885H38.1759C35.1881 59.5885 32.767 62.0215 32.767 65.022V61.432C32.767 58.4329 30.3444 56 27.3567 56H27.1917C24.204 56 21.7829 58.4329 21.7829 61.432V69.2074C21.7829 66.2084 19.3603 63.7754 16.374 63.7754C13.3863 63.7754 10.9637 66.2084 10.9637 69.2074V89.718C10.9637 86.6105 8.40094 84.1042 5.2818 84.2156C2.31161 84.3212 0 86.8642 0 89.85V101.265C0 107.142 1.47049 112.943 4.39103 118.035C7.18307 122.898 10.4249 126.036 12.6898 127.83C14.4917 129.258 15.53 131.445 15.53 133.75V148H46.1008V131.937C46.1008 130.156 46.7404 128.441 47.8706 127.067C52.7085 121.179 54.3016 112.846 54.7164 105.439C55.2435 96.0254 54.8974 86.5591 54.7748 77.106Z" fill="#FED2A4"/>
<path d="M55.7104 104.42C55.2864 111.768 53.6648 120.035 48.7377 125.875C47.5862 127.238 46.9346 128.938 46.9346 130.706V143H42V130.706C42 128.938 42.6516 127.238 43.8016 125.875C48.7332 120.035 50.3548 111.768 50.7788 104.42C51.3173 95.0819 50.9632 85.6901 50.8383 76.3142C50.81 74.1917 49.5261 72.3704 47.6889 71.5179C48.4074 71.1848 49.2048 71 50.0528 71H50.261C53.2766 71 55.7297 73.3654 55.7699 76.3142C55.8949 85.6901 56.2489 95.0819 55.7104 104.42Z" fill="#FFBD86"/>
<path d="M22 90.7879V61.3622C22 58.4017 24.5586 56 27.716 56H27.892C28.6358 56 29.3472 56.1346 30 56.3764L29.0725 57.4245C27.8596 58.794 27.196 60.5168 27.196 62.2974V90.7879C27.196 92.0083 26.1404 93 24.838 93H24.3565C23.0556 93 22 92.0098 22 90.7879Z" fill="#FFBD86"/>
<path d="M33 90.752V64.4494C33 61.4393 35.5681 59 38.7337 59H38.9102C40.048 59 41.1084 59.3148 42 59.8577L40.6455 61.5952C39.1981 63.449 38.4164 65.697 38.4164 68.0054V90.752C38.4164 91.9937 37.3576 93 36.0511 93H35.3653C34.0588 93 33 91.9937 33 90.752Z" fill="#FFBD86"/>
<path d="M51 157H11V145.971C11 144.881 11.8627 144 12.9269 144H49.0731C50.1373 144 51 144.881 51 145.971V157Z" fill="#FFC143"/>
<path d="M8 192H54V156.333C54 155.597 53.3978 155 52.6566 155H10.9411C9.31704 155 8 156.309 8 157.922V192Z" fill="#6FD6A2"/>
<path d="M54 156.333V192H47.336V156.333C47.336 155.594 46.7371 155 46 155H52.6655C53.4011 155 54 155.594 54 156.333Z" fill="#43CD8E"/>
<path d="M52 155H46V144H49.8959C51.0579 144 52 144.877 52 145.963V155Z" fill="#FFB509"/>
<path d="M119 192H67V112.513C67 111.678 67.6803 111 68.5182 111H115.673C117.51 111 119 112.485 119 114.316V192Z" fill="#60B8FF"/>
<path d="M119 114.317V192H111.389V114.317C111.389 112.488 109.872 111 108 111H115.609C117.483 111 119 112.488 119 114.317Z" fill="#22A7FF"/>
<path d="M66.255 23.7582C66.2975 20.4144 69.0158 17.7282 72.3503 17.7282H72.5821C75.9502 17.7282 78.6803 20.4674 78.6803 23.8435V10.155C78.6803 6.77735 81.4103 4.03963 84.7785 4.03963H84.9648C88.333 4.03963 91.0616 6.77735 91.0616 10.155V6.11535C91.063 2.73771 93.7931 0 97.1598 0H97.3475C100.714 0 103.444 2.73771 103.444 6.11535V14.8669C103.444 11.4907 106.174 8.75303 109.543 8.75303C112.911 8.75303 115.641 11.4907 115.641 14.8669V37.9528C115.641 34.456 118.529 31.6345 122.046 31.7595C125.393 31.8787 128 34.7414 128 38.1014V50.9515C128 57.5655 126.342 64.0957 123.049 69.8271C119.902 75.3011 116.248 78.8332 113.696 80.853C111.665 82.4609 110.493 84.922 110.493 87.5156V102H76.0324V85.4766C76.0324 83.4701 75.3106 81.5415 74.0373 79.9939C68.5846 73.3666 66.7875 63.9868 66.3195 55.6487C65.7254 45.0538 66.1156 34.3972 66.255 23.7582Z" fill="#FED2A4"/>
<path d="M127 38.2818V51.0063C127 57.5536 125.368 64.0192 122.128 69.694C119.03 75.1139 115.435 78.6111 112.922 80.6124C110.922 82.2015 109.768 84.6383 109.768 87.2091V99H105V85.6113C105 83.0405 106.152 79.6161 108.152 78.027C110.664 76.0257 114.262 72.5285 117.36 67.1086C120.6 61.4338 122.232 54.9682 122.232 48.4209V38.2818C122.232 35.7255 120.718 33.462 118.521 32.4963C119.319 32.1468 120.209 31.9705 121.142 32.004C124.435 32.122 127 34.955 127 38.2818Z" fill="#FFBD86"/>
<path d="M70 111H115V101.141C115 99.9584 114.03 99 112.833 99H72.1675C70.9703 99 70 99.9584 70 101.141V111Z" fill="#FFC143"/>
<path d="M115 111H109V99H112.894C114.057 99 115 99.9584 115 101.141V111Z" fill="#FFB509"/>
<path d="M16.8373 63C13.6138 63 11 65.4663 11 68.5064V93.7284C11 94.9817 12.0777 96 13.4074 96C14.7371 96 15.8148 94.9832 15.8148 93.7284V68.3518C15.8148 66.5367 16.497 64.7825 17.74 63.3969L18 63.11C17.5967 63.0178 16.8373 63 16.8373 63Z" fill="#FFBD86"/>
<path d="M103 5.36657V36.4811C103 37.1762 102.721 37.806 102.268 38.2626C101.814 38.7193 101.187 39 100.495 39C99.1093 39 97.9866 37.8714 97.9866 36.4811V7.25433C97.9866 5.41602 97.3485 1.75104 96.1765 0.337411L96 0.0581742C96.2749 0.0189066 96.5542 0 96.8406 0H97.0244C100.118 0 102.664 2.34588 103 5.36657Z" fill="#FFBD86"/>
<path d="M90 36.3827C90 37.1083 89.7012 37.7597 89.215 38.2323C88.7333 38.7077 88.0613 39 87.3239 39C85.8446 39 84.6478 37.8295 84.6478 36.3827V11.3181C84.6478 8.97424 83.8747 6.68705 82.443 4.79826L82 4.21083C82.5174 4.0727 83.0585 4 83.6205 4H83.8093C87.2228 4 89.9881 6.71031 89.9881 10.0444L90 36.3827Z" fill="#FFBD86"/>
<path d="M78 23.1387V42.3752C78 43.1 77.7094 43.7576 77.2367 44.2315C76.7683 44.7084 76.1193 45 75.3979 45C73.9595 45 72.7958 43.8261 72.7958 42.3752V25.7212C72.7958 23.3691 72.0441 21.0753 70.6549 19.1826L70 18.2887C70.5754 18.1006 71.1941 18 71.8301 18H72.06C75.0654 18 77.5576 20.2296 78 23.1387Z" fill="#FFBD86"/>
<path d="M115 39.8715V42.7041C115 43.9734 113.993 45.0044 112.752 45C112.136 45 111.57 44.7455 111.166 44.3288C110.759 43.912 110.508 43.3417 110.508 42.7041V13.64C110.508 11.9642 109.975 10.3395 109 9H109.023C110.662 9 112.147 9.67999 113.221 10.7797C114.295 11.8794 114.959 13.4002 114.959 15.079V40.5939C114.959 40.3497 114.973 40.107 115 39.8715Z" fill="#FFBD86"/>
<path d="M70 113H115V101.214C115 99.9912 114.03 99 112.833 99H72.1675C70.9703 99 70 99.9912 70 101.214V113Z" fill="#FFC143"/>
<path d="M115 111H109V99H112.894C114.057 99 115 99.9584 115 101.141V111Z" fill="#FFB509"/>
<path d="M170 38.9606V69.4459C170 70.1497 169.726 70.7886 169.281 71.2519C168.836 71.7152 168.222 72 167.545 72C166.187 72 165.085 70.855 165.085 69.4459V39.7943C165.085 38.3453 164.708 35.7795 164 34.0339C164.199 34.0118 164.4 34 164.607 34H164.767C167.503 34 169.756 36.1793 170 38.9606Z" fill="#FFBD86"/>
<path d="M159 68.3743C159 69.1022 158.709 69.7557 158.237 70.2298C157.767 70.7068 157.115 71 156.398 71C154.96 71 153.797 69.8257 153.797 68.3743V43.2302C153.797 41.0815 153.171 38.9824 152 37.1926C152.45 37.0656 152.922 37 153.415 37H153.578C156.536 37 158.935 39.4215 158.935 42.406L159 68.3743Z" fill="#FFBD86"/>
<path d="M148 54.1092V73.358C148 74.0864 147.716 74.7488 147.253 75.2261C146.793 75.7063 146.158 76 145.454 76C144.047 76 142.908 74.8178 142.908 73.358V55.5617C142.908 53.3059 142.239 51.1001 141 49.2482C141.496 49.0852 142.023 49 142.571 49H142.769C145.554 49 147.836 51.2602 148 54.1092Z" fill="#FFBD86"/>
<path d="M181 73.7298C181 74.9849 179.923 76.0043 178.593 76C177.93 76 177.326 75.7484 176.893 75.3363C176.457 74.9242 176.186 74.3588 176.186 73.7298V44.988C176.186 43.5753 175.774 42.2016 175 41.0072C175.089 41.0043 175.178 41 175.266 41C176.829 41 178.25 41.5986 179.277 42.5689C180.302 43.5377 180.936 44.8767 180.936 46.3574L181 73.7298Z" fill="#FFBD86"/>
<path d="M119 192H67V112.513C67 111.678 67.6803 111 68.5182 111H115.673C117.51 111 119 112.485 119 114.316V192Z" fill="#60B8FF"/>
<path d="M119 114.317V192H111.389V114.317C111.389 112.488 109.872 111 108 111H115.609C117.483 111 119 112.488 119 114.317Z" fill="#22A7FF"/>
</svg>
