<svg width="150" height="133" viewBox="0 0 150 133" fill="none" xmlns="http://www.w3.org/2000/svg">
<g clip-path="url(#clip0)">
<path d="M86.539 17.3076C51.5468 17.3076 23.0781 45.7766 23.0781 80.769C23.0781 83.9557 25.6612 86.5382 28.8473 86.5382V121.154C25.6612 121.154 23.0781 123.737 23.0781 126.923C23.0781 130.109 25.6612 132.692 28.8473 132.692H144.232C147.418 132.692 150.001 130.109 150.001 126.923V80.769C150.001 45.7766 121.532 17.3076 86.539 17.3076Z" fill="#DBE2EB"/>
<path d="M63.4624 75H28.8473C25.6612 75 23.0781 77.5831 23.0781 80.7691V126.923C23.0781 130.109 25.6612 132.692 28.8473 132.692H79.0366H86.5396H92.3087V126.923V119.42V103.847C92.3087 87.9407 79.3683 75 63.4624 75Z" fill="#0070BA"/>
<path d="M28.8464 80.769C16.1014 80.769 5.76953 91.1018 5.76953 103.847V132.692H51.9232V103.847C51.9232 91.1018 41.5911 80.769 28.8464 80.769Z" fill="#004573"/>
<path d="M92.3066 17.5728V132.692H144.23C147.416 132.692 149.999 130.11 149.999 126.923V80.7693C149.999 47.7219 124.606 20.4983 92.3066 17.5728Z" fill="#0070BA"/>
<path d="M28.8463 75C12.9404 75 0 87.9407 0 103.847V126.923C0 130.11 2.58311 132.692 5.76914 132.692H11.5383V103.847C11.5383 94.3034 19.3025 86.5383 28.846 86.5383C38.3895 86.5383 46.1537 94.3034 46.1537 103.847V132.692H51.9229C55.1089 132.692 57.692 130.109 57.692 126.923V103.847C57.6923 87.9407 44.7519 75 28.8463 75Z" fill="#DBE2EB"/>
</g>
<defs>
<clipPath id="clip0">
<rect width="150" height="133" fill="white"/>
</clipPath>
</defs>
</svg>
