<svg width="230" height="229" viewBox="0 0 230 229" fill="none" xmlns="http://www.w3.org/2000/svg">
<path d="M152.794 109.569C153.108 111.765 153.108 113.647 152.48 115.843C151.852 118.039 147.772 124 145.575 124C143.378 123.686 141.495 117.725 142.122 115.843C142.75 113.647 147.144 108 147.144 108L152.794 109.569Z" fill="#FBF3F1"/>
<path d="M149.763 118.828C154.304 132.322 159.818 150.313 161.439 163.806C163.061 177.3 161.764 185.974 149.439 187.58C137.114 189.508 121.545 184.368 117.977 180.834C114.41 177.3 109.545 157.059 113.437 152.24C117.329 147.421 146.195 114.009 147.817 113.045C149.439 112.403 149.763 118.828 149.763 118.828Z" fill="#0070BA"/>
<path d="M156.679 142C151.226 143.103 145.453 143.93 140 143.93C145.774 144.205 151.226 143.654 157 142.551C156.679 142.551 156.679 142.276 156.679 142Z" fill="#032A42"/>
<path d="M131.546 153.828C128.67 151.203 125.794 148.578 123.557 145.625C122.918 144.641 122.278 143.984 121.639 143C121.32 143.328 121 143.656 121 143.984C121.639 144.641 122.278 145.625 122.917 146.281C125.474 149.234 128.351 151.859 131.227 154.484C137.299 159.406 144.33 163.016 152 164C144.33 163.016 137.299 159.078 131.546 153.828Z" fill="#032A42"/>
<path d="M117.633 148.628C119.217 150.581 121.117 152.535 123.017 154.163C126.817 157.419 131.567 159.698 136 161C131.567 159.047 127.133 156.767 123.333 153.512C121.433 151.884 119.85 149.93 118.583 147.977C118.267 147.651 118.267 147.326 117.95 147C117.633 147.326 117.317 147.651 117 147.977C117.317 147.977 117.317 148.302 117.633 148.628Z" fill="#032A42"/>
<path d="M114 170C114 170.328 114.325 170.983 114.325 171.311C116.922 171.967 119.195 172.622 121.792 173.278C127.312 174.589 133.156 175.244 139 174.916C133.156 174.916 127.636 173.933 122.117 172.622C119.195 171.639 116.597 170.983 114 170Z" fill="#032A42"/>
<path d="M162 174.947C162 174.632 162 174.316 162 174C157.102 176.526 151.551 178.737 146 180C151.551 179.368 157.102 177.474 162 174.947Z" fill="#032A42"/>
<path d="M161 169.615C161 169.308 161 169.308 161 169C157.543 170.846 153.771 172.077 150 173C153.771 172.692 157.543 171.154 161 169.615Z" fill="#032A42"/>
<path d="M159.72 40C153 43.5531 152.68 61.9646 149.48 87.1593C147.88 102.018 145 110.093 145 110.093L155.88 113C155.88 113 160.68 89.7433 161 77.792C161 65.5177 159.72 40 159.72 40Z" fill="#3FB2AC"/>
<path d="M202.13 70C203.114 72.9055 205.081 82.2677 206.393 88.4016C207.377 94.8583 210 105.512 210 105.512L204.753 111C204.753 111 196.228 82.9134 194.26 76.7795C192.293 70.9685 202.13 70 202.13 70Z" fill="#FBF3F1"/>
<path d="M73 219.875C76.52 217.865 84.52 216.191 85.16 216.191C85.8 216.191 89 213.511 95.72 216.191C102.44 218.87 105 217.53 105 217.53C105 217.53 100.2 220.21 98.6 222.219C97 224.229 94.44 226.238 90.28 225.903C86.44 225.568 81 226.238 79.4 225.903C77.8 225.568 73 219.875 73 219.875Z" fill="#EA6425"/>
<path d="M56.7638 141.393C58.7094 146.214 62.2764 154.571 61.9521 157.464C61.6279 160.357 61.6279 173.536 61.9521 174.821C62.2764 176.428 56.7637 183.821 55.7909 189.607C55.1424 195.392 52.2239 195.714 53.1967 201.178C54.4938 206.642 60.3308 207.928 69.7348 209.535C79.1388 211.142 81.733 212.107 87.8943 211.785C94.0555 211.464 117.403 214.357 119.025 205.678C120.97 197 122.268 185.428 119.025 180.928C115.782 176.107 114.809 165.5 113.188 162.286C111.242 159.071 104.757 141.071 105.405 134L56.7638 141.393Z" fill="#EA6425"/>
<path d="M47.996 46.4449C53.83 48.0519 58.0435 51.9087 58.0435 63.4789C58.3676 74.7277 59.664 91.4402 59.664 93.0471C59.664 94.9755 66.1462 103.332 68.7391 107.831C71.332 112.331 74.5731 116.509 77.4901 120.044C80.4071 123.58 83 123.58 83 128.079C83 132.579 76.1936 135.793 75.2213 134.828C74.249 133.864 71.0079 126.472 68.0909 122.294C65.1739 118.116 51.5613 106.224 50.5889 103.01C49.6166 99.7964 45.7273 75.3704 45.7273 75.3704C45.7273 75.3704 40.5415 86.9406 40.2174 88.869C40.2174 90.7974 40.2174 107.51 40.2174 107.51C40.2174 107.51 20.1225 110.081 1 101.725C1 101.725 10.3992 84.0481 12.0197 74.4062C13.9644 64.443 29.1976 44.838 31.7905 43.231C35.0316 41.9454 47.996 46.4449 47.996 46.4449Z" fill="#FBF3F1"/>
<path d="M74.0924 130.068C69.1937 131.01 62.3356 132.265 61.0293 134.148C59.3964 136.03 50.5788 142.62 61.0293 142.934C71.4797 143.248 72.786 142.306 79.3176 142.934C85.8491 143.562 89.4415 139.482 96.9528 139.482C104.464 139.482 108.056 133.52 104.791 133.206C101.851 132.579 94.9933 126.617 74.0924 130.068Z" fill="#454545"/>
<path d="M0.882051 215.639C0.560475 218.278 -0.725849 222.236 0.560456 223.886C1.84676 225.535 9.56458 225.205 12.4588 225.535C15.3529 226.195 27.2513 226.525 27.8944 223.886C28.8592 218.608 23.0708 218.938 16.3177 216.299L8.27826 213L0.882051 215.639Z" fill="#073B5B"/>
<path d="M39 211.646C39.3217 214.639 38.6783 218.298 41.5737 217.965C44.4692 217.633 49.6166 217.965 51.2252 217.965C52.8338 217.965 65.059 220.293 66.9893 217.965C69.2413 215.637 70.5281 211.978 65.7024 210.98C60.8767 209.983 53.4772 208.652 51.8686 202L39 211.646Z" fill="#073B5B"/>
<path d="M59 33C59 33 57.6923 36.5506 58.0192 37.8418C58.0192 39.4557 58.6731 39.7785 57.3654 41.7152C56.3846 43.0063 57.3654 44.2975 57.6923 45.5886C58.0193 46.557 57.3654 48.8165 56.3846 50.7532C55.7308 52.0443 55.0769 54.6266 55.0769 55.9177C55.0769 57.5316 55.7308 59.4683 53.4423 61.405C51.1539 63.019 53.4423 68.1836 51.1539 69.1519C48.8654 70.4431 48.8654 73.0253 48.8654 74.3164C48.8654 75.6076 46.5769 75.6076 45.9231 78.1899C45.5961 80.1266 46.25 80.4494 42 84L46.9038 66.8924L54.0962 49.1393L55.7308 42.6836L56.3846 36.8734L59 33Z" fill="#424242"/>
<path d="M53.2087 37C53.2087 37 55.7347 40.2237 54.7875 47.9606C54.4717 51.5066 52.893 57.3092 50.6827 62.4671C49.104 66.6579 45.6308 70.5263 45.6308 74.3948C45.315 82.454 39 86 39 86C39 86 42.4733 84.0658 42.4733 78.9079C42.4733 76.9737 41.526 73.75 43.4205 69.2368C45.315 64.7237 48.1567 60.5329 48.1567 57.3092C47.841 54.0855 47.841 51.5066 49.104 48.9276C50.367 46.3487 51.3142 39.2566 50.6827 38.6118C50.0512 37.6447 51.63 37.9671 51.63 37.9671L53.2087 37Z" fill="#424242"/>
<path d="M34.9358 34C34.9358 34 30.8855 36.2771 28.5229 44.0844C27.5103 47.6627 26.1602 53.8434 26.1602 60.0241C26.1602 64.9036 27.5103 70.1084 26.1602 74.012C22.785 82.1446 27.8479 88 27.8479 88C27.8479 88 26.1602 84.4217 28.5229 79.5422C29.1979 77.9156 31.8981 74.988 31.8981 70.1084C31.8981 64.9036 30.2105 59.3735 31.5606 56.1205C33.2482 53.1928 34.5983 50.5903 34.2608 47.6626C33.9232 44.7349 35.9484 37.9036 36.6234 37.253C37.636 36.6024 36.2859 35.6265 36.2859 35.6265L34.9358 34Z" fill="#424242"/>
<path d="M34 23C33.0643 27.1809 33.0643 30.397 30.5691 33.2915C28.0738 36.1859 23.3953 39.0804 24.9549 45.5126C26.2025 51.9447 27.4501 50.9799 24.6429 53.8744C22.1477 56.4472 19.9644 59.6633 21.5239 63.201C23.3953 67.0603 24.6429 68.99 22.7715 71.2412C20.9001 73.8141 21.212 76.387 23.0834 79.2814C24.9548 82.1759 22.4596 84.1055 26.8262 87C26.8262 87 24.0192 83.7839 26.5144 77.0302C29.0096 70.2764 27.1382 61.2713 27.1382 61.2713L30.881 45.5126L33.6881 33.6131L34 23Z" fill="#424242"/>
<path d="M38 39.5341C38 39.5341 36.6504 43.7443 34.9635 46.3352C33.2765 48.9261 34.6261 51.1931 34.6261 53.4602C34.9635 55.7272 33.9513 56.3749 32.6017 58.3181C31.2522 60.2613 32.9391 62.5283 32.6017 64.1476C32.2643 65.767 31.5896 66.0908 31.5896 67.0624C31.5896 68.034 31.9269 72.8919 29.5652 74.8351C27.2034 76.7783 28.2156 60.909 28.2156 60.909L30.24 48.9261C30.24 48.9261 30.24 37.9147 31.2521 37.9147C31.9269 37.5909 35.9757 35 35.9757 35L38 39.5341Z" fill="#424242"/>
<path d="M55.4217 56.6207C53.7995 60.2242 49.9062 61.8621 46.3373 60.5518C42.7684 58.9138 41.1461 54.9828 42.4439 51.3793C44.0661 47.7758 47.9595 46.1379 51.5284 47.4482C55.0972 48.7586 57.0439 53.0172 55.4217 56.6207Z" fill="#424242"/>
<path d="M56.8199 70.64C57.8006 66.48 54.5319 66.16 52.8975 64.88C51.2632 63.6 48.3214 59.44 46.687 57.52C45.0527 55.6 47.9945 49.84 47.9945 49.84L43.4183 47.92L38.8421 46C38.8421 46 36.554 52.08 34.2659 52.4C31.651 52.72 27.4017 53.04 25.1136 53.04C22.8255 52.72 19.8836 51.44 17.5955 54.96C15.9612 57.84 14 62 14 62L34.2659 70L54.5319 78C54.5319 78 56.1662 73.84 56.8199 70.64Z" fill="#FBF3F1"/>
<path d="M43.4043 53C43.0851 50.3333 45 46.3333 45 46.3333L36.7022 39C36.7022 39 36.7022 41 35.1064 42.6667C33.1915 44.3334 30.9574 44.3334 30 45.3334C33.1915 46.6667 39.8936 51.3333 43.4043 53Z" fill="#FBF3F1"/>
<path d="M48.4207 61.748C47.1191 60.7763 46.4683 58.509 45.4921 56.2416C39.6349 53.6503 33.7778 51.3829 27.9206 48.4678C25.9683 48.4678 24.0159 48.4678 22.7143 48.4678C20.4365 48.1439 16.8571 46.8482 14.5793 50.7351C12.9524 53.6503 11 57.8611 11 57.8611L38.3333 69.1979C38.9841 70.1697 39.6349 71.1414 40.9365 72.1131C42.2381 73.4087 44.5159 74.0565 46.7937 76L52 63.3676C51.6746 62.0719 49.3969 62.3959 48.4207 61.748Z" fill="#FBF3F1"/>
<path d="M55.9196 37.1644C56.222 38.0825 55.6171 39.0006 55.0122 39.3066L53.1975 39.9186C52.2902 40.2246 51.3829 39.6126 51.0804 39.0005C50.778 38.0825 51.3829 37.1644 51.9878 36.8584L53.8024 36.2464C54.7097 35.6343 55.6171 36.2463 55.9196 37.1644Z" fill="#424242"/>
<path d="M36.9412 36C36.9412 37.5493 36.9412 40.338 35 41.8873C35.6471 42.1972 36.9412 43.1268 37.5882 43.7465C42.1176 47.4648 46 46.8451 46 46.8451C46 46.8451 46 47.4648 45.3529 46.2254L36.9412 36Z" fill="#E1DCDB"/>
<path d="M62 156C62 156.355 62 156.711 62 157.066C63.3125 157.422 64.2969 157.777 65.6094 158.132C71.1875 159.554 77.0938 160.265 83 159.909C77.0938 159.909 71.5157 158.843 65.9375 157.422C64.625 157.066 63.3125 156.711 62 156Z" fill="#454545"/>
<path d="M1.92859 102C1.95418e-05 105.541 1.96136e-05 110.048 0.321448 114.234C0.642877 118.419 1.9286 136.769 2.89289 145.783C3.85717 154.798 2.57146 179.265 1.28574 190.533C0.321458 201.801 0 215 0 215C0 215 9.64287 213.712 15.4286 215C15.4286 215 19.9286 164.456 20.5715 158.339C21.2143 152.544 21.2143 118.741 21.2143 118.741C21.2143 118.741 27 138.701 28.9286 151.9C30.8571 165.1 37.9286 209.849 37.9286 209.849C37.9286 209.849 49.1786 210.815 54 205.02C54 205.02 48.2143 179.265 47.25 167.353C46.2857 155.764 43.0714 138.701 42.1072 132.906C41.4643 127.111 36.6429 104.254 36.6429 104.254L1.92859 102Z" fill="#424242"/>
<path d="M68.5004 109.319C65.9124 104.769 59.4423 96.3202 59.4423 94.3703C59.4423 92.4205 57.8248 75.8471 57.8248 64.4731C57.5013 53.0992 53.2958 49.1995 47.7962 47.2497C47.7962 47.2497 47.4727 47.2497 46.8257 46.9247C46.1787 46.9247 45.5317 46.9247 45.2082 47.2497C40.3556 49.1995 34.209 45.2999 32.5915 44H32.268C29.3565 45.6248 14.1518 65.448 12.5342 75.1971C10.5932 85.2712 0 102.914 0 102.914C19.0867 111.363 40.6791 109.177 40.6791 109.177C40.6791 109.177 40.6791 92.0955 40.6791 89.8207C40.6791 87.8709 45.4992 78.806 45.4992 78.806C45.4992 78.806 49.5286 101.674 50.4991 104.923C51.1461 107.523 60.1462 116.476 64.9988 122C67.5868 116.151 74 115.818 74 115.818C71.412 114.193 69.7945 111.594 68.5004 109.319Z" fill="#3AB4AA"/>
<path d="M52.0123 108.291L88 218.677C88 219 88 219 87.6787 219C87.3573 219 87.3573 219 87.3573 218.677L49.1205 108.937C48.7992 108.291 49.1205 107.323 50.0845 107C50.7271 107 51.691 107.646 52.0123 108.291Z" fill="#AEAFB0"/>
<path d="M55.9175 120.217C56.2347 120.875 55.6002 121.534 54.6485 121.864C53.6967 122.193 52.7449 121.864 52.7449 121.534L46.0825 100.783C45.7653 100.125 46.3998 99.4658 47.3515 99.1364C48.3033 98.8071 49.2551 99.1364 49.2551 99.4658L55.9175 120.217Z" fill="#073B5B"/>
<path d="M77 186.884C77 187.211 76.7 187.538 76.1 187.865C75.5 188.191 74.9 187.865 74.9 187.538L71 175.116C71 174.789 71.3 174.462 71.9 174.135C72.5 173.809 73.1 174.135 73.1 174.462L77 186.884Z" fill="#073B5B"/>
<path d="M81.3041 216C79.0448 216 78.0765 215.077 78.0765 214.462C77.431 212.308 80.9814 210.154 84.5317 208.923C86.4683 208.308 88.4048 208 89.6959 208C91.9552 208 92.9235 208.923 92.9235 209.538C93.569 211.692 90.0186 213.846 86.4683 215.077C84.5317 215.692 82.9179 216 81.3041 216ZM89.6959 209.538C88.4048 209.538 86.791 209.846 84.8545 210.462C80.9814 211.692 79.0448 213.538 79.3675 213.846C79.3675 213.846 80.0131 214.154 81.3041 214.154C82.5952 214.154 84.209 213.846 86.1455 213.231C90.0186 212 91.9552 210.154 91.6324 209.846C91.6324 209.846 90.9869 209.538 89.6959 209.538Z" fill="#AEAFB0"/>
<path d="M2 99.1399C21.5 101.399 25.4 98.4945 25.4 98.4945L28 91.073L15.65 87.8462L22.475 65.2588L16.625 63C14.025 67.1948 12.075 71.3896 11.425 74.6164C10.45 81.7153 4.925 93.6544 2 99.1399Z" fill="#3FB2AC"/>
<path d="M30.956 44C26.4568 44.6456 13.9234 45.6141 8.78145 58.2042C3.96091 70.7943 -2.14511 94.6833 0.747212 97.2659C3.63954 99.5256 33.8483 98.88 35.4551 99.8485C37.062 100.817 41.2398 104.368 45.739 102.431C50.2381 100.494 52.4877 98.88 49.9168 96.2974C47.3458 93.7148 46.3817 91.7779 44.4535 91.455C42.5253 90.8094 36.4193 92.1007 32.2414 92.1007C28.385 92.1007 14.5661 89.5181 11.9951 89.8409C11.9951 89.8409 19.708 73.3769 20.9935 68.2118C22.279 63.0466 33.8483 56.2673 33.8483 56.2673L30.956 44Z" fill="#FBF3F1"/>
<path d="M57.9848 36C57.9848 36 60.624 32.1786 60.9539 28.6756C61.2838 24.8542 59.9642 19.4404 53.0364 17.2112C46.4385 14.6636 57.9848 36 57.9848 36Z" fill="#424242"/>
<path d="M35.65 78L35 77.6804C35.325 76.4021 45.725 48.9175 47.35 47L48 47.6392C46.7 49.2371 38.575 70.0103 35.65 78Z" fill="#424242"/>
<path d="M58 28.8334C58 23.018 56.38 16.8795 48.6039 15.2641C40.1799 13.6488 34.6718 19.7872 33.6998 24.3103C32.7278 28.8334 33.0518 31.7411 33.0518 32.7103C33.0518 33.6795 35.3198 38.8488 36.9399 37.8795C39.2079 36.5872 58 28.8334 58 28.8334Z" fill="#424242"/>
<path d="M37.028 35.0128C37.3496 36.6424 37.028 38.924 38.9577 41.8573C41.209 44.4648 44.4252 48.3759 46.0333 48.7018C47.3197 49.0277 48.2846 49.6796 51.1792 46.7463C54.0738 43.8129 56.0034 42.5092 56.9683 39.2499C57.9331 35.6647 60.8277 29.1461 57.2899 25.2349C54.717 22.6275 49.2494 22.3016 45.7116 24.2571C42.1738 26.5387 41.8523 27.5164 39.9225 31.7535C39.9225 31.7535 38.3144 28.1683 37.6712 27.8424C36.7063 27.5165 35.7415 27.8424 36.0631 29.798C36.0631 31.7535 36.7063 31.7535 36.3847 32.7313C36.0631 33.7091 36.0631 34.6869 36.3847 35.3388C36.7063 35.6647 37.028 35.0128 37.028 35.0128Z" fill="#FBF3F1"/>
<path d="M55 23.5581C55 23.5581 44.8654 23.5581 39.3077 33L38 23.2326L46.1731 19L55 23.5581Z" fill="#424242"/>
<path d="M53 24C53 24 58.0439 28.3333 58.6744 33C58.6744 33 60.2505 24.6667 56.4676 20L53 24Z" fill="#424242"/>
<path d="M28.1227 90.9023C22.5555 90.255 14.6958 88.9603 12.7308 88.9603C12.7308 88.9603 20.5906 72.4535 21.9005 67.2748C23.2105 62.0962 35 55.2993 35 55.2993L32.3801 43C27.7953 43.6473 14.572 44.3571 9.33215 56.98C4.41984 69.6029 -2.21981 93.9095 0.72758 96.4988C2.24594 98.4998 16.5377 98.6763 26.0348 99C25.3799 93.4977 28.1227 90.9023 28.1227 90.9023Z" fill="#3AB4AA"/>
<path d="M33.8906 78C33.8906 77.6731 31.6718 51.1923 32.0416 44H33.151C33.151 50.8654 35 77.6731 35 78H33.8906Z" fill="#424242"/>
<path d="M28.9973 76.0624L28 84L39.9072 85.4897L40.9045 77.5521L28.9973 76.0624Z" fill="white"/>
<path d="M72 126.918C73.2646 127.877 74.5293 129.796 76.11 131.394C77.6908 132.993 80.2201 134.271 78.3231 130.755C76.4262 127.238 75.4777 125 75.4777 125L72 126.918Z" fill="#FBF3F1"/>
<path d="M109.077 165.575C110.385 163.932 111.692 162.288 113 160.644C112.673 160.315 112.673 159.658 112.346 159C111.038 160.973 109.731 162.945 108.096 164.589C105.481 167.548 102.865 170.507 99.9231 172.808C94.0385 177.74 86.8462 181.685 79 183C86.8462 182.014 94.0385 178.397 100.25 173.466C103.519 171.493 106.462 168.534 109.077 165.575Z" fill="#454545"/>
<path d="M114.672 165C114.344 166 113.689 166.667 113.033 167.667C111.721 169.667 109.754 171.667 108.115 173.333C104.18 176.667 99.918 179.333 95 181C99.918 179.333 104.508 177 108.443 174C110.41 172.333 112.377 170.667 114.016 168.333C114.344 167.667 114.672 167.333 115 166.667C114.672 166.333 114.672 165.667 114.672 165Z" fill="#454545"/>
<path d="M121 190.246C121 189.935 121 189.312 121 189C117.46 190.558 113.598 191.804 109.736 192.739C104.264 193.986 98.4713 194.921 93 194.921C98.7931 195.232 104.586 194.609 110.057 193.363C113.598 192.428 117.138 191.493 121 190.246Z" fill="#454545"/>
<path d="M63.3768 189.667C61.1449 188.667 59.2319 187.333 57.3189 186C57.3189 186.333 57 186.667 57 187C58.913 188.333 61.145 189.333 63.058 190.333C68.1594 193 73.5797 195 79 196C73.5797 194.667 68.4782 192.333 63.3768 189.667Z" fill="#454545"/>
<path d="M62.6667 184C61.6667 183.333 60.3334 182.667 59.3334 182C59.3334 182.333 59 182.333 59 182.667C60 183.333 61.3333 184 62.3333 184.333C66.6667 186.333 71 188 76 189C71 188 66.6667 186 62.6667 184Z" fill="#454545"/>
<path d="M180.2 25.9807C180.826 27.9614 187.087 29.2818 185.835 35.8841C184.583 42.4864 174.878 36.5443 174.878 36.5443L173 26.6409L176.13 24L180.2 25.9807Z" fill="#AB6537"/>
<path d="M164.796 25C166.352 27.8235 166.664 30.9608 165.73 32.8431C165.107 34.7255 161.684 36.9216 163.551 39.7451C165.419 42.5686 176 39.7451 176 39.7451L164.796 25Z" fill="#AB6537"/>
<path d="M166.38 27.8451C167.352 32.0443 168.972 37.8584 165.083 38.1814C161.519 38.5044 156.334 39.4734 156.009 46.2566C155.685 52.7168 163.787 63.6991 163.139 71.7743C162.491 79.8496 157.306 96 157.306 96L188.741 95.031C188.741 95.031 185.5 80.8186 186.796 74.3584C188.093 67.8982 188.741 59.823 188.741 59.823C188.741 59.823 191.333 66.9292 192.306 71.1283C193.278 75.3274 197.167 84.0487 197.167 84.0487L203 73.3894C203 73.3894 200.083 65.9602 200.083 59.5C200.083 49.4867 196.194 42.7035 192.63 39.7965C187.444 35.9204 177.722 35.5974 177.722 34.3053C177.398 33.3363 176.102 23 176.102 23L166.38 27.8451Z" fill="#FBF3F1"/>
<path d="M158.32 18C158.32 18 154.979 14.4034 156.315 10.1528C157.318 6.88314 159.322 0.670749 165 0.0168149C172.015 -0.637119 158.32 18 158.32 18Z" fill="#AB6537"/>
<path d="M158.133 19.9054C157.794 20.7987 158.133 21.6921 158.809 21.9899L160.5 22.8832C161.515 23.181 162.529 22.8832 162.867 22.2876C163.206 21.3943 162.867 20.501 162.191 20.2032L160.5 19.3098C159.824 18.7143 158.809 19.0121 158.133 19.9054Z" fill="#424242"/>
<path d="M158 11.2131C158.97 5.60655 161.558 0 169.321 0C177.407 0 181.611 6.92573 181.935 11.2131C182.258 15.8302 181.288 18.4686 180.965 19.458C180.641 20.4473 177.083 22.7559 176.113 25.724C175.466 28.3624 158 11.2131 158 11.2131Z" fill="#AB6537"/>
<path d="M176.686 21C176.371 22.6667 176.686 25 177 27.3334C176.371 27.6667 175.429 28.3334 174.8 29C170.086 32 166 32 166 32C166 32 166.629 31.3334 167.257 30L176.686 21Z" fill="#E1DCDB"/>
<path d="M176.919 21.0182C176.254 22.6807 175.921 24.6758 173.592 27.0033C170.93 28.9983 166.605 31.9908 165.274 31.9908C163.943 31.9908 162.945 32.3233 160.949 28.9983C158.952 25.6733 157.289 24.0107 157.289 20.3532C157.289 17.0282 155.625 9.71322 160.283 7.05322C163.61 5.05822 168.601 6.05572 171.596 8.71572C174.257 11.7082 174.59 12.7057 175.255 17.0282C175.255 17.0282 177.584 14.0357 178.583 13.7032C179.581 13.7032 180.246 14.0357 179.913 16.0307C179.248 18.0257 178.915 17.6932 178.915 18.6907C178.915 19.6882 178.583 20.6857 178.25 21.0182C176.919 21.6832 176.919 21.0182 176.919 21.0182Z" fill="#FBF3F1"/>
<path d="M162 6.86362C162 6.86362 167.551 16.4091 175.061 18L178 9.09089L170.816 4L162 6.86362Z" fill="#AB6537"/>
<path d="M164 7.08572C164 7.08572 160.519 12.4286 157.039 14C157.039 14 156.342 6.45714 160.867 3L164 7.08572Z" fill="#AB6537"/>
<path d="M161 39C161 39 154.708 40.9535 154.393 50.3953C153.764 59.5116 154.079 67 154.079 67H158.169L161 39Z" fill="#3FB2AC"/>
<path d="M172 0C173.349 0.658537 181.103 2.9634 182.789 12.8414C183.463 16.1341 182.452 21.0732 180.766 26.3415L176.383 27C176.383 27 176.046 23.7073 176.046 22.061C176.046 22.061 180.766 20.0854 180.429 14.1586C180.092 8.23172 174.697 5.26831 174.697 5.26831L172 0Z" fill="#AB6537"/>
<path d="M198.206 209C199.758 213.621 205.343 225.832 199.137 227.812C192 230.123 192 210.32 192 210.32L198.206 209Z" fill="#073B5B"/>
<path d="M189.485 143.753C189.813 148.939 189.485 152.829 192.441 158.989C195.398 165.148 196.055 170.983 196.055 181.032C196.055 191.082 197.698 203.076 198.027 205.345C198.355 207.614 202.298 218.636 198.027 218.96C193.756 219.609 192.77 212.153 192.113 206.642C191.456 201.131 187.185 188.812 184.228 179.736C181.6 171.956 180.285 162.555 180.285 159.637C180.614 155.747 177 135 177 135L189.485 143.753Z" fill="#FBF3F1"/>
<path d="M169.087 210C169.087 210 173.172 230.513 164.06 228.911C157.776 227.629 163.117 210 163.117 210H169.087Z" fill="#073B5B"/>
<path d="M170.695 145.212C170.058 147.156 169.421 150.396 169.74 152.34C170.058 153.96 172.287 160.44 171.969 166.272C171.65 172.104 170.058 188.952 169.74 195.756C169.103 202.56 169.103 205.8 169.74 209.688C170.377 213.576 169.103 222 166.236 222C163.051 222 162.733 215.196 163.688 209.688C164.962 204.18 163.688 198.348 163.051 194.784C162.414 191.22 159.866 167.568 159.548 164.328C159.229 159.144 160.185 154.932 159.866 152.34C159.548 149.748 157 141 157 141L170.695 145.212Z" fill="#FBF3F1"/>
<path d="M187.563 89.9026C189.809 96.3528 192.054 110.866 193.017 126.346C193.659 138.924 202 214.713 202 214.713C202 214.713 197.188 215.358 187.884 214.713C186.921 214.713 173.447 121.508 172.484 121.508C171.522 121.508 174.73 214.713 174.73 214.713C167.992 214.068 163.501 214.713 159.009 213.746C159.009 213.746 158.047 195.04 158.047 185.043C158.047 179.237 153.234 94.7402 158.368 87L187.563 89.9026Z" fill="#424242"/>
<path d="M201.718 106C201.718 106 208.119 103.421 211 101.164C211 101.164 198.518 44.7429 197.237 41.5189C195.957 38.6172 194.677 36.3604 186.356 35.0708C178.034 33.7811 180.274 50.5462 180.274 50.5462L188.276 56.9944L189.876 62.7977L201.718 106Z" fill="#3AB4AA"/>
<path d="M190.373 60.6125C190.373 60.6125 186.506 56.722 186.184 51.5347C185.862 47.3199 183.607 46.9957 186.506 35.3242L181.996 35C181.996 35 178.774 38.5663 172.008 39.8631C166.531 40.8358 162.988 38.2421 162.988 38.2421C162.988 38.2421 161.377 38.5663 161.054 38.5663C160.41 38.5663 159.444 39.2147 159.444 39.2147C159.444 39.2147 154.933 48.941 154.289 51.5347C153.322 54.7767 151.711 59.6399 156.544 64.503C156.544 64.503 154.933 97.5723 153 108.595C153 108.595 176.841 113.783 191.983 108.92C192.306 109.568 187.795 75.5261 190.373 60.6125Z" fill="#3AB4AA"/>
<path d="M175.615 67H175C175 65.7071 177.462 37.2626 178.385 35L179 35.3232C178.077 36.9394 176.231 58.596 175.615 67Z" fill="#424242"/>
<path d="M173.379 66C173.379 65.6818 166.241 45 165 38.3182L165.621 38C166.862 44.3636 173.69 65.3636 174 65.3636L173.379 66Z" fill="#424242"/>
<path d="M179 73H168V64H179V73Z" fill="white"/>
<path d="M207.621 115.295L224 226.676C224 227 224 227 223.672 227C223.345 227 223.345 227 223.345 226.676L205 115.619C205 114.648 205.328 114 206.31 114C206.638 114 207.621 114.324 207.621 115.295Z" fill="#AEAFB0"/>
<path d="M206.333 128.223C206.333 128.872 207.333 129.197 208.333 128.873C209.333 128.873 210 128.223 210 127.573L206.667 106.777C206.667 106.127 205.667 105.803 204.667 106.127C203.667 106.127 203 106.777 203 107.427L206.333 128.223Z" fill="#073B5B"/>
<path d="M216.846 194.527C216.846 194.861 217.462 195.196 218.077 194.861C218.692 194.861 219 194.527 219 194.192L217.154 181.473C217.154 181.139 216.538 180.804 215.923 181.139C215.308 181.139 215 181.473 215 181.808L216.846 194.527Z" fill="#073B5B"/>
<path d="M220.112 224C216.929 224 215.337 223 215.019 221.667C214.7 219.333 218.521 217.667 222.022 217.333C222.978 217.333 223.933 217 224.888 217C228.071 217 229.663 218 229.981 219.333C230.3 221.667 226.479 223.333 222.978 223.667C222.022 224 221.067 224 220.112 224ZM224.888 218.667C223.933 218.667 223.296 218.667 222.341 219C218.521 219.667 216.61 221 216.61 221.667C216.61 222 217.565 222.667 220.112 222.667C221.067 222.667 221.704 222.667 222.659 222.333C226.479 221.667 228.39 220.333 228.39 219.667C228.39 219.333 227.435 218.667 224.888 218.667Z" fill="#AEAFB0"/>
<path d="M209.294 105.031C210.94 105.031 214.893 118.355 211.928 119.688C208.964 121.353 206.329 116.023 206 111.693C206 107.03 206.329 104.698 209.294 105.031Z" fill="#FBF3F1"/>
<path d="M148 112C147.675 112.968 145.079 117.163 145.079 119.421C145.079 121.357 144.755 125.229 143.781 123.616C142.808 122.003 141.185 119.099 142.483 116.517C143.781 113.613 148 112 148 112Z" fill="#FBF3F1"/>
</svg>
