<svg width="329" height="329" viewBox="0 0 329 329" fill="none" xmlns="http://www.w3.org/2000/svg">
<path d="M325 169.013C324.996 202.175 314.688 234.517 295.502 261.565C276.316 288.613 249.2 309.032 217.904 319.998C186.607 330.964 152.677 331.936 120.805 322.778C88.9325 313.62 60.693 294.785 39.9914 268.878C17.3004 240.543 4.9566 205.314 5.00011 169.013C5.00011 167.514 5.02757 166.011 5.08248 164.506V164.481C5.48524 148.968 8.16313 133.599 13.0305 118.865C23.5473 86.8707 43.9062 59.0189 71.199 39.288C98.4918 19.557 131.322 8.9563 165 9.00018C171.235 8.99081 177.464 9.3561 183.655 10.0941C222.591 14.6717 258.492 33.3826 284.546 62.6765C310.601 91.9704 324.996 129.809 325 169.013Z" fill="#DBE2EB"/>
<path d="M325 169.026C324.996 202.185 314.688 234.524 295.501 261.57C276.315 288.616 249.199 309.034 217.902 319.999C186.606 330.964 152.675 331.935 120.802 322.778C88.9296 313.621 60.6898 294.788 39.9879 268.883C36.7912 264.894 33.7952 260.751 31 256.455C34.3048 259.35 37.7487 262.081 41.2955 264.678C62.2814 279.988 86.6795 289.961 112.382 293.734C138.085 297.506 164.32 294.966 188.822 286.331C213.323 277.697 235.354 263.229 253.011 244.175C270.669 225.122 283.422 202.057 290.17 176.973C291.097 173.504 291.918 170.009 292.6 166.457C293.475 162.115 294.157 157.707 294.621 153.265C295.303 147.354 295.641 141.408 295.632 135.458C295.632 132.67 295.55 129.911 295.413 127.152C294.006 98.9416 285.095 71.6175 269.6 48C287.006 62.9936 300.968 81.5699 310.529 102.458C320.091 123.346 325.027 146.053 325 169.026Z" fill="#CCD8DD"/>
<path d="M325 169.801C325.008 180.2 323.993 190.576 321.972 200.777C321.861 198.92 321.807 197.064 321.699 195.264C320.619 183.787 318.897 172.38 316.542 161.096C315.205 153.124 313.786 144.896 309.393 138.089C304.999 131.282 296.871 126.219 288.986 127.939C291.223 138.307 293.478 148.668 295.752 159.021C297.225 165.817 297.526 174.987 291.061 177.471C285.03 179.817 278.919 173.46 277.474 167.154C276.029 160.849 277.037 154.081 274.772 148.051C270.217 135.965 255.265 132.249 242.524 130.23C238.846 129.256 234.951 129.495 231.419 130.912C228.092 132.712 226.455 137.899 229.362 140.3C233.511 143.738 240.139 137.791 244.969 140.19C249.116 142.247 248.298 148.815 244.995 152.034C241.692 155.254 236.948 156.593 233.211 159.268C229.964 161.582 227.398 164.943 223.699 166.362C216.087 169.309 207.901 162.57 204.546 155.092C201.192 147.614 200.482 139.071 196.32 132.033C194.275 128.236 190.891 125.337 186.826 123.899C184.795 123.232 182.609 123.207 180.563 123.828C178.518 124.448 176.713 125.683 175.394 127.366C172.283 131.894 174.222 138.035 176.24 143.139C179.294 150.807 182.35 158.504 185.407 166.172C187.479 171.413 190.263 177.307 195.69 178.773C200.873 180.192 206.03 176.916 211.051 175.062C216.071 173.208 223.408 173.804 224.745 179.017C225.773 183.085 222.318 186.796 219.262 189.66C211.033 197.347 203.492 205.739 196.726 214.74C193.752 218.698 190.813 223.121 190.834 228.061C190.834 233.628 194.626 238.92 193.644 244.408C192.536 248.146 190.342 251.47 187.34 253.958L158.764 282.702C154.535 286.933 148.858 291.546 143.239 289.499C137.84 287.506 136.282 280.573 136.663 274.841C137.043 269.109 138.519 263.012 136.035 257.839C134.071 253.691 130.007 251.016 127.169 247.414C120.973 239.529 121.469 228.531 120.973 218.515C120.477 208.499 117.426 196.927 108.15 193.134C101.577 190.434 94.011 192.726 86.98 191.743C81.9501 190.754 77.1192 188.937 72.6839 186.366C67.7455 183.856 62.424 180.966 60.1874 175.887C58.1308 171.274 59.1591 165.925 60.1874 160.973C62.6425 149.321 65.1258 137.572 70.2005 126.805C74.5708 117.548 81.0852 108.959 90.1163 104.176C99.1474 99.3928 110.988 99.128 119.145 105.269C123.21 108.326 126.159 112.693 130.223 115.722C139.39 122.544 151.995 121.315 163.288 119.759C167.367 119.521 171.336 118.345 174.885 116.321C176.629 115.259 177.967 113.645 178.689 111.735C179.41 109.824 179.473 107.728 178.867 105.778C176.985 101.437 171.312 100.401 166.592 100.702C161.872 101.003 156.74 101.987 152.676 99.5831C144.547 94.723 146.249 79.906 137.344 76.7405C131.506 74.6833 125.747 79.3608 120.318 82.3078C114.888 85.2547 105.777 84.8433 105.122 78.7077C104.608 73.6315 110.742 70.6023 115.845 70.1651C120.948 69.728 126.84 70.0288 130.141 66.1536C134.696 60.8331 131.832 50.2437 138.352 47.7313C141.791 46.3942 145.447 48.5517 148.774 50.1331C152.1 51.7146 156.797 52.3986 158.815 49.3154C160.779 46.2579 158.378 42.164 159.224 38.6437C159.808 36.987 160.895 35.5544 162.333 34.5464C163.771 33.5384 165.489 33.0056 167.245 33.0223C170.749 33.1549 174.215 33.8083 177.528 34.9613C183.939 36.625 191.171 37.0339 196.762 33.4595C202.354 29.8851 204.811 21.232 200.228 16.4567C196.371 12.4195 189.944 12.8566 184.595 11.2726C184.326 11.1973 184.061 11.1062 183.803 11C222.701 15.5694 258.567 34.2649 284.595 63.5381C310.624 92.8112 325.001 130.624 325 169.801Z" fill="#0070BA"/>
<path d="M290.791 176.724C290.535 176.84 290.271 176.933 290 177C290.866 173.488 291.633 169.95 292.27 166.355C293.088 161.96 293.725 157.497 294.158 153C294.49 154.688 294.848 156.345 295.18 158.033C296.558 164.917 296.84 174.207 290.791 176.724Z" fill="#6BB3D9"/>
<path d="M325 169.006C325.006 179.411 323.998 189.793 321.99 200C321.88 198.142 321.826 196.287 321.719 194.483C320.643 182.999 318.932 171.585 316.593 160.293C315.264 152.316 313.853 144.081 309.486 137.273C306.357 132.203 301.384 128.567 295.628 127.139C294.23 98.9332 285.383 71.6136 270 48C287.281 62.9913 301.142 81.5647 310.634 102.449C320.127 123.334 325.027 146.037 325 169.006Z" fill="#004573"/>
<path d="M133.032 13C105.395 18.7251 79.7535 31.6084 58.6841 50.3558C37.6148 69.1032 21.8592 93.0544 13 119.803L13.0775 119.907C13.8928 120.978 14.9711 121.822 16.2083 122.356C17.4454 122.891 18.7997 123.098 20.1404 122.957C21.4811 122.817 22.7629 122.334 23.8622 121.556C24.9615 120.777 25.8411 119.728 26.4161 118.511C31.0271 109.508 36.5476 100.998 42.8916 93.1149L61.8142 67.9892C66.5585 61.6936 71.6851 55.0936 79.0624 52.2773C82.2001 51.4913 85.2353 50.3427 88.1064 48.8548C90.7963 47.021 92.4992 43.1085 90.5483 40.5346C94.1658 44.6405 100.941 43.8178 105.685 41.1097C111.665 37.7156 116.161 33.2537 122.825 31.0357C127.954 29.3129 133.631 29.2303 137.331 24.7143C142.768 18.0912 139.174 14.6687 133.032 13Z" fill="#004573"/>
<path d="M55.5 0C43.4327 0 31.8595 4.79935 23.3266 13.3422C14.7937 21.8851 10 33.4718 10 45.5533C10 70.7116 55.5 135 55.5 135C55.5 135 101 70.7116 101 45.5533C101 39.5711 99.8231 33.6476 97.5365 28.1208C95.2499 22.594 91.8984 17.5723 87.6734 13.3422C83.4483 9.11223 78.4324 5.7568 72.9121 3.46754C67.3918 1.17827 61.4752 0 55.5 0V0Z" fill="#EF5361"/>
<path d="M56.6733 74.5909C73.2252 73.8464 86.0378 59.825 85.2912 43.2732C84.5446 26.7215 70.5215 13.9073 53.9697 14.6519C37.4179 15.3964 24.6052 29.4178 25.3518 45.9695C26.0984 62.5212 40.1215 75.3355 56.6733 74.5909Z" fill="#E1E6E9"/>
</svg>
