<svg width="143" height="108" viewBox="0 0 143 108" fill="none" xmlns="http://www.w3.org/2000/svg">
<path d="M139.994 55.8787C140.283 56.6364 140.422 57.4429 140.403 58.2523C140.383 59.0617 140.206 59.8581 139.881 60.5959C139.557 61.3337 139.09 61.9986 138.509 62.5526C137.928 63.1065 137.244 63.5388 136.496 63.8245L29.2827 104.843C28.5347 105.129 27.7369 105.264 26.9347 105.239C26.1326 105.215 25.3419 105.03 24.6078 104.698C23.8738 104.365 23.2107 103.89 22.6566 103.3C22.1025 102.71 21.6682 102.017 21.3785 101.259L2.20682 51.1485C1.62153 49.6187 1.66066 47.9219 2.3156 46.4312C2.97053 44.9406 4.18762 43.7782 5.69912 43.2L112.912 2.18188C113.66 1.89483 114.459 1.75989 115.262 1.78478C116.064 1.80967 116.856 1.9939 117.59 2.32693C118.325 2.65997 118.989 3.13529 119.543 3.72572C120.098 4.31616 120.532 5.01013 120.822 5.76799L139.994 55.8787Z" fill="#4DD6CB"/>
<path d="M122.338 9.72882L3.72217 55.1094L8.68793 68.0889L127.303 22.7083L122.338 9.72882Z" fill="white"/>
<path d="M112.41 41.4253C113.025 43.0303 113.156 44.7795 112.786 46.4516C112.416 48.1237 111.562 49.6435 110.332 50.8189C109.102 51.9942 107.551 52.7721 105.876 53.0544C104.2 53.3366 102.476 53.1103 100.92 52.4043C99.3639 51.6982 98.0469 50.5441 97.1353 49.0878C96.2236 47.6316 95.7584 45.9387 95.7984 44.2233C95.8384 42.508 96.3819 40.8472 97.3601 39.4512C98.3382 38.0551 99.7071 36.9865 101.294 36.3806C103.419 35.5675 105.784 35.6421 107.869 36.5882C109.954 37.5343 111.587 39.2742 112.41 41.4253Z" fill="white"/>
<path d="M122.027 37.746C122.641 39.3501 122.77 41.098 122.4 42.7686C122.03 44.4392 121.176 45.9576 119.947 47.1317C118.717 48.3058 117.168 49.0828 115.493 49.3646C113.819 49.6463 112.096 49.4202 110.541 48.7147C108.987 48.0091 107.67 46.856 106.759 45.401C105.848 43.946 105.383 42.2545 105.422 40.5405C105.462 38.8264 106.004 37.1668 106.981 35.7714C107.958 34.376 109.326 33.3076 110.91 32.7013C113.036 31.8881 115.401 31.9628 117.486 32.9089C119.57 33.855 121.204 35.5949 122.027 37.746Z" fill="#424141"/>
<path d="M48.0867 86.621L33.1606 92.3315L34.3169 95.3538L49.243 89.6433L48.0867 86.621Z" fill="white"/>
<path d="M68.9808 78.6271L54.0591 84.3359L55.2154 87.3582L70.1371 81.6494L68.9808 78.6271Z" fill="white"/>
<path d="M89.8792 70.6318L74.9531 76.3423L76.1094 79.3645L91.0355 73.654L89.8792 70.6318Z" fill="white"/>
<path d="M110.777 62.6365L95.8467 68.3486L97.003 71.3709L111.933 65.6587L110.777 62.6365Z" fill="white"/>
<path d="M131.676 54.6414L116.745 60.3535L117.901 63.3758L132.832 57.6636L131.676 54.6414Z" fill="white"/>
<path d="M74.0415 46.8067L9.92969 71.335L12.4117 77.8225L76.5236 53.2942L74.0415 46.8067Z" fill="white"/>
<path d="M79.0074 59.7862L14.8955 84.3145L17.3776 90.802L81.4894 66.2737L79.0074 59.7862Z" fill="white"/>
</svg>
