<svg width="244" height="195" viewBox="0 0 244 195" fill="none" xmlns="http://www.w3.org/2000/svg">
<path d="M202.103 194.611L0.278972 128.826L42.1685 0.311035L122.281 97.0283L243.992 66.0952L202.103 194.611Z" fill="#E3E3E3"/>
<path d="M42.1685 0.311035L122.281 97.0283L0.278972 128.826L42.1685 0.311035Z" fill="#E3E3E3"/>
<path d="M243.992 66.0945L122.281 97.0275L202.103 194.61L243.992 66.0945Z" fill="#E3E3E3"/>
<path d="M41.4999 2.36228L42.1685 0.311035L122.281 97.0283L120.193 97.5679L41.4999 2.36228Z" fill="#E3E3E3"/>
<path d="M243.324 68.1458L243.992 66.0945L122.281 97.0275L123.642 98.6911L243.324 68.1458Z" fill="#E3E3E3"/>
<path d="M0.279591 128.827L3.44101 129.857L123.642 98.6921L122.281 97.0286L0.279591 128.827Z" fill="white"/>
<path d="M202.103 194.61L199.971 193.915L121.56 99.241L123.642 98.6916L202.103 194.61Z" fill="white"/>
</svg>
