<svg width="149" height="128" viewBox="0 0 149 128" fill="none" xmlns="http://www.w3.org/2000/svg">
<path d="M7.5602 116.788C7.20291 117.106 6.73427 117.269 6.25677 117.242C5.77928 117.216 5.33179 117.001 5.01219 116.645V116.645C4.72578 116.264 4.6016 115.785 4.66668 115.312C4.73176 114.84 4.98083 114.412 5.35968 114.122L13.4629 107.433C13.8212 107.114 14.2914 106.951 14.7701 106.978C15.2488 107.006 15.6969 107.223 16.0158 107.581C16.2998 107.963 16.4221 108.441 16.3562 108.912C16.2902 109.383 16.0413 109.809 15.6634 110.098L7.5602 116.788Z" fill="#282828"/>
<path d="M30.8103 103.924L22.353 93.6792C15.2449 99.5472 10.82 106.856 8.59826 111.235L10.9675 114.105C15.6964 112.751 23.7111 109.784 30.8103 103.924Z" fill="#CCCCCC"/>
<path d="M30.8107 103.924L29.1701 101.937L29.0102 102.069C22.2397 107.658 15.1202 111.304 9.57178 112.414L10.9728 114.111C15.6968 112.751 23.7115 109.785 30.8107 103.924Z" fill="#ADADAD"/>
<path d="M128.506 21.1009C128.027 21.5244 127.4 21.7409 126.762 21.7029C126.124 21.6649 125.527 21.3756 125.101 20.8983L121.077 16.0233C120.694 15.5153 120.527 14.8764 120.613 14.2459C120.698 13.6153 121.03 13.0442 121.535 12.6571L133.201 3.0261C133.677 2.60358 134.3 2.38622 134.936 2.42139C135.571 2.45656 136.167 2.7414 136.593 3.21386L140.618 8.08882C141.006 8.59671 141.177 9.23774 141.093 9.87148C141.01 10.5052 140.678 11.08 140.172 11.4699L128.506 21.1009Z" fill="#AD475D"/>
<path d="M136.711 7.80239C136.905 7.65289 137.032 7.43253 137.064 7.1896C137.096 6.94667 137.03 6.70101 136.882 6.50646L135.187 4.454C135.024 4.27092 134.796 4.15986 134.551 4.14518C134.306 4.13051 134.066 4.2134 133.882 4.3757L131.602 6.25836C132.389 7.55142 133.107 8.88491 133.755 10.2533L136.711 7.80239Z" fill="#EF8EA7"/>
<path d="M140.617 8.08836L134.919 12.7926L131.746 11.3981L132.948 17.4329L140.172 11.4695C140.678 11.0795 141.009 10.5048 141.093 9.87102C141.177 9.23728 141.006 8.59625 140.617 8.08836Z" fill="#843147"/>
<path d="M95.9048 33.5569L22.6382 94.042L29.917 102.859L103.184 42.3739L95.9048 33.5569Z" fill="#5B89A5"/>
<path d="M31.8786 104.596C31.6674 104.801 31.3841 104.914 31.0898 104.912C30.7955 104.91 30.5139 104.792 30.3056 104.585L21.6111 94.0527C21.4452 93.8089 21.3821 93.5095 21.4353 93.2195C21.4886 92.9295 21.6539 92.6721 21.8955 92.5031L28.9799 86.6546C29.1913 86.4469 29.4762 86.3313 29.7725 86.333C30.0688 86.3348 30.3524 86.4537 30.5613 86.6638L39.2558 97.1957C39.4205 97.4395 39.4827 97.7384 39.429 98.0277C39.3753 98.3171 39.2101 98.5737 38.9689 98.7423L31.8786 104.596Z" fill="#8EC2D6"/>
<path d="M39.2554 97.1957L37.605 95.1966C37.5352 95.2845 37.4562 95.3647 37.3694 95.436L28.9315 102.402C28.846 102.473 28.7532 102.534 28.6548 102.585L30.3052 104.585C30.5135 104.792 30.7951 104.91 31.0894 104.912C31.3837 104.914 31.667 104.801 31.8782 104.596L38.9626 98.7473C39.2061 98.5795 39.3735 98.3224 39.4283 98.0318C39.4832 97.7412 39.4211 97.4407 39.2554 97.1957Z" fill="#70A8BA"/>
<path d="M95.1128 35.2162L33.0918 86.4175L34.8669 88.5677L96.8879 37.3664L95.1128 35.2162Z" fill="#9AC6D8"/>
<path d="M24.8931 95.9351C24.8557 95.9702 24.8063 95.9896 24.755 95.9893C24.7038 95.989 24.6546 95.969 24.6177 95.9334L22.9062 93.8602C22.8782 93.8172 22.8679 93.7651 22.8773 93.7148C22.8867 93.6644 22.9151 93.6195 22.9566 93.5895L29.6945 88.027C29.7318 87.9919 29.7813 87.9725 29.8325 87.9729C29.8838 87.9732 29.9329 87.9932 29.9699 88.0288L31.6814 90.102C31.7093 90.145 31.7197 90.197 31.7103 90.2474C31.7009 90.2978 31.6725 90.3427 31.6309 90.3727L24.8931 95.9351Z" fill="#CFF4FF"/>
<path d="M104.614 44.1064L129.584 23.4924L131.833 26.2172L100.051 52.4547L102.186 55.0403L136.766 26.4922C136.092 18.6425 133.368 11.1075 128.867 4.64129L95.0683 32.5439L104.614 44.1064Z" fill="#2D2D2D"/>
<path d="M128.441 7.24946L98.0327 32.3525L99.8078 34.5027L129.57 9.93267C129.262 9.01104 128.884 8.11407 128.441 7.24946Z" fill="#7C7C7C"/>
<path d="M129.584 23.4925L131.834 26.2173L100.052 52.4548L102.186 55.0404L136.767 26.4923C136.485 22.937 135.765 19.4302 134.622 16.0517L103.003 42.1548L104.614 44.1065L129.584 23.4925Z" fill="#0A0A0A"/>
<path d="M101.528 40.3689L36.5898 93.9785L38.2476 95.9865L103.186 42.3769L101.528 40.3689Z" fill="#38657C"/>
<path d="M6.28944 114.217C6.2303 114.258 6.1803 114.31 6.14259 114.371C6.10488 114.433 6.0803 114.501 6.07039 114.572C6.06048 114.643 6.06548 114.716 6.08505 114.785C6.10462 114.854 6.13834 114.918 6.18408 114.974C6.22982 115.029 6.28658 115.074 6.35075 115.107C6.41492 115.139 6.4851 115.157 6.55685 115.161C6.62859 115.165 6.70034 115.154 6.76753 115.128C6.83471 115.103 6.89588 115.064 6.94715 115.013L8.65901 113.6L8.0013 112.804L6.28944 114.217Z" fill="#A5A5A5"/>
</svg>
