<svg width="134" height="147" viewBox="0 0 134 147" fill="none" xmlns="http://www.w3.org/2000/svg">
<path d="M128.039 97.0525C128.529 97.9314 128.651 98.9689 128.378 99.9376C128.104 100.906 127.458 101.727 126.58 102.22L60.7593 139.002C60.322 139.246 59.8408 139.4 59.3434 139.457C58.846 139.514 58.3422 139.472 57.8612 139.333C57.3801 139.195 56.9313 138.962 56.5406 138.649C56.1499 138.336 55.8251 137.949 55.5849 137.509L6.37903 49.4834C5.89135 48.604 5.77208 47.5671 6.04734 46.5999C6.32261 45.6326 6.96997 44.8139 7.84765 44.323L73.6686 7.54103C74.1035 7.29694 74.5823 7.14102 75.0775 7.08221C75.5728 7.0234 76.0747 7.06286 76.5547 7.19832C77.0346 7.33377 77.4832 7.56258 77.8746 7.87162C78.266 8.18067 78.5926 8.56388 78.8357 8.99933L128.039 97.0525Z" fill="#BE1E2D"/>
<path d="M77.0703 36.1727C77.3589 36.6875 77.5432 37.2541 77.6125 37.8401C77.6819 38.4261 77.635 39.0201 77.4745 39.588C77.3141 40.1559 77.0432 40.6865 76.6774 41.1496C76.3116 41.6127 75.858 41.9991 75.3427 42.2866L35.2648 64.68C34.2247 65.2606 32.9968 65.4047 31.8505 65.0808C30.7043 64.7569 29.7334 63.9915 29.1509 62.9525L25.5519 56.5082C24.9714 55.4681 24.8272 54.2402 25.1511 53.0939C25.475 51.9477 26.2405 50.9768 27.2795 50.3943L67.3659 27.9991C68.4049 27.4191 69.6317 27.2754 70.7767 27.5997C71.9216 27.924 72.8908 28.6897 73.4713 29.7285L77.0703 36.1727Z" fill="#ED1B2F"/>
<path d="M101.445 49.4659L29.0005 89.9536L30.9947 93.5219L103.439 53.0343L101.445 49.4659Z" fill="#FBB040"/>
<path d="M105.491 58.2311L33.0469 98.7188L35.0411 102.287L107.486 61.7994L105.491 58.2311Z" fill="#FBB040"/>
</svg>
