<svg width="134" height="147" viewBox="0 0 134 147" fill="none" xmlns="http://www.w3.org/2000/svg">
<path d="M127.488 96.915C127.978 97.7939 128.1 98.8314 127.827 99.8001C127.554 100.769 126.907 101.589 126.029 102.082L60.2085 138.864C59.3296 139.355 58.2921 139.477 57.3234 139.203C56.3547 138.93 55.534 138.284 55.0414 137.406L5.82822 49.3459C5.34054 48.4665 5.22127 47.4296 5.49653 46.4624C5.7718 45.4952 6.41916 44.6764 7.29684 44.1856L73.1178 7.40354C73.5524 7.15828 74.0313 7.00143 74.5268 6.94201C75.0222 6.88259 75.5246 6.92178 76.0049 7.05733C76.4851 7.19288 76.9338 7.4221 77.3252 7.7318C77.7165 8.0415 78.0426 8.42555 78.2849 8.86184L127.488 96.915Z" fill="white"/>
<path d="M76.516 36.035C76.8046 36.5497 76.9888 37.1163 77.0582 37.7024C77.1276 38.2884 77.0807 38.8824 76.9202 39.4503C76.7598 40.0181 76.4889 40.5488 76.1231 41.0119C75.7573 41.4749 75.3037 41.8613 74.7884 42.1489L34.6935 64.5459C33.6534 65.1265 32.4255 65.2706 31.2792 64.9467C30.133 64.6228 29.162 63.8574 28.5796 62.8184L24.9806 56.3741C24.4001 55.334 24.2559 54.1061 24.5798 52.9598C24.9037 51.8136 25.6691 50.8427 26.7081 50.2602L66.8116 27.8614C67.3258 27.573 67.8918 27.389 68.4773 27.3198C69.0628 27.2507 69.6561 27.2978 70.2233 27.4585C70.7905 27.6191 71.3205 27.8902 71.7827 28.2561C72.2449 28.622 72.6304 29.0756 72.917 29.5907L76.516 36.035Z" fill="#F7941D"/>
<path d="M100.892 49.3195L28.4478 89.8071L30.442 93.3755L102.887 52.8878L100.892 49.3195Z" fill="#F7941D"/>
<path d="M104.938 58.0924L32.4937 98.5801L34.4879 102.148L106.932 61.6607L104.938 58.0924Z" fill="#F7941D"/>
</svg>
