<?xml version="1.0" encoding="utf-8"?>
<!-- Generator: Adobe Illustrator 24.1.2, SVG Export Plug-In . SVG Version: 6.00 Build 0)  -->
<svg version="1.1" id="Слой_1" xmlns="http://www.w3.org/2000/svg" xmlns:xlink="http://www.w3.org/1999/xlink" x="0px" y="0px"
	 viewBox="0 0 891 627" style="enable-background:new 0 0 891 627;" xml:space="preserve">
<style type="text/css">
	.st0{fill:#C4C4C4;}
	.st1{fill:#FFFFFF;}
	.st2{fill:#EA6425;}
	.st3{fill:none;stroke:#BFBFBF;stroke-width:3;stroke-miterlimit:10;}
	.st4{fill:#4DD6CB;}
	.st5{fill:#009AFF;}
	.st6{fill:none;}
	.st7{enable-background:new    ;}
</style>
<g>
	<g>
		<path class="st0" d="M545.8,76.1l-0.1,4.4l1.8-0.1c1.4-0.1,2.8-0.2,4.2-0.5c1.7-0.5,2.7-0.3,3.6,0.3c2.1,1.6,5.6,1.1,7.5-1
			l1.8-1.9l1.7,1.6c0.9,0.8,2,1.5,3.1,1.9c1.7,0.4,8.6-2.6,9.1-4s-1.7-6.7-3.1-7.6c-0.8-0.5-2.4-0.3-5.9,0.5l-4.8,1.2l-2.3-1.4
			c-2.2-1.4-3.3-3.2-2.5-4.4c0.7-0.7,1.4-1.2,2.2-1.7c1-0.6,1.8-1.6,1.8-2.1c0-1.6-3.4-6.1-4.5-6.1c-2.1,0-9.8,2.5-11,3.4
			c-0.5,0.5-1.1,0.9-1.8,1.1c-0.6,0.1-1.2,0.5-1.6,1c-0.7,0.8-0.7,1.9,0,6C545.5,69.9,545.8,73,545.8,76.1z"/>
		<path class="st0" d="M520.2,60.5l1.9,0.4l-2.2,1.1c-2.9,1.6-2.5,3.3,1.4,6c1.2,0.9,2.6,1.7,4,2.2c2.5,0,13.5-2.7,14-3.4
			c0.4-1.5,0.6-3,0.5-4.5c0-1.6,0.1-3.1,0.4-4.7c0.6-1.6-1.7-3.2-8.4-5.9c-5.4-2.1-6.5-2.4-7-1.6c-0.7,0.7-1.5,1.3-2.5,1.7
			c-1.9,0.8-4.7,5.4-4.3,7.2C518.2,59.6,519.1,60.3,520.2,60.5z"/>
		<path class="st0" d="M648.6,104.1c0.1,0.5,0.5,1,1,1.2c0.8,0.3,1,0.9,0.6,3c-0.5,2.8,1.7,10.9,3.3,12.2c2.5,1,5.1,1.8,7.7,2.3
			c5.3,1.2,7.2,1.4,8.2,0.8c0.4-0.3,1-0.5,1.5-0.5c0,2.2-0.1,4.4-0.5,6.6c-0.6,5.2-0.5,6.5,0.2,6.9c1,0.6,1,0.6,12.6-4.8
			c9.7-4.5,10-4.7,10-6.1c0-1.6-4.9-12-6.1-13c-0.7-0.5-1.5-0.6-2.3-0.5c-1,0.3-1.7-0.2-2.7-1.9c-1.6-2.7-2.1-2.7-5.2-0.6
			c-0.9,0.7-2,1.2-3,1.6c-0.4,0-0.6-1.6-0.6-3.6c0-3.2-0.3-3.9-2.2-5.8c-1.1-1.1-2.5-2-4-2.5c-3.5-0.8-3.8-1.2-4-5.4
			c-0.2-3.4-0.6-4.7-3.7-9.6c-1.9-3.2-3.9-5.8-4.5-5.9c-1.3-0.3-5.8,3.8-7.2,6.4c-1.5,4.1-2.6,8.2-3.5,12.5c0.6,1.1,1.4,2.1,2.3,3
			C647.5,102,648.6,103.6,648.6,104.1z"/>
		<path class="st0" d="M722.6,530.7c0.2-1,0.1-2-0.3-2.9c-0.8-1.5-2.1-1.4-2.7-2.7c-0.8-1.6,0-3.9,1-5.2c1.1-1.5,2-1.3,2.8-2.8
			c0.6-0.9,0.8-2.1,0.5-3.2c-0.2-0.4-0.7-1.5-6.7-3c-1.5-0.4-2.8-0.6-3.7-0.8L699,504h-4.1l-3.8-4.9l5.5-2.7l1.1-3.8l1.3-11v-5.5
			l6.8-8.7l-0.3-3.1l-3.2-9.6l3.3-6.3l8.5-0.8l2.7-2.4l7.9,6.8l4.4-2.4l0.9-8.3c0,0,6.8-10.9,6.9-11.3s1.3-4.7,1.3-4.7l1.6-1.6
			l11.5,5.4l3.6-2.7l2.3-10.4v-3.3l-4-2.7l2.8-6.8l-0.2-4.6l-8-4.7l0.8-7.4l4.4-3l1.6-4.4l2.6-16.9l-4.8-5.5l1.6-9.5l10.6-11
			l-20.5-2.4v-3l2.7-9c-2-2.7-3.6-5-4.7-6.8c-1-1.4-1.7-3-2.2-4.6c-0.3-1.4-0.4-2.9-0.2-4.4c-0.5-0.9-1.1-1.7-1.8-2.4
			c-1-1.2-1.4-1.3-1.5-1.9c-0.2-1,0.7-1.8,2.2-3.8c0.6-0.8,1.4-1.9,2.3-3.3c-2-8.4-4-16.9-6.1-25.3l-5.7-5l5.8-5.8
			c0.1-0.1,0.3-0.2,0.5-0.3c2.9-1.7,6-0.2,7-1.6c0.2-0.3,0.3-0.6,0.3-0.9c0.5-3.3,1.1-6.5,1.6-9.8c0.5-2.3,1.5-4.5,2.8-6.5l5.7-5.8
			c0.9-1.1,1.3-2.6,1-4c-0.1-0.4-0.3-0.8-0.6-1.2L737.4,208l-0.9-13.9l-3.4-2.3c-2.3,1.8-5.1,4.2-8.1,7.1c-4.7,4.4-7.2,6.4-8.3,6.4
			H715l1.8-3.1c1-1.7,3.4-5.9,5.4-9.5c1.9-3.6,5-8.7,6.9-11.3c5.6-8.2,5.6-8.5,5.6-16.5c-0.1-4.6-0.4-7.9-1-9.2
			c-0.5-1.1-3-3.8-5.6-5.9l-4.7-3.9h-6.8c-6.6,0-6.9,0.1-9.2,1.9c-3,2.3-3.2,2.3-3.2,0.5c0-2.1-1.2-3-4-3s-3-0.2-1.2-2.5
			c1.9-2.5,1.6-3.9-1.2-5.1c-7-2.9-9.8-1.7-15.1,6.5l-3.9,5.9l0.4,4l0.5,3.9l-2.5,0.5c-3.6,0.6-4.3,1.4-3.8,4.1
			c0.4,2.3,0.4,2.3-3.2,4.1c-4.5,2.2-5.4,2.2-5.9,0.2c-0.8-3.2-1.8-3.3-7.6-0.8c-3.7,1.7-5.6,3-6.3,4.1c-0.7,1.3-2.9,2.7-8.1,4.9
			c-3.9,1.7-8,4.1-9.2,5.2c-3.9,4.2-7.4,8.7-10.4,13.5c-1.3,2.2-1.3,2.3-0.2,5.2c0.5,1,0.7,2.2,0.8,3.3c-0.2,0.2-6.1,0.9-13.2,1.6
			c-10.4,1-13,1.4-13.6,2.3c-0.8,1-2.1,11.6-1.7,14.2c0.8,1.9,1.9,3.6,3.2,5.2c3.5,4.7,4.3,6.6,3.6,8c-0.6,1.1-0.8,1-7.2-6.9
			c-1.9-2.3-3.9-4.3-4.6-4.5c-1-0.5-1.8-1.4-2.1-2.5c-0.4-1-1.1-1.9-2-2.6c-0.6-0.2-2.8,0.5-4.9,1.5c-4.1,1.9-4.4,2.6-2.8,6.3
			c0.4,0.9,0.3,1.1-0.3,0.7c-0.8-0.3-1.6-0.3-2.4-0.1c-1.9,0.5-4.3,4.9-3.8,6.7c1.2,1.8,2.5,3.4,4,4.8c1.9,2,3.4,3.9,3.2,4.1
			c-0.2,0.3-2.5-0.7-5-2.1c-5.4-2.9-5.3-2.2-1.7-12.2c2.2-6.2,2.9-11.5,1.9-14.2c-0.5-1.2-4-1.4-5.5-0.2c-0.6,0.5-1.2,2.1-1.4,4.3
			c-0.3,3.2-0.6,3.8-2.8,5.5c-4,3.1-8.7,8-9.3,9.6c-0.5,1.1-0.1,3.6,1,8.4l1.6,6.8l-3,4.8c-2.9,4.7-2.9,4.8-2.9,10.3
			c0,4.1,0.2,5.7,1,6.3c1.7,0.7,3.5,1.1,5.4,1.3c1.8,0.1,3.6,0.5,5.4,1c3.9,2.4,7.7,5.8,7.7,6.7c0,1.4,0.2,2.8,0.4,4.1
			c0.4,2.8,0.3,3-0.9,3c-1,0-1.5-0.6-1.7-2.1c-1.4-7-2.3-8.9-4.6-9.9c-3-1.2-4.8-1.2-9,0.4l-3.6,1.4v7.6c0,8.4-0.1,8.5-4.6,11.6
			c-2,1.4-3.8,3-5.3,4.8c-1.7,2.1-4,3.7-6.5,4.7c-5.9,2.5-9.1,1.9-13.4-2.1c-1.1-0.9-2.1-2-3-3.1c1.3,0.1,2.5,0.3,3.8,0.7
			c2.2,0.6,4.5,0.9,6.7,1c3,0,3.4-0.2,5.8-3c1.4-1.6,4.1-4.5,5.9-6.4c2.2-2.5,4.1-5.3,5.7-8.3l2.5-5l-1.7-4.1
			c-0.8-1.7-1.3-3.5-1.7-5.3c0.5-2.6,1.3-5.1,2.2-7.6c1-2.6,1.8-5.4,2.3-8.1c0.4-2.2,0.9-4.3,1.7-6.4l1.7-4.6l-1.2-4.7l-1.2-4.7
			l4.3-5.4c3.9-4.8,4.4-5.8,5-9.8c0.4-1.8,0.5-3.7,0.5-5.5c-0.2-0.8-2.3-1.9-7-3.6c-3.7-1.4-7.1-2.3-7.6-2.1
			c-0.5,0.1-3.3,3.6-6.3,7.6c-5,6.7-6,7.7-11.1,10.7c-5.4,3.3-5.5,3.4-6.5,7c-0.8,2.8-0.9,3.9-0.4,4.8c0.4,0.7,0.7,1.4,0.8,2.2
			c0,1.8-3.4,7.7-5.2,9.2c-2.6,2.1-2.4,3.6,0.7,6l2.7,2.1l-0.5,3.7c-0.3,2.8-0.1,4,0.6,5.3c1,1.6,1,1.7,0,3.3
			c-0.4,0.7-0.9,1.2-1.5,1.7c-0.3,0-4.5-6.1-9.3-13.4l-8.9-13.5l-7.2-4.1l-7.2-4.1l-2.5,1.2c-2.8,1.3-2.7,1-2.8,7
			c-0.1,4.4-0.1,4.5-2.3,5.8c-3.1,1.8-4.3,0.9-4.3-3.2V241l-6.1,0.1c-5,0.1-6.9-0.1-9.9-1.2c-3.8-1.4-5.6-1.4-10.7,0.1
			c-2.6,0.8-2.8,0.7-4.2-0.6c-1.4-1.4-1.4-1.5-0.1-2.5c1.6-1,3.3-2,5-2.8c2.7-1.4,3.8-2.3,3.8-3.2c0-2.5-2.6-2.8-24.1-3l-20.5-0.3
			l-3.8,3.6c-3.8,3.6-3.8,3.6-6.2,2.8c-3-0.8-3.4-1.7-4-6.7l-0.5-3.9l2.1-0.8c1.9-0.8,2.4-0.7,5,0.5c3.6,1.7,3.8,1.7,5.6-0.3
			c2.8-3.2,3.7-5.4,3-7.6c-2.1-6.5-2.7-7.6-6.2-10.5c-4.8-3.9-6.1-3.8-6.7,1.1c-0.6,5-3.4,8.4-8.9,10.9l-4.1,1.9l0.2,4.6l0.3,4.7
			l-2.6,1.8c-3.9,2.7-4.5,2.5-6.5-2.7c-2.1-5.2-1.6-5-11.3-5.3c-4.8-0.2-7.9,0-10.6,0.7c-4.1,1.1-3.9,0.8-7.4,9.3
			c-0.9,2.2-1.8,1.9-4.7-1.7c-2.1-2.5-2.4-3.2-3-9.1c-0.4-3.5-1-6.7-1.4-7c-1.1-1.1-7.8,1.3-8.4,3c-1,2.8-1.5,9.3-0.6,10.8
			c0.6,1.2,0.5,1.6-0.7,3c-3,3.2-3.8,2.1-5.8-8l-1.5-7.2l4.1-5.1c2.4-2.9,5-5.5,7.9-7.8c2.1-1.6,3.8-3.2,3.8-3.9
			c0-0.6-0.4-4.1-1-7.9c-0.8-6.1-0.8-6.9,0.1-8.3c1.4-2.2,2-1.3,3,4.7c1.5,9,5.5,17.5,11.5,24.4c2.3,2.6,10.2,6.3,13.5,6.3
			c2.6,0,11.8-2.6,12.8-3.6c0.9-0.9,3.3-14.1,3.3-18.5c-0.2-2.1-0.6-4.2-1.3-6.1c-1.1-3.9-1.9-8-2.3-12c-0.8-8-1-8.5-4.4-15.2
			c-4.4-8.6-4.8-9.9-3.2-9.9c2,0,2.8-1.4,2.8-5.3c0-4-1-5.7-3.5-5.8c-0.8,0-5.4-0.4-10.4-0.8c-8.8-0.8-9.2-0.8-13.3,0.6
			c-5.7,1.9-8.2,3.3-8.7,4.7c-0.2,0.6-0.9,3.9-1.6,7.2c-0.4,2.1-0.9,4.2-1.5,6.3c-1.9,0.6-3.8,1.1-5.8,1.4l-5.4,1.2l-2.3,4.2
			c-4.5,8.3-7.4,11.6-12.7,14.9c-4.8,2.9-5.1,3.2-8.2,9.1c-3.2,5.9-3.3,6-6.4,6.8c-1.3,0.3-2.6,0.7-3.8,1.4
			c-0.3,0.3-1.1,3.7-1.7,7.5s-1.4,7.2-1.7,7.5s-5,1.4-10.3,2.3c-6.5,1.3-13.1,1.8-19.7,1.6c-10.4-0.1-12.1,0.3-10.7,2.5
			c0.5,0.8,0.5,1.5-0.3,2.6c-0.8,1.3-0.8,1.9,0.5,5.4c0.5,1.4,0.9,2.8,1,4.3c-0.2,0.1-2.8-0.8-5.8-2.1c-5.5-2.5-5.6-2.5-9.2-1.7
			c-2.1,0.5-5.9,1.6-8.6,2.4c-4.7,1.4-5,1.7-7.6,5.4c-2.4,3.5-3,3.9-4.8,3.9c-3.2,0-5,1.7-9.5,9.6c-1.7,3.1-3.6,6-5.6,8.9
			c-1.7,2-1.9,1.2,2.7,12.4c2,4.8,3.6,9.3,3.6,10s-1.9,3.2-4.1,5.6c-3.9,4-4.3,4.7-6.3,11.1c-1.4,3.8-2.1,7.9-2.2,12
			c-0.1,5-0.1,5.2-1.8,5.4c-2.3,0.3-4.1-0.8-4.6-2.9c-0.5-2.2-1.5-3.4-2.7-3.4c-0.7,0-7.7,9.9-9.9,14.1c-1,1.9-0.4,2.9,2.7,4.3
			c2.6,1.2,2.8,1.5,3,4.2c0.3,3.9,1,4.5,5,4.5c3.9,0,4.1,0.3,2.3,5.1c-0.6,1.9-1.9,3.4-3.7,4.2c-1.4,0.7-2.7,1.9-2.8,2.6
			s0.5,3.4,1.2,6l1.5,4.7l-1.4,4.4c-0.6,1.7-1,3.3-1.4,5c0.6,1.7,1.4,3.3,2.4,4.8c2.1,3.4,3,4.3,5.8,5.6c1.3,0.5,2.6,1.2,3.8,2.1
			c0.5,2.3,0.8,4.6,1,6.9c0.6,5.8,0.8,6.7,3.5,10.9c1.6,2.5,2.9,5.2,2.9,5.9c0,1.1-1.2,5.3-1.6,5.4c-0.1,0-1.7,0.5-3.6,1.2
			c-3.1,1-4,1.7-6.7,5.4c-1.1,1.5-2.3,3-3.6,4.3c-0.3,0.1-1.7-0.8-3.1-2.1c-4.7-4.3-9.6-4.9-13.4-1.7c-2.7,2.3-3.3,3.9-2.3,5.8
			c0.8,1.6,1,1.6-4.3,0.6s-6-0.4-6,4.1v3.2l-3.6-0.4c-3.4-0.4-3.8-0.3-6.2,1.7l-2.6,2.1l-1.7-2.1c-2.1-2.5-3.9-2.7-6.3-0.5l-1.7,1.5
			l0.8,5c0.8,4.5,1.9,8.4,4.8,16.8c0.5,1.4,1.1,6.5,1.4,11.3c0.3,5.2,0.8,9.1,1.2,9.5c1,0.7,2.2,1.3,3.4,1.7c2.3,0.8,3,1.7,6.9,7.9
			c2.6,4.2,5.6,8.3,7.6,10c3,2.7,3.4,3.4,4.9,9.1c2.7,9.6,2.7,9.6,6.4,10.7c1.3,0.4,2.7,0.8,4.1,1c1,0,3.5,3.2,5.3,6.9
			c1.1,2.1,1.2,3,0.8,4.4c-1.2,3-0.7,4.4,2.9,10l3.6,5.4v5.3c0,6.6,0.8,8.1,4.6,8.1c3.1,0,11.6-1.9,12.7-2.8
			c0.6-0.5,0.8-3.6,0.8-11.3V531l3.2-4.2c1.3-1.6,2.4-3.2,3.3-5c0.1-0.5,0.1-3.9,0.2-7.8l0.1-7l4.4-1.9c2.7-1.2,5.3-2.6,7.8-4.2
			l3.4-2.3l10.2,1.1c11.1,1.2,11.8,1.1,11-2.3c-0.2-0.9-0.5-1.9-0.5-2.2c-0.1-0.4,0.8-1.1,1.9-1.6c0.9-0.4,1.7-0.9,2.4-1.6
			c0.6-0.9-0.1-13-0.9-15.6c-0.7-1.7-1.9-3.1-3.5-4.1c-3.1-2.4-3.4-3.2-1.9-6.7c0.7-1.3,0.8-2.7,0.3-4.1c-0.4-0.8-0.5-1.7-0.3-2.5
			c0.1-0.5,2.3-2.1,4.8-3.8c4.2-2.7,4.6-3.1,4.7-5.4c0.2-2.3,0.5-2.6,4.9-4.9c2.6-1.4,5-2.3,5.3-2.1s1,2,1.4,3.9
			c1,4.7,1.7,5.5,5.1,6.1s4.3,0.1,5.8-4.1c1-2.7,1.2-2.8,4.6-3.3c1.9-0.3,7.4-1.2,12-1.9c3.1-0.6,6.1-1,9.2-1.2
			c0.4,0.1,0.7,1,0.7,2.1c0,2.3,1.6,3.9,3.4,3.6c1.2-0.2,2.4-0.4,3.7-0.5c2.1-0.1,2.3,0,2.4,1.8c0.4,4.1,0.8,4.7,4,6
			c3.6,1.6,3,0.3,5.4,12.7l0.9,4.5l2.9-0.2c2.9-0.1,3-0.1,3.7,2.5c1.3,4.1,2.4,4.5,8.9,3l5.6-1.4l1.6,1.9c4.6,5.5,4.7,5.6,6.1,5.1
			c3-0.9,6.1-1.1,6.5-0.5c0.5,1.3,0.8,2.7,1,4.1c0.6,3.1,1.1,3.9,4.4,6.9c4.1,3.8,5.2,4.1,7,2.1c1.6-1.8,2.8-1.6,6.5,1
			c1.3,1,2.7,1.8,4.3,2.3c1.4,0,7.7-7,7.7-8.6c0-0.6-1.5-3.4-3.3-6.1c-1.3-1.8-2.4-3.7-3.4-5.6c-0.1-0.4,1.2-0.9,2.7-1
			c3.2-0.4,3.1-0.3,4.6-6.3c0.6-2.6,0.8-2.7,2.9-2.7c1.7,0.1,3.3,0.5,4.8,1.3c1.3,0.7,2.7,1.1,4.1,1.3c2.1,0,2.2-1.6,0.3-6.9
			c-2.4-6.7-2.5-7.2-1.7-8.3c0.7-1,1.2-0.9,5.3,0.6c6.7,2.5,26.8,5.6,31.1,4.7c2.4-0.5,5.8-0.4,13.2,0.3l10,1l3.8-1.7l3.8-1.6
			l6.4,2.1c3.7,1.2,6.7,2.5,7,3.2c0.3,0.6,1,4.7,1.4,9.2c0.5,4.4,1.1,8.5,1.5,8.9c0.5,0.6,1.6,0.7,3.7,0.5c3.3-0.5,5.1,0.2,8.6,3
			c1.8,1.5,1.8,1.6,1.1,4.3c-1,3.9-0.3,4.5,6.2,5c4.8,0.4,5.7,0.3,13.6-2.3c4.6-1.5,8.6-2.7,8.9-2.7s0.3,0.8,0.1,1.7
			c-0.3,1.6,0.3,2.6,4.3,7.4l4.7,5.6l7.1,19.8c4,11.3,7.5,20,8.1,20.4c1.3,0.6,1.7,0.3,4.4-3.1c1.2-1.5,2.4-2.6,2.7-2.4
			c0.3,0.1,0.9,1.7,1.4,3.6c1.2,5.2,1.2,5.2,13.2,5.2h10.5l6.7,9.4c3.6,5.1,7.2,9.7,8,10.2s4.1,0.8,8,0.8l6.6,0.1l1,2.3
			c1.9,4.2,2.7,4.8,6.6,5.2c4,0.4,6.1,0.1,6.5-0.8c1-2.6,3.4-3.9,9.3-5.4c2.3-0.5,4.6-1.1,6.9-1.9c0.5-0.7,0.9-1.6,1-2.5
			c0.4-2,1-2.4,11.9-7.8l11.5-5.7l8,1.4c3,0.4,5.9,1.1,8.8,2c0.7,0.8,1.1,1.8,1.3,2.8c0.3,1.2,0.7,2.4,1.4,3.5
			c0.9,1.4,1.1,1.5,14.5,1.5h13.6l4.5-2.3c2.4-1.2,4.6-2.7,4.8-3.2s-0.8-4-2.3-7.6c-1-2.5-1.9-5-2.7-7.6c-0.1-0.6,1.9-3.7,4.3-7
			C720,532.8,721.5,531.1,722.6,530.7z M570.3,216.6c0.5-1.3,0.5-1.3,0.6,0c0.1,0.9,0.1,1.7,0,2.6c-0.1,0.8-0.3,1.6-0.7,2.3
			C569.5,222.7,569.6,218.3,570.3,216.6z M592.2,229.5c-0.2,0.2-1.3-0.6-2.5-1.9c-1.2-1.3-1.9-2.3-1.5-2.3c1,0.4,1.8,1.1,2.5,1.9
			C591.7,228.3,592.4,229.3,592.2,229.5L592.2,229.5z"/>
		<path class="st0" d="M144.8,240.8c2.4,0,9.2-1.7,10-2.5c0.5-0.5,0.3-1.9-0.5-4.8c-2.7-9.4-4.5-14.8-5.4-15.2
			c-0.5-0.2-1.7,0.3-2.8,1c-2.4,1.8-2.6,1.8-4.3-0.8c-1.7-2.8-3-3.1-9.5-2.5c-4.7,0.5-5.1,0.6-5.1,1.8s11.5,18,14.7,21.5
			C142.6,240.2,143.7,240.7,144.8,240.8z"/>
		<path class="st0" d="M462.7,207.4c0.3,1.2,2.3,3.2,6.3,6.3c4.5,3.5,6.3,4.5,7.9,4.5c3.3,0,3.9-1.2,3-6c-0.5-3.4-0.7-6.8-0.7-10.2
			c0-5.1,0.2-6.3,1.4-8c2.9-4.1,8.7-10.3,11.8-12.5c1.7-1.3,5.7-4.4,8.7-6.9c3.2-2.6,6.6-4.8,10.2-6.7c2.6-1.2,5-2.5,7.4-4
			c7.5-5,10.9-6.5,17.6-7.2c8.1-0.8,15.6-1.8,17.8-2.3c1-0.2,3-1.6,4.5-3.2c2.5-2.5,2.8-3.3,3-6.3c0.3-3.2,0.1-3.6-1.2-4.6
			c-1.9-1.4-3.9-1.3-8.9,0.3c-2.7,0.8-8.2,1.6-15.2,2.2c-16.6,1.4-25.1,3-28.2,5.2c-1.4,1-6.5,4.7-11.3,8.3
			c-5.2,3.8-9.6,7.6-10.8,9.2c-1.6,2.2-2.4,2.8-4,2.8c-1.7,0-3,1-7.8,5.8c-4.5,4.4-6.5,6-8.9,6.8c-3.7,1.2-4,1.6-5.3,6
			c-1,3.2-0.9,3.8,0.5,11C461.5,202.2,462.4,206.4,462.7,207.4z"/>
	</g>
	<path id="RU-BEL" class="st1" d="M191.8,393.9c-0.5-0.5-1.2-4.1-1.6-8c-0.4-3.9-1-7.4-1.4-7.7c-1.2-0.7-2.4-1.3-3.8-1.7
		c-2.6-0.9-3.6-1.8-5.4-4.7c-2.1-3.4-2.2-3.7-1.5-6.1c0.4-1.4,1.1-2.7,1.6-2.8c1.3-0.5,6,1.5,9.2,3.9c2,1.6,3.7,2.3,5.1,2.3
		c1.7,0,2.5,0.5,4.4,2.8c2.1,2.6,2.3,3.2,2.3,7c-0.1,6.2-0.8,8.7-3.9,12.2C193.5,394.8,192.8,395.2,191.8,393.9z"/>
	<path id="RU-BRY" class="st1" d="M185.4,340.7c-0.7-0.5-0.7-1-0.1-3.2c1.2-4.1,0.6-4.7-4.1-4.7h-4.1l-0.5-3.3
		c-0.4-2.9-0.6-3.4-2.7-4.3c-1.2-0.6-2.3-1.4-2.3-1.9c0-1.1,5-8.5,5.8-8.5c0.3,0,0.8,0.6,1,1.2c0.6,2,9.3,4,11.1,2.6
		c0.6-0.5,3.5-1,6.8-1.2c5.3-0.3,5.7-0.3,6,1c0.8,2.3,0.3,4.8-1.3,6.7c-2.1,2.6-3.2,7.6-2.1,8.9c0.6,0.7,0.5,0.9-0.6,0.9
		c-0.8,0-2.4,1.3-4,3.2c-2.5,2.9-3,3.2-5.4,3.2C187.8,341.3,186.6,341.1,185.4,340.7z"/>
	<path id="RU-IVA" class="st1" d="M313.7,336.3l-4.5-3l-2.4,1.4c-3.6,2-7,1.7-10.9-0.8c-2.7-1.7-3.2-2.3-3-3.7
		c0.2-1.2-0.5-2.4-3.2-5.1c-3.3-3.4-3.5-3.6-5-2.7c-2.3,0.8-4.7,0.6-6.9-0.5c-1.4-0.9,2.5-4.1,8.3-7.1c2.7-1.4,5.8-3,6.8-3.6
		c1.4-0.7,3.6-1,7.3-1c6.7,0,9.6,1.3,12.6,5.6c4.4,6.3,5.8,7.5,11.4,9.2c4.9,1.4,5.3,1.5,6.4,0.5c1.5-1.3,4.7-1.4,4.7-0.2
		c-0.1,0.7-0.4,1.3-1,1.7c-0.6,0.5-1,1.9-1,4.2v3.4l-3.6-0.3c-3-0.3-4-0.1-6,1.2C317.5,339.8,318.6,339.7,313.7,336.3z"/>
	<path id="RU-KLU" class="st1" d="M203.2,333.7c-3-1-3.2-1.2-2.8-3.1c0.5-1.7,1.3-3.4,2.3-4.8c1.8-2.5,1.9-3,1.6-6.5
		c-0.4-3.2-0.3-3.8,0.7-4.1c0.8-0.3,1.7,0.1,2.9,1.2c1.6,1.6,1.9,1.7,7.8,1.3c3.4-0.2,6.8-0.5,7.7-0.6c1.3-0.2,1.9,0.2,2.7,1.6
		c0.6,1.1,1.6,1.9,2.1,1.9c1.4,0,3,2.6,3,5c0,1.6-0.5,2.7-2,4.1c-2.3,2.1-3.7,2.3-7.8,0.8l-3-1l-4.2,2.7
		C209.7,335.1,208.1,335.3,203.2,333.7z"/>
	<path id="RU-KOS" class="st1" d="M277.9,338.5c-4.9-6.3-8.2-9.4-9.6-9.4c-0.8,0-1.6-0.4-2.1-1c-0.6-0.8-0.6-1.2,0.4-2.3
		s1-1.6,0.4-2.6c-1.2-1.9-0.5-2.5,2.7-2.5c1.8,0,3.5,0.5,4.9,1.6c2.8,2.1,8.6,3.5,10,2.3c0.8-0.7,1.2-0.6,2.4,0.4
		c3.2,2.8,4.3,4.4,3.9,6.1c-0.3,1.5,0.1,1.9,2.3,3.2c3,1.7,3.4,2.6,1.2,2.6c-1.1,0.1-2.1,0.6-2.8,1.4c-1.2,1-1.7,1.2-2.7,0.6
		c-2.5-1.4-4.5-0.9-5.6,1.2c-0.4,0.8-0.9,1.6-1.6,2.3C281.4,342.4,279.7,340.7,277.9,338.5z"/>
	<path id="RU-KRS" class="st1" d="M199.7,370.5c-1.6-2-2.7-2.7-4.8-3c-2.2-0.5-4.2-1.5-6-2.9c-1.8-1.3-3.8-2.4-5.9-3.2
		c-2.3-0.6-2.8-1.1-2.8-2.3c-0.2-1.8-0.7-3.5-1.3-5.2c-1.7-4.9-1.7-5.1,1-6.3c1.4-0.7,2.5-1.8,3.2-3.1c1-2,1.2-2.1,4.4-1.7
		c3.1,0.3,3.6,0.6,6.8,4.1c4.8,5.3,5.2,6,6,10.2c0.6,3.2,1.1,4.1,4.2,7.2c1.9,1.9,3.5,3.8,3.5,4.1s-0.8,1.1-1.7,1.7
		C201.3,373.3,201.9,373.2,199.7,370.5z"/>
	<path id="RU-LIP" class="st1" d="M221.4,378.8c-1.5-0.7-2.6-1.9-3.1-3.5c-0.3-1-0.8-2-1.5-2.8c-0.8-0.6-1.4-1.4-1.9-2.2
		c-0.8-1-1.9-1.8-3.1-2.1c-1.5-0.6-2.9-1.6-3.9-2.8L206,363l2.3-0.2c1.9-0.2,2.7-0.8,5-3.9c1.4-2.1,2.8-3.9,3.2-4.3
		c0.3-0.3,1.2,0.3,2.1,1.2l1.6,1.8l2.8-1.2c1.6-0.6,3.2-1.2,3.6-1.4c0.6-0.3,7.4,7.8,7.4,8.8c-1.1,1.1-2.3,2.1-3.6,3l-3.6,2.6
		l0.1,4.8c0.2,4.7,0.1,4.8-1.5,5.2C224,379.7,222.6,379.5,221.4,378.8z"/>
	<path id="RU-MOW" class="st2" d="M239.4,326.8c-0.2-1.1-0.4-2.3-0.4-3.4c0-1.9,0.2-2.1,2.8-2.5c3.7-0.5,4.3-0.1,4.3,3
		c0,2.8-0.1,2.9-3.7,3.8C240,328.1,239.7,328.1,239.4,326.8z"/>
	<path id="RU-MOS" class="st2" d="M235.5,344.1c0-0.8,0.2-1.6,0.6-2.3c0.8-1.9,0.6-2.4-1.4-6.9c-1.9-4.1-2.2-5.3-1.8-7.9
		c0.5-3.6-1.2-7.6-3-7.6c-0.6,0-1.7-1-2.5-2.3l-1.4-2.3l2.1-3.9c1.7-3.2,2.5-4,4.4-4.5c3.7-1,5-0.8,6.7,1.4c1.4,1.8,2.3,2.1,7.9,3.2
		c8.1,1.6,12.5,4.7,8.1,5.8c-1.2,0.3-1.8,1.3-3,4.8c-1.4,3.9-1.4,4.8-0.8,7c0.5,1.6,1.4,3,2.6,4.1c2.1,1.7,2.2,2.3,0.6,5.8
		c-1.2,2.6-1.3,2.7-5.9,3.5c-2.7,0.5-6.6,1.2-8.8,1.7C238.4,343.9,237,344.1,235.5,344.1z M243.5,329.1l4.2-1.2l0.2-3.5
		c0.3-5.1-0.5-5.8-6-5.2l-4.5,0.5l0.2,4.5c0.2,4.8,0.5,6.1,1.2,6.1C239.1,330.3,241.2,329.7,243.5,329.1L243.5,329.1z"/>
	<path id="RU-ORL" class="st1" d="M203,359.9c-0.6-1.5-1.1-3.1-1.4-4.7c-0.6-3.2-1.4-4.3-4.7-8c-2.3-2.5-3.8-4.5-3.4-4.9
		c1.7-3,4.3-5.6,5.2-5.2c0.7,0.2,1.5-0.1,1.9-0.8c0.8-1,1.2-1,5.4-0.3l4.5,0.8l0.4,3.2c0.2,1.9,1.1,3.8,2.3,5.2
		c2.8,3.2,2.7,6.9-0.6,11.4c-2.3,3.4-2.5,3.6-5.8,3.8C204.7,360.7,203.4,360.5,203,359.9z"/>
	<path id="RU-RYA" class="st1" d="M251.3,367c-2-2-2.1-2-5-1.2c-2.1,0.6-3.2,0.6-3.3,0.1c-0.7-1.6-2.4-2.7-4.2-2.6
		c-2.7-0.1-3-0.3-6.5-4.8c-3.2-4.2-3.4-4.6-2-5.1c0.5-0.2,1.7-1.8,2.6-3.6c1-2.1,2.1-3.4,3.1-3.6c3.4-0.8,15.1-2.9,16.4-2.9
		c1.4,0,6.6,6,10.2,11.8l1.9,3.1l-4.8,5c-1.7,1.9-3.6,3.8-5.6,5.5C253.7,368.9,252.4,368.1,251.3,367z"/>
	<path id="RU-SMO" class="st1" d="M190.9,315.3c-1.9-1.1-1.4-8.2,1.1-16c2.1-6.2,2.5-7,6.1-10.6c3.8-3.8,3.9-3.8,6.1-3
		c1.8,0.6,3,1.9,5.9,6.9l3.8,6.1h9.6l2.6,3.3c1,1.2,1.9,2.4,2.6,3.8c0,0.7-3.8,7.8-4.8,8.9c-0.5,0.5-3.3,1-7.3,1.2l-6.5,0.5
		l-1.6-1.9l-1.6-1.9l-3.1,1.4C200.3,315.5,192.6,316.3,190.9,315.3z"/>
	<path id="RU-TAM" class="st1" d="M232.1,391.6c-4.8-5.2-5.9-6.6-6.3-8.4c-0.3-1.5-0.2-1.8,1.3-2.1c1.6-0.5,1.6-0.5,1.5-5.5
		c-0.1-2.8-0.1-5.2,0.1-5.3c4.7-3.8,6.9-5,9.1-5c2,0,2.7,0.3,3.2,1.6c0.8,1.8,0.9,1.9,4.8,0.8c2.7-0.6,3.1-0.6,4.3,0.7l1.4,1.4
		l-1.8,1.3l-1.8,1.4l0.5,7.6l0.5,7.6l-6.5,3.3c-2.3,1.2-4.7,2.3-7.1,3.3C234.1,393.6,233,392.6,232.1,391.6z"/>
	<path id="RU-TVE" class="st1" d="M255.7,312c-1.2-1.1-3.4-1.8-7.8-2.6c-5.6-1-6.2-1.3-7.9-3.4c-1.7-2.2-1.9-2.3-4.7-1.8
		c-1.2,0.1-2.5,0.4-3.7,0.7c-0.5,0.1-2.1-1.5-3.8-3.6l-3-3.9h-4.3c-1.7,0-3.4-0.1-5.1-0.5c-1-0.6-6.7-10-6.7-10.9
		c0-0.5,0.9-1.2,1.9-1.6c2.4-1,2.9-1.9,3.6-6.1c0.8-5.5,2.4-7,4.3-4.1c0.7,1.1,2.5,1.7,7.4,2.8c2.9,0.6,5.7,1.4,8.5,2.3
		c1.8,0.8,2.5,0.7,6.4-1l4.3-1.9l3.8,4c3.2,3.5,3.9,3.9,5,3.4c1.9-1,3-0.8,6.3,1.3c1.8,1.3,3.9,2,6.1,1.9c2.7,0,3.1,0.2,3.4,1.6
		c0.6,2.3-0.6,4.7-4,8c-3.8,3.7-6.1,9.1-4.7,11.2c0.7,1.2,0.6,1.6-0.9,3.5c-0.9,1.2-1.9,2.3-2.1,2.2
		C257.1,313.1,256.3,312.6,255.7,312z"/>
	<path id="RU-TUL" class="st1" d="M219.1,353.5c-0.6-1-1.3-1.9-1.6-1.9s-0.5-1-0.5-2.3c0-1.7-0.8-3.3-2-4.5c-1.7-2-2.1-2.8-2.1-6
		l-0.1-3.6l2.9-1.8l2.9-1.8l3.8,1.1c3.8,1,3.9,1,6.2-0.3l2.5-1.4l1.8,4.1c2.1,4.7,2.1,4.8,0.8,8c-3.8,9.2-3.6,9-9.8,11.1l-3.7,1.3
		L219.1,353.5z"/>
	<path id="RU-VLA" class="st1" d="M259.4,347.7c-4.8-6-4.6-5.2-2.7-9.6l1.7-3.9l-2.3-2.1c-3.4-3-3.8-4.5-2.5-9.3
		c0.6-2.3,1.3-4.1,1.5-4.1c0.9,0.7,1.6,1.4,2.3,2.3c1.7,2.2,2,2.3,4.6,1.9c3.3-0.5,4.3,0.4,2.5,2.3c-1.1,1.2-1.1,1.4-0.2,3
		c0.7,1.1,1.8,2,3.1,2.5c2.9,0.9,12.6,11.8,11.5,12.9c-0.6,0.6-15.5,7.4-16.2,7.3C262.3,351,260.8,349.5,259.4,347.7z"/>
	<path id="RU-VOR" class="st1" d="M201.5,405.3c-1.1-0.8-2.3-1.4-3.6-1.9c-0.5,0-3-3.7-4.1-5.9c-0.1-0.3,1.6-2.3,3.7-4.7
		c4.2-4.7,5.2-7.6,5.2-14.6v-3.8l3.6-2.5c4.1-2.7,6.3-2.7,7.4,0c0.3,0.9,0.9,1.6,1.3,1.6s1.2,1.3,1.9,2.8c0.9,2.1,1.8,3.2,3.4,3.8
		c2.3,1,4.3,3.2,4.3,4.9c0,0.6,2.1,3.2,4.5,5.9c4.1,4.4,4.5,5.1,4.5,7.6c0,3.4-1,3.6-4.4,1c-2.1-1.6-2.5-1.7-7-1.3
		c-1.7,0.1-3.5,0.3-5.2,0.6c-0.4,0.8-0.6,1.6-0.8,2.5c-0.4,1.9-0.9,2.3-4.2,3.6C206.5,407.5,204.8,407.5,201.5,405.3z"/>
	<path id="RU-YAR" class="st1" d="M258.8,320c-1.4-1.6-1-3.3,1.9-6.8c2.9-3.7,3-4,2.2-5.6c-1.2-2.3,0.5-6.2,4.3-10.1
		c4.3-4.3,5.8-4.3,9.2-0.6l2.6,2.7l1.8-1.2c1.6-1.1,1.8-1.1,2.6-0.1c0.8,1.1,2.2,9.2,2.2,12.9c0,1.7-0.3,2.3-1.5,2.5
		c-1.8,0.9-3.4,2-4.9,3.4c-2.7,2.3-3.8,2.9-4.8,2.5c-2.3-0.8-10.2-0.3-11.2,0.7c-1.1,1.1-2.8,1.2-3.9,0.1
		C259,320.3,258.9,320.1,258.8,320z"/>
	<path id="RU-AD" class="st1" d="M143.2,470.1c-0.5-1-1-2-1.1-2.3s0.5-0.5,1.3-0.5c0.9-0.1,1.7-0.3,2.5-0.6c0.8-0.5,0.8-0.8,0.2-1.9
		c-1.4-2.1-1-3,1.7-4.2c2.5-1.1,4.3-3.7,3.6-4.9c-0.8-0.5-1.7-0.7-2.6-0.6c-2.5,0-5.2-2.4-5.9-5c-0.6-2.3,0.1-2.5,2.3-0.6
		c1.2,1.2,2.9,1.8,4.6,1.7c2.3,0,2.7,0.2,3.6,2.3c1.3,3.1,1.9,10.2,1,11.7c-0.6,1.1-0.8,1-1.4-0.9c-0.5-1.2-1.1-2.1-1.6-2.1
		c-0.4,0-2,2.1-3.6,4.8c-1.6,2.7-3,4.8-3.3,4.8C144.3,471.9,143.7,471.1,143.2,470.1z"/>
	<path id="RU-AST" class="st1" d="M228.3,496.8c-4.3-0.5-8.3-0.7-8.9-0.5c-0.7,0.2-1.5,0.1-2.1-0.3c-0.8-0.5-0.5-1,1.9-3.4l2.9-2.8
		l-1.3-2.5c-1.4-2.8-1.6-2.7,4.1-3.8c2.1-0.5,3.9-1,4-1.2c0.1-1.2,0-2.4-0.3-3.6c-0.6-3-0.5-3.3,1.7-6.5c0.9-1.2,1.6-2.4,2.3-3.8
		c0-0.3-1.5-0.5-3.3-0.5h-3.4l0.5-5.2c0.3-2.7,0.2-5.4-0.4-8c-0.4-1.6-0.6-3.2-0.3-3.4c0.3-0.3,2.8-0.5,5.5-0.4
		c4.3,0.1,5.1,0.3,6.1,1.5c1.4,1.7,1.5,3,0.2,4.3c-1,1-1.2,3-0.4,5.1c0.3,0.8,0.1,2.6-0.6,4.7c-1.4,4.1-1.2,4.8,2.9,7.8
		c1.6,1.2,3.1,2.7,3.2,3.2c0.4,2.3,0.6,4.6,0.7,6.9l0.5,5.9l-2.7,1.1c-2.7,1-2.8,1-2.3,3.6C239,498.2,240,498,228.3,496.8z"/>
	<path id="RU-CE" class="st1" d="M176.8,522.1c-0.5-0.8-0.7-1.8-0.6-2.8c2.4-1.9,4.9-3.7,7.6-5.2c7-4.5,7.1-4.6,8.3-3.4
		c0.6,0.7,1.5,1.2,2.4,1.3c2.3,0,1.6,2.5-1,3.7c-1.7,0.8-2.5,1.7-3.2,4.1l-1,3l-4.7,0.5c-2.5,0.3-5.1,0.6-5.7,0.7
		C178.1,524.2,177.4,523.5,176.8,522.1z"/>
	<path id="RU-DA" class="st1" d="M183.8,551.3c-0.3-2-0.4-4-0.4-5.9c0-4.3-0.1-4.7-3.3-9.4c-2.9-4.5-3.2-5.2-2.8-7.4
		c0.5-2.9,1.9-3.6,8-3.6c4.8,0,4.9-0.1,6.5-4.2c0.5-1.3,1.3-2.4,2.4-3.3c2.8-1.4,3.5-2.4,3.3-4.7c-0.1-2-0.5-2.4-1.9-2.5
		c-1.7-0.3-2.7-1.2-5.6-6.1l-1.4-2.3l5.6-3l5.6-3.1l3.5,3.5c3.8,3.8,4.1,4.3,2.4,4.9c-3.2,1.1-3.4,1.9-3,9.2
		c0.5,7.8,0.5,7.4-4.4,13.9l-2.5,3.3l-0.2,10.3l-0.2,10.3l-3.2,0.7c-1.8,0.4-3.7,0.7-5.6,0.8C184.6,552.7,184.1,552.5,183.8,551.3z"
		/>
	<path id="RU-IN" class="st1" d="M173.9,516.9c-0.2-1,0.2-2,1-2.6c1.3-1.4,1.4-2,1-5.2l-0.5-3.6h4.8c5.8,0,8.7,0.5,9.1,1.6
		c0.3,0.7-2.4,2.6-13.6,9.9C174.5,517.8,174.3,517.8,173.9,516.9z"/>
	<path id="RU-KB" class="st1" d="M159.8,500.2c-0.6-2.2-1.7-4.7-2.5-5.4l-1.3-1.4l3.2-1.6l3.2-1.7l3.5,1.9c1.9,1,5.4,2.9,7.8,4.2
		l4.3,2.3l-1.3,2.2c-1.3,2.1-1.3,2.2-5,1.8c-2.3-0.2-4.7,0-6.9,0.7c-1.1,0.4-2.3,0.8-3.5,1.1C161.1,504.3,160.5,502.4,159.8,500.2z"
		/>
	<path id="RU-KL" class="st1" d="M205.2,498.9c-3.2-2.9-3.9-4.1-5-7.6c-1-3-2.2-6-3.5-8.9c-1.2-2.4-2.1-4.9-2.7-7.5
		c-0.5-2.8-4.2-10.2-6.2-12.2c-0.9-0.8-2.1-1.2-3.4-1.2c-1.8,0-2.3-0.3-2.5-1.5c-0.1-1.2-0.5-1.4-2.2-1.2c-1,0.1-2-0.1-2.7-0.8
		c-0.6-0.7-0.2-1,2.6-1.4c1.6-0.2,3.1-0.6,4.5-1.4c1-0.9,1.2-0.7,2.8,1.7c1,1.5,1.8,3.1,2.5,4.8c1.5,4,2,4.5,5.7,4.7
		c3.5,0.3,3.6,0.3,4.4-1.7s0.9-2.1,3.9-1.6l3.1,0.4l2.4-3.9c1.3-2.2,2.2-4.3,1.9-4.6c-0.2-0.4-1.6-0.6-3-0.6c-2.1,0-2.6-0.2-2.4-1.2
		c0.2-0.9,1-1.2,5-1.3c3.8-0.2,5.2-0.5,6.2-1.5c1.5-1.4,2.2-1.1,2.2,1s1.2,3,2.8,2.2c2.2-1.2,2.7,0.3,2.7,8.1v7.2l2.5,0.2
		c1.3,0.1,2.4,0.5,2.4,0.8c-0.4,1-0.9,2-1.6,2.9c-0.9,1.2-1.3,2.6-1.2,4.1c0.8,4.3,0.9,4.3-3.6,5.1c-1.7,0.3-3.3,0.8-4.8,1.5
		c-0.4,0.3-0.1,1.6,0.6,3.2l1.2,2.7l-3.1,3c-3.1,3-3.1,3-1.7,4.1c1.8,1.5,1.7,1.9-0.7,3.6C210.3,502.8,209.3,502.6,205.2,498.9z"/>
	<path id="RU-KC" class="st1" d="M153.4,491.3c-1.5-1.2-9.2-13.4-8.7-13.8c1.1-0.6,2.2-1.2,3.4-1.6l3.2-1.4l2,2.4l2.1,2.4l2.1-1.1
		c2.9-1.4,3.4-1.4,4.7,0.8c1,1.7,1,1.8,0,2.5s-1,0.9,0,3.6l1,3l-1.9,0.8c-1.4,0.7-2.8,1.4-4.1,2.3
		C155.1,492.5,155,492.5,153.4,491.3z"/>
	<path id="RU-KDA" class="st1" d="M154,474.8c-1-1.2-2.1-2.3-2.5-2.3c-1.5,0.5-3,1.1-4.4,1.8c-2.1,1-3.9,1.6-4.2,1.4
		c-0.9-0.5-1.8-0.9-2.8-1.2c-2.8-0.9-3.2-2.2-3.2-11.2c0.1-3.9-0.5-7.7-2-11.3c-2.6-7.4-3.7-11.3-4.2-15.2c-0.4-2.8-0.3-3.1,0.8-3.1
		c1,0.3,1.9,1,2.3,1.9c1.5,2.5,2.5,2.4,6-0.1c2.7-1.9,3-2,7-1.6c4.9,0.5,5.4,0.1,5.7-4.5c0.2-3.5,0-3.4,5.5-2.5
		c1.9,0.3,2.1,0.5,1.7,2.1c-0.5,2.5,1.2,4.1,3.2,3.4c1.2-0.5,1.8-0.3,2.8,0.8c3,3.4,3,3.4,1.8,6.9l-1.1,3.2l2.4,3.6
		c1.9,2.8,2.3,4.1,2.1,5.9c-0.2,2.4-0.3,2.5-2.9,2.5c-2.5,0-2.9,0.3-4.4,2.4c-1.9,2.8-1.9,3.5-0.6,7c1,2.5,1,2.6-0.3,3.7
		c-1,1.1-1.7,2.4-2.2,3.8c-0.5,1.5-1.5,2.9-2.9,3.8l-1.9,1.2L154,474.8z M148.5,469.5l2.8-4.3l0.9,2.1c1.2,2.8,2.4,2.7,3.7-0.6
		c0.8-2.3,0.9-3.6,0.5-7.6c-1-8-2.3-9.6-7-9.6c-1.3-0.2-2.5-0.8-3.5-1.7c-1.6-1.5-2-1.6-3.4-1c-2.2,1-2.1,3.6,0.4,6.9
		c1.4,1.7,2.6,2.7,3.9,2.9c3.1,0.5,2.8,1.6-0.8,3.1c-3.4,1.4-3.5,1.7-2.3,4.7c0.4,0.8,0,1.1-1.5,1.4c-1.2,0.3-2,0.8-2,1.4
		c0,1.8,3.3,6.8,4.5,6.8C145.3,473.9,146.8,472.2,148.5,469.5z"/>
	<path id="RU-SE" class="st1" d="M167.9,512.7c-4.3-1.1-4.9-1.7-6.1-5.6c-0.3-1.2,0-1.5,3-2.2c2.1-0.4,4.2-0.6,6.3-0.6l2.9,0.3
		l0.2,3.8c0.2,3.4-0.5,5.8-1.7,5.6C172.3,513.8,170.2,513.3,167.9,512.7z"/>
	<path id="RU-STA" class="st1" d="M179,503.7c-1.8-0.2-1.8-0.5-0.2-3c1.7-2.7,1.7-3.2-1.1-4.5c-1.4-0.6-4.8-2.5-7.7-4.1
		c-4.8-2.8-5.2-3.2-5.8-5.8c-0.6-2.5-0.5-2.8,0.5-2.8c2.1,0,1.9-1.2-0.3-4.7c-1.3-1.9-2.3-3.9-2.3-4.6c0.2-2,1.2-3.8,2.7-5
		c1.3-1,1.3-1.1,0.2-4.7c-1.1-3.4-1.1-3.7-0.1-5.3c0.5-1.1,1.7-1.7,2.8-1.6c1.1,0,2.3-0.2,3.3-0.6c1.4-0.8,1.7-0.6,4.2,1.8
		c1.9,1.9,3.1,2.5,3.9,2.3c0.8-0.3,1.2-0.1,1.5,0.9c0.3,1.2,0.8,1.4,3,1.4c2.5,0,2.8,0.1,5.2,3.9c1.6,2.4,2.7,5.1,3.4,7.9
		c0.7,3,1.7,5.9,3,8.6c3,6,3.9,9.4,2.8,10.3c-1.7,1.2-3.5,2.2-5.3,3.2c-5.8,3.1-6.3,3.5-5.9,5.1c0.3,1.2,0.1,1.4-3,1.4
		C182.2,503.9,180.6,503.9,179,503.7z"/>
	<path id="RU-ROS" class="st1" d="M194.7,464.9c-2.4-0.3-3.6-1.2-3.6-2.8c0-1.7-4.4-9.6-5.6-10c-0.5-0.2-1.6,0.4-2.3,1.4
		c-1.3,1.6-1.7,1.7-5.6,1.6l-4.3-0.2l-0.3-2.6c-0.5-2.1-1.3-4-2.5-5.8l-2.1-3.2l1.1-3.4l1.2-3.4l-2.4-3c-2.5-3-2.8-3.2-5.4-3
		c-1.2,0.1-1.5-0.1-1.3-1c0.2-1,0.8-1.2,3.2-1.2c1.7,0,3.4-0.4,3.9-0.9c0.9-0.9,0.1-1.8-4.3-5c-1.9-1.4-1.9-1.4-0.7-2.7
		c0.9-1,2-1.4,4.1-1.4c2.5,0,3.2,0.4,6.8,3.6l3.9,3.7l2-2.3c1.1-1.2,3-3.7,4.3-5.4c1.7-2.3,2.9-3.4,4.8-3.9c4.1-1.2,5.4-2.1,6.1-4.7
		c1.2-3.7,1.6-3.8,5.3-1.5c2.8,1.7,3.8,2,5.7,1.7c4.8-1,4.7-1,5.8,3.4c1.1,4.5,1.2,4.4-3.5,7.6c-1.3,0.9-1.3,0.9,0.2,3.7
		s1.5,2.8,0.4,5.2c-1.1,2.3-1.3,2.4-4.3,2.4c-3.2,0-7,1.4-7,2.6c0.2,0.9,0.5,1.8,1,2.7c0.8,1.7,0.9,2.5,0.3,4.8
		c-1,3.7,0.1,7.6,2.5,9.3c1.4,1,1.7,1.6,1.4,3.2c-0.3,1.9-0.2,2,2.5,2h2.7l-1.5,2.7c-1.5,2.7-1.5,2.7-4.5,2.3
		c-2.9-0.3-3.2-0.3-4.1,1.6C197.4,465.1,197.2,465.2,194.7,464.9z"/>
	<path id="RU-ROS_1_" class="st3" d="M83.6,442.1c-0.2-3.2-0.3-3.2,3-3.4c3.4-0.2,5.7,4,7.9,3.3c2.2-0.7,3.9,1.8,5.1,3.3
		c1.5,1.8,4.2,1.9,4.5,2.6c1.5,1.4,2.2,3.9,3.8,4.5c2.6,1,4-1.6,5.5-3c0.8-0.8,1.3-0.9,2.4-0.6l4.2-0.5c1.8,0.1,0.2,3.9,1.5,4.7
		c1.5,1,1.6,1.2,1.1,2.7s-1.2,2.2-2.4,2c-1.2-0.2-6.9-0.2-7.4,0.5c-0.2,0.3-1.1,3.4-1.3,4.7c-0.3,1.5-4.5,4.3-5.9,4.9l-3.5,1.6
		l-2.1,0.4l-1.6,2.1c-2.4,1.3-2.6,3.1-4.9,3.6c0,0.8-3.6,0.2-4.4-1.6c0,0-2.3-6.2-2-7.3c0.2-0.9-0.4-3.2-1.5-3.8l-6-0.3l-10.8-0.1
		c-0.8-0.8,3.5-6.9,4.5-8.4c-0.1-1.7,12.5-1.2,12.3-2.5c-0.5-2.8,0.3-3.6-1.5-4.4L83.6,442.1z"/>
	<path id="RU-VGG" class="st1" d="M239.4,452.3c-1-2.3-2.1-2.7-8.5-3.2c-2.1-0.2-8.3,0.9-9.2,1.6s-1,0.4-1.7-2.9
		c-0.5-2.3-1.3-2.2-3.7,0.5c-1.9,2.1-2.2,2.3-6.4,2.3c-5.9,0-7.4-0.7-8.4-3.6c-0.6-1.7-0.6-3.5,0-5.1c0.6-2.3,0.6-3.1-0.3-4.8
		c-1.5-2.9-0.7-3.4,5.4-3.6c2.7,0,2.8-0.2,4.5-3.2l1.7-3.1l-1.4-2.5l-1.4-2.5l2.7-2.2l2.7-2.3l-0.8-3.8c-0.5-2.1-1-4.4-1.1-5.1
		c-0.3-1,0.3-1.6,2.1-2.6c2.3-1.3,3-2.1,3.8-4.4c0.3-0.9,1.1-1.1,4.2-1.1c2.1,0,4.1,0.3,4.3,0.7c0.7,0.7,1.5,1.4,2.4,1.9
		c1.5,1.2,2.7,2.6,3.6,4.3c1.6,3,1.9,3.2,6.4,4.5c2.6,0.7,5,1.7,5.4,2.3c0.7,1.2,0.8,5.6,0,8.1c-0.8,2.7,0.1,3.9,2.9,4.4
		c1.6,0.2,2.9,1.3,3.6,2.7c0.8,1.3,1.9,2.4,3.3,3.2c1.4,0.6,2.4,1.8,2.8,3.2c0.5,1.4,0.7,2.7,0.5,3c-1.8,1.3-3.7,2.4-5.7,3.4
		c-6.2,3.4-6.7,3.8-7,6.7c-0.1,1.7-0.7,2.4-2.9,3.7l-2.7,1.6L239.4,452.3z"/>
	<path id="pathArk1" class="st1" d="M359.2,312.9c-1.1-0.4-2.3-0.6-3.4-0.6c-1.3-0.1-2.4-0.7-3.2-1.7c-1.2-1.4-1.6-1.6-3.8-1.2
		l-2.5,0.4v-2.5c0-2-0.3-2.7-1.2-2.9c-0.7-0.2-1.9-1.6-2.6-3c-1.4-2.7-2.7-3.2-4.5-2.1c-0.8,0.3-1.7,0.3-2.6,0.1
		c-1.4-0.3-1.7-0.9-2-3s-0.6-2.5-1.6-2.4c-0.7,0.1-2.6,0.4-4.2,0.6c-2.8,0.4-3,0.3-4.7-1.9c-1.1-1.4-3.5-3-6.6-4.5
		c-3.8-1.8-5-2.7-5.3-4c-0.2-1-1-1.8-1.9-2c-1.8-0.5-10-8.9-10-10.3c0.4-1.7,0.9-3.3,1.6-4.8s1.3-3.2,1.6-4.8c0-0.5,1.2-1.6,2.5-2.3
		c2.3-1.1,2.7-1.7,3.2-4.6c0.4-1.9,1.2-3.7,2.3-5.2c1.5-1.8,1.6-1.9,0.6-4.9c-1.6-5.3-1.3-7,2.2-11.6c1.4-1.7,2-2.1,4.3-2.1
		c2.1,0,2.8,0.3,3,1.2c0.3,1.2,3.9,3.9,5.1,3.9c0.7,0,5-3.9,5.8-5.2c0.4-0.8,0.3-2.1-0.2-4c-0.9-3.4-0.1-8.1,1.6-9.1
		c1.7-1.1,2.4,0.1,3,5.9l0.6,5.4l4.1,4.3c5.4,5.7,6.5,5.8,8.2,1c3.2-9,4.4-9.8,14-9.8c8.3,0.1,8.5,0.1,10.7,5.4
		c2.7,6.1,3.3,6.7,5.8,5.3l1.9-1.2l4.6,8.7l4.6,8.7l4-0.4c2.9-0.3,4.3-0.1,5.2,0.6c1.1,0.8,1,1.1-1.4,6l-2.6,5.2l1.4,4.7
		c1.2,3.9,1.3,4.8,0.6,5.8c-0.8,1-1.2,1-3.8,0.3c-1.8-0.5-3.7-0.7-5.6-0.8c-2.2,0-3-0.5-5.8-3.1c-2.2-2-4.7-3.8-7.4-5.3
		c-3.9-2.1-4.3-2.1-6.8-1.4c-1.5,0.5-2.7,1.2-2.7,1.7c0.5,1.7,1.1,3.4,1.9,5c1.7,3.6,1.9,4.5,1.3,6.1c-0.5,1.6-0.6,3.2-0.4,4.8
		c0.5,3.3,0.6,3.2-3.6,4c-1.4,0.3-1.9,1.1-3.2,5.3l-1.6,4.9l1.9,1.6c2.6,2.1,3.6,2,6-1c1.7-2.2,2.5-2.6,4.5-2.6
		c1.9,0,2.7,0.3,3.5,1.5c1,1.5,0.8,1.7-4.5,7c-4.7,4.6-5.4,5.7-5.2,7.1C367.3,312.7,364,314.4,359.2,312.9z"/>
	<path id="RU-NEN" class="st1" d="M461.6,269.6c-11.8-5.2-16-7.4-24.4-13c-7.6-5-10.5-6.5-11.6-6.3c-1.3,0.3-19.6,0.4-29.7,0.1
		c-2.4-0.1-4.6-0.4-4.9-0.7s-2.4-4.1-4.6-8.3c-3.3-6.1-3.9-7.8-3.2-8.3c0.5-0.3,1.9-1.2,3.1-1.9l2.1-1.4l-0.4-4.5l-0.5-4.4l2.8-1.2
		c3.8-1.6,9.6-8,9.6-10.5c-0.1-0.8,0.1-1.6,0.6-2.2c1-0.6,4.1,2.4,5.3,5.3c1.6,3.7,1.6,6.1,0,7.6c-1.2,1.1-1.4,1.1-4.6,0
		c-3.2-1.2-3.2-1.2-6.1,0.3c-1.3,0.5-2.5,1.4-3.4,2.5c-0.4,1.1,0.9,11.2,1.6,12.3c0.5,0.8,7,3.4,8.5,3.4c0.6,0,2.6-1.6,4.5-3.6
		l3.5-3.6h18.3c10.2,0,18.4,0.3,18.6,0.6c0.3,0.3-1.2,1.5-3.2,2.6s-3.8,2.5-4,3c-0.4,1,3.8,5.8,5.9,6.7c0.8,0.3,2.6,0.1,4.8-0.7
		c4.4-1.5,5.7-1.5,9.8,0.1c2.7,1,4.1,1.2,8.1,0.8l4.9-0.4l-0.5,3c-0.5,2.8-0.4,3,1.4,3.8c3.1,1.3,6.6,0.9,9.3-1.1l2.8-1.9l-0.4-4.3
		c-0.3-3.4-0.1-4.6,0.6-5.4c1-1.1,0.9-1.1,11,4.7c1.9,1.2,3.5,2.9,4.8,4.8l2.1,3.2l-1.4,1.9c-1.7,2.3-1.7,2.1,0.3,6.9
		c0.9,2.3,1.5,4.3,1.2,4.5s-1.4,0.1-2.5-0.4c-2-0.8-2.1-0.7-4.5,1.9c-1.3,1.6-3.1,2.8-5.1,3.3c-1.9,0.6-3.8,1.5-5.4,2.8
		c-2,1.5-4.2,2.6-6.6,3.2c-2.2,0.6-4.1,1-4.2,1S469.5,273,461.6,269.6z"/>
	<path id="ArkhangelskNovaZemlya" class="st1" d="M471,211.4c-2.8-2.1-5.1-4.5-5.3-5.3c-0.2-0.8-1-4.7-1.7-8.7
		c-1.2-6.3-1.2-7.5-0.5-9.7c0.7-2.1,1.4-2.7,3.4-3.4c1.5-0.5,4.8-3,8.6-6.7c5.4-5.1,6.4-5.8,8-5.4s2.1-0.1,4.8-3.6
		c1.7-2.2,3.8-4.2,6-5.9c1.7-1.2,5.8-4.1,9.2-6.7c3.4-2.6,6.9-5.1,7.8-5.8c2-1.3,15.1-3.4,27.3-4.3c4.6-0.3,9.2-1,13.7-2
		c2.6-0.8,5.1-1.2,5.7-1c1.8,0.7,1.2,4.1-1.2,6.5c-2.5,2.5-2.5,2.5-16.9,4c-10.5,1.1-13.4,2.2-22.1,8c-2.4,1.5-4.9,2.8-7.5,3.9
		c-2.9,1.4-5.6,3.1-8.1,5c-2.3,1.9-6.6,5.2-9.4,7.4c-5.4,4-12.2,11.3-15,16c-1.6,2.7-1.6,3-1.3,10.7c0.2,4.3,0.5,8.4,0.6,9.1
		C477.4,215.8,476,215.2,471,211.4z"/>
	<path id="path47" class="st1" d="M557.4,77.2c-1.2-3.2,1-5.6,3.9-4.3c1.9,0.9,1.9,1.4,0.2,3.6C560,78.4,558,78.8,557.4,77.2z"/>
	<path id="path49" class="st1" d="M568.1,77.2c-1.7-0.8-2-1.2-1.4-2.1c0.9-1.7,7-3.2,7.8-1.9c1.2,1.8,0.6,3.2-1.7,4.1
		c-1.2,0.5-2.3,0.9-2.4,0.9C570.3,78.1,569.3,77.7,568.1,77.2z"/>
	<path id="path51" class="st1" d="M549.3,76c0-2.8,4.5-3,4.5-0.2c0,0.5-2.8,1.8-3.9,1.8C549.5,77.6,549.3,76.9,549.3,76z"/>
	<path id="path53" class="st1" d="M548.7,68.1c-1.3-4.6-0.8-4.9,4.7-3c2.8,1,3,1.2,2.8,3c-0.2,2-0.3,2.1-3.6,2.3l-3.4,0.2
		L548.7,68.1z"/>
	<path id="path55" class="st1" d="M523.9,65.9c-1.1-1.2-1.1-1.3,1-2.1c7.8-3.2,11.6-4.5,12.2-3.9c0.5,0.6,0.1,5.4-0.5,5.4
		c-0.1,0-2.5,0.4-5.2,1C525.1,67.5,525.2,67.5,523.9,65.9z"/>
	<path id="path57" class="st1" d="M553.5,61.8l-1.9-0.8l3.6-1.1c3-0.9,3.6-1,4.5-0.1c0.8,0.8,0.8,1.1,0.1,1.9
		C558.6,62.9,556.1,62.9,553.5,61.8z"/>
	<path id="path59" class="st1" d="M527.7,58.2c-0.2-0.4-1.4-0.6-2.7-0.6c-2.7,0-2.8-1.2-0.3-3.1l1.9-1.4l3.6,1.4
		c2,0.8,3.6,1.6,3.6,1.9c0,0.5-3.9,2.4-5,2.4C528.3,58.8,527.9,58.5,527.7,58.2z"/>
	<path id="RU-KGD" class="st1" d="M142.8,235.5c-1-1.4-3.9-5.4-6.3-8.9c-4.8-6.9-4.8-7.5-0.2-7.5c2,0,2.6,0.3,3.7,2.1
		c0.8,1.2,1.7,2.3,2.7,3.4c1.3,1.2,1.4,1.2,3.2-0.2c1.2-0.9,2-1.2,2.3-0.8c1.5,3.8,2.7,7.7,3.6,11.8c0,1.4-0.3,1.6-3.9,2.1
		C144.9,237.9,144.7,237.9,142.8,235.5z"/>
	<path id="RU-LEN" class="st4" d="M261.7,271.4c-0.4-0.3-0.7-0.8-0.8-1.3c-0.8-2.2-1.7-4.3-2.7-6.3l-2.7-5.8H253
		c-2.3,0-2.5-0.2-2.1-1.3c0.1-1.3-0.2-2.5-1-3.6c-1.4-2.3-2.5-2.7-5.8-1.7c-2.5,0.7-7-0.4-8.8-2.2c-1.6-1.6-1.7-1.6-3.5-0.6
		c-0.7,0.4-1.4,0.7-2.2,1c-0.4-1.2-0.6-2.5-0.6-3.8c-0.4-2.7-1-5.4-1.8-8.1c-1.7-5-1.6-5.2,3.1-5.9c2.1-0.3,4.2,0,6,1
		c3.4,1.5,4,2.4,5,7.9c0.4,2.3,0.5,2.4,3.8,2.8c1.8,0.2,3.7,0.3,5.6,0.2c2-0.2,2.4-0.6,3.9-3.8c1-2,1.6-3.8,1.4-4.1
		c-1.4-1.1-2.8-2-4.4-2.7c-3-1.7-4.3-2.8-4.8-4.3c-1-3-0.9-3.6,1.5-6.1c1.9-2.1,2.5-2.3,5-2.1c2.7,0.2,2.8,0.3,4.7,3.9
		c1,2.1,3.6,7.7,5.8,12.6l3.9,8.9l3.8,0.5c3.5,0.5,3.9,0.5,5.4-1l1.6-1.5l1.6,1.9c0.8,1,2.5,3.1,3.5,4.6l1.9,2.7l-2.3,0.8
		c-1.3,0.5-4.5,2.7-7,4.9c-3.8,3.3-4.8,4.6-5,6.2c-0.1,1.7-0.8,2.4-4.1,4.5C262.6,272.4,262.8,272.3,261.7,271.4z"/>
	<path id="RU-KR" class="st1" d="M299.8,257c-1.9-2-2.6-2.3-6.8-2.7l-4.7-0.5l-4.5-6.1c-2.5-3.3-4.8-6.1-5.2-6.1
		c-0.9,0.3-1.7,0.9-2.3,1.6c-1.4,1.6-3.3,1.9-6.1,1.2c-1.1-0.3-2.6-3-6.3-11.5c-2.7-6.1-4.9-11.4-4.9-11.9c0-0.6,1.3-0.8,4.4-0.8
		c5.3,0,22.1-3,23.1-4.1c0.5-0.5,1.2-3.8,1.8-7.6c0.3-2.5,0.8-4.9,1.6-7.3c1.1-0.6,2.2-1,3.4-1.3c2.7-0.8,3-1.2,6.4-7.2
		c3.2-5.8,3.9-6.5,7.4-8.6c5-2.9,6.3-4.2,9.5-8.8c1.4-2,2.8-3.7,3.1-3.7c1.4,0.6,2.7,1.4,3.9,2.3c3,2.2,3.2,2.5,2.8,4.4
		c-1,4.1-0.1,6.2,2.7,6.2c1.7,0,1.8,0.3,2.9,8l0.8,5.8l-1.8,1.3c-4,2.9-7.5,6.4-10.3,10.5l-3.8,4.9l1.2,5.9c0.6,3.2,1.3,6.4,1.5,7
		c0.3,1-0.1,1.2-2.7,1.2c-2.7,0-3,0.2-5.6,3.4s-2.7,3.7-2.6,7.6c0,1.9,0.2,3.9,0.5,5.8c0.4,1.2,0.1,2.1-0.9,3.3
		c-1,1.4-1.7,3-1.9,4.7c-0.4,2.4-0.8,3.2-2.3,3.9c-1,0.5-2,1-2.1,1C301.4,258.5,300.6,257.8,299.8,257z"/>
	<path id="RU-KO" class="st1" d="M420.3,339.5c-6.6-2.7-9.6-2.9-17.3-1.5c-4.7,0.8-5.3,0.8-9.4-0.3c-4.2-1.2-4.5-1.4-6.1-4.5
		L386,330l-4.8-0.5c-6.7-0.6-7-0.5-7,3.4c0,4.6-1.4,5-9.8,2.8c-6.9-1.7-7.5-1.6-10.2,1.2c-0.6,0.7-1.4,1.3-2.3,1.7
		c-0.8,0-2.9-6.4-2.9-8.7c0-0.6,1-2.3,2.2-3.6c1.7-1.9,2.5-3.7,3.4-7.4l1.2-5l2.3,0.4c7.1,1.4,7.5,1.3,9.2-1c1-1,1.4-2.4,1.4-3.8
		c-0.3-1.4,0.6-2.6,5.2-7.1c2-1.9,3.8-3.9,5.5-6c-0.4-1-1-2-1.7-2.8c-1.6-1.9-2.1-2.2-4.8-2.2s-3.2,0.2-5.2,2.7
		c-2,2.4-2.4,2.6-3.6,1.9c-1.7-0.9-1.7-1.3-0.2-5.6c1-3,1.4-3.3,4-3.9l2.8-0.7l-0.2-3.9c-0.1-1.9,0-3.8,0.5-5.7
		c0.6-1.6,0.4-2.5-1.3-6c-1.6-3.3-1.8-4.4-1.2-4.8c1.5-0.9,3-0.6,6.5,1.5c5.4,3.2,7,4.5,7.7,6.1c0.5,1.3,1,1.6,3.4,1.6
		c2.4,0.1,4.7,0.6,7,1.3c2.3,0.6,4.1,1.2,4.2,1.3c0.6-0.7,1.2-1.5,1.7-2.3l1.6-2.3l-1.6-4.5l-1.5-4.5l1.7-3.4
		c0.9-1.8,2.3-4.3,3.2-5.6l1.5-2.4l11.9,0.1l11.9,0.1l10,6.5c5.9,4,12.2,7.4,18.7,10.2c4.8,2.1,9.9,4.3,11.3,4.8
		c9.4,4.2,8.3,4,13.3,2.7c2.6-0.6,5-1.7,7.1-3.4c1.4-1.3,3.2-2.2,5.2-2.6c1.8-0.3,3.5-1.2,4.6-2.7c3-3.4,6.1-2.9,3.5,0.6
		c-1.4,1.9-1.2,3.4,0.7,5l1.6,1.4l-1.8,2.6c-1.4,1.9-3,3.7-4.7,5.3c-2.7,2.5-3.5,2.8-9.1,3.8c-6.1,1-9.2,2.5-12,5.6
		c-0.6,0.6-3.1,1.8-5.5,2.5c-2.9,1-5.8,2.3-8.3,4c-3.6,2.5-4,2.7-4.6,1.6c-1-1.8-2-1.4-6.3,3c-3.5,3.6-4.1,4.5-4.3,6.9
		c0,1-0.2,1.9-0.4,2.8c-0.1,0.1-1.9,1.5-4.1,3.2c-3.8,2.9-4.1,3.3-7,10.6c-4.7,11.4-6.3,14.7-7.8,14.8
		C426.7,341.8,423.6,340.8,420.3,339.5z"/>
	<path id="RU-MUR" class="st1" d="M357.5,213.7c-4.1-1.7-5.4-2.8-9-7.9c-3.7-5.2-6.5-12.9-7.8-21.8c-1-6.5-1.3-7.3-2.5-7.4
		c-1-0.1-2.1,0.7-4.1,3c-1.9,2.3-3.2,3.3-4.3,3.3c-2.1,0-2.5-1.2-1.2-4.1c0.9-2.3,0.9-2.3-0.8-3.8c-1.3-1.1-2.7-2.1-4.2-3.1
		c-2.6-1.7-2.8-2.3-1.6-4.8c0.8-1.7,1-1.9,6.7-3c5.2-1,6.5-1.9,7-4.9c1.6-9.3,2.4-11.7,4.1-12.5c6.3-2.9,8.5-3.3,16.2-2.6
		c11.5,1,11.7,1.1,11.7,2.9c0,1.4-0.3,1.6-1.9,1.6c-1.1,0-2.1,0.4-2.3,0.9c-0.6,1.6,1.6,8.1,5,14.6c3,5.8,3.3,6.6,4.2,14.2
		c0.4,4,1.2,8,2.3,11.9c1.5,4.6,1.5,7.7,0.1,16.2l-1.1,6.5l-3.9,1C364.7,215.5,361.5,215.4,357.5,213.7z"/>
	<path id="RU-NGR" class="st1" d="M260,282.1c-1.9-1.2-3.2-1.6-4.8-1.3c-2.1,0.3-2.6,0-5.9-3.4l-3.8-3.7l-2.7,1.1
		c-1.6,0.6-3.7,1.4-4.8,1.9c-1.3,0.7-3,0.6-4.2-0.3c-2.3-0.8-4.6-1.4-7-1.8c-3.9-0.6-5.3-1.2-6.9-2.7l-2.1-2l4.3-4.8l4.3-4.7
		l-0.8-2.5c-0.4-1.3-0.6-2.7-0.7-4.1c0-1.4,0.3-1.7,2.5-1.9c1.5-0.2,3-0.6,4.4-1.2c1.8-0.7,2.2-0.7,3.4,0.5c1.7,1.6,6.2,2.4,9.9,1.7
		c3.1-0.5,4.3,0.7,4.4,4.4c0,2.4,0.1,2.5,2.6,2.5h2.6l2.7,5.6c3.4,7.3,3.6,8.2,2.2,10.3c-1.1,1.6-1.1,1.7,0.1,2.7
		c0.8,0.6,1.8,1.3,2.5,1.7c0.7,0.4,1,1.3,0.9,2.1l-0.3,1.4L260,282.1z"/>
	<path id="RU-PSK" class="st1" d="M203.6,281.3c-2.8-5.6-7.8-18.9-7.4-20c0.6-1.7,8.6-15.2,9.8-16.6c0.8-0.7,1.9-1.1,3-1.1
		c2.7,0,4.3-1.2,6.8-5.1c2-3.1,4.4-4.6,7.2-4.6c1.6,0,3.8,5.9,4.3,11.4l0.5,4.7h-1.6c-2.4,0-3.3,1.5-2.9,4.7
		c0.1,1.4,0.4,2.7,0.8,4.1c0.3,0.9-0.5,2.1-2.6,4.5c-7.9,8.5-8.6,9.6-9.3,13.5c-0.4,2.1-0.7,3.9-0.7,4.1c0,0.5-4.3,2.8-5.2,2.8
		C205.4,283.8,204.3,282.7,203.6,281.3z"/>
	<path id="RU-SPE" class="st4" d="M243.3,241.2c-0.5-0.7-1.2-5.3-0.9-5.3c0.9,0.3,1.8,0.6,2.7,1c3,1.3,4.5,0.8,4.1-1.3
		c-0.2-0.9-0.1-1.6,0.3-1.6c1.6,0.6,3,1.4,4.3,2.4c-0.1,1-0.4,1.9-0.9,2.8l-1.2,2.6h-4.1C245.4,241.7,243.4,241.5,243.3,241.2z"/>
	<path id="RU-VLG" class="st1" d="M323.7,322.3c-4-1.3-4.4-1.6-7.6-6.2c-2.8-3.9-4.1-5.2-7.1-6.7c-3.6-1.8-3.9-1.9-9.9-1.4
		c-4.3,0.3-6.7,0.8-8.3,1.7c-0.8,0.5-1.6,0.9-2.5,1c-0.6-2.2-1-4.4-1.2-6.6c-0.7-4.8-1.2-6.6-2.3-7.8c-1.6-1.7-2.6-1.9-4.5-0.7
		c-1.2,0.7-1.6,0.6-3.3-1.7c-1-1.2-2.2-2.3-3.6-3c-1.2-0.5-1.5-1-1.5-2.7c0-2.8-1-3.7-4.3-3.7c-2.7,0-2.8-0.1-2.8-2.1
		c0-1.6-0.5-2.5-2.1-3.8c-2.1-1.7-2.1-1.7-0.8-3.1c1.6-1.4,3.3-2.7,5.2-3.7c5.4-3.2,6.1-4,6.1-6.1c0-1.4,0.9-2.6,4.1-5.4
		c1.7-1.6,3.7-3,5.7-4.2c1-0.4,4.1-0.4,7.7-0.1c5.9,0.5,6.1,0.6,8.2,2.8l2.1,2.3l-1.9,5.2c-0.8,2-1.4,4-1.9,6
		c0,1.1,9.8,11.4,10.9,11.4c0.5,0,1.1,0.7,1.4,1.6c0.4,1.1,2.2,2.4,5.6,4.1c2.7,1.2,5.1,3,7.1,5.1l2.1,2.6l3.3-0.6
		c3.7-0.7,4.5-0.3,4.5,2.6c0,1.7,2.2,2.5,5.8,1.9c2.3-0.4,2.6-0.3,3.3,1.6c0.6,1.2,1.4,2.2,2.4,3c1.5,1,1.9,2.9,1.1,5
		c-0.2,0.5-2.1,1.7-4.2,2.7c-3.9,1.7-4.7,3-2.7,4.5c0.9,0.6,1,1.2,0.5,2.7c-0.6,1.7-0.8,1.8-3.4,1.7c-1.4-0.2-2.9,0.1-4.1,0.8
		C328.9,324.1,328.9,324.1,323.7,322.3z"/>
	<path id="RU-AL" class="st1" d="M614.7,574.2c-1.7-0.2-2.5-0.8-4-3.2c-0.9-1.3-1.6-2.6-2.3-4.1c-0.5-1.6-1.9-1.9-3.9-0.9
		c-1.8,1-7.2,1.2-10,0.4c-1.7-0.5-10.5-12.2-10-13.2c0.6-0.4,1.2-0.5,1.9-0.5c1.3,0,1.7-0.5,2.4-2.7c0.6-2.3,0.6-2.8-0.2-3.2
		c-3.6-2.1-3.5-2.1,2.2-4c5.3-1.7,5.6-1.9,8.1-5.6c2.8-4.1,3.3-4.3,7.3-3.3c2.8,0.6,3.4,0.2,4.1-3.5c0.8-4.8,0.9-4.9,6.7-3.6
		c2,0.4,3.9,0.9,5.8,1.6c1,0.6,0.2,2.4-1.9,4.3c-1.8,1.5-1.9,1.8-1.7,6.1l0.2,4.5l2.8,0.8c2.5,0.6,3.1,0.6,4.3-0.1
		c1.4-0.8,1.5-0.7,3.4,3.4c1.1,2.4,2.7,5.4,3.4,6.7l1.5,2.5l-1.8,1.9l-1.9,1.9l2,2.3c1.9,2.2,2.1,3.9,0.6,4.4
		c-0.5,0.2-3.2,0.8-6.2,1.6c-4.8,1.1-5.6,1.5-7.4,3.6c-1.1,1.4-2.3,2.4-2.7,2.3S615.9,574.4,614.7,574.2z"/>
	<path id="RU-ALT" class="st1" d="M560.9,495.9l-6.7,2.8c-4.5,1.9-9.1,3.2-13.9,3.9l-8.1,1.9c1.9,3.1,3.4,7.4,9.4,24.2
		c2.6,7.2,4.8,13.1,5,13.1c1.1-1,2.1-2.1,2.9-3.3c3.6-4.8,4.8-4,7.2,4.1l1,3.7l3.3,0.1c1.9,0.1,6.7,0.1,10.6-0.1l7.2-0.1l2.1,2.9
		c1.7,2.4,2.4,2.8,3.7,2.6c0.9-0.2,1.8-0.8,2.3-1.6c0.8-1.5,0.5-1.7-3.4-3.9c-1.7-1-1.9-1.4-1.3-2.1c0.3-0.5,0.8-0.8,1.4-1
		c0.4,0,3.1-0.8,6.1-1.7c5.2-1.6,5.4-1.7,8.3-5.8l3-4.2l3.5,0.3c3.4,0.5,3.4,0.5,3.8-1.3c0.3-1,0.8-3,1.4-4.5c0.7-1.9,0.8-4,0.5-8.1
		l-0.5-5.4l-6.2-7.2c-3.4-4-6.5-7.3-6.9-7.3c-0.6,0.1-1.2,0.5-1.6,1c-1.4,1.7-2.9,2.2-9.1,2.9l-6,0.6l-3.2,3.6c-1.8,2-3.6,3.6-4,3.5
		c-2.3-2.1-4.4-4.3-6.3-6.8L560.9,495.9z"/>
	<path id="RU-KK" class="st1" d="M622.3,542.2c-1.3-0.6-1.6-1.4-1.8-3.8c-0.2-2.7,0-3.2,1.6-4.2c3.2-2.2,10-9.2,10-10.3
		c-0.2-1.7-0.5-3.4-1-5c-1.3-5.4-1.2-6.7,0.7-9.2c1.7-2.1,1.7-2.3,0.7-4.7c-0.8-1.5-0.8-3.2-0.3-4.8c0.8-2.8,0.5-3.3-2.2-2.3
		c-0.7,0.3-1.5,0.5-2.3,0.5c0.1-1.1,0.5-2.2,0.9-3.2c1.1-3,1.1-3-0.4-5.6c-1.4-2.5-1.5-4.6-0.3-4.5c0.3,0,1.4,1.4,2.3,2.9
		c2.1,3.3,3,3.5,10.2,1.9c2.3-0.5,4.5-0.6,4.7-0.4c0.6,1,1,2.2,1.2,3.4c0.3,1.6,2.5,6.5,4.8,11s4.2,8.5,4.2,9.1
		c-0.5,1.2-1.2,2.2-2.1,3.1c-1.3,1.5-2.3,3.2-3,5c-0.6,2.3-1.7,3.6-6.2,7.3c-3.7,3-5.6,5.2-5.9,6.3c-0.9,4.3-1.2,4.5-5.9,5
		c-5.8,0.5-6.7,0.8-6.5,2.1C625.9,543,624.4,543.2,622.3,542.2z"/>
	<path id="RU-KEM" class="st1" d="M624.9,527.9c0-1-1.4-1.4-8.5-3c-3.5-0.7-3.7-0.9-4.1-3.1c-0.3-2-0.4-4-0.4-6.1
		c0-3.6-0.1-3.8-4-8.4c-2.3-2.6-5.6-6.5-7.4-8.6l-3.4-3.9l-1-8c-0.5-4.5-1.2-9.4-1.4-11l-0.4-3l4.8-1c2.9-0.7,5.7-1.7,8.3-3.1
		c2.9-1.7,4.3-2.1,10.8-2.6c2.5-0.3,5-0.5,7.6-0.5c3.3,4.1,6.1,8.9,6.1,10.2c0,1-0.8,2.5-2.4,4c-1.4,1.4-2.6,3-3.7,4.7
		c-1.2,2.3-1.2,2.3,0.3,5.2l1.5,2.8l-1.4,3.5c-0.6,1.4-1.1,2.8-1.4,4.3c0,0.8,0.2,0.8,4.1-0.5c1-0.3,1.2-0.1,0.8,1.1
		c-0.1,1.2,0.1,2.5,0.6,3.6c1,2.1,1,2.3-0.8,4.8s-1.8,2.8-1,6.3c1.7,8,1.7,8.4-0.6,10.8C625.8,529,624.9,529.3,624.9,527.9z"/>
	<path id="path109" class="st1" d="M673.5,132c0-0.6,0.5-4.7,1.2-9.1c0.9-6.1,1.5-8.1,2.4-8.8c1.8-1.4,2.7-1.2,3.6,0.8
		c0.8,1.4,1.3,1.7,3.2,1.6c2.3-0.1,2.3-0.1,4.3,4.3c1.5,3.2,1.8,4.6,1.3,5c-0.8,0.6-15.1,7.2-15.6,7.2
		C673.5,133.1,673.4,132.6,673.5,132z"/>
	<path id="path111" class="st1" d="M661.9,120.1c-2.9-0.6-5.6-1.4-5.9-1.5c-0.7-1.2-1.3-2.6-1.7-3.9c-0.8-2.2-1-4.6-0.6-7
		c0.6-3.1,0.7-3.4,3.1-4.1c4-1.3,9.2-1.2,11.3,0.3c1.7,1.2,1.7,1.5,1.9,8.7c0.1,6.3,0,7.4-0.9,8.1c-0.4,0.3-0.9,0.6-1.5,0.8
		C667.5,121.4,664.9,120.8,661.9,120.1z"/>
	<path id="path113" class="st1" d="M649.6,99.2c-1.7-1.9-1.9-2.5-1.4-4.3c0.3-1.2,0.9-3.4,1.3-4.8c0.7-2.8,3.4-6.7,4.7-6.7
		s5.6,7.2,6,10.2c0.7,4.6,0.1,5.8-3.9,6.9C651.7,101.8,651.9,101.8,649.6,99.2z"/>
	<path id="path107" class="st1" d="M724.5,265.7c2,0.5,3.7,1.7,5.8,3.9l3,3.1l2,10.7c1.2,5.8,2.1,11,2.1,11.4
		c-0.6,1.3-1.3,2.5-2.3,3.5c-2.7,3.4-2.8,4.3-0.4,6c1.6,1.2,1.9,1.9,2.3,5.4c0.3,3.4,0.9,4.8,3.3,8.5c1.6,2.4,2.9,4.8,2.9,5.4
		c-0.2,1.3-0.7,2.5-1.4,3.7c-1.2,2.3-1.3,3.4-1,6.9c0,1.6,0.3,3.1,0.8,4.6c0.5,0.5,1.7,0.5,10.6,0.6l6.3,0.1l-3.8,2.5
		c-1.6,1-3.1,2.1-4.4,3.4c-0.3,0.5-0.6,4.1-0.7,8.2l-0.1,7.3l2.2,1.8c2,1.6,2.2,1.9,1.8,4.6c-1.8,11.7-1.6,10.9-4.4,13.9
		c-2.5,2.5-2.9,3.2-3.3,6.9c-0.2,1.8-0.5,3.6-0.9,5.4c-0.5,1.7,2.9,5.8,6,7c2.7,1.1,2.8,2.8,0.5,7c-0.7,1.1-1.2,2.3-1.6,3.6
		c0,0.3,1.4,1.4,3,2.3c2.1,1.2,2.9,2,2.7,2.8c-0.2,0.6-0.7,2.1-1.2,3.4c-0.4,1.2-0.8,2.6-1,3c-0.3,1-1.9,1-4.1,0.1
		c-0.8-0.4-3.3-1.7-5.3-2.9c-3.1-1.9-4.2-2.2-6-1.9s-4,0.8-4.4,1.4s-0.5,1.2,0,2.1c2.2,4,2.2,4.1-2.9,11.8
		c-4.3,6.5-4.8,7.7-4.8,10.5c0,4.2-1.1,4-4.9-0.8c-1.6-2.1-3.3-3.9-3.6-3.9c-0.9,0.6-1.8,1.4-2.4,2.3c-1.8,2.2-2.2,2.4-6.5,2.8
		l-4.5,0.4l-2.4,4.5c-1,1.7-1.8,3.6-2.5,5.5c0.5,2.1,1.1,4.1,2,6.1c2.2,5.7,2.5,5-2.8,11l-3.2,3.6l1,2.9c0.9,2.7,0.9,3.6,0,9.1
		l-1,6.1l-3.5,2.4c-2,1.4-3.5,2.8-3.5,3.4s1.7,2.8,3.8,5c1.3,1.4,2.6,3,3.7,4.6c0,0.3-3.2,1.4-7.2,2.5l-7.2,2.1l-0.6,2.7
		c-0.2,1.5-1,2.8-2.2,3.8c-0.8,0.5-2.7,2.9-4,5.3c-4.3,7.2-6.7,8.9-15.1,10.7c-2,0-4-0.2-6-0.5c-4.2-0.6-5.4-1-6.8-2.5l-1.8-1.8
		l3.7-3.4c2.6-2.3,3.9-4.1,4.4-5.8c0.7-1.9,1.7-3.6,2.9-5.1c1.3-1.5,2.3-3.1,2.3-3.6c-1.3-3.3-2.8-6.6-4.5-9.7
		c-2.4-4.9-4.7-10.1-4.9-11.6c-0.8-4.7-1.3-4.9-6.8-3.8c-7,1.5-8,1.4-9.7-1.1c-2.3-3.4-2.3-3.9-0.2-5.9c1.6-1.6,2-2.4,2-4.7
		s-0.5-3.6-2.9-6.9l-2.9-4.1l1.2-1.8c0.8-1.1,1.1-2.4,0.8-3.8c-0.3-1.7,0.2-2.7,2.3-5.4c2.2-2.7,2.7-3.8,2.7-5.9
		c0-2.5-0.1-2.7-2.4-3.2c-8.7-2.3-8-1.9-8-4.5c0-3,0.3-3.3,4.1-5.9c3.4-2.3,3.5-2.8,2-6.5c-1-2.5-1.2-2.6-3.8-2.6s-3-0.3-6.2-4.2
		c-3.8-4.6-3.8-4.6-12.9-5.2c-7.4-0.5-8.7-1.4-6.7-4.3c1.2-1.9,1.2-2-0.2-5.8c-1-2.8-1.2-3.9-0.6-4.1c1.2-0.5,10.9-7.4,11.4-8.2
		c0.8-1.2,0.6-1.6-3.7-4c-3.1-1.8-4.5-3-5.3-4.9c-1.3-2.8-1.2-3,4.6-9.2c3.9-4.2,4.1-5,2.5-9.6c-1-3-1-3,0.8-5.6
		c3.2-4.4,3.5-5.3,3.5-10.4c0-5.9-0.8-7.1-5.3-8.3c-3.5-0.9-3.1-0.1-3.5-8.4c-0.1-2-0.2-3.9-0.3-4.4c0-0.5-1-1.3-2.3-1.7l-2.2-0.9
		l-0.5-6.6c-0.5-5.6-0.8-7-2.3-9.6c-1.3-2.5-2.2-5.2-2.6-8c-0.7-4.4-0.6-5,0.6-7.3s3.9-6.4,4.6-8.3s0.5-2.8-1.6-8.7l-2.4-6.6
		l-2.3,0.5c-4.6,0.8-4.8,0.8-7.6-3.2c-1.1-1.4-2-2.8-2.9-4.3c0-0.3,1.8-1.7,3.9-3.2c4.1-3,5.6-5.4,6.3-10.5c0.4-2.5,0.1-3-2.3-5.9
		c-1-1.2-1.9-2.5-2.7-3.9c0-0.4,1.5-2.2,3.3-4.1l3.3-3.4l1,1.4c2.2,3.1,3.4,3.9,5.9,3.7l2.4-0.2l0.2-4c0.2-3.8,0.1-4.1-3-8.1
		c-1.3-1.7-2.5-3.4-3.6-5.2c-0.5-1.2,0.7-10.8,1.4-11.6c0.2-0.3,5.4-0.9,11.5-1.5c15.9-1.5,16.6-1.6,17.1-2.7
		c0.2-0.6-0.4-2.5-1.3-4.5l-1.7-3.4l2.7-4c1.9-2.7,3.9-5.3,6.1-7.8c2.9-3.1,4.5-4.1,11.3-7.1c5.7-2.5,8.2-3.9,8.6-5
		c0.7-1.3,6-4.6,7.6-4.6c0.3,0,0.9,0.8,1.4,1.9c1.4,3.5,1.9,3.5,9.1,0.1l6.7-3.2l-0.2-2.4c-0.2-2.2-0.1-2.4,2.1-3
		c3.8-1,4.1-1.6,3.2-6.1l-0.8-3.9l3.2-5c1.8-2.8,3.8-5.4,4.5-5.9c1.7-1.1,4-1.2,5.7-0.1c1,0.8,0.8,1.1-1.6,3.9
		c-3.7,4.3-3.2,5.3,2.6,4.7c4.3-0.5,4.5-0.4,4.9,1c0.2,1,0.4,1.9,0.4,2.9c0.1,1.2,1.1,2.2,2.3,2.2c0.1,0,1.7-1.4,3.5-2.9l3.3-2.9
		h11.7l4.2,3.4c2.4,1.9,4.4,4.1,4.6,5c0.4,2.7,0.5,5.4,0.5,8.1v6.5l-4.3,6.5c-2.3,3.6-5.8,9.2-7.7,12.5c-1.9,3.4-4.7,8.1-6.3,10.7
		c-2.8,4.5-3.5,6.5-2.3,7.2c1.5,0.2,2.9,0.2,4.4-0.1c3.5-0.4,4-0.7,9.3-5.5c1.9-1.8,3.9-3.5,6.1-5c0.5,0,0.7,0.5,2.2,7.3
		c1,4.5,1.4,5.3,3.7,7c1.4,1,4.5,4.9,7,8.5c6.8,10.2,6.7,8.8,2,14c-4.4,5-4.9,6.1-5.5,13.1c-0.6,6.1-0.9,6.7-4.1,6.4
		c-2.3-0.1-2.7,0.1-7.2,4.7"/>
	<path id="RU-NVS" class="st1" d="M530.1,448.3L530.1,448.3c-0.6,0.7-0.8,1.6-0.7,2.5c0,1.4-0.6,2.7-1.6,3.7l-1.7,1.8l1.4,2.3
		c1.6,2.8,1.3,3-4.6,4.6l-4.3,1.1l-1.4,5l-1.4,4.9l2.2,3.2c2.5,3.4,2.5,3.8,0.1,9.1l-1,2.5l1.4-0.3c0.8-0.2,2.9-0.8,4.7-1.2
		c2.5-0.7,3.1-0.6,3.8,0s0.6,1.2-0.5,3.3c-0.7,1-1.2,2.2-1.5,3.4c0,0.5,1.9,2.9,4.1,5.6c1,1.3,1.9,2.2,2.6,3.2
		c2.9-1.1,6-1.8,9.1-2.3c4.8-0.7,9.5-2,13.9-3.9l6.8-2.9l3.6,4c1.9,2.2,4.6,5.2,5.9,6.7l2.4,2.7l3.3-3.3l3.3-3.4l5.8-0.5
		c6.7-0.5,9.6-2.1,9.6-5.4c0-3.1-2.1-19.8-2.6-20.4c-0.3-0.3-2.3,0.4-4.5,1.6c-2.2,1.1-4.3,1.8-4.6,1.6c-0.3-0.3-1-2.9-1.6-5.8
		c-0.3-1.9-0.8-3.8-1.5-5.6c-0.3-0.3-2.9-0.1-5.9,0.3c-4.8,0.6-5.5,0.5-6.3-0.5c-0.5-0.8-2.5-1.3-5.3-1.7l-4.5-0.6l-2.3-3.8
		c-1.1-1.9-2.5-3.6-4.2-5C549.8,453.2,532,448.1,530.1,448.3z"/>
	<path id="RU-OMS" class="st2" d="M495.5,492.5c-0.2-1-0.2-2,0.1-2.9c0.5-2.8-0.1-3.6-5.2-6.9c-3-2-4.4-2.5-6.3-2.3
		c-1.7,0.1-2.7-0.1-3-0.8c-0.3-0.5-0.9-4.9-1.4-9.8l-0.8-8.9l3.2-6.3l3.1-6.3l3.9-1l3.9-1l-0.1-3.9c-0.3-6.3-0.8-7.6-3.8-8.3
		c-2.5-0.7-2.6-0.8-2.8-3.6c-0.1-2.3,0.3-3.6,2-6.5c1.2-1.9,2.4-3.5,2.7-3.4c0.4,0.1,1,1.3,1.6,2.7c0.9,2.8,0.5,2.6,9.4,4.8
		c3.2,0.6,6.4,1.1,9.6,1.4c5.4,0.4,5.9,0.3,8.5-1.2c1-0.6,2.1-1.2,3.2-1.7c0.2,0,0,1-0.3,2.3c-0.6,2-0.3,3.3,2,9.8
		c3.2,9.2,3.4,11.6,0.5,14.8c-2,2.3-2.1,2.4-1,4.3c0.5,0.7,0.8,1.5,0.8,2.4c-1.2,0.6-2.5,1.1-3.9,1.3c-1.6,0.3-3,0.8-4.4,1.6
		c-1.1,1.9-1.8,4-2.3,6.1l-1.6,5.3l2.3,3.2l2.3,3.2l-1.3,3.3c-0.6,1.3-1,2.8-1.1,4.3C515.8,490.8,496.9,494.7,495.5,492.5z"/>
	<path id="RU-TOM" class="st5" d="M583.5,469.8l-1-5.3h-6.1c-3.8,0-6.5-0.3-7.1-0.8c-1.6-0.7-3.3-1.1-5-1.2
		c-4.5-0.5-4.5-0.5-7.2-4.9c-2.7-4.3-5.4-5.8-16.2-8.6c-5.2-1.4-9.7-2.7-10.2-2.9s-2.1-3.7-3.4-7.6c-2.5-6.7-2.5-7.2-1.8-10.5
		c0.6-2.7,1.6-4.4,5-8.5c4-4.8,4.4-5.1,6.9-5.2c1.5,0,3-0.4,3.4-0.9c1.4-2.7,2.6-5.6,3.6-8.5c1.6-4.2,3-7.8,3.2-8
		c2.1-0.1,4.1,0,6.2,0.2c5.6,0.5,5.9,0.6,6.9,2.3l1,1.9l5.3-0.5c5.2-0.4,5.4-0.3,10,1.9c1.8,1,3.6,1.8,5.6,2.4
		c0.5,0,2.9-1.3,5.4-2.9c3.4-2.2,4.7-2.7,5.6-2.2c0.6,0.3,1.2,0.9,1.2,1.2c0,0.4,0.7,0.9,1.6,1.2c1.4,0.8,2.4,2.1,2.9,3.6l1.4,3
		l-1.3,1.8c-1.2,1.7-1.3,2-0.4,3.8c1.1,2.1,1.7,2.2,11.6,3.1c5.1,0.4,5.2,0.5,7.8,3.4c5.1,5.7,5.4,5.9,7.8,5.9
		c1.9,0,2.4,0.3,2.9,1.6c1,2.5,0.9,2.6-2.5,4.8c-3.3,2.1-3.9,3.5-3.9,8.2c0,1.9,0.2,2.2,2.8,2.8c6.3,1.7,7.9,2.4,8.1,3.3
		c0.1,0.6-1.2,2.8-2.8,5c-2.5,3.4-3,4.4-2.7,6.1c0.6,3.8-0.5,4.4-9.4,5.1c-7.2,0.6-8.3,0.8-11.6,2.8c-2.7,1.4-5.6,2.5-8.6,3.1
		c-3,0.7-5.9,1.7-8.7,3c-1.4,0.8-2.9,1.5-4.5,2C584.6,475.2,584,472.8,583.5,469.8z"/>
	<path id="RU-TY" class="st1" d="M634.6,561.8c-0.7-0.8-0.6-1.2,0.6-2.5c1.8-2,1.8-2.6-0.6-6.3c-1.3-2.3-2.5-4.6-3.5-7
		c-1.8-4.3-1.6-4.7,3-4.7c3.6,0,4.9-1.1,5.5-4.6c0.2-1.3,0.8-2.6,1.6-3.6c1.2-1,1.4-1,3.5,1c2,2,2.7,2.2,8.1,2.8
		c10.9,1.2,16.8-1.5,21.9-10.2c1.3-2.2,2.8-4.2,4.5-6c1.4-1.2,2.2-2.6,2.2-3.6c0-2.1,0.8-2.7,5.2-3.9c11.5-3.3,11.2-3.1,10.9-4.4
		c-0.6-2.3,2.9-1.4,10.3,2.6c6.3,3.4,7.2,3.8,8.9,3.2c1.4-0.5,2.1-0.5,2.8,0.1c0.8,0.7,0.8,1-0.5,2.2c-2.3,2.1-2.9,7.6-1.1,10.1
		c0.6,0.7,1,1.6,1.3,2.5c-1.3,2.5-2.9,4.8-4.6,7c-1.6,2.2-3.2,4.5-4.6,6.8c0,0.2,1.2,3.3,2.6,7c1,2.4,1.9,4.8,2.6,7.3
		c0,0.4-1.4,1.4-3.3,2.3c-3.1,1.6-3.6,1.6-15.9,1.6h-12.6l-0.8-3.3c-0.5-2.1-1.3-3.6-2.2-4.1c-0.7-0.5-5.5-1.5-10.5-2.3l-9.1-1.4
		l-12.6,6.3c-6.9,3.5-12.6,6.3-12.8,6.3S635.1,562.4,634.6,561.8z"/>
	<path id="RU-KGN" class="st1" d="M443.3,459.2c-6.9-0.8-10-0.8-12-0.3s-4.3,0.4-9.8-0.5c-3.9-0.6-7.4-1.3-7.7-1.6
		c-0.2-0.3,0.4-1.5,1.4-2.8c1-1.2,1.6-2.7,1.4-3.1s-2.3-1.4-4.6-2c-2.3-0.6-4.3-1.4-4.3-1.6c0-1,3.9-6.3,6.1-8.5
		c2.3-2.2,2.3-2.3,2.3-7.1v-5l2.3-1c1.2-0.6,2.5-1,3.8-1.1c2.7,0,7.6,2.1,8.6,3.6c1.2,1.9,1.9,1.9,4.4,0c2.7-2.2,4.4-1.3,3.8,2.1
		c-0.6,3.6,3.4,11.6,6.1,12.1c3.4,0.7,7.2,2.8,8.3,4.7c1.2,1.6,2.5,3,3.9,4.4c3.8,3.5,4.1,5,1.6,6.7
		C456.2,460.2,454.2,460.3,443.3,459.2z"/>
	<path id="RU-SVE" class="st1" d="M431.6,426.6c-0.9-1.4-7.2-3.8-10-3.8c-1.4,0.2-2.7,0.7-3.9,1.4l-2.6,1.4l-2.5-1.7
		c-1-0.7-2.1-1.3-3.3-1.7c-0.6,0-2.6-0.8-10.4-4.3c-1.4-0.6-2.1-1.4-2.1-2.1c0-1.9-1.2-2.2-3.8-1l-2.5,1.1l-4.3-2.3
		c-4.7-2.6-4.7-2.6-3.4-7.8l0.7-3.2l3.6-0.3c3.5-0.3,3.6-0.4,5.1-3.4c1.6-3.2,2-3.4,5.9-2.5c3.2,0.8,3.8,0.4,4.3-2.6
		c0.5-2.7,0.1-2.5,7.2-5.4c1.8-0.8,2.1-1.2,1.9-3c0-1.3,0.3-2.6,1-3.8c1.4-2,1.4-3.3-0.2-6.3c-1.8-3.4-1.7-5.2,0.5-6.1
		c1.7-0.8,6.4-5.4,10.7-10.5c1.2-1.5,2.2-3.3,2.7-5.2c0.5-3,2.1-6.3,3.3-7c0.6-0.4,0.9-1,0.9-1.7c0.1-0.9,0.4-1.7,0.9-2.4
		c0.9-1.2,1-1.2,1.6,0.7c1.2,3.2,1.7,3.8,4.8,5.5c2.5,1.3,3.6,2.7,6.7,7.7l3.7,6l-1.4,6.1l-1.4,6l1.4,2.8c1.3,2.8,1.3,3,0.4,6.9
		l-1,3.9l1.9,1.6c0.7,0.6,1.5,1.2,2.3,1.6c0.9,0.4,1.6,0.9,2.3,1.6c1.5,1.4,1.7,2.1,1.7,5.4c0,1.8,0.3,3.6,1,5.3
		c0.7,1.6,1,3.2,1,4.9v3.3l-2.4,0.4c-3.8,0.6-6.3,0.5-7.1-0.3c-1.2-1.1-5.4,8.5-5.4,12.2c0,1.6-0.1,2.8-0.3,2.8
		c-0.8-0.3-1.6-0.6-2.3-1c-1.8-0.9-2-0.9-4.1,0.7l-2.1,1.6L431.6,426.6z"/>
	<path id="Tyumen" class="st5" d="M468.7,458.8c-5.5-1.9-6.1-2.2-6.7-4.1c-0.7-1.6-1.8-3-3.2-4.1c-1.3-1-2.5-2.3-3.4-3.7
		c-1.1-2.3-5.4-5.1-8.4-5.6c-2.2-0.4-2.6-0.8-4.4-4.3c-2.3-4.7-2.4-5.7-0.6-7.9c0.9-1.2,1.3-2.7,1.3-5s0.6-4.5,1.6-6.5
		c1.7-3.4,2.3-3.6,10-4.1l2.9-0.1l0.2-3.4c0.2-3.2,0.3-3.4,1.9-3.4c1.5-0.2,3-0.6,4.3-1.2c2.7-1.1,5.5-2,8.4-2.7
		c6.5-1.6,12.1-4.9,13.4-8c0.4-1,1-1.7,1.4-1.7c2.4,1,4.7,2.1,6.9,3.5c6.2,3.6,6.3,3.6,9.9,9.6c1.8,2.9,3.4,5.9,4.9,9
		c1.3,2.9,1.5,3,7.3,5c2.3,0.7,4.5,1.6,6.6,2.7c0.3,0.3-1,1.6-2.9,2.8c-3.5,2.2-3.5,2.3-8,1.6c-4.7-0.5-9.4-1.4-14-2.5
		c-2.1-0.6-2.5-1-3.8-4.5c-1-2.6-1.7-3.8-2.5-3.8c-0.6,0-2.3,1.9-4.3,5c-3,4.7-3.2,5.3-3.2,9.4c0,4.6,0.6,5.6,3.3,5.6
		c1.9,0,2.7,1.2,3.2,4.9l0.5,3.2l-3.6,0.8l-3.7,0.8l-3.7,7.4c-2.3,4.7-4,7.3-4.7,7.3C475.1,460.8,471.9,459.9,468.7,458.8z"/>
	<path id="RU-KHM" class="st4" d="M518.2,419.4c-5.8-2.1-7.7-3.3-7.7-4.7c-1.3-2.8-2.8-5.5-4.5-8.1l-4.4-7.4l-7.3-4.2
		c-6.7-3.8-7.4-4.1-8-3c-3.1,5.2-7.2,7.9-15.2,9.8c-2.8,0.6-5.5,1.5-8.1,2.5c-3.4,1.7-4.7,1.4-6.1-1.9c-0.8-2-1.3-4.2-1.3-6.3v-3.5
		l-3.6-2.4c-3.9-2.6-4-3-2.8-8c0.6-2.8,0.6-3.4-0.6-5.6l-1.4-2.5l1.4-6.1l1.4-6.1l-4.1-6.9c-3.6-6.1-4.4-7-6.9-8.1
		c-2.1-0.9-3.1-1.8-3.8-3.6c-1.6-3.7-1.2-6.3,1.9-14.3c3-7.6,3.7-8.5,9.8-13.1c2-1.6,2.3-2.2,2.3-4.4s0.5-3.1,2.8-5.6
		c2.7-2.8,3-3,4.5-2.1c1.6,0.8,1.9,0.6,6.3-2.5c2.6-1.8,5.4-3.3,6.2-3.3c1.4,0,1.5,0.3,1.5,4.1c0.2,2.7-0.5,5.4-2,7.8l-2,3.7
		l2.3,3.1l2.3,3.1l7,0.8c3.5,0.3,7,1.1,10.3,2.3c3.2,1.5,3.3,1.6,3.2,4.3s0.1,2.9,3.1,4.7l3.2,1.9l4.7-1.4l4.8-1.4l3.1,2.6
		c2.8,2.3,3.1,2.8,3.4,6.1c0.4,3,1.4,5.8,2.8,8.5l2.5,5h4.1c4,0,4.3,0.1,8.5,3.5c4,3.2,4.8,3.6,10.1,4.5l5.7,1l4.5,4.9l4.5,4.8h12.5
		l3.7-3l3.7-3l3.7,4c3.5,3.8,3.9,4,6.6,4c2.1,0,3.8,0.6,6.7,2.3c2.1,1.3,4.3,2.6,4.8,2.8c0.7,0.5,1,1.4,0.8,2.2
		c-0.4,3.2,2.1,7.4,5.6,9.6c1.8,1.1,3.1,2.3,2.9,2.7c-0.8,1.2-9.2,6.3-10.5,6.3c-0.9-0.1-1.8-0.6-2.4-1.3c-0.5-0.6-1.2-1.1-2-1.3
		c-2,0.8-4,1.8-5.8,3l-4.9,3l-4.8-2.5c-4.7-2.5-4.9-2.5-9.6-2.1c-4.8,0.5-4.8,0.5-5.6-1.2c-0.4-0.9-1.2-1.6-2.1-1.9
		c-2.7-0.5-13.1-0.9-13.8-0.5c-0.4,0.3-1.9,3.6-3.3,7.3c-3.6,9.6-3.6,9.6-6.5,9.6c-2.3,0-2.8,0.3-6.5,4.8c-2.3,2.7-4.6,4.8-5.1,4.8
		C522.5,420.9,520.4,420.2,518.2,419.4z"/>
	<path id="RU-YAN" class="st5" d="M595,375.3c-3.7-2.2-5.7-2.9-7.6-2.9c-2.3,0-3-0.4-5.9-3.6c-4.8-5.2-4.8-5.2-9.2-1.6l-3.8,3.2
		h-11.2l-4.3-4.8l-4.3-4.8l-5.9-1.1c-5.4-1.1-6.3-1.5-10.3-4.7c-4.3-3.3-4.6-3.4-8.5-3.5h-4.1l-2.5-5.3c-1.6-3.5-2.4-6.3-2.4-8
		c0-2.5-0.3-3-3.4-5.7c-1.9-1.6-3.9-2.9-4.5-2.9c-1.8,0.2-3.5,0.7-5.2,1.2l-4,1.3l-2.7-1.6c-2.5-1.4-2.7-1.8-2.7-4.3
		c0-4.1-3.3-5.8-14.3-7c-6.6-0.8-6.7-0.8-8.2-3.1c-2-2.9-2-3.2,0-6.7c1.3-2.3,1.6-3.7,1.6-7.8v-5l1.9-0.4c1.9-0.8,3.6-1.9,5.1-3.3
		c3-2.7,3.7-3,8.9-3.9c7.8-1.4,7.2-1.1,12.3-5.9c3.4-3.2,4.8-5.2,5.4-7.2c0.7-2.4,0.7-2.9-0.1-3.4c-2.8-1.7-2.8-1.6-0.4-5.2
		c1-1.3,1.8-2.7,2.4-4.2c-0.4-1.4-1-2.8-1.7-4.1c-1.7-3.4-1.7-5.2-0.1-5.2c0.5,0,3.7,4.3,7.2,9.7c4.5,6.9,6.7,9.7,7.6,9.7
		c0.8,0,2-1.2,3.2-3.1c2.5-4,2.8-5.5,1.6-7.5c-0.8-1.3-1-2.4-0.6-5.3c0.5-3.7,0.5-3.7-1.9-5.7l-2.5-2l1.6-1.9c1.5-2.2,2.8-4.6,3.9-7
		c2.3-5,2.3-5.2,1.4-6.9c-1.7-3-0.8-4.6,5.2-8.3c4.8-3,5.9-4.1,10.3-10.1c3.2-4.3,5.4-6.7,6.1-6.7c1.2,0,8.4,2.5,9.2,3.2
		c0.3,0.3,0.3,1.9,0.1,3.8c-0.4,2.8-1.1,4.1-4.8,8.9c-2.5,3.1-4.5,6.1-4.5,6.9c0.2,1.7,0.5,3.4,1,5.1c1,3.7,1,3.8-0.6,8.9
		c-0.7,2.1-1.3,4.2-1.7,6.3c-0.6,2.7-1.3,5.4-2.3,8c-0.9,2.6-1.7,5.3-2.3,8c0.3,1.8,0.9,3.6,1.7,5.2l1.6,3.9l-2.7,5
		c-1.5,2.7-2.9,5-3.2,5s-2.3,2.1-4.5,4.8c-3.8,4.7-3.9,4.8-6.9,4.8c-2.5-0.2-4.9-0.6-7.3-1.4c-9.1-2.8-10.7-0.7-4.4,5.7
		c4.5,4.6,9.2,7.2,12.9,7.3c3.9,0,11.4-3.8,14.2-7.4c1.9-2.1,4-4,6.3-5.6l3.8-2.6v-7.4c0-8.3,0.3-9.1,4.3-9.8
		c3.7-0.7,5.4,0.6,6.5,4.9c2.1,8.7,2,8.4,3.9,8.4c1.4-0.2,2.7-0.6,3.9-1.4l2.1-1.3l-0.5-4.7c-0.2-2-0.5-4-1-6
		c-0.3-0.8-2.5-2.8-4.9-4.5c-3.7-2.7-5.1-3.2-8.9-3.8c-4-0.6-4.6-0.8-5-2.3c-1.1-4.1-0.6-6.1,2.7-11.3c1.3-1.8,2.4-3.8,3.2-5.8
		c0-0.4-0.7-3.6-1.6-7.1c-1.8-7.2-1.6-8.1,2.3-11.7c3.3-3.1,8-6.2,8.1-5.6c0.1,0.4-0.8,3.4-2.1,6.8c-0.9,2.2-1.7,4.5-2.3,6.9
		c0,1.4,12.3,8.5,14.9,8.5c1.7-0.2,3-1.5,3.2-3.2c0-0.5-1.9-3-4.2-5.6s-4.2-5.2-4.2-5.7c0-1.7,1.3-2,2.8-0.5c1.3,1.4,3.4,1.7,5,0.6
		c1.7-0.8,1.6-2.1-0.5-5.5c-1.4-2.3-1.6-3-0.9-3.9c1.9-2.3,4.7-0.2,3,2.4c-0.6,1-0.6,1.4,0.2,2.1c1.4,1.2,2.7,2.5,3.9,3.9l2.8,3.1
		l-3,3c-1.7,1.7-3,3.4-3,3.8c0,0.5,1.3,2.2,2.9,4c3.1,3.4,3.4,4.6,2.2,8.6c-0.6,1.9-1.8,3.3-5.2,5.9c-1.7,1.2-3.3,2.6-4.7,4.2
		c-0.3,0.7,2.6,5.4,6.2,9.9c1.7,2.2,1.8,2.2,4.5,1.5c1.6-0.5,3-0.6,3.2-0.3c0.9,1.7,1.6,3.4,2.1,5.2l1.6,4.7l-3.2,6.4l-3.2,6.3
		l0.7,5.1c0.4,3,1.3,6,2.7,8.7c1.7,3.1,2,4.3,2.3,9.7c0.3,6.7,0.8,8.4,2.6,8.4c2.2,0,2.7,1.4,2.7,7.2c0,6.3,0.5,7,4.8,8
		c3.2,0.8,3.6,1.4,3.6,6.4c0,4.5-0.1,4.8-2.7,8.4l-2.7,3.8l1.1,3.4c0.5,1.4,0.8,2.9,1,4.3c0,1.2-6.3,8.3-7.3,8.3
		C598.8,377.4,596.9,376.4,595,375.3z"/>
	<path id="RU-CHE" class="st1" d="M377,474.8c-0.2-1,0-2.1,0.3-3c0.9-2.6,0.2-3.6-3.4-4.1c-4.9-0.8-5.2-1.2-3.5-4.7
		c0.8-1.7,2.2-4.8,3-7.1c1.9-5.2,6.3-9.6,8.9-8.9c4.4,1.1,4.8,0.9,7-3.2c3.4-6.3,2.7-8.7-2.5-7.5c-2.2,0.5-4.1,0.3-8.3-0.6
		c-3-0.6-5.6-1.4-5.8-1.7c-0.7-1.1-1.2-2.2-1.7-3.4l-1.2-2.8l1.6-1.2c2.8-2.2,4.2-2.2,6.9-0.1c2.1,1.7,3.2,2,7.7,2.4
		c6.1,0.6,5.9,0.6,8-5.6c0.8-2.4,1.6-4.3,1.8-4.3c1.4,0,14.9,5.9,16.6,7.2c1.6,1.2,1.9,2.1,2.2,5.1c0.3,3.6,0.3,3.6-3,7.2
		s-5.9,8-5.9,9.7c0,0.6,1.6,1.4,4.2,2.1c1.4,0.3,2.9,0.8,4.2,1.4c-0.4,1-0.8,1.9-1.4,2.8c-1.7,3-2.3,3-10.8-0.1c-6-2.2-7.5-2-9.5,1
		c-1,1.6-1,1.9,0.6,6.7c1.7,5.4,1.4,6.3-1.5,4.8c-1.9-1-6.9-0.8-8.1,0.3c-0.8,1.2-1.3,2.5-1.4,3.9s-0.6,2.7-1.4,3.9
		C379.5,476.1,377.4,476.1,377,474.8z"/>
	<path id="RU-ORE" class="st2" d="M372,493.4c-3.1-1.9-3.9-2.2-4.8-1.6c-3.4,2.4-3.9,2.4-6.5-0.2c-1.8-1.4-2.8-3.5-3-5.7
		c-0.8-5.2-4.3-7.5-9-5.7c-1.8,0.7-1.7,0.8-6.4-4.8l-1.6-1.9l-5.4,1.1c-3,0.6-5.8,1.2-6.2,1.2s-1.1-1.2-1.5-2.5
		c-0.4-1.4-1-2.8-1.8-4c-1-1.2-1.4-1.3-2.6-0.6c-0.6,0.4-1.3,0.5-2,0.4c-0.3-0.2-1-3-1.7-6.3c-0.4-2.4-1-4.7-1.7-7
		c-0.3-0.6-1.9-1.7-3.5-2.4c-2.8-1.3-2.9-1.4-2.9-4.5c0-4.2-0.6-4.7-5.5-4.2l-4,0.3l-0.4-2.1c-0.6-3-0.7-3,2.1-3.8
		c1.6-0.5,3-1.5,4.1-2.8c0.9-1.2,3.4-2.8,6.6-4.4c4.5-2.1,5.9-3.2,10.5-8.3c2.9-3.2,5.3-6.4,5.3-7c0-0.7,0.9,0.1,2.3,2.2
		c2.1,3,2.3,3.8,2.3,8.1c0,4.1,0.4,5.7,3.1,12.4c2.8,7,3,7.9,2.5,10.6c-0.8,4.2-0.4,4.8,2.7,4.5c1.4-0.2,2.7-0.1,2.9,0.2
		c0.5,0.8-0.8,3.9-2.1,4.8c-1,0.7-0.9,1,0.3,3c1.2,2.1,1.3,2.4,0.5,4.1c-1.6,3-1.2,4,1.5,4.5c3.7,0.6,5.8,0.5,7.2-0.4
		c1.1-0.6,1.6-0.5,3.8,1.7c3,2.9,4,2.8,5.9-0.9c0.7-1.4,1.8-2.6,2.4-2.6c2.6,0,9.2,1.6,9.2,2.2c-0.2,1.3-0.6,2.5-1.1,3.8l-1.1,3
		l3.6,5.4c5.5,8.3,5.4,7.8,3,10.5c-1.1,1.3-2.3,2.3-2.7,2.3C374.9,495.2,373.4,494.4,372,493.4z"/>
	<path id="RU-BA" class="st1" d="M357.1,469.9c-2.1-1.7-2.7-1.9-4.1-1.3c-1.7,0.8-6.2,1-6.9,0.4c-0.1-0.9,0-1.8,0.3-2.6
		c0.4-1.2,0.5-2.4,0.1-3.6c-0.5-1-0.3-2.4,0.5-4.9c1.7-5.2,1.7-5.3-2-5.3h-3.2l0.3-3.4c0.3-3,0-4.2-2.7-10.4c-2.4-5.7-3-7.7-3-10.8
		c0-3.5,0.3-4.3,3-8.4c2.1-3.2,3.2-5.5,3.4-7.6l0.3-3l4.8-1.5c5.8-1.8,6.3-2.2,5.2-4.3c-1.3-2.3-0.7-3,3.6-4.7l4-1.5l1.6,2.1
		c1.3,1.7,2.2,2.2,4.8,2.6c3.4,0.5,4.8,1.7,7.2,6.4c0.6,1.1,1.5,1.9,2.6,2.5c1.1,0.5,2,1.1,2.9,1.8c2.5,2.2,10,6,11.3,5.7
		c1.6-0.5,1.6,0.6,0.1,5l-1.2,3.2l-3.7,0.2c-3.5,0.4-6.9-1.1-9.1-3.8c-0.5-0.7-1.3-1.1-2.1-1.3c-1.6,0-8,4.7-8,5.8
		c0,2,3.4,9,4.5,9.3c4.4,1.3,10.6,2.3,13.1,2.2c1.2-0.1,2.4,0,3.5,0.3c0.3,0.3-0.3,1.7-1.3,3.4c-1.6,2.8-1.7,2.8-3.6,2.2
		c-1.1-0.4-2.3-0.5-3.4-0.3c-1.7,0.5-8.2,6.5-8.2,7.6c-0.8,2.7-1.8,5.3-3,7.8c-2.3,5.6-3.2,7-4.3,7.2c-0.8,0.1-1.9,1.1-2.7,2.6
		c-0.7,1.4-1.6,2.5-1.9,2.4C359.1,471.4,358,470.7,357.1,469.9z"/>
	<path id="RU-SAR" class="st1" d="M265,448.8c-0.5-1.1-0.8-2.3-1.1-3.4c-0.8-2.8-1.7-5.6-2.8-8.3c-2-5.2-2.5-6.1-4.1-6.4
		c-1.1-0.2-2.2-1.2-3.1-2.8c-1-1.9-1.9-2.6-3.5-2.9l-2.1-0.4l0.1-5.6c0-3.6-0.3-6.1-0.8-6.7c-0.5-0.5-3-1.5-5.8-2.2
		c-4.5-1.1-5-1.4-5.9-3.3c-0.8-1.7-0.8-2.5-0.3-3.6c0.5-1.3,0.8-2.6,0.9-4c0.2-2.5,0.3-2.7,5-5c1.8-0.9,3.6-1.7,5.6-2.4
		c1.2,0.7,2.3,1.6,3.2,2.7c1.4,1.4,4.5,4.4,6.9,6.5c4,3.6,4.9,4.1,10.1,5.4c4.4,1.2,6.3,2.1,8.2,3.8c1.6,1.4,3.4,2.5,5.4,3.3
		c1.7,0.6,3.4,1.3,3.9,1.5c2.5,1.3,12.6,23.4,11.1,24.4c-0.8,0.5-14,2.7-19.5,3.3c-4.8,0.5-6.1,1.4-7.3,5
		C268.3,449.9,265.9,450.7,265,448.8z"/>
	<path id="RU-SAM" class="st1" d="M296.6,433.6c-1.3-4.2-6.2-14.3-8-16.6c-0.5-0.6-0.3-1,0.8-1.2c1.4-0.4,1.4-0.6,1-4.9
		c-0.5-5.5-0.4-5.6,5.9-5.6c4.3,0,4.7,0.1,8,2.6c1.2,0.9,2.5,1.8,3.8,2.6c1.3-0.9,2.5-1.9,3.6-2.9l3.4-2.9l1.4,1.9
		c1.6,2.3,2.7,2.4,4.3,0.6c1.5-1.7,2.4-1.7,4.3,0.2c1,1,1.9,2.8,2.5,5.4l0.8,4l-4.8,5.4c-5.7,6.3-5,5.8-10.3,8.1
		c-2.5,1.1-4.9,2.6-6.9,4.5c-1.7,1.7-3.3,2.8-4.2,2.8c-1,0-1.9,0.1-2.8,0.3C298.3,438.3,297.9,437.8,296.6,433.6z"/>
	<path id="RU-TA" class="st1" d="M333.4,416.9c-1.5-2.1-2.9-3.7-3.2-3.5c-0.5,0.3-1.9-3.5-1.9-5.3c0-0.8-4.1-4.1-5.2-4.1
		c-0.9,0.2-1.8,0.7-2.5,1.3l-1.7,1.4l-1.4-1.8c-0.7-0.7-1.2-1.6-1.5-2.5c-0.3-0.8-0.8-1.6-1.5-2.1c-1.1-1.2-1.8-2.5-2.3-4
		c-0.6-2.3-1-2.5-2.8-2.5c-2.4-0.1-3-0.4-4.5-2.7c-0.9-1.5-1.6-1.8-4.5-1.9c-2.4-0.1-3.5-0.5-3.6-1.2s0.4-1,1.6-1
		c1,0,3.2-0.1,4.9-0.1l3.2-0.1l-0.3-2.7l-0.2-2.7l3.6-1.2c1.9-0.6,6.2-2,9.5-3l5.9-1.9l2.3,1.6c1.6,1.1,2.8,1.4,3.9,1.2
		c1.7-0.4,1.8-0.1,3.4,8.4c0.5,2.8,2.6,7.9,3.4,8.4c0.3,0.2,3.1-0.5,6.2-1.6c2-0.8,4.1-1.3,6.2-1.6c1.2,0.7,0.5,2.9-1.4,5
		c-2.4,2.7-2.4,3.4-0.3,3.9s3.8,3.6,2.3,4.1c-0.5,0.2-2.7,1-4.8,1.7l-3.9,1.4l-0.3,3c-0.4,2.4-1.4,4.7-2.8,6.7
		c-0.8,1.3-1.7,2.5-2.7,3.6C335.2,419.6,334.2,418.3,333.4,416.9z"/>
	<path id="RU-ULY" class="st1" d="M284,412.8c-2-0.6-4-1.5-5.8-2.7l-2.7-1.7l3.8-3.4l3.8-3.4l-0.8-3.9c-0.5-2.1-0.6-4.3-0.6-6.4
		l0.2-2.6l3.5-0.2c3.2-0.2,3.5-0.4,4.1-2.1c0.4-1,1-1.9,1.4-1.9c1.5,0,3.5,2,3.7,3.7c0.1,1,0.6,1.8,1.2,1.9c7.2,1,7.1,1,8.1,2.8
		c0.8,1.6,1.4,1.9,3.3,1.9c2,0,2.4,0.3,3.3,2.4c0.6,1.4,1.4,2.7,2.3,3.9l1.4,1.5l-3,2.9l-3.1,2.9l-3.4-2.7c-3.2-2.4-3.8-2.6-7.6-2.6
		c-2.2,0-4.5,0.2-6.7,0.7l-2.5,0.6l0.4,4.5C288.9,414.3,289.1,414.1,284,412.8z"/>
	<path id="RU-PER" class="st1" d="M377.7,408.7c-1.1-1.2-2-2.6-2.8-4c-1.2-2-2.2-3.6-2.3-3.8c-1.2-0.3-2.4-0.6-3.7-0.8
		c-2.7-0.5-3.9-1.2-5.3-2.8c-1.6-1.9-3.9-6.3-3.6-6.7c0.1-0.1,1.3-0.6,2.7-1.2c1.3-0.5,2.4-1.4,2.4-1.9c0.7-2.1,1.5-4.2,2.6-6.2
		c1.6-3.4,2.6-6.3,2.6-7.8c0-3.9,0.7-6.3,2.3-8c0.9-1,1.7-2.1,2.4-3.4c0.9-1.7,0.9-2.2,0.1-4.5c-0.8-2.5-0.8-2.7,0.6-3.8
		c2.6-2.1,5-4.4,7.3-6.9c0.2-0.4-1.2-2.4-3.2-4.5c-3.6-3.8-3.6-3.9-3.4-7.3c0.2-3.3,0.3-3.4,2.1-3.7c1.4-0.1,2.7,0,4.1,0.2
		c1.8,0.4,2.5,1,3.6,3.5c1.4,2.9,1.6,3,6.8,4.6l5.3,1.6l6.5-1.2c7.2-1.4,8.1-1.2,17,2c2.7,1,5,2.2,5,2.7c-0.3,1.1-0.7,2.2-1.3,3.2
		c-0.7,1.3-1.1,2.7-1.3,4.1c0,3-9.4,13.5-13.3,14.8l-2.4,0.8l0.3,3c0.2,1.9,0.7,3.7,1.5,5.4c1,2.2,1,2.5,0.1,4
		c-0.7,1.1-1,2.3-1.1,3.6c0,1.7-0.3,2-3.7,3.2c-4.1,1.6-5.4,2.7-5.4,5.1c0,1.6-0.1,1.6-3.9,1.2l-3.8-0.5l-1.6,3.2l-1.7,3.2l-3.7,0.2
		l-3.8,0.2l-1,4.5C379.6,408.7,379,409.7,377.7,408.7z"/>
	<path id="RU-PNZ" class="st1" d="M268.2,404.8c-5.9-1.7-6.3-1.9-12.1-7.2c-2.3-2-4.4-4.1-6.4-6.4c-0.2-0.6,0-1.3,0.6-1.6
		c0.8-0.6,1-2.1,0.8-8.5l-0.2-7.7l1.7-0.6c2.5-0.9,9.6,3.8,12.5,8.4c2.7,4.1,3,4.3,4.5,3.2c1-0.7,1.7-0.6,4.8,0.7
		c5.4,2.4,5.6,2.8,6,10.2l0.3,6.3l-3,2.6c-1,1-2.1,1.8-3.3,2.5C274.4,406.6,271.5,405.7,268.2,404.8z"/>
	<path id="RU-UD" class="st1" d="M350.7,397.4c1.1-1.2,1.4-2.3,1.4-4.8c0-4.1-0.1-4.1-7.6-1.6c-5.3,1.7-5.4,1.7-6.3,0.5
		c-1.2-1.7-1.2-2.9,0.5-7.1c0.9-2.5,1.7-3.6,2.5-3.6c1.6,0,2.4-1.2,2.9-4.5c0.6-3.9,0.9-4.2,3.8-4.2c2.5,0,2.7-0.2,5.6-4.8
		c3.6-5.6,3.2-5.5,10.3-2.1l4.8,2.4l-0.2,4.5c0,2.2-0.4,4.4-1.3,6.5c-1,1.8-1.9,3.6-2.6,5.5c-1.2,3-1.9,3.7-4.1,4.7
		c-2.3,1-2.6,1.3-2.2,2.6c1.2,3.8,0.9,4.5-3.2,6.1C350,399.3,348.9,399.3,350.7,397.4z"/>
	<path id="RU-MO" class="st1" d="M276,383.8c-4-1.9-5.6-2.4-6.1-1.9c-1.2,1.2-1.6,1-3.4-2.2c-1.6-2.4-3.7-4.4-6.1-5.9l-4.5-3
		l2.5-2.7c1.4-1.5,3.4-3.8,4.7-5.2c3.3-3.6,4.1-3.9,7.8-2.7l3.2,1v4.5c0,3.8,0.3,5,2,8c0.7,1.4,1.5,2.7,2.5,3.8
		c0.3,0.2,2.6-0.7,5.1-1.9c2.6-1.2,4.8-2.2,4.9-2.2c0.6,0.8,1.2,1.7,1.6,2.6l1.4,2.6l-1.9,3.9l-1.9,3.9l-3.1-0.1
		C282.2,386.4,279.8,385.7,276,383.8z"/>
	<path id="RU-CU" class="st1" d="M293.9,384c-1.9-1.6-2-1.9-1.4-3.7c0.4-0.9,0.5-1.9,0.1-2.8c-1-1.6-0.6-2.2,1.6-3.2
		c1.9-0.9,2.1-1.3,2.3-4.3c0.2-3.3,0.3-3.4,2.5-3.8c2-0.2,4,0,5.9,0.5l3.8,0.9l1.2,3.5c0.6,1.9,1.3,4,1.5,4.7
		c0.3,0.8-0.5,1.6-3.4,2.9c-3.6,1.7-3.8,1.9-3.6,3.9c0.2,2.4-0.1,2.5-4.8,2.9C296.4,385.7,295.7,385.5,293.9,384z"/>
	<path id="RU-KIR" class="st1" d="M335.7,383.9c-0.2-0.5-1.1-5.4-2.1-10.8c-1-5.5-2.2-10.3-2.6-10.7c-0.8-0.8-11-3.3-12.5-3
		c-1,0.3-1.9,0.8-2.7,1.5c-1,0.8-1.9,1.2-2.1,1.1c-0.3-1-0.6-2.1-0.6-3.2c-0.3-2.7-0.2-3.1,1.9-5.3c1.4-1.5,2.7-2.3,3.4-2.1
		c0.6,0.1,1.7,0.5,2.5,0.7c1.1,0.3,2.3-0.1,4.1-1.4c1-0.6,1.8-1.4,2.5-2.3c0-0.3-1.6-1.8-3.5-3.3c-1.9-1.6-3.6-3.1-3.6-3.6
		c-0.1-0.4,1.4-1.6,3-2.7c2.8-1.8,3.7-2,7.8-2h4.7v-4.1c0-3.5,0.3-4.3,1.6-5.6c0.8-0.6,1.3-1.5,1.6-2.4c0.3-1.3,0.7-2.5,1.4-3.6
		c1.1-2.1,1.2-2.9,0.6-3.8c-0.6-1-0.2-1.4,3.8-3.4c1.6-0.9,3.3-1.6,5.1-2.3c0.3,0,1.1,0.8,1.7,1.7c1.1,1.6,1.1,1.9,0.1,5.9
		c-0.8,3.1-1.7,4.9-3.5,6.7l-2.3,2.5l0.7,3.4c1.3,6.3,2.8,10.9,3.7,10.9c0.5,0,2.3-1.4,4.2-2.9c1.9-1.6,3.4-2.9,3.5-2.9
		s2.3,0.6,5,1.3c2.6,0.7,5.4,1.1,8.1,1.3c3.1,0.1,3.4,0.2,6.5,3.7l3.2,3.6l-4.5,4.1l-4.5,4.1l1,2.8c1,2.8,1,2.8-0.9,5.4
		c-0.6,1-1.4,1.8-2.2,2.7c-1.2-0.5-2.3-1-3.4-1.6c-5.6-2.8-9.9-4.3-10.8-3.5c-1.3,1.6-2.5,3.3-3.4,5.1c-2.7,4.4-2.7,4.5-5.7,4.7
		l-3.1,0.2l-0.8,4c-0.7,3.2-1.2,4.1-2.1,4.1c-1.4,0-2.3,1-2.9,3.4C337.1,384.3,336.1,385.1,335.7,383.9z"/>
	<path id="RU-ME" class="st1" d="M313.1,376.4c-0.1-0.3-1-2.8-1.7-5.6c-0.9-3.1-1.9-5.1-2.5-5.2c-0.6-0.2-2.7-0.6-4.8-1l-3.8-0.8
		l0.2-3.6l0.2-3.6l2.9-0.8c2.5-0.8,3.1-0.7,4.3,0.1c0.7,0.5,1.5,0.8,2.3,1c0.6,0,1.1,1.2,1.4,3.9c0.5,4.5,1.1,4.7,4.9,2l2.6-1.9
		l5.3,1.2c1.9,0.4,3.7,0.9,5.5,1.5c0.5,1.8,0.9,3.7,1.2,5.6c0.8,4.8,0.8,5.6,0,6.4s-1.2,0.8-2.8-0.5c-0.9-0.6-1.8-1.2-2.8-1.6
		c-0.8-0.1-7.9,1.8-11.2,3.1C314,376.8,313.5,376.7,313.1,376.4z"/>
	<path id="RU-NIZ" class="st1" d="M277.1,372.5c-1.2-2.5-1.8-5.2-1.9-7.9l-0.3-4.8l-3.9-1.2c-3.9-1.2-6.6-3.5-5.9-5.3
		c0.2-0.4,4.5-2.6,9.5-4.9c7.2-3.3,9.4-4.6,10.1-6c1.1-2,1-2,4.2-1c2.3,0.6,2.6,0.6,4.3-0.8c1.6-1.4,2.8-1.7,7.4-2
		c3-0.2,6.1-0.7,6.9-1.2c1.3-0.8,1.7-0.6,4.4,0.8c2.8,1.8,5.5,3.7,8.1,5.8c5,3.9,5.1,4.1,4,5.4c-1.1,1.2-3.4,1.2-6.3,0.1
		c-0.5-0.2-2.3,1.1-3.9,2.9l-3,3.2l-1.7-1.3c-1.6-1.2-1.8-1.2-5.9-0.1l-4.2,1.2l-0.2,4.4c-0.2,4.2-0.3,4.4-2.1,5s-1.9,0.9-1.9,4.1
		c0,3-0.2,3.5-1.7,4.3s-1.7,0.8-2.5-0.2c-1-1.5-1.5-1.4-6.3,0.8c-1.5,0.8-3.1,1.4-4.7,1.9C279,375.6,278,374.2,277.1,372.5z"/>
	<g>
		<circle class="st1" cx="242.2" cy="323.2" r="8.2"/>
		<circle class="st2" cx="242.2" cy="323.2" r="5.9"/>
	</g>
	<g>
		
			<ellipse transform="matrix(0.1602 -0.9871 0.9871 0.1602 -26.2361 457.7632)" class="st1" cx="255.9" cy="244.3" rx="8.2" ry="8.2"/>
		<ellipse class="st4" cx="255.9" cy="244.3" rx="5.9" ry="5.9"/>
	</g>
	<g>
		<circle class="st1" cx="490.2" cy="375.6" r="8.2"/>
		<circle class="st4" cx="490.2" cy="375.6" r="5.9"/>
	</g>
	<g>
		<circle class="st1" cx="500.6" cy="460.9" r="8.2"/>
		<circle class="st2" cx="500.6" cy="460.9" r="5.9"/>
	</g>
	<g>
		<circle class="st1" cx="328.4" cy="448.6" r="8.2"/>
		<circle class="st2" cx="328.4" cy="448.6" r="5.9"/>
	</g>
	<g>
		<circle class="st1" cx="578.1" cy="440.7" r="8.2"/>
		<circle class="st5" cx="578.1" cy="440.7" r="5.9"/>
	</g>
	<g>
		<circle class="st1" cx="499.6" cy="307.9" r="8.2"/>
		<circle class="st5" cx="499.6" cy="307.9" r="5.9"/>
	</g>
	<g>
		<circle class="st1" cx="466" cy="436.6" r="8.2"/>
		<circle class="st5" cx="466" cy="436.6" r="5.9"/>
	</g>
</g>
<rect x="490.2" y="350.4" class="st6" width="232.4" height="14.6"/>
<g class="st7">
	<path d="M496,364l-1.3-4.3l-1.3,4.3h-3l2.8-7l-2.6-6.5h3l1.1,4l1.1-4h3l-2.6,6.5l2.8,7H496z"/>
	<path d="M506,364l-0.4-2.1h-3.1L502,364h-2.8l3.5-13.5h2.7l3.5,13.5H506z M504,354.4l-1,5h2.1L504,354.4z"/>
	<path d="M514.9,364v-5.7h-2.2v5.7h-2.7v-13.5h2.7v5.4h2.2v-5.4h2.7V364H514.9z"/>
	<path d="M524,352.9V364h-2.7v-11.1H519v-2.4h7.3v2.4H524z"/>
	<path d="M531.5,364h-3.8v-13.5h2.7v4.9h1.1c2.9,0,3.8,1.7,3.8,4.3S534.4,364,531.5,364z M531.4,357.8h-1v3.8h1c1.1,0,1.2-1,1.2-1.9
		C532.6,358.8,532.6,357.8,531.4,357.8z M536.4,364v-13.5h2.7V364H536.4z"/>
	<path d="M540.9,359.6v-2.4h4v2.4H540.9z"/>
	<path d="M553.7,364v-7l-1.5,4.6h-1.4l-1.4-4.6v7h-2.7v-13.5h2.4l2.5,6.6l2.5-6.6h2.4V364H553.7z"/>
	<path d="M564.4,364l-0.4-2.1h-3.1l-0.4,2.1h-2.8l3.5-13.5h2.7l3.5,13.5H564.4z M562.4,354.4l-1,5h2.1L562.4,354.4z"/>
	<path d="M573.3,364v-5.7H571v5.7h-2.7v-13.5h2.7v5.4h2.2v-5.4h2.7V364H573.3z"/>
	<path d="M584.2,363.1c-0.7,0.6-1.5,1-2.6,1c-1.5,0-2.4-0.6-3-1.4c-1-1.2-1-2.9-1-5.5s0.1-4.4,1-5.5c0.6-0.8,1.5-1.4,3-1.4
		c1.1,0,1.9,0.3,2.6,1c0.7,0.7,1.2,1.7,1.2,3h-2.7c0-0.4-0.1-0.8-0.2-1c-0.2-0.3-0.4-0.5-0.9-0.5c-0.5,0-0.8,0.2-0.9,0.5
		c-0.3,0.6-0.4,2.3-0.4,4s0,3.3,0.4,4c0.2,0.3,0.4,0.5,0.9,0.5c0.5,0,0.8-0.2,0.9-0.5c0.2-0.3,0.2-0.7,0.2-1h2.7
		C585.4,361.4,584.9,362.5,584.2,363.1z"/>
	<path d="M592.1,364v-7l-2.6,7h-2.5v-13.5h2.7v7l2.7-7h2.4V364H592.1z"/>
	<path d="M602,364v-7l-2.6,7h-2.5v-13.5h2.7v7l2.7-7h2.4V364H602z M600.9,349.5c-1.2,0-2.6-0.5-2.6-2.3h1.7c0,0.6,0.5,0.7,0.9,0.7
		s0.9-0.2,0.9-0.7h1.7C603.5,349.1,602.1,349.5,600.9,349.5z"/>
	<path d="M612.9,363.1c-0.7,0.6-1.5,1-2.6,1c-1.5,0-2.4-0.6-3-1.4c-1-1.2-1-2.9-1-5.5s0.1-4.4,1-5.5c0.6-0.8,1.5-1.4,3-1.4
		c1.1,0,1.9,0.3,2.6,1c0.7,0.7,1.2,1.7,1.2,3h-2.7c0-0.4-0.1-0.8-0.2-1c-0.2-0.3-0.4-0.5-0.9-0.5c-0.5,0-0.8,0.2-0.9,0.5
		c-0.3,0.6-0.4,2.3-0.4,4s0,3.3,0.4,4c0.2,0.3,0.4,0.5,0.9,0.5c0.5,0,0.8-0.2,0.9-0.5c0.2-0.3,0.2-0.7,0.2-1h2.7
		C614.1,361.4,613.6,362.5,612.9,363.1z"/>
	<path d="M615.8,364v-13.5h2.7V364H615.8z M621.3,364l-2.8-7l2.6-6.5h2.8l-2.7,6.3l3,7.2H621.3z"/>
	<path d="M630.5,364v-7l-2.6,7h-2.5v-13.5h2.7v7l2.7-7h2.4V364H630.5z"/>
	<path d="M640.3,364v-7l-2.6,7h-2.5v-13.5h2.7v7l2.7-7h2.4V364H640.3z M639.2,349.5c-1.2,0-2.6-0.5-2.6-2.3h1.7
		c0,0.6,0.5,0.7,0.9,0.7s0.9-0.2,0.9-0.7h1.7C641.8,349.1,640.5,349.5,639.2,349.5z"/>
	<path d="M654.2,364l-0.4-2.1h-3.1l-0.4,2.1h-2.8l3.5-13.5h2.7L657,364H654.2z M652.2,354.4l-1,5h2.1L652.2,354.4z"/>
	<path d="M664.4,362.7c-0.6,0.8-1.5,1.4-3,1.4s-2.4-0.6-3-1.4c-1-1.2-1-2.9-1-5.5s0.1-4.4,1-5.5c0.6-0.8,1.5-1.4,3-1.4
		s2.4,0.6,3,1.4c1,1.2,1,2.9,1,5.5S665.4,361.6,664.4,362.7z M662.4,353.2c-0.2-0.3-0.4-0.5-0.9-0.5c-0.5,0-0.8,0.2-0.9,0.5
		c-0.3,0.6-0.4,2.3-0.4,4s0,3.3,0.4,4c0.2,0.3,0.4,0.5,0.9,0.5c0.5,0,0.8-0.2,0.9-0.5c0.3-0.6,0.4-2.3,0.4-4
		S662.7,353.9,662.4,353.2z"/>
	<path d="M670.1,359.6v-2.4h4v2.4H670.1z"/>
	<path d="M689.9,362.7c-0.6,0.8-1.5,1.4-3,1.4s-2.4-0.6-3-1.4c-0.8-1-1-2.4-1-4.4h-1.2v5.7h-2.7v-13.5h2.7v5.4h1.2
		c0-1.9,0.2-3.3,1-4.2c0.6-0.8,1.5-1.4,3-1.4s2.4,0.6,3,1.4c1,1.2,1,2.9,1,5.5S690.8,361.6,689.9,362.7z M687.8,353.2
		c-0.2-0.3-0.4-0.5-0.9-0.5c-0.5,0-0.8,0.2-0.9,0.5c-0.3,0.6-0.4,2.3-0.4,4s0,3.3,0.4,4c0.2,0.3,0.4,0.5,0.9,0.5
		c0.5,0,0.8-0.2,0.9-0.5c0.3-0.6,0.4-2.3,0.4-4S688.2,353.9,687.8,353.2z"/>
	<path d="M695.3,352.9V364h-2.7v-13.5h6.1v2.4H695.3z"/>
	<path d="M704,359.1h-1.1v4.9h-2.7v-13.5h3.8c2.9,0,3.8,1.7,3.8,4.3S706.9,359.1,704,359.1z M704,352.9h-1.1v3.8h1.1
		c1,0,1.1-1,1.1-1.9C705.1,353.9,705,352.9,704,352.9z"/>
	<path d="M714,364l-0.4-2.1h-3.1L710,364h-2.8l3.5-13.5h2.7l3.5,13.5H714z M712,354.4l-1,5h2.1L712,354.4z"/>
</g>
<rect x="466" y="411.6" class="st6" width="64.6" height="14.6"/>
<g class="st7">
	<path d="M471.3,414v11.1h-2.7V414h-2.3v-2.4h7.3v2.4H471.3z"/>
	<path d="M485.8,423.9c-0.6,0.8-1.5,1.4-3,1.4s-2.4-0.6-3-1.4c-0.8-1-1-2.4-1-4.4h-1.2v5.7H475v-13.5h2.7v5.4h1.2
		c0-1.9,0.2-3.3,1-4.2c0.6-0.8,1.5-1.4,3-1.4s2.4,0.6,3,1.4c0.9,1.2,1,2.9,1,5.5S486.8,422.8,485.8,423.9z M483.8,414.4
		c-0.2-0.3-0.4-0.5-0.9-0.5s-0.8,0.2-0.9,0.5c-0.3,0.6-0.4,2.3-0.4,4s0,3.3,0.4,4c0.2,0.3,0.4,0.5,0.9,0.5s0.8-0.2,0.9-0.5
		c0.3-0.6,0.4-2.3,0.4-4S484.1,415,483.8,414.4z"/>
	<path d="M495.5,425.1v-7l-1.5,4.6h-1.4l-1.4-4.6v7h-2.7v-13.5h2.4l2.5,6.6l2.5-6.6h2.4v13.5H495.5z"/>
	<path d="M500.3,425.1v-13.5h6.2v2.4H503v3.1h3v2.4h-3v3.2h3.5v2.4H500.3z"/>
	<path d="M513.1,425.1v-5.7h-2.2v5.7h-2.7v-13.5h2.7v5.4h2.2v-5.4h2.7v13.5H513.1z"/>
	<path d="M521.8,425.1h-3.8v-13.5h2.7v4.9h1.1c2.9,0,3.8,1.7,3.8,4.3S524.7,425.1,521.8,425.1z M521.7,418.9h-1v3.8h1
		c1.1,0,1.2-1,1.2-1.9C522.9,420,522.8,418.9,521.7,418.9z"/>
</g>
<rect x="328.4" y="424.3" class="st6" width="75.6" height="14.6"/>
<g class="st7">
	<path d="M336,436.6c-0.6,0.8-1.5,1.4-3,1.4s-2.4-0.6-3-1.4c-0.9-1.2-1-2.9-1-5.5s0.1-4.4,1-5.5c0.6-0.8,1.5-1.4,3-1.4
		s2.4,0.6,3,1.4c0.9,1.2,1,2.9,1,5.5S336.9,435.4,336,436.6z M333.9,427.1c-0.2-0.3-0.4-0.5-0.9-0.5c-0.5,0-0.8,0.2-0.9,0.5
		c-0.3,0.6-0.4,2.3-0.4,4s0,3.3,0.4,4c0.2,0.3,0.4,0.5,0.9,0.5c0.5,0,0.8-0.2,0.9-0.5c0.3-0.6,0.4-2.3,0.4-4
		S334.3,427.7,333.9,427.1z"/>
	<path d="M342.5,432.9h-1.1v4.9h-2.7v-13.5h3.8c2.9,0,3.8,1.7,3.8,4.3S345.4,432.9,342.5,432.9z M342.5,426.7h-1.1v3.8h1.1
		c1,0,1.1-1,1.1-1.9C343.6,427.7,343.5,426.7,342.5,426.7z"/>
	<path d="M347.9,437.8v-13.5h6.2v2.4h-3.5v3.1h3v2.4h-3v3.2h3.5v2.4H347.9z"/>
	<path d="M360.8,437.8v-5.7h-2.2v5.7h-2.7v-13.5h2.7v5.4h2.2v-5.4h2.7v13.5H360.8z"/>
	<path d="M369.4,437.8h-3.8v-13.5h7v2.4h-4.3v2.5h1.1c2.9,0,3.8,1.7,3.8,4.3S372.3,437.8,369.4,437.8z M369.4,431.6h-1.1v3.8h1.1
		c1,0,1.1-1,1.1-1.9C370.5,432.6,370.4,431.6,369.4,431.6z"/>
	<path d="M378.5,435.2c-0.6,2-1.4,2.6-4,2.6v-2.4c1.3,0,1.7-0.4,1.9-1.3l0.2-0.6l-3.1-9.1h3l1.3,5.5l1.3-5.5h3L378.5,435.2z"/>
	<path d="M387.1,432.9H386v4.9h-2.7v-13.5h3.8c2.9,0,3.8,1.7,3.8,4.3S390,432.9,387.1,432.9z M387.1,426.7H386v3.8h1.1
		c1,0,1.1-1,1.1-1.9C388.2,427.7,388.1,426.7,387.1,426.7z"/>
	<path d="M395.2,426.7v11.1h-2.7v-13.5h6.1v2.4H395.2z"/>
</g>
<rect x="242.2" y="298.5" class="st6" width="72.1" height="14.6"/>
<g class="st7">
	<path d="M250.3,312v-7l-1.5,4.6h-1.4L246,305v7h-2.7v-13.5h2.4l2.5,6.6l2.5-6.6h2.4V312H250.3z"/>
	<path d="M261.6,310.8c-0.6,0.8-1.5,1.4-3,1.4s-2.4-0.6-3-1.4c-0.9-1.2-1-2.9-1-5.5s0.1-4.4,1-5.5c0.6-0.8,1.5-1.4,3-1.4
		s2.4,0.6,3,1.4c0.9,1.2,1,2.9,1,5.5S262.6,309.7,261.6,310.8z M259.6,301.3c-0.2-0.3-0.4-0.5-0.9-0.5c-0.5,0-0.8,0.2-0.9,0.5
		c-0.3,0.6-0.4,2.3-0.4,4s0,3.3,0.4,4c0.2,0.3,0.4,0.5,0.9,0.5c0.5,0,0.8-0.2,0.9-0.5c0.3-0.6,0.4-2.3,0.4-4
		S259.9,301.9,259.6,301.3z"/>
	<path d="M270.5,311.2c-0.7,0.6-1.5,1-2.6,1c-1.5,0-2.4-0.6-3-1.4c-0.9-1.2-1-2.9-1-5.5s0.1-4.4,1-5.5c0.6-0.8,1.5-1.4,3-1.4
		c1.1,0,1.9,0.3,2.6,1c0.7,0.7,1.2,1.7,1.2,3H269c0-0.4-0.1-0.8-0.2-1c-0.2-0.3-0.4-0.5-0.9-0.5c-0.5,0-0.8,0.2-0.9,0.5
		c-0.3,0.6-0.4,2.3-0.4,4s0,3.3,0.4,4c0.2,0.3,0.4,0.5,0.9,0.5c0.5,0,0.8-0.2,0.9-0.5c0.2-0.3,0.2-0.7,0.2-1h2.7
		C271.6,309.5,271.2,310.6,270.5,311.2z"/>
	<path d="M273.3,312v-13.5h2.7V312H273.3z M278.9,312l-2.8-7l2.6-6.5h2.8l-2.7,6.3l3,7.2H278.9z"/>
	<path d="M289.7,311.1c-0.6,0.6-1.5,0.9-2.8,0.9h-3.9v-13.5h3.9c1.3,0,2.2,0.3,2.8,0.9c0.6,0.6,0.9,1.3,0.9,2.8c0,1-0.2,1.7-0.7,2.3
		c-0.2,0.2-0.4,0.3-0.6,0.5c0.2,0.1,0.5,0.3,0.6,0.5c0.6,0.6,0.7,1.3,0.7,2.7C290.6,309.6,290.4,310.4,289.7,311.1z M286.5,300.9
		h-0.9v2.9h0.9c1,0,1.3-0.5,1.3-1.4C287.9,301.4,287.6,300.9,286.5,300.9z M286.5,306.1h-0.9v3.5h0.9c1.1,0,1.4-0.5,1.4-1.7
		C287.9,306.6,287.5,306.1,286.5,306.1z"/>
	<path d="M298.3,312l-0.4-2.1h-3.1l-0.4,2.1h-2.8l3.5-13.5h2.7l3.5,13.5H298.3z M296.3,302.5l-1,5h2.1L296.3,302.5z"/>
</g>
<rect x="255.9" y="219.4" class="st6" width="134.6" height="14.6"/>
<g class="st7">
	<path d="M263.1,232.1c-0.7,0.6-1.5,1-2.6,1c-1.5,0-2.4-0.6-3-1.4c-0.9-1.2-1-2.9-1-5.5s0.1-4.4,1-5.5c0.6-0.8,1.5-1.4,3-1.4
		c1.1,0,1.9,0.3,2.6,1c0.7,0.7,1.2,1.7,1.2,3h-2.7c0-0.4-0.1-0.8-0.2-1c-0.2-0.3-0.4-0.5-0.9-0.5c-0.5,0-0.8,0.2-0.9,0.5
		c-0.3,0.6-0.4,2.3-0.4,4s0,3.3,0.4,4c0.2,0.3,0.4,0.5,0.9,0.5c0.5,0,0.8-0.2,0.9-0.5c0.2-0.3,0.2-0.7,0.2-1h2.7
		C264.3,230.3,263.8,231.4,263.1,232.1z"/>
	<path d="M271.5,232.9l-0.4-2.1H268l-0.4,2.1h-2.8l3.5-13.5h2.7l3.5,13.5H271.5z M269.5,223.3l-1,5h2.1L269.5,223.3z"/>
	<path d="M280.4,232.9v-5.7h-2.2v5.7h-2.7v-13.5h2.7v5.4h2.2v-5.4h2.7v13.5H280.4z"/>
	<path d="M285.2,232.9v-13.5h2.7v13.5H285.2z M290.8,232.9l-2.8-7l2.6-6.5h2.8l-2.7,6.3l3,7.2H290.8z"/>
	<path d="M299.2,221.8v11.1h-2.7v-11.1h-2.3v-2.4h7.3v2.4H299.2z"/>
	<path d="M301.9,228.5v-2.4h4v2.4H301.9z"/>
	<path d="M312.6,232.9v-11.1h-2.2v11.1h-2.7v-13.5h7.6v13.5H312.6z"/>
	<path d="M317.4,232.9v-13.5h6.2v2.4h-3.5v3.1h3v2.4h-3v3.2h3.5v2.4H317.4z"/>
	<path d="M329.6,221.8v11.1h-2.7v-11.1h-2.3v-2.4h7.3v2.4H329.6z"/>
	<path d="M333.3,232.9v-13.5h6.2v2.4H336v3.1h3v2.4h-3v3.2h3.5v2.4H333.3z"/>
	<path d="M345,228h-1.1v4.9h-2.7v-13.5h3.8c2.9,0,3.8,1.7,3.8,4.3S347.9,228,345,228z M345,221.8h-1.1v3.8h1.1c1,0,1.1-1,1.1-1.9
		C346.1,222.8,346,221.8,345,221.8z"/>
	<path d="M354.2,232.9h-3.8v-13.5h7v2.4h-4.3v2.5h1.1c2.9,0,3.8,1.7,3.8,4.3S357.2,232.9,354.2,232.9z M354.3,226.7h-1.1v3.8h1.1
		c1,0,1.1-1,1.1-1.9C355.3,227.7,355.3,226.7,354.3,226.7z"/>
	<path d="M363.4,230.3c-0.6,2-1.4,2.6-4,2.6v-2.4c1.3,0,1.7-0.4,1.9-1.3l0.2-0.6l-3.1-9.1h3l1.3,5.5l1.3-5.5h3L363.4,230.3z"/>
	<path d="M372,228h-1.1v4.9h-2.7v-13.5h3.8c2.9,0,3.8,1.7,3.8,4.3S374.9,228,372,228z M372,221.8h-1.1v3.8h1.1c1,0,1.1-1,1.1-1.9
		C373.1,222.8,373,221.8,372,221.8z"/>
	<path d="M380.1,221.8v11.1h-2.7v-13.5h6.1v2.4H380.1z"/>
</g>
<rect x="500.6" y="436.6" class="st6" width="41.9" height="14.6"/>
<g class="st7">
	<path d="M508.1,448.9c-0.6,0.8-1.5,1.4-3,1.4s-2.4-0.6-3-1.4c-1-1.2-1-2.9-1-5.5s0.1-4.4,1-5.5c0.6-0.8,1.5-1.4,3-1.4
		s2.4,0.6,3,1.4c1,1.2,1,2.9,1,5.5S509.1,447.7,508.1,448.9z M506.1,439.4c-0.2-0.3-0.4-0.5-0.9-0.5c-0.5,0-0.8,0.2-0.9,0.5
		c-0.3,0.6-0.4,2.3-0.4,4s0,3.3,0.4,4c0.2,0.3,0.4,0.5,0.9,0.5c0.5,0,0.8-0.2,0.9-0.5c0.3-0.6,0.4-2.3,0.4-4S506.4,440,506.1,439.4z
		"/>
	<path d="M517.8,450.1v-7l-1.5,4.6H515l-1.4-4.6v7h-2.7v-13.5h2.4l2.5,6.6l2.5-6.6h2.4v13.5H517.8z"/>
	<path d="M528.8,449.3c-0.7,0.6-1.5,1-2.6,1c-1.5,0-2.4-0.6-3-1.4c-0.9-1.2-1-2.9-1-5.5s0.1-4.4,1-5.5c0.6-0.8,1.5-1.4,3-1.4
		c1.1,0,1.9,0.3,2.6,1c0.7,0.7,1.2,1.7,1.2,3h-2.7c0-0.4-0.1-0.8-0.2-1c-0.2-0.3-0.4-0.5-0.9-0.5s-0.8,0.2-0.9,0.5
		c-0.3,0.6-0.4,2.3-0.4,4s0,3.3,0.4,4c0.2,0.3,0.4,0.5,0.9,0.5s0.8-0.2,0.9-0.5c0.2-0.3,0.2-0.7,0.2-1h2.7
		C530,447.5,529.5,448.6,528.8,449.3z"/>
	<path d="M531.6,450.1v-13.5h2.7v13.5H531.6z M537.2,450.1l-2.8-7l2.6-6.5h2.8l-2.7,6.3l3,7.2H537.2z"/>
</g>
<rect x="578.1" y="416.9" class="st6" width="51.5" height="14.6"/>
<g class="st7">
	<path d="M583.5,419.3v11.1h-2.7v-11.1h-2.3v-2.4h7.3v2.4H583.5z"/>
	<path d="M593.4,429.2c-0.6,0.8-1.5,1.4-3,1.4s-2.4-0.6-3-1.4c-0.9-1.2-1-2.9-1-5.5s0.1-4.4,1-5.5c0.6-0.8,1.5-1.4,3-1.4
		s2.4,0.6,3,1.4c0.9,1.2,1,2.9,1,5.5S594.4,428.1,593.4,429.2z M591.4,419.7c-0.2-0.3-0.4-0.5-0.9-0.5s-0.8,0.2-0.9,0.5
		c-0.3,0.6-0.4,2.3-0.4,4s0,3.3,0.4,4c0.2,0.3,0.4,0.5,0.9,0.5s0.8-0.2,0.9-0.5c0.3-0.6,0.4-2.3,0.4-4S591.7,420.3,591.4,419.7z"/>
	<path d="M603.1,430.4v-7l-1.5,4.6h-1.4l-1.4-4.6v7h-2.7v-13.5h2.4l2.5,6.6l2.5-6.6h2.4v13.5H603.1z"/>
	<path d="M614.1,429.6c-0.7,0.6-1.5,1-2.6,1c-1.5,0-2.4-0.6-3-1.4c-1-1.2-1-2.9-1-5.5s0.1-4.4,1-5.5c0.6-0.8,1.5-1.4,3-1.4
		c1.1,0,1.9,0.3,2.6,1c0.7,0.7,1.2,1.7,1.2,3h-2.7c0-0.4-0.1-0.8-0.2-1c-0.2-0.3-0.4-0.5-0.9-0.5c-0.5,0-0.8,0.2-0.9,0.5
		c-0.3,0.6-0.4,2.3-0.4,4s0,3.3,0.4,4c0.2,0.3,0.4,0.5,0.9,0.5c0.5,0,0.8-0.2,0.9-0.5c0.2-0.3,0.2-0.7,0.2-1h2.7
		C615.3,427.9,614.8,429,614.1,429.6z"/>
	<path d="M616.9,430.4v-13.5h2.7v13.5H616.9z M622.5,430.4l-2.8-7l2.6-6.5h2.8l-2.7,6.3l3,7.2H622.5z"/>
</g>
<rect x="499.6" y="283.8" class="st6" width="203.6" height="15.5"/>
<g class="st7">
	<path d="M505.4,297.3V292h-0.9l-1.7,5.3h-2.8l2-5.9c-1.3-0.8-1.5-2.1-1.5-3.6c0-2.6,0.8-4.1,3.8-4.1h3.9v13.5H505.4z M505.4,286.2
		h-1.1c-1,0-1.1,0.9-1.1,1.7c0,0.8,0.1,1.7,1.1,1.7h1.1V286.2z"/>
	<path d="M517.2,297.3v-7l-1.5,4.6h-1.4l-1.4-4.6v7h-2.7v-13.5h2.4l2.5,6.6l2.5-6.6h2.4v13.5H517.2z"/>
	<path d="M527.9,297.3l-0.4-2.1h-3.1l-0.4,2.1h-2.8l3.5-13.5h2.7l3.5,13.5H527.9z M525.9,287.7l-1,5h2.1L525.9,287.7z"/>
	<path d="M537.8,297.3v-11.1h-1.9v5.7c0,4.8-1.6,5.4-3.7,5.4h-0.8v-2.4h0.2c0.9,0,1.7-0.3,1.7-3.2v-7.8h7.2v13.5H537.8z"/>
	<path d="M549.1,296.1c-0.6,0.8-1.5,1.4-3,1.4s-2.4-0.6-3-1.4c-1-1.2-1-2.9-1-5.5s0.1-4.4,1-5.5c0.6-0.8,1.5-1.4,3-1.4
		s2.4,0.6,3,1.4c1,1.2,1,2.9,1,5.5S550.1,294.9,549.1,296.1z M547.1,286.6c-0.2-0.3-0.4-0.5-0.9-0.5s-0.8,0.2-0.9,0.5
		c-0.3,0.6-0.4,2.3-0.4,4s0,3.3,0.4,4c0.2,0.3,0.4,0.5,0.9,0.5s0.8-0.2,0.9-0.5c0.3-0.6,0.4-2.3,0.4-4S547.4,287.2,547.1,286.6z"/>
	<path d="M551.6,292.9v-2.4h4v2.4H551.6z"/>
	<path d="M562.3,297.3v-5.7h-2.2v5.7h-2.7v-13.5h2.7v5.4h2.2v-5.4h2.7v13.5H562.3z"/>
	<path d="M567.1,297.3v-13.5h6.2v2.4h-3.5v3.1h3v2.4h-3v3.2h3.5v2.4H567.1z"/>
	<path d="M579.9,297.3v-5.7h-2.2v5.7H575v-13.5h2.7v5.4h2.2v-5.4h2.7v13.5H579.9z"/>
	<path d="M584.7,297.3v-13.5h6.2v2.4h-3.5v3.1h3v2.4h-3v3.2h3.5v2.4H584.7z"/>
	<path d="M598.9,300v-2.7h-6.3v-13.5h2.7v11.1h2.2v-11.1h2.7v11.1h1.2v5.2H598.9z"/>
	<path d="M602.9,297.3v-13.5h2.7v13.5H602.9z M608.5,297.3l-2.8-7l2.6-6.5h2.8l-2.7,6.3l3,7.2H608.5z"/>
	<path d="M617.6,297.3v-7l-2.6,7h-2.5v-13.5h2.7v7l2.7-7h2.4v13.5H617.6z"/>
	<path d="M627.5,297.3v-7l-2.6,7h-2.5v-13.5h2.7v7l2.7-7h2.4v13.5H627.5z M626.4,282.9c-1.2,0-2.6-0.5-2.6-2.3h1.7
		c0,0.6,0.5,0.7,0.9,0.7s0.9-0.2,0.9-0.7h1.7C629,282.4,627.6,282.9,626.4,282.9z"/>
	<path d="M641.4,297.3l-0.4-2.1h-3.1l-0.4,2.1h-2.8l3.5-13.5h2.7l3.5,13.5H641.4z M639.4,287.7l-1,5h2.1L639.4,287.7z"/>
	<path d="M651.6,296.1c-0.6,0.8-1.5,1.4-3,1.4s-2.4-0.6-3-1.4c-0.9-1.2-1-2.9-1-5.5s0.1-4.4,1-5.5c0.6-0.8,1.5-1.4,3-1.4
		s2.4,0.6,3,1.4c0.9,1.2,1,2.9,1,5.5S652.5,294.9,651.6,296.1z M649.5,286.6c-0.2-0.3-0.4-0.5-0.9-0.5c-0.5,0-0.8,0.2-0.9,0.5
		c-0.3,0.6-0.4,2.3-0.4,4s0,3.3,0.4,4c0.2,0.3,0.4,0.5,0.9,0.5c0.5,0,0.8-0.2,0.9-0.5c0.3-0.6,0.4-2.3,0.4-4
		S649.9,287.2,649.5,286.6z"/>
</g>
</svg>
