<svg width="14" height="20" viewBox="0 0 14 20" fill="none" xmlns="http://www.w3.org/2000/svg">
<path fill-rule="evenodd" clip-rule="evenodd" d="M0 6.66668C0 2.99074 3.14027 0 7 0C10.8597 0 14 2.99074 14 6.66664C14 7.77016 13.7103 8.86434 13.1617 9.83152L7.3828 19.7852C7.30589 19.9178 7.15935 20 7 20C6.84065 20 6.69411 19.9178 6.6172 19.7852L0.840408 9.8348C0.289693 8.86434 0 7.7702 0 6.66668ZM7.5 10C8.88071 10 10 8.88071 10 7.5C10 6.11929 8.88071 5 7.5 5C6.11929 5 5 6.11929 5 7.5C5 8.88071 6.11929 10 7.5 10Z" fill="#EA6425"/>
</svg>
