<svg width="28" height="25" viewBox="0 0 59 53" fill="none" xmlns="http://www.w3.org/2000/svg">
<circle cx="30" cy="31" r="11" stroke="#009AFF" stroke-width="2"/>
<path d="M58 18V45C58 48.866 54.866 52 51 52H8C4.13401 52 1 48.866 1 45V18C1 14.134 4.13401 11 8 11H15C16.1046 11 17 10.1046 17 9V8C17 4.13401 20.134 1 24 1H35C38.866 1 42 4.13401 42 8V9C42 10.1046 42.8954 11 44 11H51C54.866 11 58 14.134 58 18Z" stroke="#009AFF" stroke-width="2"/>
<path d="M45.5 17.5H52.5" stroke="#009AFF" stroke-width="2" stroke-linecap="round"/>
</svg>
