<svg width="22" height="20" viewBox="0 0 22 20" fill="none" xmlns="http://www.w3.org/2000/svg">
<path d="M11 18.8873C10.7153 18.8873 10.4407 18.7842 10.2268 18.5968C9.41887 17.8903 8.63991 17.2264 7.95265 16.6408L7.94914 16.6377C5.93423 14.9207 4.19427 13.4378 2.98364 11.9771C1.63034 10.3441 1 8.79578 1 7.10434C1 5.46097 1.56351 3.94485 2.58661 2.83508C3.62191 1.71219 5.0425 1.09375 6.58715 1.09375C7.74163 1.09375 8.7989 1.45874 9.72954 2.1785C10.1992 2.54181 10.6249 2.98645 11 3.5051C11.3752 2.98645 11.8008 2.54181 12.2706 2.1785C13.2012 1.45874 14.2585 1.09375 15.413 1.09375C16.9575 1.09375 18.3782 1.71219 19.4135 2.83508C20.4366 3.94485 21 5.46097 21 7.10434C21 8.79578 20.3698 10.3441 19.0165 11.9769C17.8058 13.4378 16.066 14.9205 14.0514 16.6374C13.363 17.224 12.5828 17.8889 11.773 18.5971C11.5592 18.7842 11.2846 18.8873 11 18.8873ZM6.58715 2.26532C5.37362 2.26532 4.25881 2.74963 3.44781 3.62915C2.62475 4.52194 2.17141 5.75607 2.17141 7.10434C2.17141 8.52692 2.70013 9.79919 3.88558 11.2296C5.03136 12.6122 6.73562 14.0645 8.70888 15.7462L8.71254 15.7492C9.40239 16.3371 10.1844 17.0036 10.9983 17.7153C11.8171 17.0023 12.6003 16.3347 13.2915 15.7458C15.2647 14.0642 16.9688 12.6122 18.1145 11.2296C19.2998 9.79919 19.8285 8.52692 19.8285 7.10434C19.8285 5.75607 19.3752 4.52194 18.5522 3.62915C17.7413 2.74963 16.6263 2.26532 15.413 2.26532C14.524 2.26532 13.7078 2.54791 12.9871 3.10516C12.3449 3.60199 11.8975 4.23004 11.6352 4.66949C11.5003 4.89548 11.2629 5.03036 11 5.03036C10.7371 5.03036 10.4996 4.89548 10.3648 4.66949C10.1026 4.23004 9.65523 3.60199 9.01283 3.10516C8.29216 2.54791 7.47597 2.26532 6.58715 2.26532Z" fill="#AAAAAA" stroke="#AAAAAA" stroke-width="0.6"/>
</svg>
