<svg width="23" height="21" viewBox="0 0 23 21" fill="none" xmlns="http://www.w3.org/2000/svg">
<path fill-rule="evenodd" clip-rule="evenodd" d="M22 9.20455V8.34091V3.56068C22 2.14864 20.8828 1 19.5094 1H6.04H5.2H3.4906C2.1172 1 1 2.14864 1 3.56025V12.6893C1 14.1014 2.1172 15.25 3.4906 15.25H6.04V19.5682C6.04 19.7465 6.14668 19.9067 6.3088 19.9711C6.35794 19.9905 6.40918 20 6.46 20C6.57592 20 6.68974 19.9503 6.7708 19.8588L10.8456 15.25H19.5094C20.8828 15.25 22 14.1014 22 12.6897V9.20455ZM19.5094 14.3864C20.4195 14.3864 21.16 13.6251 21.16 12.6897V8.77273V3.56068C21.16 2.62493 20.4195 1.86364 19.5094 1.86364H5.62H3.4906C2.58046 1.86364 1.84 2.62493 1.84 3.56025V12.6893C1.84 13.6251 2.58046 14.3864 3.4906 14.3864H6.46C6.69226 14.3864 6.88 14.5798 6.88 14.8182V18.4515L10.3492 14.5276C10.4286 14.4377 10.5416 14.3864 10.66 14.3864H19.5094Z" fill="#AAAAAA" stroke="#AAAAAA"/>
</svg>
