<svg width="169" height="130" viewBox="0 0 169 130" fill="none" xmlns="http://www.w3.org/2000/svg">
<g clip-path="url(#clip0)">
<path fill-rule="evenodd" clip-rule="evenodd" d="M75.1153 98.0674C97.3844 98.0674 115.555 79.8593 115.555 57.5255C115.555 35.1915 97.3844 16.9741 75.1153 16.9741C52.8373 16.9741 34.6758 35.1915 34.6758 57.5255C34.6758 79.8593 52.8373 98.0674 75.1153 98.0674Z" fill="#4DD6CB"/>
<path fill-rule="evenodd" clip-rule="evenodd" d="M75.1155 98.0671C97.4499 98.0671 115.555 79.9154 115.555 57.5252C115.555 44.2013 109.146 32.3749 99.2462 24.9832C104.308 31.7573 107.302 40.1595 107.302 49.2726C107.302 71.6628 89.1973 89.8145 66.8629 89.8145C57.8148 89.8145 49.4595 86.8391 42.7227 81.8054C50.1052 91.6764 61.8665 98.0671 75.1155 98.0671Z" fill="#3AB4AA"/>
<path d="M90.4414 83.4239C90.4414 82.0577 91.5455 80.9443 92.9117 80.9443C94.2779 80.9443 95.3913 82.0577 95.3913 83.4239V107.723C95.3913 109.089 94.2779 110.202 92.9117 110.202C91.5455 110.202 90.4414 109.089 90.4414 107.723V83.4239ZM90.4414 116.658C90.4414 115.283 91.5455 114.179 92.9117 114.179C94.2779 114.179 95.3913 115.283 95.3913 116.658V128.597C95.3913 129.964 94.2779 131.077 92.9117 131.077C91.5455 131.077 90.4414 129.964 90.4414 128.597V116.658ZM155.424 83.4239C155.424 82.0577 156.528 80.9443 157.903 80.9443C159.269 80.9443 160.373 82.0577 160.373 83.4239V107.723C160.373 109.089 159.269 110.202 157.903 110.202C156.528 110.202 155.424 109.089 155.424 107.723V83.4239ZM155.424 116.658C155.424 115.283 156.528 114.179 157.903 114.179C159.269 114.179 160.373 115.283 160.373 116.658V128.597C160.373 129.964 159.269 131.077 157.903 131.077C156.528 131.077 155.424 129.964 155.424 128.597V116.658Z" fill="#E28021"/>
<path fill-rule="evenodd" clip-rule="evenodd" d="M90.4414 86.6709H160.373V98.797H90.4414V86.6709Z" fill="#FF942D"/>
<path fill-rule="evenodd" clip-rule="evenodd" d="M85.9319 116.659H164.874C165.781 116.659 166.53 115.91 166.53 115.003V109.379C166.53 108.472 165.781 107.723 164.874 107.723H85.9319C85.0245 107.723 84.2852 108.472 84.2852 109.379V115.003C84.2852 115.91 85.0242 116.659 85.9319 116.659Z" fill="#FF942D"/>
<path fill-rule="evenodd" clip-rule="evenodd" d="M90.4414 92.6689H160.298V98.7411H90.4414V92.6689Z" fill="#FF942D"/>
<path d="M72.6351 57.5254C72.6351 56.1593 73.7485 55.0459 75.1146 55.0459C76.4808 55.0459 77.585 56.1596 77.585 57.5254V71.6069L86.6139 64.4584C87.69 63.6164 89.2338 63.7943 90.0758 64.8608C90.9274 65.9368 90.7402 67.4806 89.6734 68.3226L77.5846 77.8946V127.035C77.5846 128.401 76.4805 129.505 75.1143 129.505C73.7481 129.505 72.6348 128.401 72.6348 127.035V57.5254H72.6351Z" fill="#917D52"/>
<path fill-rule="evenodd" clip-rule="evenodd" d="M32.7576 105.403C49.4311 105.403 63.0356 91.8077 63.0356 75.1249C63.0356 58.4517 49.4311 44.8472 32.7576 44.8472C16.0744 44.8472 2.47949 58.4517 2.47949 75.1249C2.47949 91.808 16.0747 105.403 32.7576 105.403Z" fill="#3AB4AA"/>
<path fill-rule="evenodd" clip-rule="evenodd" d="M32.7566 105.402C49.4771 105.402 63.0347 91.8541 63.0347 75.1244C63.0347 64.6543 57.7201 55.429 49.6358 49.9929C52.8825 54.8114 54.7821 60.6218 54.7821 66.8721C54.7821 83.6018 41.2241 97.1499 24.504 97.1499C18.2537 97.1499 12.4433 95.2598 7.61523 92.0132C13.0516 100.088 22.2865 105.402 32.7566 105.402Z" fill="#2CA399"/>
<path d="M35.2272 84.3504L40.9534 79.8217C42.0294 78.9701 43.5732 79.1572 44.4152 80.2241C45.2668 81.2905 45.0794 82.8439 44.0129 83.6859L35.2272 90.638V127.035C35.2272 128.401 34.1231 129.505 32.7569 129.505C31.3907 129.505 30.2773 128.401 30.2773 127.035V75.125C30.2773 73.7591 31.3907 72.655 32.7569 72.655C34.1231 72.655 35.2272 73.7591 35.2272 75.125V84.3504Z" fill="#917D52"/>
</g>
<defs>
<clipPath id="clip0">
<rect width="169" height="130" fill="white"/>
</clipPath>
</defs>
</svg>
