<svg width="19" height="17" viewBox="0 0 19 17" fill="none" xmlns="http://www.w3.org/2000/svg">
<path d="M1.18164 4H8.18164" stroke="#E65907" stroke-width="2" stroke-linecap="square" stroke-linejoin="round"/>
<path d="M14.1816 4L17.1816 4" stroke="#E65907" stroke-width="2" stroke-linecap="square" stroke-linejoin="round"/>
<path d="M11.1816 7C12.8385 7 14.1816 5.65685 14.1816 4C14.1816 2.34315 12.8385 1 11.1816 1C9.52479 1 8.18164 2.34315 8.18164 4C8.18164 5.65685 9.52479 7 11.1816 7Z" stroke="#009AFF" stroke-width="2" stroke-linecap="round" stroke-linejoin="round"/>
<path d="M1 12.0898H3" stroke="#E65907" stroke-width="2" stroke-linecap="square" stroke-linejoin="round"/>
<path d="M9.18164 12L17.1816 12" stroke="#E65907" stroke-width="2" stroke-linecap="square" stroke-linejoin="round"/>
<path d="M6 15.0898C7.65685 15.0898 9 13.7467 9 12.0898C9 10.433 7.65685 9.08984 6 9.08984C4.34315 9.08984 3 10.433 3 12.0898C3 13.7467 4.34315 15.0898 6 15.0898Z" stroke="#009AFF" stroke-width="2" stroke-linecap="round" stroke-linejoin="round"/>
</svg>
