<svg width="28" height="40" viewBox="0 0 28 40" fill="none" xmlns="http://www.w3.org/2000/svg">
<path d="M3.35795 35V30.5682L13.7131 20.9801C14.5938 20.1278 15.3324 19.3608 15.929 18.679C16.535 17.9972 16.9943 17.3295 17.3068 16.6761C17.6193 16.0133 17.7756 15.2983 17.7756 14.5312C17.7756 13.679 17.5814 12.9451 17.1932 12.3295C16.8049 11.7045 16.2746 11.2263 15.6023 10.8949C14.9299 10.554 14.1676 10.3835 13.3153 10.3835C12.4252 10.3835 11.6487 10.5634 10.9858 10.9233C10.3229 11.2831 9.81155 11.7992 9.4517 12.4716C9.09186 13.1439 8.91193 13.9441 8.91193 14.8722H3.07386C3.07386 12.9687 3.50473 11.3163 4.36648 9.91477C5.22822 8.51326 6.43561 7.42898 7.98864 6.66193C9.54167 5.89489 11.3314 5.51136 13.358 5.51136C15.4413 5.51136 17.2547 5.88068 18.7983 6.61932C20.3513 7.34848 21.5587 8.36174 22.4205 9.65909C23.2822 10.9564 23.7131 12.4432 23.7131 14.1193C23.7131 15.2178 23.4953 16.3021 23.0597 17.3722C22.6335 18.4422 21.8712 19.6307 20.7727 20.9375C19.6742 22.2348 18.1259 23.7926 16.1278 25.6108L11.8807 29.7727V29.9716H24.0966V35H3.35795Z" fill="#009AFF"/>
<mask id="mask0_270_31038" style="mask-type:alpha" maskUnits="userSpaceOnUse" x="2" y="29" width="23" height="9">
<rect x="2.48828" y="29.9844" width="21.8343" height="7.71539" fill="#FB4C00"/>
</mask>
<g mask="url(#mask0_270_31038)">
<path d="M3.356 35.0078V30.576L13.7111 20.9879C14.5918 20.1357 15.3304 19.3686 15.927 18.6868C16.5331 18.005 16.9924 17.3374 17.3049 16.6839C17.6174 16.0211 17.7736 15.3061 17.7736 14.5391C17.7736 13.6868 17.5795 12.9529 17.1912 12.3374C16.803 11.7124 16.2727 11.2341 15.6003 10.9027C14.928 10.5618 14.1657 10.3913 13.3134 10.3913C12.4232 10.3913 11.6467 10.5713 10.9838 10.9311C10.321 11.291 9.8096 11.8071 9.44975 12.4794C9.0899 13.1518 8.90998 13.9519 8.90998 14.88H3.07191C3.07191 12.9766 3.50278 11.3241 4.36452 9.92259C5.22627 8.52107 6.43365 7.43679 7.98668 6.66974C9.53971 5.9027 11.3295 5.51918 13.356 5.51918C15.4393 5.51918 17.2528 5.88849 18.7963 6.62713C20.3494 7.3563 21.5568 8.36955 22.4185 9.6669C23.2802 10.9643 23.7111 12.451 23.7111 14.1271C23.7111 15.2256 23.4933 16.3099 23.0577 17.38C22.6316 18.45 21.8693 19.6385 20.7708 20.9453C19.6723 22.2427 18.124 23.8004 16.1259 25.6186L11.8787 29.7805V29.9794H24.0946V35.0078H3.356Z" fill="#E65907"/>
</g>
</svg>
