<svg width="28" height="40" viewBox="0 0 28 40" fill="none" xmlns="http://www.w3.org/2000/svg">
<path d="M14.1108 35.3977C11.9896 35.3977 10.1004 35.0331 8.44318 34.304C6.79545 33.5653 5.49337 32.5521 4.53693 31.2642C3.58996 29.9669 3.10227 28.4706 3.07386 26.7756H9.26705C9.30492 27.4858 9.53693 28.1108 9.96307 28.6506C10.3987 29.1809 10.9763 29.5928 11.696 29.8864C12.4157 30.1799 13.2254 30.3267 14.125 30.3267C15.0625 30.3267 15.8911 30.161 16.6108 29.8295C17.3305 29.4981 17.8939 29.0388 18.3011 28.4517C18.7083 27.8646 18.9119 27.1875 18.9119 26.4205C18.9119 25.6439 18.6941 24.9574 18.2585 24.3608C17.8324 23.7547 17.2169 23.2812 16.4119 22.9403C15.6165 22.5994 14.6695 22.429 13.571 22.429H10.858V17.9119H13.571C14.4991 17.9119 15.3182 17.7509 16.0284 17.429C16.7481 17.107 17.3068 16.6619 17.7045 16.0938C18.1023 15.5161 18.3011 14.8438 18.3011 14.0767C18.3011 13.3475 18.1259 12.7083 17.7756 12.1591C17.4347 11.6004 16.9517 11.1648 16.3267 10.8523C15.7112 10.5398 14.9915 10.3835 14.1676 10.3835C13.3343 10.3835 12.572 10.535 11.8807 10.8381C11.1894 11.1316 10.6354 11.553 10.2188 12.1023C9.80208 12.6515 9.57955 13.2955 9.55114 14.0341H3.65625C3.68466 12.358 4.16288 10.8807 5.09091 9.60227C6.01894 8.32386 7.26894 7.32481 8.84091 6.60511C10.4223 5.87595 12.2074 5.51136 14.196 5.51136C16.2036 5.51136 17.9602 5.87595 19.4659 6.60511C20.9716 7.33428 22.1411 8.31913 22.9744 9.55966C23.8172 10.7907 24.2339 12.1733 24.2244 13.7074C24.2339 15.3362 23.7273 16.6951 22.7045 17.7841C21.6913 18.8731 20.3703 19.5644 18.7415 19.858V20.0852C20.8816 20.3598 22.5104 21.1032 23.6278 22.3153C24.7547 23.518 25.3134 25.0237 25.304 26.8324C25.3134 28.4896 24.8352 29.9621 23.8693 31.25C22.9129 32.5379 21.5919 33.5511 19.9062 34.2898C18.2206 35.0284 16.2888 35.3977 14.1108 35.3977Z" fill="#009AFF"/>
<mask id="mask0_270_31046" style="mask-type:alpha" maskUnits="userSpaceOnUse" x="3" y="5" width="23" height="31">
<path d="M14.1108 35.3977C11.9896 35.3977 10.1004 35.0331 8.44318 34.304C6.79545 33.5653 5.49337 32.5521 4.53693 31.2642C3.58996 29.9669 3.10227 28.4706 3.07386 26.7756H9.26705C9.30492 27.4858 9.53693 28.1108 9.96307 28.6506C10.3987 29.1809 10.9763 29.5928 11.696 29.8864C12.4157 30.1799 13.2254 30.3267 14.125 30.3267C15.0625 30.3267 15.8911 30.161 16.6108 29.8295C17.3305 29.4981 17.8939 29.0388 18.3011 28.4517C18.7083 27.8646 18.9119 27.1875 18.9119 26.4205C18.9119 25.6439 18.6941 24.9574 18.2585 24.3608C17.8324 23.7547 17.2169 23.2812 16.4119 22.9403C15.6165 22.5994 14.6695 22.429 13.571 22.429H10.858V17.9119H13.571C14.4991 17.9119 15.3182 17.7509 16.0284 17.429C16.7481 17.107 17.3068 16.6619 17.7045 16.0938C18.1023 15.5161 18.3011 14.8438 18.3011 14.0767C18.3011 13.3475 18.1259 12.7083 17.7756 12.1591C17.4347 11.6004 16.9517 11.1648 16.3267 10.8523C15.7112 10.5398 14.9915 10.3835 14.1676 10.3835C13.3343 10.3835 12.572 10.535 11.8807 10.8381C11.1894 11.1316 10.6354 11.553 10.2188 12.1023C9.80208 12.6515 9.57955 13.2955 9.55114 14.0341H3.65625C3.68466 12.358 4.16288 10.8807 5.09091 9.60227C6.01894 8.32386 7.26894 7.32481 8.84091 6.60511C10.4223 5.87595 12.2074 5.51136 14.196 5.51136C16.2036 5.51136 17.9602 5.87595 19.4659 6.60511C20.9716 7.33428 22.1411 8.31913 22.9744 9.55966C23.8172 10.7907 24.2339 12.1733 24.2244 13.7074C24.2339 15.3362 23.7273 16.6951 22.7045 17.7841C21.6913 18.8731 20.3703 19.5644 18.7415 19.858V20.0852C20.8816 20.3598 22.5104 21.1032 23.6278 22.3153C24.7547 23.518 25.3134 25.0237 25.304 26.8324C25.3134 28.4896 24.8352 29.9621 23.8693 31.25C22.9129 32.5379 21.5919 33.5511 19.9062 34.2898C18.2206 35.0284 16.2888 35.3977 14.1108 35.3977Z" fill="#FB4C00"/>
</mask>
<g mask="url(#mask0_270_31046)">
<rect x="-4.37305" y="-3.60547" width="18.873" height="46.2638" fill="#E65907"/>
</g>
</svg>
