<svg width="28" height="40" viewBox="0 0 28 40" fill="none" xmlns="http://www.w3.org/2000/svg">
<path d="M13.983 35.3977C11.9754 35.3977 10.1856 35.0284 8.61364 34.2898C7.05114 33.5511 5.81061 32.5331 4.89205 31.2358C3.97348 29.9384 3.49527 28.4517 3.45739 26.7756H9.4233C9.48958 27.9025 9.96307 28.8163 10.8438 29.517C11.7244 30.2178 12.7708 30.5682 13.983 30.5682C14.9489 30.5682 15.8011 30.3551 16.5398 29.929C17.2879 29.4934 17.8703 28.892 18.2869 28.125C18.7131 27.3485 18.9261 26.4583 18.9261 25.4545C18.9261 24.4318 18.7083 23.5322 18.2727 22.7557C17.8466 21.9792 17.2547 21.3731 16.4972 20.9375C15.7396 20.5019 14.8731 20.2794 13.8977 20.2699C13.0455 20.2699 12.2169 20.4451 11.4119 20.7955C10.6165 21.1458 9.99621 21.6241 9.55114 22.2301L4.08239 21.25L5.46023 5.90909H23.2443V10.9375H10.5312L9.77841 18.2244H9.94886C10.4602 17.5047 11.232 16.9081 12.2642 16.4347C13.2964 15.9612 14.4517 15.7244 15.7301 15.7244C17.482 15.7244 19.0445 16.1364 20.4176 16.9602C21.7907 17.7841 22.875 18.9157 23.6705 20.3551C24.4659 21.785 24.8589 23.4328 24.8494 25.2983C24.8589 27.2585 24.4044 29.0009 23.4858 30.5256C22.5767 32.0407 21.303 33.2339 19.6648 34.1051C18.036 34.9669 16.142 35.3977 13.983 35.3977Z" fill="#009AFF"/>
<mask id="mask0_270_31115" style="mask-type:alpha" maskUnits="userSpaceOnUse" x="3" y="5" width="22" height="31">
<path d="M13.983 35.3977C11.9754 35.3977 10.1856 35.0284 8.61364 34.2898C7.05114 33.5511 5.81061 32.5331 4.89205 31.2358C3.97348 29.9384 3.49527 28.4517 3.45739 26.7756H9.4233C9.48958 27.9025 9.96307 28.8163 10.8438 29.517C11.7244 30.2178 12.7708 30.5682 13.983 30.5682C14.9489 30.5682 15.8011 30.3551 16.5398 29.929C17.2879 29.4934 17.8703 28.892 18.2869 28.125C18.7131 27.3485 18.9261 26.4583 18.9261 25.4545C18.9261 24.4318 18.7083 23.5322 18.2727 22.7557C17.8466 21.9792 17.2547 21.3731 16.4972 20.9375C15.7396 20.5019 14.8731 20.2794 13.8977 20.2699C13.0455 20.2699 12.2169 20.4451 11.4119 20.7955C10.6165 21.1458 9.99621 21.6241 9.55114 22.2301L4.08239 21.25L5.46023 5.90909H23.2443V10.9375H10.5312L9.77841 18.2244H9.94886C10.4602 17.5047 11.232 16.9081 12.2642 16.4347C13.2964 15.9612 14.4517 15.7244 15.7301 15.7244C17.482 15.7244 19.0445 16.1364 20.4176 16.9602C21.7907 17.7841 22.875 18.9157 23.6705 20.3551C24.4659 21.785 24.8589 23.4328 24.8494 25.2983C24.8589 27.2585 24.4044 29.0009 23.4858 30.5256C22.5767 32.0407 21.303 33.2339 19.6648 34.1051C18.036 34.9669 16.142 35.3977 13.983 35.3977Z" fill="#FB4C00"/>
</mask>
<g mask="url(#mask0_270_31115)">
<rect x="2" y="3" width="24" height="8" fill="#E65907"/>
</g>
</svg>
