<svg width="28" height="40" viewBox="0 0 28 40" fill="none" xmlns="http://www.w3.org/2000/svg">
<path d="M14.5227 35.3977C13.0265 35.3883 11.5824 35.1373 10.1903 34.6449C8.80777 34.1525 7.56723 33.3523 6.46875 32.2443C5.37027 31.1364 4.49905 29.6686 3.85511 27.8409C3.22064 26.0133 2.90341 23.7689 2.90341 21.108C2.91288 18.6648 3.19223 16.482 3.74148 14.5597C4.30019 12.6278 5.09564 10.9896 6.12784 9.64489C7.16951 8.30019 8.41477 7.27746 9.86364 6.5767C11.3125 5.86648 12.9366 5.51136 14.7358 5.51136C16.6771 5.51136 18.3911 5.89015 19.8778 6.64773C21.3646 7.39583 22.5578 8.41383 23.4574 9.7017C24.3665 10.9896 24.9157 12.4337 25.1051 14.0341H19.0398C18.803 13.0208 18.3059 12.2254 17.5483 11.6477C16.7907 11.0701 15.8532 10.7812 14.7358 10.7812C12.8419 10.7812 11.4025 11.6051 10.4176 13.2528C9.44223 14.9006 8.94508 17.1402 8.92614 19.9716H9.125C9.56061 19.1098 10.1477 18.3759 10.8864 17.7699C11.6345 17.1544 12.482 16.6856 13.429 16.3636C14.3854 16.0322 15.3939 15.8665 16.4545 15.8665C18.178 15.8665 19.7121 16.2737 21.0568 17.0881C22.4015 17.893 23.4621 19.0009 24.2386 20.4119C25.0152 21.8229 25.4034 23.4375 25.4034 25.2557C25.4034 27.2254 24.9441 28.9773 24.0256 30.5114C23.1165 32.0455 21.8428 33.2481 20.2045 34.1193C18.5758 34.9811 16.6818 35.4072 14.5227 35.3977ZM14.4943 30.5682C15.4413 30.5682 16.2888 30.3409 17.0369 29.8864C17.785 29.4318 18.3722 28.8163 18.7983 28.0398C19.2244 27.2633 19.4375 26.392 19.4375 25.4261C19.4375 24.4602 19.2244 23.5937 18.7983 22.8267C18.3816 22.0597 17.804 21.4489 17.0653 20.9943C16.3267 20.5398 15.4839 20.3125 14.5369 20.3125C13.8267 20.3125 13.1686 20.4451 12.5625 20.7102C11.9659 20.9754 11.4403 21.3447 10.9858 21.8182C10.5407 22.2917 10.1903 22.8409 9.93466 23.4659C9.67898 24.0814 9.55114 24.7396 9.55114 25.4403C9.55114 26.3778 9.7642 27.2348 10.1903 28.0114C10.6259 28.7879 11.2131 29.4081 11.9517 29.8722C12.6998 30.3362 13.5473 30.5682 14.4943 30.5682Z" fill="#009AFF"/>
<mask id="mask0_2624_60316" style="mask-type:alpha" maskUnits="userSpaceOnUse" x="2" y="5" width="24" height="31">
<path d="M14.5227 35.3977C13.0265 35.3883 11.5824 35.1373 10.1903 34.6449C8.80777 34.1525 7.56723 33.3523 6.46875 32.2443C5.37027 31.1364 4.49905 29.6686 3.85511 27.8409C3.22064 26.0133 2.90341 23.7689 2.90341 21.108C2.91288 18.6648 3.19223 16.482 3.74148 14.5597C4.30019 12.6278 5.09564 10.9896 6.12784 9.64489C7.16951 8.30019 8.41477 7.27746 9.86364 6.5767C11.3125 5.86648 12.9366 5.51136 14.7358 5.51136C16.6771 5.51136 18.3911 5.89015 19.8778 6.64773C21.3646 7.39583 22.5578 8.41383 23.4574 9.7017C24.3665 10.9896 24.9157 12.4337 25.1051 14.0341H19.0398C18.803 13.0208 18.3059 12.2254 17.5483 11.6477C16.7907 11.0701 15.8532 10.7812 14.7358 10.7812C12.8419 10.7812 11.4025 11.6051 10.4176 13.2528C9.44223 14.9006 8.94508 17.1402 8.92614 19.9716H9.125C9.56061 19.1098 10.1477 18.3759 10.8864 17.7699C11.6345 17.1544 12.482 16.6856 13.429 16.3636C14.3854 16.0322 15.3939 15.8665 16.4545 15.8665C18.178 15.8665 19.7121 16.2737 21.0568 17.0881C22.4015 17.893 23.4621 19.0009 24.2386 20.4119C25.0152 21.8229 25.4034 23.4375 25.4034 25.2557C25.4034 27.2254 24.9441 28.9773 24.0256 30.5114C23.1165 32.0455 21.8428 33.2481 20.2045 34.1193C18.5758 34.9811 16.6818 35.4072 14.5227 35.3977ZM14.4943 30.5682C15.4413 30.5682 16.2888 30.3409 17.0369 29.8864C17.785 29.4318 18.3722 28.8163 18.7983 28.0398C19.2244 27.2633 19.4375 26.392 19.4375 25.4261C19.4375 24.4602 19.2244 23.5937 18.7983 22.8267C18.3816 22.0597 17.804 21.4489 17.0653 20.9943C16.3267 20.5398 15.4839 20.3125 14.5369 20.3125C13.8267 20.3125 13.1686 20.4451 12.5625 20.7102C11.9659 20.9754 11.4403 21.3447 10.9858 21.8182C10.5407 22.2917 10.1903 22.8409 9.93466 23.4659C9.67898 24.0814 9.55114 24.7396 9.55114 25.4403C9.55114 26.3778 9.7642 27.2348 10.1903 28.0114C10.6259 28.7879 11.2131 29.4081 11.9517 29.8722C12.6998 30.3362 13.5473 30.5682 14.4943 30.5682Z" fill="#FB4C00"/>
</mask>
<g mask="url(#mask0_2624_60316)">
<rect x="2" y="3" width="13" height="32" fill="#E65907"/>
</g>
</svg>
