<svg width="28" height="40" viewBox="0 0 28 40" fill="none" xmlns="http://www.w3.org/2000/svg">
<path d="M14.2102 35.3977C12.0227 35.3977 10.0767 35.0426 8.37216 34.3324C6.67708 33.6127 5.34659 32.6326 4.38068 31.392C3.41477 30.1515 2.93182 28.7453 2.93182 27.1733C2.93182 25.9612 3.20644 24.8485 3.75568 23.8352C4.31439 22.8125 5.07197 21.965 6.02841 21.2926C6.98485 20.6108 8.05492 20.1752 9.23864 19.9858V19.7869C7.68561 19.4744 6.42614 18.7216 5.46023 17.5284C4.49432 16.3258 4.01136 14.929 4.01136 13.3381C4.01136 11.8324 4.4517 10.4924 5.33239 9.31818C6.21307 8.13447 7.42045 7.20644 8.95455 6.53409C10.4981 5.85227 12.25 5.51136 14.2102 5.51136C16.1705 5.51136 17.9176 5.85227 19.4517 6.53409C20.9953 7.21591 22.2074 8.14867 23.0881 9.33239C23.9688 10.5066 24.4138 11.8419 24.4233 13.3381C24.4138 14.9384 23.9214 16.3352 22.946 17.5284C21.9706 18.7216 20.7206 19.4744 19.196 19.7869V19.9858C20.3608 20.1752 21.4167 20.6108 22.3636 21.2926C23.3201 21.965 24.0777 22.8125 24.6364 23.8352C25.2045 24.8485 25.4934 25.9612 25.5028 27.1733C25.4934 28.7453 25.0057 30.1515 24.0398 31.392C23.0739 32.6326 21.7386 33.6127 20.0341 34.3324C18.339 35.0426 16.3977 35.3977 14.2102 35.3977ZM14.2102 30.8807C15.1856 30.8807 16.0379 30.7055 16.767 30.3551C17.4962 29.9953 18.0644 29.5028 18.4716 28.8778C18.8883 28.2434 19.0966 27.5142 19.0966 26.6903C19.0966 25.8475 18.8835 25.1042 18.4574 24.4602C18.0313 23.8068 17.4536 23.2955 16.7244 22.9261C15.9953 22.5473 15.1572 22.358 14.2102 22.358C13.2727 22.358 12.4347 22.5473 11.696 22.9261C10.9574 23.2955 10.375 23.8068 9.94886 24.4602C9.5322 25.1042 9.32386 25.8475 9.32386 26.6903C9.32386 27.5142 9.52746 28.2434 9.93466 28.8778C10.3419 29.5028 10.9148 29.9953 11.6534 30.3551C12.392 30.7055 13.2443 30.8807 14.2102 30.8807ZM14.2102 17.8835C15.0246 17.8835 15.7491 17.7178 16.3835 17.3864C17.018 17.0549 17.5152 16.5956 17.875 16.0085C18.2348 15.4214 18.4148 14.7443 18.4148 13.9773C18.4148 13.2197 18.2348 12.5568 17.875 11.9886C17.5152 11.411 17.0227 10.9612 16.3977 10.6392C15.7727 10.3078 15.0436 10.142 14.2102 10.142C13.3864 10.142 12.6572 10.3078 12.0227 10.6392C11.3883 10.9612 10.8911 11.411 10.5312 11.9886C10.1809 12.5568 10.0057 13.2197 10.0057 13.9773C10.0057 14.7443 10.1856 15.4214 10.5455 16.0085C10.9053 16.5956 11.4025 17.0549 12.0369 17.3864C12.6714 17.7178 13.3958 17.8835 14.2102 17.8835Z" fill="#009AFF"/>
<mask id="mask0_2624_60328" style="mask-type:alpha" maskUnits="userSpaceOnUse" x="2" y="5" width="24" height="31">
<path d="M14.2102 35.3977C12.0227 35.3977 10.0767 35.0426 8.37216 34.3324C6.67708 33.6127 5.34659 32.6326 4.38068 31.392C3.41477 30.1515 2.93182 28.7453 2.93182 27.1733C2.93182 25.9612 3.20644 24.8485 3.75568 23.8352C4.31439 22.8125 5.07197 21.965 6.02841 21.2926C6.98485 20.6108 8.05492 20.1752 9.23864 19.9858V19.7869C7.68561 19.4744 6.42614 18.7216 5.46023 17.5284C4.49432 16.3258 4.01136 14.929 4.01136 13.3381C4.01136 11.8324 4.4517 10.4924 5.33239 9.31818C6.21307 8.13447 7.42045 7.20644 8.95455 6.53409C10.4981 5.85227 12.25 5.51136 14.2102 5.51136C16.1705 5.51136 17.9176 5.85227 19.4517 6.53409C20.9953 7.21591 22.2074 8.14867 23.0881 9.33239C23.9688 10.5066 24.4138 11.8419 24.4233 13.3381C24.4138 14.9384 23.9214 16.3352 22.946 17.5284C21.9706 18.7216 20.7206 19.4744 19.196 19.7869V19.9858C20.3608 20.1752 21.4167 20.6108 22.3636 21.2926C23.3201 21.965 24.0777 22.8125 24.6364 23.8352C25.2045 24.8485 25.4934 25.9612 25.5028 27.1733C25.4934 28.7453 25.0057 30.1515 24.0398 31.392C23.0739 32.6326 21.7386 33.6127 20.0341 34.3324C18.339 35.0426 16.3977 35.3977 14.2102 35.3977ZM14.2102 30.8807C15.1856 30.8807 16.0379 30.7055 16.767 30.3551C17.4962 29.9953 18.0644 29.5028 18.4716 28.8778C18.8883 28.2434 19.0966 27.5142 19.0966 26.6903C19.0966 25.8475 18.8835 25.1042 18.4574 24.4602C18.0313 23.8068 17.4536 23.2955 16.7244 22.9261C15.9953 22.5473 15.1572 22.358 14.2102 22.358C13.2727 22.358 12.4347 22.5473 11.696 22.9261C10.9574 23.2955 10.375 23.8068 9.94886 24.4602C9.5322 25.1042 9.32386 25.8475 9.32386 26.6903C9.32386 27.5142 9.52746 28.2434 9.93466 28.8778C10.3419 29.5028 10.9148 29.9953 11.6534 30.3551C12.392 30.7055 13.2443 30.8807 14.2102 30.8807ZM14.2102 17.8835C15.0246 17.8835 15.7491 17.7178 16.3835 17.3864C17.018 17.0549 17.5152 16.5956 17.875 16.0085C18.2348 15.4214 18.4148 14.7443 18.4148 13.9773C18.4148 13.2197 18.2348 12.5568 17.875 11.9886C17.5152 11.411 17.0227 10.9612 16.3977 10.6392C15.7727 10.3078 15.0436 10.142 14.2102 10.142C13.3864 10.142 12.6572 10.3078 12.0227 10.6392C11.3883 10.9612 10.8911 11.411 10.5312 11.9886C10.1809 12.5568 10.0057 13.2197 10.0057 13.9773C10.0057 14.7443 10.1856 15.4214 10.5455 16.0085C10.9053 16.5956 11.4025 17.0549 12.0369 17.3864C12.6714 17.7178 13.3958 17.8835 14.2102 17.8835Z" fill="#FB4C00"/>
</mask>
<g mask="url(#mask0_2624_60328)">
<rect x="2" y="3" width="12" height="32" fill="#E65907"/>
</g>
</svg>
