<svg width="28" height="40" viewBox="0 0 28 40" fill="none" xmlns="http://www.w3.org/2000/svg">
<path d="M13.8835 5.51136C15.3797 5.51136 16.8191 5.76231 18.2017 6.2642C19.5938 6.7661 20.8343 7.56629 21.9233 8.66477C23.0218 9.76326 23.8883 11.2216 24.5227 13.0398C25.1667 14.8485 25.4934 17.0691 25.5028 19.7017C25.5028 22.1733 25.2235 24.3797 24.6648 26.321C24.1155 28.2528 23.3248 29.8958 22.2926 31.25C21.2604 32.6042 20.0152 33.6364 18.5568 34.3466C17.0985 35.0473 15.4697 35.3977 13.6705 35.3977C11.7292 35.3977 10.0152 35.0237 8.52841 34.2756C7.04167 33.518 5.84375 32.4905 4.93466 31.1932C4.03504 29.8864 3.49053 28.4186 3.30114 26.7898H9.36648C9.60322 27.8504 10.1004 28.6742 10.858 29.2614C11.6155 29.839 12.553 30.1278 13.6705 30.1278C15.5644 30.1278 17.0038 29.304 17.9886 27.6562C18.9735 25.9991 19.4706 23.7311 19.4801 20.8523H19.2812C18.8456 21.7045 18.2585 22.4384 17.5199 23.054C16.7813 23.66 15.9337 24.1288 14.9773 24.4602C14.0303 24.7917 13.0218 24.9574 11.9517 24.9574C10.2377 24.9574 8.70833 24.5549 7.36364 23.75C6.01894 22.9451 4.95833 21.8371 4.18182 20.4261C3.4053 19.0152 3.01705 17.4053 3.01705 15.5966C3.00758 13.6458 3.45739 11.9081 4.36648 10.3835C5.27557 8.8589 6.54451 7.66572 8.1733 6.80398C9.81155 5.93276 11.715 5.50189 13.8835 5.51136ZM13.9261 10.3409C12.9697 10.3409 12.1174 10.5682 11.3693 11.0227C10.6307 11.4773 10.0436 12.0881 9.60795 12.8551C9.18182 13.6222 8.97348 14.4792 8.98295 15.4261C8.98295 16.3826 9.19129 17.2443 9.60795 18.0114C10.0341 18.7689 10.6117 19.375 11.3409 19.8295C12.0795 20.2746 12.9223 20.4972 13.8693 20.4972C14.5795 20.4972 15.2377 20.3646 15.8438 20.0994C16.4498 19.8343 16.9754 19.4697 17.4205 19.0057C17.875 18.5322 18.2301 17.9877 18.4858 17.3722C18.7415 16.7566 18.8693 16.1032 18.8693 15.4119C18.8598 14.4934 18.642 13.6506 18.2159 12.8835C17.7898 12.1165 17.2027 11.5009 16.4545 11.0369C15.7064 10.5729 14.8636 10.3409 13.9261 10.3409Z" fill="#009AFF"/>
<mask id="mask0_2624_60334" style="mask-type:alpha" maskUnits="userSpaceOnUse" x="3" y="5" width="23" height="31">
<path d="M13.8835 5.51136C15.3797 5.51136 16.8191 5.76231 18.2017 6.2642C19.5938 6.7661 20.8343 7.56629 21.9233 8.66477C23.0218 9.76326 23.8883 11.2216 24.5227 13.0398C25.1667 14.8485 25.4934 17.0691 25.5028 19.7017C25.5028 22.1733 25.2235 24.3797 24.6648 26.321C24.1155 28.2528 23.3248 29.8958 22.2926 31.25C21.2604 32.6042 20.0152 33.6364 18.5568 34.3466C17.0985 35.0473 15.4697 35.3977 13.6705 35.3977C11.7292 35.3977 10.0152 35.0237 8.52841 34.2756C7.04167 33.518 5.84375 32.4905 4.93466 31.1932C4.03504 29.8864 3.49053 28.4186 3.30114 26.7898H9.36648C9.60322 27.8504 10.1004 28.6742 10.858 29.2614C11.6155 29.839 12.553 30.1278 13.6705 30.1278C15.5644 30.1278 17.0038 29.304 17.9886 27.6562C18.9735 25.9991 19.4706 23.7311 19.4801 20.8523H19.2812C18.8456 21.7045 18.2585 22.4384 17.5199 23.054C16.7813 23.66 15.9337 24.1288 14.9773 24.4602C14.0303 24.7917 13.0218 24.9574 11.9517 24.9574C10.2377 24.9574 8.70833 24.5549 7.36364 23.75C6.01894 22.9451 4.95833 21.8371 4.18182 20.4261C3.4053 19.0152 3.01705 17.4053 3.01705 15.5966C3.00758 13.6458 3.45739 11.9081 4.36648 10.3835C5.27557 8.8589 6.54451 7.66572 8.1733 6.80398C9.81155 5.93276 11.715 5.50189 13.8835 5.51136ZM13.9261 10.3409C12.9697 10.3409 12.1174 10.5682 11.3693 11.0227C10.6307 11.4773 10.0436 12.0881 9.60795 12.8551C9.18182 13.6222 8.97348 14.4792 8.98295 15.4261C8.98295 16.3826 9.19129 17.2443 9.60795 18.0114C10.0341 18.7689 10.6117 19.375 11.3409 19.8295C12.0795 20.2746 12.9223 20.4972 13.8693 20.4972C14.5795 20.4972 15.2377 20.3646 15.8438 20.0994C16.4498 19.8343 16.9754 19.4697 17.4205 19.0057C17.875 18.5322 18.2301 17.9877 18.4858 17.3722C18.7415 16.7566 18.8693 16.1032 18.8693 15.4119C18.8598 14.4934 18.642 13.6506 18.2159 12.8835C17.7898 12.1165 17.2027 11.5009 16.4545 11.0369C15.7064 10.5729 14.8636 10.3409 13.9261 10.3409Z" fill="#FB4C00"/>
</mask>
<g mask="url(#mask0_2624_60334)">
<rect x="3" y="3" width="11" height="35" fill="#E65907"/>
</g>
</svg>
