<svg class="books" width="75" height="90" viewBox="0 0 75 90" fill="none" xmlns="http://www.w3.org/2000/svg">
                    <path d="M1.41053 54.0333L31.6839 2.4355C31.7404 2.32477 31.8385 2.241 31.9567 2.20261C32.0749 2.16422 32.2035 2.17435 32.3143 2.23077C32.4168 2.30085 32.4881 2.40795 32.5132 2.52954C32.5383 2.65112 32.5153 2.77772 32.449 2.88268L32.1419 3.42145C33.3132 4.91682 34.7176 6.21388 36.3012 7.26286H36.3335C38.4074 8.59959 40.7414 9.48104 43.1812 9.84895L43.4776 9.3479C43.5054 9.29302 43.544 9.24426 43.5909 9.20444C43.6378 9.16463 43.6922 9.13457 43.7509 9.11601C43.8096 9.09745 43.8714 9.09077 43.9327 9.09636C43.994 9.10194 44.0536 9.11969 44.1079 9.14855C44.1643 9.18417 44.2117 9.23239 44.2463 9.28942C44.2808 9.34645 44.3017 9.41073 44.3073 9.4772L44.4366 9.34251L42.8903 16.0933L39.5068 22.5154C39.5445 22.5223 39.5809 22.535 39.6146 22.5531C39.6663 22.5864 39.7108 22.6296 39.7456 22.6803C39.7804 22.7309 39.8048 22.788 39.8173 22.8482C39.8299 22.9083 39.8303 22.9704 39.8186 23.0307C39.8069 23.0911 39.7834 23.1485 39.7493 23.1996L39.4368 23.7384C40.7089 25.4839 42.4501 26.8328 44.4581 27.6283H44.5282C44.8891 27.763 45.2555 27.8869 45.638 27.9893C46.1987 28.1422 46.7694 28.2556 47.3459 28.3287L47.653 27.7899C47.7095 27.6792 47.8076 27.5954 47.9258 27.557C48.044 27.5187 48.1726 27.5288 48.2834 27.5852C48.387 27.6544 48.4592 27.7616 48.4844 27.8835C48.5096 28.0055 48.4857 28.1325 48.4181 28.2371V28.2371L47.8254 35.4081L54.49 24.0994C54.5473 23.9923 54.6443 23.912 54.7601 23.8757C54.876 23.8395 55.0015 23.8501 55.1096 23.9054C55.1603 23.9382 55.2041 23.9806 55.2384 24.0304C55.2726 24.0801 55.2967 24.1362 55.3092 24.1953C55.3217 24.2543 55.3224 24.3153 55.3113 24.3747C55.3001 24.4341 55.2774 24.4906 55.2443 24.5412L54.9426 25.0799C56.5744 27.1786 58.6788 28.8622 61.0845 29.9935H61.1222C62.5959 30.6652 64.155 31.1312 65.7556 31.3781L66.0412 30.8878C66.069 30.8343 66.1071 30.7868 66.1534 30.7481C66.1996 30.7093 66.2531 30.6801 66.3107 30.6621C66.3682 30.6441 66.4288 30.6376 66.4889 30.6431C66.549 30.6485 66.6074 30.6658 66.6608 30.6939C66.7413 30.7451 66.8028 30.8213 66.8359 30.9108C66.869 31.0004 66.8718 31.0983 66.8439 31.1896L73.196 45.6932L49.2208 86.7635C48.6917 87.6209 47.9368 88.3161 47.0388 88.7731C46.954 88.8108 46.8622 88.8303 46.7694 88.8303C46.6766 88.8303 46.5848 88.8108 46.5 88.7731C46.3548 88.7231 46.2005 88.7047 46.0475 88.7192C45.9029 88.7626 45.765 88.8261 45.638 88.9078C45.4436 89.0718 45.2021 89.1699 44.9484 89.188C44.2857 89.1287 38.2515 85.7129 36.0641 84.5168C34.2485 83.5201 26.5333 75.3578 26.5495 74.8567C26.5495 74.4742 26.2639 73.5475 26.3393 73.1704C26.4284 72.7119 26.5545 72.2615 26.7165 71.8235C26.748 71.6403 26.7949 71.46 26.8566 71.2847L24.6207 75.0938C24.1398 75.9222 23.4259 76.5911 22.568 77.0172C22.415 77.0737 22.2468 77.0737 22.0939 77.0172C21.9232 76.9482 21.7377 76.9241 21.5551 76.9471C21.4196 76.9851 21.2907 77.0432 21.1726 77.1195C20.9601 77.2916 20.7013 77.3966 20.4291 77.4213C19.1899 77.3135 15.1006 75.1854 14.1201 74.2425C13.6621 73.8115 13.1072 73.526 12.9348 72.9603C12.7505 72.2553 12.6403 71.533 12.6061 70.8052C12.6061 70.4173 12.1967 69.8947 12.2721 69.5175C12.4604 68.7208 12.7275 67.9447 13.0695 67.2008V67.1685V67.1416C13.1234 67.0123 13.1772 66.8991 13.2311 66.786C13.285 66.6728 13.2958 66.6297 13.3281 66.5489C13.0372 66.2903 12.7893 66.1341 12.5469 66.2418C12.3698 66.2976 12.1787 66.288 12.0081 66.2149C11.8698 66.1669 11.7226 66.1504 11.5771 66.1664C11.4052 66.2156 11.243 66.294 11.0976 66.3981C10.9133 66.5462 10.6872 66.6329 10.4511 66.6459C8.50797 66.2126 6.64219 65.4859 4.91792 64.4908C3.66415 63.7946 2.48524 62.9713 1.39976 62.034C0.933573 61.5884 0.587094 61.0325 0.392266 60.4177C0.342552 60.1073 0.368417 59.7894 0.467685 59.4911C0.548212 59.2182 0.604123 58.9388 0.634718 58.656C0.570567 58.2724 0.471367 57.8954 0.338386 57.5299V57.5299C0.33089 57.4529 0.33089 57.3753 0.338386 57.2983C0.413994 56.3539 0.687505 55.4361 1.14115 54.6044V54.5721L1.16809 54.5236C1.21658 54.3027 1.3351 54.1465 1.41053 54.0333Z" fill="#003A66"/>
                    <path d="M15.0252 65.0464C14.7784 65.4885 14.5554 65.9436 14.3571 66.4095C14.0132 67.193 13.7479 68.0088 13.5652 68.8447C13.4843 69.2326 13.91 69.7552 13.8884 70.1539C13.9154 70.8807 14.0165 71.6028 14.1901 72.309C14.3571 72.8855 14.9121 73.1656 15.3646 73.6021C16.3398 74.5503 20.4183 76.6569 21.6628 76.7592C21.9359 76.7262 22.1938 76.616 22.4063 76.4414C22.5279 76.3617 22.6604 76.3 22.7996 76.2582C22.973 76.2392 23.1483 76.2614 23.3115 76.3228C23.4653 76.3848 23.6371 76.3848 23.791 76.3228C24.6609 75.8788 25.3833 75.1919 25.8706 74.3455L49.5764 33.9379L50.266 26.5029L15.0252 65.0464Z" fill="#009AFF"/>
                    <path d="M22.3202 71.9316L22.4064 76.4304C22.528 76.3507 22.6604 76.289 22.7997 76.2472C22.973 76.2282 23.1484 76.2504 23.3115 76.3118L23.1768 72.0394L22.3202 71.9316Z" fill="#7ACAFF"/>
                    <path d="M14.3571 66.3828C14.0132 67.1664 13.7479 67.9821 13.5652 68.818C13.4843 69.206 13.91 69.7286 13.8884 70.1273C13.8668 70.5259 14.3356 66.4098 14.3356 66.4098L14.3571 66.3828Z" fill="#D9844C"/>
                    <path d="M14.6481 67.0667C15.3166 68.6268 16.467 69.932 17.931 70.791C19.3949 71.6499 21.0954 72.0176 22.7835 71.8402C29.7875 60.7038 43.0034 38.1779 49.3501 26.5567C47.7271 26.4059 46.1571 25.9002 44.7512 25.0753C43.3454 24.2504 42.138 23.1265 41.2147 21.7832C34.1676 32.9896 20.9463 55.5209 14.6481 67.0667Z" fill="#FFFBEB"/>
                    <path d="M17.6975 71.2362C18.8252 71.899 20.0508 72.3791 21.3288 72.6586C22.3578 72.8849 23.6077 71.9259 24.2273 70.8753L50.2875 26.4592C50.3269 26.4089 50.3551 26.3509 50.3701 26.2888C50.3851 26.2268 50.3867 26.1623 50.3748 26.0996C50.3628 26.0369 50.3375 25.9775 50.3007 25.9253C50.2638 25.8732 50.2163 25.8296 50.1612 25.7974C50.1061 25.7652 50.0447 25.7451 49.9812 25.7386C49.9177 25.7321 49.8536 25.7392 49.7931 25.7596C49.7326 25.7799 49.6771 25.8129 49.6304 25.8565C49.5838 25.9 49.547 25.9531 49.5225 26.012L23.4623 70.4335C23.0097 71.2093 22.1261 71.8127 21.6089 71.705C19.201 71.175 17.0227 69.8962 15.3861 68.0521C15.0359 67.6588 15.1329 66.592 15.5909 65.8108L41.6511 21.4055C41.6905 21.3553 41.7186 21.2972 41.7336 21.2352C41.7487 21.1731 41.7503 21.1086 41.7383 21.0459C41.7263 20.9832 41.7011 20.9238 41.6642 20.8717C41.6274 20.8196 41.5798 20.7759 41.5247 20.7437C41.4696 20.7115 41.4083 20.6915 41.3448 20.685C41.2813 20.6784 41.2171 20.6856 41.1566 20.7059C41.0961 20.7262 41.0407 20.7593 40.994 20.8028C40.9473 20.8464 40.9105 20.8994 40.8861 20.9584L14.8258 65.369C14.2116 66.4466 13.9853 67.9821 14.6857 68.7687C15.5534 69.7448 16.5698 70.5775 17.6975 71.2362V71.2362Z" fill="#7ACAFF"/>
                    <path d="M46.2469 25.8018L30.3694 53.1496L46.5217 25.9095L46.2469 25.8018Z" fill="#E8DECA"/>
                    <path d="M47.2167 26.1357L44.1241 31.6904L47.5022 26.2166L47.2167 26.1357Z" fill="#E8DECA"/>
                    <path d="M29.5558 49.459L29.1356 50.1109C28.877 50.5311 28.4945 51.1238 28.0581 51.8511C27.6217 52.5784 27.0991 53.4135 26.5549 54.3241L24.8632 57.1741L23.1984 60.0458C22.6596 60.9617 22.1909 61.8291 21.776 62.5618C21.3612 63.2945 21.0218 63.9249 20.7847 64.3559C20.5476 64.7869 20.4183 65.0402 20.4183 65.0402L20.8332 64.3829C21.0918 63.968 21.4743 63.37 21.9107 62.648C22.3471 61.9261 22.8751 61.0856 23.4139 60.1751L25.111 57.325L26.7704 54.4534C27.3092 53.5375 27.7779 52.67 28.1981 51.9319C28.6184 51.1938 28.947 50.5742 29.1841 50.1432L29.5558 49.459Z" fill="#E8DECA"/>
                    <path d="M42.567 23.3945L34.9542 36.6644L42.7879 23.5993L42.567 23.3945Z" fill="#E8DECA"/>
                    <path d="M18.0854 73.6666C19.6425 74.5826 20.7092 74.5825 21.1456 74.5233C21.2803 74.5233 21.3288 73.9253 21.1456 73.936C20.483 73.9791 17.773 73.1494 15.1545 70.6064L15.3 71.6085C16.1483 72.3969 17.0827 73.0873 18.0854 73.6666V73.6666Z" fill="white"/>
                    <path d="M1.64756 56.5171C1.63717 56.5958 1.63717 56.6755 1.64756 56.7541C1.77936 57.1248 1.87499 57.5073 1.93311 57.8963C1.90063 58.1846 1.84296 58.4694 1.76072 58.7476C1.6571 59.0504 1.62572 59.3733 1.66912 59.6904C1.85847 60.304 2.19942 60.8598 2.66045 61.3067C3.73703 62.2464 4.91104 63.0682 6.16245 63.7581C7.88379 64.7493 9.74859 65.4672 11.6902 65.8863C11.9288 65.8685 12.1562 65.7782 12.3421 65.6277C12.4874 65.5189 12.6519 65.4384 12.827 65.3906C12.9698 65.3679 13.116 65.3809 13.2526 65.4283C13.4343 65.5006 13.6367 65.5006 13.8184 65.4283C14.6859 64.981 15.4075 64.2949 15.898 63.451L44.8676 14.0837L46.4839 7.19824L2.94062 52.902C2.20499 53.9753 1.75953 55.2207 1.64756 56.5171V56.5171Z" fill="#4DD6CB"/>
                    <path d="M13.0695 61.7598L12.3799 65.6497C12.5252 65.5409 12.6897 65.4605 12.8648 65.4126C13.0076 65.39 13.1538 65.4029 13.2904 65.4503L13.9369 61.8298L13.0695 61.7598Z" fill="#4798A8"/>
                    <path d="M2.38037 54.626L1.66919 56.781C1.80098 57.1517 1.89661 57.5342 1.95474 57.9232C1.92226 58.2115 1.86457 58.4963 1.78233 58.7745L3.21008 54.8738L2.38037 54.626Z" fill="#4798A8"/>
                    <path d="M2.39111 55.4994C3.4704 57.4861 5.07132 59.1405 7.02138 60.2845C8.97144 61.4286 11.1967 62.0188 13.4574 61.9916C20.6123 50.8984 39.0705 19.4289 45.2447 7.78075C43.0619 7.48429 40.9596 6.75727 39.0599 5.64189C37.1602 4.5265 35.501 3.04495 34.1784 1.2832C27.0452 12.3764 8.58695 43.8405 2.39111 55.4994Z" fill="#FFFBEB"/>
                    <path d="M6.79291 60.7357C8.30467 61.6255 9.93819 62.2898 11.6418 62.7076C12.8002 62.9932 14.3087 62.2497 15.0091 61.059L46.3116 7.72095C46.3536 7.67122 46.3843 7.61291 46.4014 7.55009C46.4186 7.48728 46.4218 7.42147 46.4109 7.35728C46.4 7.29309 46.3751 7.23205 46.3382 7.17844C46.3012 7.12483 46.253 7.07994 46.1969 7.04691C46.1408 7.01388 46.0781 6.9935 46.0133 6.9872C45.9485 6.9809 45.8831 6.98883 45.8217 7.01043C45.7602 7.03204 45.7043 7.0668 45.6577 7.11229C45.6111 7.15777 45.575 7.21288 45.5519 7.27377L14.2495 60.6118C14.0144 61.0026 13.6723 61.3179 13.2636 61.5203C12.8549 61.7227 12.3968 61.8038 11.9435 61.754C8.65906 60.9487 5.6804 59.2038 3.37173 56.7327C3.10567 56.362 2.95199 55.9225 2.92906 55.4668C2.90613 55.011 3.01492 54.5583 3.24243 54.1628L34.5448 0.82472C34.5869 0.774989 34.6176 0.716676 34.6347 0.65386C34.6519 0.591044 34.6551 0.52524 34.6442 0.461046C34.6333 0.396852 34.6084 0.335818 34.5715 0.282209C34.5345 0.2286 34.4863 0.183711 34.4302 0.150678C34.3741 0.117645 34.3114 0.0972657 34.2466 0.0909652C34.1818 0.0846647 34.1164 0.0925958 34.055 0.114202C33.9935 0.135808 33.9376 0.170567 33.891 0.216053C33.8444 0.261539 33.8083 0.316653 33.7852 0.377541L2.48276 53.7156C1.78236 54.9063 1.87395 56.5872 2.6821 57.46C3.88685 58.7449 5.27152 59.8483 6.79291 60.7357V60.7357Z" fill="#94D3D1"/>
                    <path d="M35.5954 2.89844L10.9683 45.1648L35.8109 3.11395L35.5954 2.89844Z" fill="#E8DECA"/>
                    <path d="M38.2084 5.0918L34.3669 11.9234L38.4508 5.25342L38.2084 5.0918Z" fill="#E8DECA"/>
                    <path d="M43.7147 7.47949L33.7798 24.6931L44.0164 7.54953L43.7147 7.47949Z" fill="#E8DECA"/>
                    <path d="M37.4487 4.54199L32.6591 12.9953L37.6912 4.72518L37.4487 4.54199Z" fill="#E8DECA"/>
                    <path d="M37.244 12.2842L36.8238 12.9415C36.5652 13.3617 36.1826 13.9544 35.7462 14.6763C35.3098 15.3983 31.2852 22.2191 30.7465 23.1188C30.2077 24.0186 21.3396 39.1202 20.7631 40.09L19.0983 42.9563C18.5595 43.8722 18.0908 44.7342 17.6706 45.4723C17.2503 46.2104 16.9217 46.8354 16.6792 47.2664L16.3129 47.9506L16.7331 47.2933C16.9917 46.8731 17.3742 46.2805 17.8106 45.5585C18.247 44.8366 18.7697 43.9961 19.3138 43.0856L21.0055 40.2301C21.5713 39.2549 30.4232 24.1586 30.9512 23.2427C31.4792 22.3268 35.4607 15.4952 35.8809 14.7571C36.3012 14.019 36.6298 13.394 36.8669 12.963L37.244 12.2842Z" fill="#E8DECA"/>
                    <path d="M16.7062 43.8457L16.4098 44.2929C16.2267 44.5838 15.9519 44.9933 15.6394 45.4943C15.3269 45.9954 14.9605 46.5719 14.5619 47.2076C14.1632 47.8434 13.7807 48.5114 13.3766 49.1849C12.9725 49.8584 12.59 50.5426 12.229 51.1837C11.868 51.8249 11.534 52.4283 11.2484 52.9455C10.9629 53.4627 10.7097 53.8991 10.575 54.2008L10.3271 54.6803L10.6235 54.2278C10.8066 53.9368 11.0814 53.5274 11.3939 53.0263C11.7064 52.5253 12.0728 51.9488 12.4715 51.3184C12.8701 50.6881 13.2527 50.0092 13.6567 49.3358C14.0608 48.6623 14.4433 47.9781 14.8043 47.3369C15.1653 46.6958 15.4993 46.0924 15.7849 45.5805C16.0704 45.0687 16.2913 44.6269 16.4583 44.3252L16.7062 43.8457Z" fill="#E8DECA"/>
                    <path d="M6.96527 62.8109C8.921 63.9584 10.1979 64.077 10.7043 64.0662C10.8606 64.0662 10.8498 63.452 10.6397 63.4412C9.85845 63.4143 6.53964 62.229 3.14001 59.2227L3.42017 60.3002C4.52581 61.2396 5.71211 62.0797 6.96527 62.8109V62.8109Z" fill="#EBC56C"/>
                    <path d="M27.6162 72.3307C27.5354 72.7132 27.8317 73.6561 27.8101 74.044C27.8101 74.5504 35.4337 82.7613 37.244 83.7418C39.399 84.9325 45.4332 88.3321 46.1013 88.386C46.3567 88.3602 46.5987 88.2589 46.7963 88.0951C46.9238 88.0082 47.0637 87.941 47.2112 87.8957C47.3642 87.8762 47.5196 87.8947 47.6637 87.9496C47.7489 87.9858 47.8406 88.0044 47.9331 88.0044C48.0257 88.0044 48.1173 87.9858 48.2025 87.9496C49.113 87.4713 49.8779 86.7567 50.4169 85.8807L74.9685 43.8568L68.7457 29.1484L28.8769 69.3998C28.2368 70.2668 27.8053 71.2698 27.6162 72.3307Z" fill="#0070BA"/>
                    <path d="M38.634 78.6068L46.7964 88.1052C46.9239 88.0183 47.0637 87.9511 47.2112 87.9059C47.3642 87.8864 47.5197 87.9049 47.6638 87.9598L39.4691 78.1865L38.634 78.6068Z" fill="#366384"/>
                    <path d="M28.2897 71.6517C29.3454 73.5988 30.9133 75.2203 32.8239 76.3408C34.7344 77.4613 36.915 78.0382 39.1297 78.0091C46.1337 67.1476 61.5909 40.8018 67.6575 29.3853C65.5198 29.0937 63.4611 28.3812 61.6005 27.289C59.7399 26.1969 58.1142 24.7467 56.8175 23.0225C49.8135 33.8894 34.3562 60.2352 28.2897 71.6517Z" fill="#FFFBEB"/>
                    <path d="M39.4692 84.9802L31.4792 75.5518L35.7894 77.4482L44.5282 87.6848C43.1651 87.0167 41.1555 85.9123 39.4692 84.9802Z" fill="#57829E"/>
                    <path d="M32.6052 76.7813C34.0868 77.6535 35.6876 78.305 37.3571 78.7155C38.4885 78.9903 39.9701 78.2683 40.6544 77.0992L68.6703 29.3213C68.7055 29.272 68.73 29.216 68.7424 29.1568C68.7547 29.0975 68.7547 29.0364 68.7421 28.9772C68.7296 28.918 68.7048 28.862 68.6695 28.8129C68.6342 28.7637 68.589 28.7225 68.5369 28.6918C68.4848 28.661 68.4269 28.6414 68.3668 28.6343C68.3067 28.6271 68.2458 28.6326 68.1879 28.6502C68.13 28.6679 68.0764 28.6974 68.0306 28.7368C67.9847 28.7763 67.9475 28.8249 67.9214 28.8795L39.9055 76.6574C39.6775 77.0422 39.343 77.3527 38.9425 77.5516C38.5419 77.7504 38.0923 77.8291 37.648 77.7781C34.4342 76.9899 31.5205 75.2803 29.2648 72.8591C29.0049 72.4958 28.855 72.0654 28.833 71.6193C28.8111 71.1732 28.9179 70.7301 29.1409 70.3431L57.1568 22.5651C57.1939 22.5159 57.2201 22.4593 57.2338 22.3992C57.2474 22.3391 57.2482 22.2768 57.236 22.2164C57.2238 22.156 57.199 22.0988 57.1631 22.0487C57.1272 21.9986 57.0812 21.9566 57.0279 21.9256C56.9747 21.8945 56.9154 21.8751 56.8542 21.8686C56.7929 21.8621 56.7309 21.8687 56.6723 21.8879C56.6137 21.9071 56.5599 21.9385 56.5143 21.98C56.4688 22.0215 56.4325 22.0722 56.408 22.1287L28.392 69.9067C27.7024 71.0758 27.794 72.719 28.586 73.5757C29.7633 74.8333 31.1172 75.9132 32.6052 76.7813V76.7813Z" fill="#8DB4CF"/>
                    <path d="M62.9271 27.9893L45.0292 58.7691L63.1857 28.1024L62.9271 27.9893Z" fill="#E8DECA"/>
                    <path d="M64.8666 28.7393L59.8184 37.6128L65.1306 28.8255L64.8666 28.7393Z" fill="#E8DECA"/>
                    <path d="M57.5501 23.9062L46.5377 42.9517L57.7441 24.1271L57.5501 23.9062Z" fill="#E8DECA"/>
                    <path d="M54.6192 34.5635L54.2098 35.2046C53.9566 35.6141 50.0774 42.1655 49.6464 42.8713C49.2154 43.5771 43.2836 53.6466 42.7556 54.5302L41.0854 57.3264L39.4691 60.1334C38.9303 61.0332 38.4831 61.879 38.0737 62.601C37.6642 63.3229 37.3356 63.9371 37.1039 64.3574L36.7429 65.0308L37.1524 64.3843C37.4056 63.9748 37.7827 63.393 38.2299 62.6872C38.6771 61.9814 39.1728 61.1571 39.7008 60.2627L41.3602 57.4719L42.9765 54.6595C43.5152 53.7598 49.3824 43.6741 49.7919 42.9521C50.2014 42.2302 54.0266 35.6572 54.2637 35.2316C54.5007 34.8059 54.6192 34.5635 54.6192 34.5635Z" fill="#E8DECA"/>
                    <path d="M35.3852 80.3095C37.4757 81.4301 38.6178 81.4517 39.0866 81.387C39.2213 81.387 39.0219 80.6812 38.8334 80.692C38.133 80.7243 34.5825 79.7923 30.6333 76.6943L31.5708 77.7126C32.7755 78.6724 34.0506 79.5405 35.3852 80.3095V80.3095Z" fill="#EBC56C"/>
                    <path d="M36.743 81.9692C38.6287 82.9821 39.7547 83.1007 40.2935 83.0468C40.5252 83.0468 40.3312 82.341 40.0403 82.341C39.2159 82.341 36.0911 81.6999 32.3951 78.7959L33.3541 79.8734C34.4136 80.6796 35.5485 81.3815 36.743 81.9692V81.9692Z" fill="#EBC56C"/>
                </svg>