<svg class="computer" width="194" height="93" viewBox="0 0 194 93" fill="none" xmlns="http://www.w3.org/2000/svg">
                    <path class="orangepath" d="M183.24 36.1519L183.203 36.1196L183.079 36.055C182.907 35.9876 182.725 35.9511 182.54 35.9472L182.982 35.8287L182.928 35.7964L182.777 35.7048L180.967 34.5626C180.582 34.3604 180.136 34.3122 179.717 34.4279L99.3058 55.8332L24.8103 82.7015C24.3793 82.8201 24.1207 83.0787 24.1799 83.3373L24.5247 84.8674V84.9913V85.0398L24.9773 84.9213C24.8751 84.9927 24.8008 85.0975 24.7672 85.2176V85.3199V85.3523C24.8162 85.4417 24.8941 85.512 24.9881 85.5516L36.119 92.8573C36.6037 93.0168 37.1267 93.0168 37.6114 92.8573L82.3831 84.1239L83.7569 88.8165C84.0909 89.4792 85.6803 89.7163 87.1619 89.323L134.401 79.9915C135.894 79.5928 136.605 78.7362 135.926 78.1597L133.975 68.6612L183.068 57.805C183.607 57.6542 184 57.3848 184 57.1316L183.381 36.3782C183.379 36.3316 183.365 36.2862 183.34 36.2466C183.316 36.2069 183.281 36.1743 183.24 36.1519Z" fill="#DA6B00"/>
                    <path d="M134.94 78.3656L88.8591 87.8641C88.4642 87.9463 88.0563 87.944 87.6624 87.8574C87.2684 87.7709 86.8972 87.602 86.5731 87.3618C86.249 87.1217 85.9794 86.8157 85.7819 86.464C85.5844 86.1123 85.4635 85.7228 85.4271 85.3211L83.73 67.1L131.239 57.3105L137.079 74.6481C137.208 75.0324 137.255 75.4399 137.215 75.8435C137.175 76.2471 137.05 76.6377 136.848 76.9892C136.645 77.3408 136.371 77.6453 136.042 77.8826C135.713 78.1199 135.337 78.2845 134.94 78.3656V78.3656Z" fill="#E8E8F0"/>
                    <path d="M192.739 4.48419L192.588 4.23096L191.015 0.815174C190.926 0.556223 190.752 0.335176 190.521 0.188322C190.29 0.0414688 190.016 -0.0224634 189.743 0.00702147L98.8963 18.7077L8.03305 37.4353C7.77242 37.5159 7.54661 37.6821 7.39213 37.9069C7.23766 38.1318 7.16355 38.4022 7.1818 38.6744L7.09021 42.4458V42.7529V42.866L99.92 23.7236L192.782 4.58655L192.739 4.48419Z" fill="#E1E1E8"/>
                    <path d="M85.0122 79.8364L135.172 69.4975L131.212 57.3105L83.7084 67.1L85.0122 79.8364Z" fill="#CBCBD1"/>
                    <path d="M192.944 5.43835C192.937 5.41065 192.928 5.3836 192.917 5.35753L192.804 5.14741C192.637 4.90834 192.403 4.72398 192.132 4.61756C191.86 4.51113 191.564 4.48741 191.279 4.54938L99.8391 23.2716L8.44788 42.2201C8.16072 42.2755 7.89662 42.4154 7.68933 42.6217C7.48204 42.8281 7.34097 43.0915 7.28414 43.3784L7.2572 43.6155C7.2572 43.6424 7.2572 43.6747 7.2572 43.7017C7.27455 43.8917 7.33341 44.0756 7.42961 44.2404L31.9382 87.3688C32.098 87.6269 32.3346 87.8286 32.6148 87.9455C32.895 88.0624 33.2047 88.0887 33.5006 88.0207L109.941 72.3372L186.365 56.5459C186.664 56.491 186.939 56.3442 187.15 56.1259C187.362 55.9076 187.5 55.6288 187.545 55.3283L193.003 6.02021C193.03 5.82431 193.01 5.62479 192.944 5.43835V5.43835Z" fill="#003156"/>
                    <path d="M100.712 27.5061L12.1169 45.7003L34.6159 84.7071L109.386 69.5947L184.033 53.9165L189.28 9.19336L100.712 27.5061Z" fill="#009AFF"/>
                    <path d="M101.143 27.3549L101.1 27.3657L101.057 27.3711L19.498 44.1861L22.6445 49.4498L102.269 33.0389L181.123 16.7897L181.899 10.7178L101.143 27.3549Z" fill="#0077C4"/>
                    <path d="M179.873 23.2329L26.2919 54.8802L22.6606 48.3234L180.622 15.7764L179.873 23.2329Z" fill="white"/>
                    <path d="M176.716 51.2811L144.805 57.8541L144.261 33.5341L179.571 26.2607L176.716 51.2811Z" fill="white"/>
                    <path d="M77.4694 71.9602L40.0681 79.4329L27.7681 57.5427L68.1649 49.2188L77.4694 71.9602Z" fill="white"/>
                    <path d="M141.734 58.4849L80.1795 71.4046L71.0905 48.6147L140.985 34.208L141.734 58.4849Z" fill="white"/>
                    <path d="M38.0424 60.3868L34.7021 61.0764L34.0986 59.9396L37.4552 59.25L38.0424 60.3868Z" fill="#DDDDE6"/>
                    <path d="M98.7401 47.8816L92.4796 49.1693L92.1671 47.9732L98.4599 46.6748L98.7401 47.8816Z" fill="#DDDDE6"/>
                    <path d="M106.488 48.9915L93.1477 51.7392L92.8352 50.5432L106.245 47.7793L106.488 48.9915Z" fill="#DDDDE6"/>
                    <path d="M115.463 47.1439L107.7 48.744L107.463 47.5318L115.27 45.9209L115.463 47.1439Z" fill="#DDDDE6"/>
                    <path d="M111.735 45.2049L100.2 47.5809L99.9308 46.374L111.52 43.9873L111.735 45.2049Z" fill="#DDDDE6"/>
                    <path d="M120.679 43.3612L113.238 44.8913L113.034 43.6737L120.512 42.1328L120.679 43.3612Z" fill="#DDDDE6"/>
                    <path d="M137.122 39.9731L122.026 43.0818L121.864 41.8534L137.036 38.7285L137.122 39.9731Z" fill="#DDDDE6"/>
                    <path d="M89.1931 54.5839L78.116 56.8682L76.0094 51.3028L87.6037 48.916L89.1931 54.5839Z" fill="#DDDDE6"/>
                    <path d="M49.1356 57.8547L43.3762 59.04L43.0367 58.345L48.8177 57.1543L49.1356 57.8547Z" fill="#DDDDE6"/>
                    <path d="M56.9208 56.2492L50.1647 57.6446L49.8468 56.9442L56.6191 55.5488L56.9208 56.2492Z" fill="#DDDDE6"/>
                    <path d="M39.481 63.1832L36.1837 63.862L35.5803 62.7253L38.8937 62.041L39.481 63.1832Z" fill="#DDDDE6"/>
                    <path d="M53.4727 60.0476L44.7447 61.847L44.4053 61.1574L53.1603 59.3525L53.4727 60.0476Z" fill="#DDDDE6"/>
                    <path d="M54.728 69.2448L48.8339 70.457L48.5376 69.7566L54.4102 68.5498L54.728 69.2448Z" fill="#DDDDE6"/>
                    <path d="M60.2127 71.2907L50.1862 73.3596L49.8899 72.6592L59.8948 70.5957L60.2127 71.2907Z" fill="#DDDDE6"/>
                    <path d="M62.9173 67.5475L56.048 68.9645L55.7571 68.2641L62.5348 66.8633L62.9173 67.5475Z" fill="#DDDDE6"/>
                    <path d="M40.9195 65.9737L37.6599 66.6472L37.0565 65.5104L40.3322 64.8369L40.9195 65.9737Z" fill="#DDDDE6"/>
                    <path d="M48.9202 64.0769L46.1132 64.6533L45.7738 63.9637L48.5916 63.3818L48.9202 64.0769Z" fill="#DDDDE6"/>
                    <path d="M55.1322 62.7956L49.9223 63.8731L49.5936 63.1727L54.8251 62.1006L55.1322 62.7956Z" fill="#DDDDE6"/>
                    <path d="M98.8855 52.5857L93.6487 53.6687L93.4601 52.9413L98.7131 51.8584L98.8855 52.5857Z" fill="#DDDDE6"/>
                    <path d="M82.4746 59.8689L79.1558 60.5531L78.8541 59.8527L82.243 59.1523L82.4746 59.8689Z" fill="#DDDDE6"/>
                    <path d="M91.0787 58.0969L83.8107 59.5947L83.5898 58.8782L90.8794 57.375L91.0787 58.0969Z" fill="#DDDDE6"/>
                    <path d="M97.8726 56.6961L92.4957 57.806L92.3018 57.084L97.6948 55.9688L97.8726 56.6961Z" fill="#DDDDE6"/>
                    <path d="M106.358 54.9505L99.0795 56.4483L98.9017 55.7209L106.207 54.2178L106.358 54.9505Z" fill="#DDDDE6"/>
                    <path d="M118.885 52.3695L108.961 54.4114L108.815 53.6787L118.772 51.626L118.885 52.3695Z" fill="#DDDDE6"/>
                    <path d="M123.34 51.4486L120.102 52.1166L119.995 51.3731L123.243 50.7051L123.34 51.4486Z" fill="#DDDDE6"/>
                    <path d="M130.42 49.994L124.402 51.2332L124.305 50.4897L130.344 49.2451L130.42 49.994Z" fill="#DDDDE6"/>
                    <path d="M137.51 48.5282L131.686 49.7296L131.616 48.9807L137.456 47.7793L137.51 48.5282Z" fill="#DDDDE6"/>
                    <path d="M42.3526 68.7701L39.1415 69.4328L38.5381 68.296L41.7707 67.6279L42.3526 68.7701Z" fill="#DDDDE6"/>
                    <path d="M43.9689 71.7218L40.7525 72.3844L40.149 71.2476L43.3817 70.585L43.9689 71.7218Z" fill="#DDDDE6"/>
                    <path d="M45.5636 74.5777L42.3472 75.2404L41.7438 74.1036L44.9764 73.4355L45.5636 74.5777Z" fill="#DDDDE6"/>
                    <path d="M52.573 66.4162L47.4816 67.4614L47.1422 66.7718L52.2497 65.7158L52.573 66.4162Z" fill="#DDDDE6"/>
                    <path d="M156.523 36.3136L146.286 38.4256L146.222 36.3514L156.561 34.1963L156.523 36.3136ZM146.696 37.8545L156.092 35.915V34.7997L146.653 36.7447L146.696 37.8545Z" fill="#DDDDE6"/>
                    <path d="M156.905 49.029L146.669 51.1409L146.604 49.0721L156.943 46.917L156.905 49.029ZM147.073 50.5645L156.491 48.6357V47.515L147.041 49.4869L147.073 50.5645Z" fill="#DDDDE6"/>
                    <path d="M152.267 40.4146L146.34 41.6268L146.281 39.558L152.207 38.335L152.267 40.4146ZM146.793 41.0557L151.836 40.0213V38.9061L146.771 39.9513L146.793 41.0557Z" fill="#DDDDE6"/>
                    <path d="M154.556 43.1085L146.475 44.7733L146.416 42.7044L154.573 41.0234L154.556 43.1085ZM146.879 44.186L154.131 42.6882V41.573L146.847 43.0761L146.879 44.186Z" fill="#DDDDE6"/>
                    <path d="M153.883 46.4053L146.561 47.9139L146.496 45.8396L153.883 44.3203V46.4053ZM146.971 47.332L153.436 45.9959V44.8806L146.938 46.2545L146.971 47.332Z" fill="#DDDDE6"/>
                    <path d="M159.691 45.2047L154.971 46.1799V44.0948L159.729 43.1143L159.691 45.2047ZM155.381 45.6088L159.265 44.806V43.6854L155.365 44.4935L155.381 45.6088Z" fill="#DDDDE6"/>
                    <path d="M151.475 53.173L146.755 54.1427V52.0577L151.512 51.0771L151.475 53.173ZM147.165 53.5716L151.049 52.7689V51.6482L147.154 52.4564L147.165 53.5716Z" fill="#DDDDE6"/>
                    <path d="M164.75 37.8395L153.7 40.1185V38.0334L164.847 35.7383L164.75 37.8395ZM154.131 39.5474L164.335 37.4408L164.384 36.3201L154.147 38.4321L154.131 39.5474Z" fill="#DDDDE6"/>
                    <path d="M178.246 18.9073L174.469 19.6885L174.507 19.1928L178.289 18.417L178.246 18.9073Z" fill="#DDDDE6"/>
                    <path d="M178.128 20.1836L174.367 20.9595L174.405 20.4692L178.171 19.6934L178.128 20.1836Z" fill="#DDDDE6"/>
                    <path d="M178.009 21.4605L174.27 22.231L174.308 21.7407L178.052 20.9648L178.009 21.4605Z" fill="#DDDDE6"/>
                    <path d="M140.71 28.7777L69.2963 43.4969L68.5205 41.2772L140.592 26.4287L140.71 28.7777Z" fill="#DDDDE6"/>
                    <path d="M65.762 44.2231L30.0578 51.5773L28.921 49.4384L64.9538 42.0088L65.762 44.2231Z" fill="#DDDDE6"/>
                    <path d="M170.305 22.6788L144.056 28.088L143.97 25.7282L170.456 20.2705L170.305 22.6788Z" fill="#DDDDE6"/>
                    <path d="M87.2535 60.8401L79.9209 62.3594C79.8185 62.1223 79.7108 61.8907 79.6084 61.6536L86.9895 60.1289L87.2535 60.8401Z" fill="#DDDDE6"/>
                    <path d="M84.2418 63.4358L82.5554 63.786C82.4639 63.5489 82.3669 63.3119 82.2699 63.0748L83.967 62.7246L84.2418 63.4358Z" fill="#DDDDE6"/>
                    <path d="M84.9206 65.2683L81.2786 66.0226C81.1924 65.7855 81.1008 65.5485 81.0038 65.3114L84.662 64.5518L84.9206 65.2683Z" fill="#DDDDE6"/>
                    <path d="M88.482 64.5296L86.1922 65.0037C86.1114 64.7612 86.0252 64.5242 85.939 64.2871L88.2395 63.8076L88.482 64.5296Z" fill="#DDDDE6"/>
                    <path d="M99.4242 62.262L90.68 64.0723C90.6046 63.8298 90.5238 63.5928 90.4484 63.3503L99.2249 61.5293L99.4242 62.262Z" fill="#DDDDE6"/>
                    <path d="M104.074 61.2972L100.561 62.0245L100.367 61.2918L103.896 60.5645L104.074 61.2972Z" fill="#DDDDE6"/>
                    <path d="M111.417 59.7728L106.197 60.8503C106.137 60.6025 106.083 60.36 106.03 60.1176L111.272 59.04L111.417 59.7728Z" fill="#DDDDE6"/>
                    <path d="M115.851 58.8519L112.985 59.4445C112.942 59.2021 112.893 58.9543 112.85 58.7064L115.727 58.1084C115.77 58.3562 115.814 58.6041 115.851 58.8519Z" fill="#DDDDE6"/>
                    <path d="M121.907 57.5956L118.238 58.3552L118.125 57.6117L121.816 56.8467L121.907 57.5956Z" fill="#DDDDE6"/>
                    <path d="M126.433 56.6586L123.383 57.2889C123.356 57.0411 123.324 56.7879 123.292 56.54L126.352 55.9043L126.433 56.6586Z" fill="#DDDDE6"/>
                    <path d="M130.209 55.8715L127.86 56.3617C127.86 56.1085 127.812 55.8607 127.79 55.6075L130.145 55.1172L130.209 55.8715Z" fill="#DDDDE6"/>
                    <path d="M136.411 54.5898L131.373 55.6351C131.373 55.3818 131.336 55.1286 131.314 54.8754L136.438 53.7979L136.411 54.5898Z" fill="#DDDDE6"/>
                    <path d="M90.1575 62.2078L85.5349 63.1668L85.2655 62.4556L89.9097 61.4912C89.9959 61.7283 90.0767 61.9707 90.1575 62.2078Z" fill="#DDDDE6"/>
                    <path d="M95.2812 61.1468L91.5421 61.9226L91.2997 61.2006L95.0711 60.4248C95.1357 60.6619 95.2111 60.9043 95.2812 61.1468Z" fill="#DDDDE6"/>
                    <path d="M105.098 59.1102L97.3877 60.7265L97.1776 59.9991L104.925 58.3828C104.979 58.6468 105.038 58.8677 105.098 59.1102Z" fill="#DDDDE6"/>
                    <path d="M112.242 57.6287L106.385 58.841C106.326 58.5931 106.272 58.3507 106.218 58.1082L112.085 56.8906C112.15 57.1331 112.193 57.3809 112.242 57.6287Z" fill="#DDDDE6"/>
                    <path d="M116.735 56.6966L113.815 57.3L113.686 56.5619L116.622 55.9531L116.735 56.6966Z" fill="#DDDDE6"/>
                    <path d="M132.93 53.3339L126.519 54.6646L126.454 53.9104L132.92 52.5742L132.93 53.3339Z" fill="#DDDDE6"/>
                    <path d="M125.016 54.9779L118.308 56.3679C118.27 56.1201 118.238 55.8723 118.2 55.6244L124.94 54.2236C124.962 54.4769 124.989 54.7301 125.016 54.9779Z" fill="#DDDDE6"/>
                    <path d="M116.751 60.6341L115.102 60.9736C115.054 60.7257 115.011 60.4833 114.968 60.2354L116.622 59.8906L116.751 60.6341Z" fill="#DDDDE6"/>
                    <path d="M96.6173 64.8103L94.9687 65.1498L94.7585 64.4278L96.418 64.083C96.4826 64.3255 96.5526 64.5733 96.6173 64.8103Z" fill="#DDDDE6"/>
                    <path d="M88.3149 66.5291L83.7892 67.4719C83.7084 67.2295 83.6222 66.9924 83.5414 66.7553L88.067 65.8125L88.3149 66.5291Z" fill="#DDDDE6"/>
                    <path d="M93.1692 65.5218L89.5056 66.2814L89.2793 65.5649L92.9537 64.7998C93.0291 65.0423 93.0992 65.2847 93.1692 65.5218Z" fill="#DDDDE6"/>
                    <path d="M105.96 62.8704L98.4169 64.4329L98.2229 63.7055L105.793 62.1377C105.846 62.3801 105.906 62.628 105.96 62.8704Z" fill="#DDDDE6"/>
                    <path d="M112.958 61.4207L107.236 62.606L107.075 61.8733L112.813 60.6826L112.958 61.4207Z" fill="#DDDDE6"/>
                    <path d="M129.504 57.9886L126.643 58.5813C126.616 58.3335 126.584 58.0802 126.551 57.8324L129.423 57.2344L129.504 57.9886Z" fill="#DDDDE6"/>
                    <path d="M137.585 56.3129L131.4 57.5952C131.373 57.342 131.352 57.0941 131.325 56.8409L137.628 55.5371L137.585 56.3129Z" fill="#DDDDE6"/>
                    <path d="M125.463 58.825L118.895 60.188C118.858 59.9402 118.815 59.6924 118.777 59.4445L125.366 58.1084C125.398 58.3293 125.425 58.5771 125.463 58.825Z" fill="#DDDDE6"/>
                    <path d="M92.5173 59.7244L88.6812 60.5217C88.5896 60.2847 88.5034 60.0422 88.4172 59.8052L92.2748 59.0078L92.5173 59.7244Z" fill="#DDDDE6"/>
                    <path d="M95.7176 59.0833L93.9451 59.4496C93.8696 59.2072 93.7888 58.9701 93.7134 58.7277L95.4913 58.3613L95.7176 59.0833Z" fill="#DDDDE6"/>
                    <path d="M102.878 57.5965L98.3898 58.5285L98.1797 57.8066L102.689 56.8691C102.754 57.1116 102.813 57.354 102.878 57.5965Z" fill="#DDDDE6"/>
                    <path d="M107.689 56.5989L104.51 57.2562C104.451 57.0138 104.397 56.7713 104.338 56.5235L107.527 55.8662L107.689 56.5989Z" fill="#DDDDE6"/>
                    <path d="M114.882 55.1068L109.321 56.2597L109.176 55.5216L114.763 54.3633C114.806 54.6111 114.844 54.8751 114.882 55.1068Z" fill="#DDDDE6"/>
                    <path d="M124.536 53.1029L116.945 54.6815C116.907 54.4337 116.875 54.1804 116.837 53.9326L124.472 52.3486L124.536 53.1029Z" fill="#DDDDE6"/>
                    <path d="M129.601 52.0526L126.072 52.7854C126.072 52.5321 126.034 52.2843 126.018 52.0311L129.568 51.293L129.601 52.0526Z" fill="#DDDDE6"/>
                    <path d="M2.56454 64.573C8.69245 64.0872 14.7671 63.0741 20.721 61.5451C19.6435 59.6953 18.5875 57.8815 17.5531 56.1035C11.814 57.8008 5.94226 59.0119 0 59.724C0.851254 61.3224 1.7061 62.9387 2.56454 64.573Z" fill="#4DD6CB"/>
                    <path d="M17.6069 60.1554C17.5203 59.9354 17.4062 59.7273 17.2675 59.5358C17.198 59.4296 17.1205 59.3287 17.0358 59.2341L16.8903 59.0779C16.8288 59.0108 16.7581 58.9527 16.6802 58.9055C16.6028 58.8638 16.5132 58.8504 16.427 58.8678C16.3545 58.8828 16.2863 58.9141 16.2277 58.9593C16.1538 59.0178 16.0836 59.0808 16.0175 59.1479C15.8787 59.2929 15.7575 59.4539 15.6566 59.6274C15.4734 60.0207 15.3602 60.1662 14.9723 60.3009C14.7873 60.3722 14.5962 60.4263 14.4012 60.4625C14.3152 60.4762 14.2271 60.467 14.1457 60.4358C14.0644 60.4046 13.9927 60.3525 13.9379 60.2847C13.7734 60.0776 13.5527 59.9223 13.3021 59.8375C13.1592 59.8283 13.0167 59.8611 12.8922 59.9319C12.7677 60.0028 12.6667 60.1086 12.6017 60.2362C12.4951 60.4574 12.3746 60.6715 12.2408 60.8774C12.1723 60.9524 12.0892 61.0127 11.9965 61.0544C11.9038 61.0961 11.8036 61.1184 11.702 61.1198C11.4744 61.1096 11.2502 61.0604 11.0393 60.9743C10.7818 60.8612 10.5065 60.7937 10.2258 60.775C10.0585 60.7931 9.89885 60.8543 9.76244 60.9528C9.66007 61.0174 9.5631 61.0767 9.46612 61.1252C9.27966 61.2287 9.07772 61.3015 8.86809 61.3407C8.69042 61.3779 8.50698 61.3779 8.32932 61.3407C8.08214 61.2543 7.82029 61.2176 7.55888 61.2329C7.30309 61.2753 7.0632 61.385 6.86387 61.5508C6.72644 61.6682 6.57856 61.7728 6.42208 61.8633C6.14087 61.989 5.84019 62.0655 5.53311 62.0896C5.2314 62.1219 4.96202 62.1327 4.73573 62.1758C4.49951 62.2084 4.2702 62.2793 4.05688 62.3859V62.4452C4.2804 62.4157 4.50683 62.4157 4.73035 62.4452L5.51695 62.5098C5.89276 62.5505 6.27288 62.5025 6.62681 62.3697C7.04705 62.2081 7.35415 61.8956 7.62353 61.8902C7.80616 61.9117 7.98648 61.9495 8.1623 62.0034C8.43295 62.0707 8.71596 62.0707 8.98661 62.0034C9.24955 61.9396 9.50057 61.8341 9.73011 61.6909C9.96717 61.5562 10.1719 61.3676 10.2689 61.3676C10.4864 61.3711 10.7023 61.4055 10.91 61.47C11.1784 61.5331 11.4564 61.544 11.7289 61.5023C11.8719 61.4805 12.009 61.4302 12.1322 61.3543C12.2553 61.2784 12.3618 61.1785 12.4455 61.0605C12.6017 60.8289 12.6556 60.5756 12.7742 60.3871C12.8927 60.1985 13.0974 60.0423 13.2698 60.1015C13.4422 60.1608 13.5608 60.3601 13.7062 60.5541C13.7852 60.6694 13.8858 60.7682 14.0025 60.845C14.1315 60.9213 14.2783 60.9622 14.4282 60.9636C14.6742 60.9691 14.9195 60.9364 15.1555 60.8666C15.4059 60.8055 15.6338 60.6748 15.8128 60.4894C15.951 60.3171 16.0618 60.1244 16.1415 59.9184C16.2067 59.7738 16.29 59.638 16.3893 59.5143C16.4378 59.455 16.4863 59.3957 16.5294 59.3526C16.5725 59.3095 16.497 59.3526 16.5294 59.3257C16.5617 59.2988 16.6156 59.3796 16.6694 59.4119L16.8311 59.5304L17.1005 59.7567C17.2705 59.906 17.4307 60.0662 17.58 60.2362L17.6069 60.1554Z" fill="#7D7F82"/>
                    <path d="M7.16019 71.2546C13 71.3179 18.8109 70.4262 24.3631 68.6146C23.3717 66.8188 22.384 65.0318 21.3998 63.2539C15.7075 65.2214 9.72399 66.2141 3.70129 66.1902C4.85067 67.8424 6.00363 69.5306 7.16019 71.2546Z" fill="#009AFF"/>
                    <path d="M21.61 65.5642C21.5198 65.5149 21.4239 65.477 21.3245 65.451C21.034 65.3649 20.7215 65.3938 20.4517 65.5318C20.2556 65.6536 20.1146 65.8468 20.0584 66.0706C20.0374 66.2272 20.005 66.3821 19.9614 66.5339C19.9129 66.6579 19.7136 66.701 19.5304 66.6363C19.3472 66.5717 19.1856 66.437 18.9539 66.3508C18.8219 66.2995 18.6781 66.2864 18.5391 66.313C18.4056 66.3466 18.2819 66.4112 18.1781 66.5016C18.1187 66.5548 18.0515 66.5984 17.9788 66.6309C17.9528 66.6481 17.9234 66.6592 17.8925 66.6632H17.801C17.4918 66.6404 17.1852 66.5899 16.885 66.5124C16.5972 66.4521 16.2975 66.49 16.0338 66.6201C15.9614 66.6618 15.8974 66.7166 15.8452 66.7818L15.8021 66.8518L15.8398 66.9003C15.9236 66.8669 16.0137 66.8522 16.1038 66.8572C16.3258 66.8757 16.5418 66.9379 16.7396 67.0404C16.8909 67.1165 17.0475 67.1813 17.2083 67.2343C17.4274 67.3128 17.6627 67.3351 17.8925 67.299C17.9602 67.2835 18.0268 67.2637 18.0919 67.2397C18.1564 67.2145 18.2179 67.1819 18.2751 67.1428C18.377 67.0722 18.4678 66.9869 18.5445 66.8895C18.6738 66.7548 18.6953 66.6848 18.8893 66.6686C19.0912 66.6802 19.2897 66.7257 19.4765 66.8033C19.5894 66.8498 19.7111 66.8711 19.833 66.8655C19.9549 66.8599 20.0742 66.8276 20.1823 66.771C20.358 66.6298 20.4921 66.4436 20.5702 66.2322C20.6002 66.126 20.66 66.0307 20.7426 65.9575C20.9175 65.8347 21.1154 65.7485 21.3245 65.7042C21.4969 65.6558 21.6047 65.6126 21.6047 65.6126L21.61 65.5642Z" fill="#7D7F82"/>
                    <path d="M14.5414 68.2913C14.5138 68.2688 14.4829 68.2507 14.4498 68.2375C14.3453 68.1896 14.2283 68.1764 14.1158 68.1997C13.9292 68.2327 13.7619 68.3346 13.647 68.4853C13.566 68.5857 13.5155 68.7072 13.5016 68.8355C13.5016 68.9756 13.5016 69.0887 13.5016 69.1103C13.5016 69.1318 13.5016 69.1103 13.5016 69.0725C13.5016 69.0348 13.5016 69.0725 13.4369 69.0725C13.3483 69.0948 13.2583 69.111 13.1675 69.121C12.9449 69.1467 12.7194 69.1265 12.5048 69.0618C12.4217 69.0402 12.3351 69.0353 12.25 69.0473C12.1649 69.0593 12.0831 69.0881 12.0092 69.1318C11.8745 69.2234 11.7829 69.3258 11.6805 69.4012C11.4758 69.5736 11.2333 69.509 10.964 69.4335C10.8195 69.3882 10.6718 69.354 10.5222 69.3312C10.3333 69.315 10.1443 69.3604 9.9834 69.4605L9.82177 69.5844C9.85948 69.5574 9.82177 69.5844 9.82177 69.5844C9.74618 69.5782 9.67274 69.5562 9.60626 69.5197C9.39139 69.3744 9.16209 69.2516 8.92202 69.1534C8.7581 69.1079 8.58489 69.1079 8.42097 69.1534C8.28089 69.1911 8.1893 69.2342 8.11387 69.2557C7.95705 69.2834 7.79658 69.2834 7.63976 69.2557C7.4838 69.2424 7.32698 69.2424 7.17103 69.2557C7.06342 69.2682 6.95919 69.3011 6.86393 69.3527L6.77234 69.4174L6.80466 69.4766C6.92153 69.4513 7.04324 69.4607 7.15486 69.5036C7.26262 69.5359 7.38653 69.5898 7.54816 69.6544C7.75404 69.7482 7.97957 69.7907 8.20546 69.7783C8.34015 69.7783 8.4533 69.7352 8.53411 69.7352C8.59405 69.7187 8.65735 69.7187 8.71729 69.7352C8.86276 69.7891 9.03517 69.9453 9.35843 70.0854C9.53003 70.1508 9.71549 70.1712 9.89719 70.1447C9.9554 70.133 10.0116 70.113 10.0642 70.0854C10.088 70.0771 10.1099 70.0643 10.1289 70.0477L10.172 70.0208L10.3174 69.8753C10.4144 69.7622 10.6515 69.7352 10.9478 69.7352C11.2551 69.7691 11.5644 69.6928 11.8206 69.5197C11.916 69.4305 12.0229 69.3544 12.1385 69.2934C12.1856 69.2779 12.2358 69.2742 12.2846 69.2826C12.3335 69.2911 12.3795 69.3114 12.4186 69.3419C12.6478 69.5149 12.9239 69.6144 13.2106 69.6275C13.3511 69.6293 13.4911 69.6093 13.6255 69.5682C13.7116 69.5422 13.792 69.5001 13.8625 69.4443C13.91 69.4061 13.9492 69.3588 13.9779 69.3051C14.0066 69.2514 14.0242 69.1925 14.0295 69.1318C14.0327 69.0249 14.0218 68.918 13.9972 68.8139C13.9844 68.7608 13.9844 68.7054 13.9972 68.6523C14.0377 68.5488 14.1092 68.4604 14.202 68.3991C14.2948 68.3295 14.4094 68.2952 14.5252 68.3021L14.5414 68.2913Z" fill="#7D7F82"/>
                </svg> 