<svg class="naushnik" width="56" height="61" viewBox="0 0 56 61" fill="none" xmlns="http://www.w3.org/2000/svg">
                    <g style="mix-blend-mode:multiply" opacity="0.5">
                    <path d="M46.9155 11.1544C38.1336 1.26797 24.826 -1.43125 13.8513 4.44671C2.87656 10.3247 -2.28483 22.8672 1.05553 35.6629C3.40456 44.6496 9.71892 49.2184 15.2898 53.2537C17.6021 54.8267 19.784 56.5834 21.8143 58.5067L22.4231 57.9033L23.7592 58.9808C25.9843 60.5002 28.8075 60.1069 30.7039 60.1069L30.2999 59.8159L31.0218 59.2341L31.1134 59.3149C31.1695 59.359 31.2387 59.383 31.3101 59.383C31.3814 59.383 31.4507 59.359 31.5067 59.3149C32.4427 58.4699 33.2488 57.4914 33.8988 56.4109C33.9311 56.3466 33.9417 56.2735 33.9291 56.2026C33.9165 56.1318 33.8813 56.0669 33.8288 56.0176L33.6079 55.8129L33.9958 54.9185L34.1467 55.0532C34.3622 55.2472 34.6854 55.1233 34.7609 54.8054C34.8255 54.5737 34.8848 54.3367 34.9387 54.1104C34.9612 54.0215 34.9606 53.9283 34.937 53.8397C34.9135 53.751 34.8677 53.6699 34.804 53.6039V53.6039C35.0626 53.3184 32.1101 50.2259 28.1663 46.6915C24.2226 43.1572 20.602 40.695 20.3327 40.959C20.261 40.9254 20.1828 40.9079 20.1037 40.9079C20.0245 40.9079 19.9463 40.9254 19.8747 40.959L19.2012 41.2338C18.8941 41.3631 18.8133 41.6864 19.0396 41.8696L19.1312 41.9396L18.3177 42.4784L18.1291 42.3221C18.071 42.278 18 42.2541 17.9271 42.2541C17.8541 42.2541 17.7831 42.278 17.725 42.3221C16.7377 43.1085 15.8717 44.0362 15.1551 45.0752C15.1208 45.1373 15.1091 45.2093 15.1219 45.279C15.1346 45.3487 15.1711 45.4119 15.2251 45.4578C15.2476 45.4838 15.2729 45.5073 15.3006 45.5278L14.7618 46.2875L14.4547 46.0073C14.4547 47.4296 15.2628 50.1774 15.9363 51.6697C16.0731 51.951 16.2373 52.2181 16.4266 52.4671C11.5777 48.8143 5.32257 42.9848 3.49615 36.0886C0.403619 24.2357 5.14478 12.6468 15.2898 7.22676C25.4348 1.80675 37.7133 4.30662 45.8433 13.4603C50.4552 18.654 51.8829 26.7894 52.2601 32.8129C52.1916 32.6612 52.1142 32.5137 52.0284 32.3711C51.161 30.981 49.3346 28.7829 48.1439 27.9855C48.1439 28.1256 48.1816 28.2603 48.2085 28.4003H47.2818V28.298C47.2734 28.2277 47.2409 28.1624 47.1898 28.1133C47.1387 28.0642 47.0723 28.0343 47.0017 28.0286C45.7414 28.0464 44.4906 28.2497 43.2896 28.632C43.2213 28.6597 43.1639 28.7088 43.126 28.772C43.088 28.8352 43.0717 28.9089 43.0795 28.9822C43.0795 29.063 43.0795 29.1438 43.1064 29.2247L42.212 29.6072V29.494C42.212 29.2031 41.878 29.09 41.5978 29.2731C41.3177 29.4563 41.1884 29.5425 40.9944 29.6772C40.8638 29.7687 40.7747 29.9082 40.7466 30.0651C40.3694 30.1244 40.3748 34.5531 41.1291 39.763C41.8834 44.9729 42.8101 49.1752 43.1872 49.1214C43.2065 49.2108 43.2484 49.2939 43.3087 49.3627C43.369 49.4315 43.4459 49.4838 43.532 49.5147L44.2055 49.7517C44.5234 49.8595 44.7981 49.6655 44.7442 49.38C44.7442 49.3153 44.7442 49.2453 44.7442 49.1806L45.7033 49.353L45.7517 49.6494C45.7619 49.721 45.7954 49.7872 45.847 49.8379C45.8986 49.8885 45.9655 49.9207 46.0373 49.9295C47.3062 49.9937 48.5776 49.8665 49.8087 49.5524C49.8764 49.5293 49.9338 49.4832 49.9712 49.4223C50.0086 49.3613 50.0235 49.2891 50.0134 49.2183C50.0107 49.1771 50.0107 49.1357 50.0134 49.0944L50.897 48.8143L50.9455 49.3099C51.9961 47.7367 53.8925 45.6086 53.8656 42.9148C53.8117 42.3167 53.7632 41.7726 53.7147 41.2607L54.4098 41.0668C53.8387 38.9925 53.7363 36.3526 53.6178 33.2977C53.3161 26.4823 52.9874 17.9913 46.9155 11.1544Z" fill="#003A66"/>
                    </g>
                    <path d="M47.1041 10.6692C38.5592 1.04684 25.6234 -1.57696 14.9234 4.13937C4.22349 9.8557 -0.787058 22.0696 2.46171 34.5205C5.662 46.7721 21.9921 56.3676 22.6817 56.7716L23.3551 55.6133C23.1881 55.5163 7.33757 46.8745 4.28275 35.167C1.19022 23.3141 5.93138 11.7252 16.0764 6.30521C26.2214 0.885205 38.4999 3.39048 46.6299 12.5388C54.663 21.5847 53.0359 39.5688 53.0251 39.7573L54.3613 39.8435C54.4098 39.0408 55.5088 20.13 47.1041 10.6692Z" fill="white"/>
                    <path d="M22.5631 57.6074C20.5316 55.6839 18.3498 53.9255 16.0386 52.349C10.4678 48.319 4.15339 43.7287 1.80436 34.7582C-1.536 21.9625 3.60384 9.43612 14.6001 3.54199L15.0203 4.32861C4.39583 10.0072 -0.566222 22.1457 2.66639 34.5373C4.9346 43.2115 10.8449 47.4678 16.5612 51.6271C18.9137 53.2295 21.1334 55.0186 23.1988 56.977L22.5631 57.6074Z" fill="#5B93BA"/>
                    <path d="M55.1155 40.178L54.2534 40.415C53.6554 38.26 53.553 35.5661 53.4345 32.4359C53.1759 25.7552 52.858 17.442 47.0016 10.8474C38.4945 1.26813 25.6448 -1.35027 15.0203 4.32835L14.6001 3.54174C25.5964 -2.33084 38.8824 0.363015 47.6643 10.2548C53.7362 17.0918 54.0649 25.5828 54.3235 32.4036C54.442 35.4584 54.5444 38.0983 55.1155 40.178Z" fill="#5B93BA"/>
                    <path d="M15.5161 45.3709L17.3856 42.6716L20.6775 40.5273L35.1165 53.2153L33.484 56.9544L30.7956 59.1148L21.8035 53.5655L15.5161 45.3709Z" fill="#B6D7DE"/>
                    <path d="M34.6692 55.5054C34.0206 56.5868 33.2143 57.5656 32.2771 58.4093C32.2219 58.4554 32.1523 58.4805 32.0805 58.4805C32.0086 58.4805 31.939 58.4554 31.8838 58.4093C26.4961 53.9052 21.1929 49.2862 15.974 44.5522C15.9195 44.5054 15.8828 44.4413 15.8701 44.3707C15.8573 44.3 15.8693 44.2272 15.9039 44.1643C16.6193 43.1258 17.4854 42.1997 18.4739 41.4166C18.5315 41.3737 18.6014 41.3506 18.6732 41.3506C18.745 41.3506 18.8149 41.3737 18.8726 41.4166C24.2602 45.8129 29.5025 50.3763 34.5992 55.1067C34.6529 55.1563 34.6888 55.2222 34.7015 55.2942C34.7141 55.3662 34.7028 55.4404 34.6692 55.5054V55.5054Z" fill="white"/>
                    <path d="M31.4528 59.2124C29.5564 59.2124 26.7332 59.6111 24.5081 58.0864C21.8143 55.899 20.4997 54.8053 17.9567 52.424C17.4392 51.9458 17.0121 51.3782 16.696 50.7484C16.0225 49.2614 15.2144 46.5083 15.2144 45.0859C20.4691 49.978 25.882 54.6868 31.4528 59.2124Z" fill="#5B93BA"/>
                    <path d="M28.9422 45.808C32.8645 49.3423 35.8385 52.4348 35.5798 52.7204C35.3212 53.0059 31.9378 50.3768 28.0371 46.8424C24.1364 43.3081 20.8445 40.3772 21.1031 40.0971C21.3617 39.8169 25.02 42.2575 28.9422 45.808Z" fill="#D1D3D4"/>
                    <path d="M35.6875 53.2048C35.6336 53.4347 35.5744 53.6664 35.5097 53.8998C35.4235 54.2231 35.111 54.347 34.8955 54.1477C29.8688 49.7405 24.9283 45.2203 19.7669 40.9748C19.5406 40.797 19.616 40.4737 19.9285 40.339C20.1548 40.2421 20.3757 40.1505 20.602 40.0643C20.6967 40.0225 20.8015 40.009 20.9037 40.0252C21.0059 40.0415 21.1013 40.0868 21.1785 40.1559C23.4036 42.3917 25.8334 44.4229 28.2148 46.5241C30.5961 48.6253 32.929 50.7965 35.5043 52.6553C35.584 52.7199 35.6436 52.806 35.6761 52.9033C35.7085 53.0007 35.7125 53.1053 35.6875 53.2048Z" fill="#5B93BA"/>
                    <path d="M48.9951 27.4785L45.714 27.5324L42.1042 29.0787L44.6311 48.1349L48.6395 48.8568L51.9314 47.8224L52.3193 37.2572L48.9951 27.4785Z" fill="#B6D7DE"/>
                    <path d="M46.7807 49.0401C48.0407 49.1012 49.3027 48.9741 50.5252 48.663C50.5929 48.6398 50.6504 48.5938 50.6877 48.5328C50.7251 48.4719 50.74 48.3997 50.7299 48.3289C49.9936 41.3357 49.0956 34.3605 48.0361 27.4032C48.0286 27.3325 47.9964 27.2667 47.9451 27.2174C47.8939 27.1681 47.8269 27.1385 47.7559 27.1338C46.4936 27.1489 45.2407 27.3523 44.0384 27.7372C43.971 27.764 43.9144 27.8124 43.8774 27.8748C43.8403 27.9371 43.825 28.01 43.8337 28.082C44.491 35.007 45.371 41.8996 46.4736 48.76C46.4856 48.8345 46.5225 48.9027 46.5783 48.9536C46.6341 49.0045 46.7054 49.035 46.7807 49.0401V49.0401Z" fill="white"/>
                    <path d="M51.6512 48.4207C52.7288 46.8421 54.5983 44.7194 54.5714 42.0202C54.2535 38.5559 54.0703 36.8641 53.4938 33.4322C53.3846 32.7345 53.1491 32.0627 52.7988 31.4495C51.9368 30.0595 50.105 27.8613 48.9197 27.0693C50.0691 34.1559 50.9796 41.2731 51.6512 48.4207Z" fill="#5B93BA"/>
                    <path d="M41.8834 38.8743C42.6377 44.1003 43.559 48.2865 43.9415 48.2327C44.324 48.1788 44.0169 43.9225 43.2573 38.6749C42.4976 33.4273 41.8834 29.1064 41.5009 29.1656C41.1183 29.2249 41.1237 33.6536 41.8834 38.8743Z" fill="#D1D3D4"/>
                    <path d="M44.3078 48.6204L44.9812 48.8628C45.2937 48.9652 45.5739 48.7766 45.52 48.4857C44.6472 41.8589 43.6343 35.2428 42.9716 28.589C42.9716 28.2981 42.6376 28.1849 42.3574 28.3681C42.0773 28.5513 41.948 28.6375 41.754 28.7776C41.6645 28.8333 41.5934 28.914 41.5493 29.0098C41.5053 29.1055 41.4903 29.2121 41.5062 29.3163C42.1312 32.4143 42.4652 35.5607 42.8908 38.7071C43.3164 41.8535 43.8229 44.9999 43.936 48.1786C43.9497 48.2799 43.9919 48.3753 44.0577 48.4535C44.1235 48.5317 44.2103 48.5896 44.3078 48.6204Z" fill="#5B93BA"/>
                </svg>