<svg class="notebook" width="81" height="91" viewBox="0 0 81 91" fill="none" xmlns="http://www.w3.org/2000/svg">
                    <path d="M50.4152 2.43018L0.668945 25.1533L30.524 90.513L80.2703 67.7899L50.4152 2.43018Z" fill="#003A66"/>
                    <path d="M51.72 2.66597L1.88062 25.4316L30.2247 87.4834L80.0641 64.7178L51.72 2.66597Z" fill="#4DD6CB"/>
                    <path d="M80.0655 64.7158L30.2261 87.4814L31.0163 89.2114L80.8557 66.4457L80.0655 64.7158Z" fill="white"/>
                    <path d="M50.5738 0.156196L0.734375 22.9219L1.87826 25.4261L51.7177 2.66043L50.5738 0.156196Z" fill="white"/>
                    <g style="mix-blend-mode:multiply">
                    <path d="M3.87102 21.4892L0.734619 22.9219L31.0127 89.2078L34.1491 87.7752L3.87102 21.4892Z" fill="#E0E0E0"/>
                    </g>
                    <path d="M53.966 20.0669L43.3074 24.9863L43.5314 25.4717L54.1901 20.5523L53.966 20.0669Z" fill="white"/>
                    <path d="M52.383 24.1808L45.2917 27.4199L45.5134 27.9051L52.6046 24.666L52.383 24.1808Z" fill="white"/>
                    <path d="M55.1347 25.5075L50.2488 27.7393L50.4704 28.2244L55.3563 25.9926L55.1347 25.5075Z" fill="white"/>
                    <path d="M48.9493 28.3327L44.0634 30.5645L44.285 31.0496L49.1709 28.8178L48.9493 28.3327Z" fill="white"/>
                    <path d="M21.9201 23.8401L11.3995 28.5176L11.892 29.6253L22.4125 24.9478L21.9201 23.8401Z" fill="white"/>
                    <path d="M29.9974 20.2522L24.0258 22.9072L24.5182 24.0149L30.4899 21.3599L29.9974 20.2522Z" fill="white"/>
                    <path d="M15.6691 29.6561L11.5239 31.499L12.0164 32.6067L16.1616 30.7637L15.6691 29.6561Z" fill="white"/>
                    <path d="M27.6987 24.3147L17.7886 28.7207L18.2811 29.8284L28.1911 25.4224L27.6987 24.3147Z" fill="white"/>
                    <path d="M34.4913 21.2932L29.5387 23.4951L30.0312 24.6028L34.9838 22.4009L34.4913 21.2932Z" fill="white"/>
                    <path d="M21.3168 30.1945L13.7107 33.5762L14.2032 34.6839L21.8093 31.3022L21.3168 30.1945Z" fill="white"/>
                </svg>