<svg class="pencil" width="62" height="7" viewBox="0 0 62 7" fill="none" xmlns="http://www.w3.org/2000/svg">
                    <path class="orangepath" d="M1.55835 4.67106L5.32973 3.72822L9.3651 2.71533L56.7767 1.67013H56.9653L59.9177 1.60547V1.96106C60.0134 1.90159 60.123 1.86816 60.2356 1.86408H61.1246C61.2156 1.86194 61.3061 1.87783 61.391 1.91085C61.4758 1.94387 61.5533 1.99337 61.6189 2.05648C61.6845 2.11959 61.737 2.19507 61.7733 2.27856C61.8096 2.36205 61.829 2.4519 61.8304 2.54293L61.8681 4.20234C61.8702 4.29335 61.8543 4.38389 61.8213 4.46873C61.7883 4.55357 61.7388 4.63102 61.6757 4.69664C61.6126 4.76225 61.5371 4.81472 61.4536 4.85102C61.3701 4.88732 61.2803 4.90672 61.1892 4.90812H60.3003C60.1878 4.90617 60.0772 4.87853 59.977 4.82731V5.1775L57.8973 5.22061H57.7196L9.41898 6.29814L1.55835 4.67106Z" fill="#DA6B00"/>
                    <path d="M60.4112 2.67267L60.3748 1.01905C60.3663 0.635299 60.0484 0.331061 59.6646 0.339502L58.7759 0.359049C58.3921 0.36749 58.0879 0.685412 58.0963 1.06916L58.1327 2.72279C58.1411 3.10654 58.4591 3.41079 58.8428 3.40235L59.7316 3.3828C60.1153 3.37436 60.4196 3.05642 60.4112 2.67267Z" fill="#C98997"/>
                    <path d="M58.534 3.67371L58.4554 0.102539L7.90967 1.21428L7.98821 4.78545L58.534 3.67371Z" fill="#4DD6CB"/>
                    <path d="M0.135986 3.1828L7.99123 4.79371L7.9158 1.22168L0.135986 3.1828Z" fill="#E6E7E8"/>
                    <path d="M3.88041 2.24023C3.88041 2.24023 3.19078 2.59582 3.21772 2.7359C3.24466 2.87598 3.57331 2.99451 3.57331 2.99451C3.57331 2.99451 2.67356 3.24234 2.66279 3.38242C2.65201 3.5225 3.37397 3.84576 3.37397 3.84576L0.141357 3.18308L3.88041 2.24023Z" fill="#58595B"/>
                    <path d="M7.932 1.97656L3.57336 2.99483L7.95355 2.94635L7.932 1.97656Z" fill="#F1F2F2"/>
                    <path d="M53.3954 1.94355L53.3712 0.844727L9.20291 1.8162L9.22707 2.91502L53.3954 1.94355Z" fill="#F6F7F1"/>
                    <path d="M58.5326 3.67762L58.4541 0.106445L54.3227 0.197313L54.4013 3.76849L58.5326 3.67762Z" fill="#E6E7E8"/>
                    <path d="M55.5751 3.73816L55.4966 0.166992L55.3081 0.171139L55.3866 3.74231L55.5751 3.73816Z" fill="#A7A9AC"/>
                    <path d="M56.4731 3.72059L56.3945 0.149414L56.206 0.153561L56.2846 3.72473L56.4731 3.72059Z" fill="#A7A9AC"/>
                    <path d="M57.3655 3.6991L57.287 0.12793L57.0985 0.132076L57.177 3.70325L57.3655 3.6991Z" fill="#A7A9AC"/>
                    <path opacity="0.5" d="M58.0471 1.83125L58.0229 0.732422L54.7696 0.803979L54.7937 1.90281L58.0471 1.83125Z" fill="#F1F2F2"/>
                    <path d="M59.8205 1.7992L59.7986 0.802734L59.0499 0.819202L59.0718 1.81567L59.8205 1.7992Z" fill="#D69AA7"/>
                </svg>       