<svg class="pencils" width="43" height="47" viewBox="0 0 43 47" fill="none" xmlns="http://www.w3.org/2000/svg">
                    <path class="orangepath" d="M35.3465 39.5395C32.4426 42.8507 28.3632 44.9006 23.9733 45.2548C19.5834 45.6089 15.2282 44.2393 11.831 41.4364C8.43392 38.6335 6.26205 34.6177 5.77592 30.2404C5.28979 25.8632 6.52763 21.4687 9.22698 17.9887L9.54486 17.6116C10.5671 16.4089 11.7511 15.3537 13.063 14.476L13.4132 14.2551C14.7037 13.4369 16.1017 12.8022 17.5671 12.3694C17.7611 12.3047 17.955 12.2509 18.149 12.197C20.7323 11.5232 23.4378 11.466 26.0473 12.03C27.6647 12.3736 29.2211 12.9584 30.6646 13.7648C31.6508 14.3125 32.5803 14.9568 33.4392 15.6882C33.5847 15.8067 33.7248 15.936 33.8649 16.0653C35.0681 17.1555 36.1063 18.4151 36.9466 19.8044C38.7851 22.8456 39.62 26.3882 39.3328 29.9303C39.0456 33.4724 37.6509 36.8342 35.3465 39.5395Z" fill="#DA6B00"/>
                    <path d="M36.0738 37.9229C33.3007 41.2086 29.3433 43.2677 25.061 43.6529C20.7787 44.0381 16.5174 42.7183 13.2024 39.9802C9.88744 37.2421 7.78653 33.3067 7.35593 29.0288C6.92533 24.7508 8.19981 20.4757 10.9026 17.1319C10.9996 17.0133 11.1019 16.884 11.2043 16.7655C12.1901 15.6075 13.3304 14.5905 14.5932 13.743L14.9326 13.5275C16.1802 12.7433 17.5287 12.1325 18.941 11.7118C19.1242 11.6526 19.3128 11.5987 19.4798 11.5502C21.0984 11.1185 22.7736 10.9368 24.4472 11.0114C26.9316 11.138 29.3546 11.8289 31.532 13.0318C32.4896 13.5581 33.3921 14.179 34.2259 14.8852L34.6407 15.2462C37.7639 18.0976 39.659 22.0494 39.9273 26.2699C40.1957 30.4905 38.8162 34.6505 36.0792 37.8744L36.0738 37.9229Z" fill="#DDDDE6"/>
                    <path d="M32.1542 37.9728C38.027 33.2678 38.9737 24.6927 34.2687 18.8199C29.5637 12.9471 20.9886 12.0004 15.1158 16.7054C9.24293 21.4104 8.29623 29.9855 13.0013 35.8583C17.7063 41.7312 26.2814 42.6779 32.1542 37.9728Z" fill="#954900"/>
                    <path d="M24.3279 35.8659C29.0408 35.4859 32.5532 31.3573 32.1732 26.6445C31.7932 21.9317 27.6646 18.4192 22.9518 18.7992C18.239 19.1792 14.7265 23.3078 15.1065 28.0206C15.4865 32.7335 19.6151 36.2459 24.3279 35.8659Z" fill="#723800"/>
                    <g style="mix-blend-mode:multiply" opacity="0.5">
                    <path d="M22.513 24.3788C22.4737 24.437 22.4266 24.4896 22.3729 24.535L22.3352 24.5673C22.279 24.6124 22.2175 24.6504 22.152 24.6805V24.6805C22.084 24.7055 22.0136 24.7235 21.9419 24.7343H21.6779H21.6348C21.1607 24.6147 20.7261 24.3732 20.3741 24.034C20.3741 23.9855 20.3202 23.9316 20.2933 23.8885C18.2459 20.0255 16.1771 16.1733 14.1729 12.2942C15.5191 11.438 16.9766 10.7708 18.5045 10.3115L19.3289 12.6282C20.5357 16.0494 21.7048 19.4867 22.8847 22.9187C22.8847 22.9187 22.8847 23.0588 22.8847 23.2581C22.8568 23.568 22.7805 23.8716 22.6585 24.1579V24.1579C22.6299 24.2247 22.5938 24.2879 22.5507 24.3464L22.513 24.3788Z" fill="#B0B0B0"/>
                    </g>
                    <path d="M9.18921 6.24992C12.6589 12.3488 16.3925 18.3183 20.0831 24.304C20.0831 24.304 21.1606 25.2253 21.9095 24.8428C22.6584 24.4603 22.5345 23.0379 22.5399 23.0325C19.846 16.5673 17.1522 10.1021 14.2375 3.73926L9.18921 6.24992Z" fill="#FF942D"/>
                    <path d="M11.7646 5.00977L10.1483 5.83408C10.3961 6.32436 10.644 6.81464 10.8972 7.29953C14.1298 13.1775 17.5456 18.9908 20.9075 24.8041C21.0596 24.881 21.2266 24.9238 21.3969 24.9294C21.5672 24.9349 21.7367 24.9032 21.8935 24.8364C18.8225 18.8741 15.7389 12.9117 12.6428 6.94933C12.3573 6.3028 12.0394 5.65629 11.7646 5.00977Z" fill="#DE8F3C"/>
                    <path d="M11.7699 5.00441L11.6837 5.0529C15.0815 11.6474 18.4794 18.2455 21.8772 24.8473H21.9095C22.0521 24.7604 22.1741 24.6437 22.2671 24.5051C22.3601 24.3665 22.422 24.2093 22.4483 24.0445C19.4851 17.4661 16.5219 10.8662 13.4024 4.36328L11.7699 5.00441Z" fill="#E19648"/>
                    <path d="M14.2214 3.7002L13.6826 4.02884C13.8119 4.56761 13.9412 5.14949 14.0651 5.70981C16.9476 11.7871 19.6953 17.9398 22.4538 24.0764C22.5399 23.7332 22.5762 23.3794 22.5615 23.0258C19.8461 16.5498 17.1577 10.0577 14.2214 3.7002Z" fill="#FF942D"/>
                    <path d="M10.9133 7.29964C10.5523 5.94733 12.3572 6.36756 12.6589 6.94943C12.4165 6.3514 13.7364 5.07453 14.0435 5.71027C13.6826 4.84286 14.0435 3.6845 14.2375 3.73299C14.2197 3.67396 14.1904 3.61904 14.1513 3.57136C12.6535 2.28909 10.5469 1.29237 9.97046 1.58869C9.39397 1.88501 9.12998 4.49804 9.18385 6.21671C9.18385 6.25981 9.18385 6.24904 9.18385 6.28137C9.54114 6.25718 9.8974 6.34145 10.206 6.52314C10.5146 6.70484 10.7611 6.97548 10.9133 7.29964V7.29964Z" fill="#E8E0C1"/>
                    <path d="M12.659 6.94932C12.6565 6.92784 12.6565 6.90615 12.659 6.88467C12.1202 5.5593 10.7625 2.98938 10.7625 2.98938C10.7625 2.98938 10.7248 2.77926 10.2884 2.88163C9.97504 4.38381 10.2021 5.94839 10.9295 7.29953V7.29953C10.5524 5.94722 12.3573 6.36745 12.659 6.94932Z" fill="#DED6B9"/>
                    <path d="M11.1396 2.43512C9.58795 1.49227 10.8217 3.13013 10.8217 3.13013L12.6482 6.9015C12.465 6.29269 13.7257 5.06969 14.0436 5.69466C14.0458 5.67497 14.0458 5.6551 14.0436 5.6354C13.5641 4.92423 12.3572 3.17862 11.1396 2.43512Z" fill="#D6CCAB"/>
                    <path d="M10.326 1.54004C10.3592 1.69115 10.4244 1.83337 10.5174 1.95701C10.6103 2.08066 10.7288 2.18284 10.8648 2.2566C11.8508 2.8708 13.2731 4.72416 13.8819 5.56464C13.9452 5.59566 13.9964 5.64684 14.0274 5.71011V5.71011C13.6664 4.84269 14.0274 3.68433 14.2213 3.73282C14.2035 3.6738 14.1742 3.61888 14.1351 3.5712C12.8744 2.4775 11.1611 1.5993 10.326 1.54004Z" fill="#D1C6A1"/>
                    <path d="M9.7065 1.00648C10.2453 0.720931 11.6461 2.39112 11.6461 2.39112C11.6461 2.39112 11.3767 3.10767 11.0103 3.29624C10.6419 3.40615 10.2538 3.43374 9.87352 3.37706C9.87352 3.37706 9.37246 1.17888 9.7065 1.00648Z" fill="#56575A"/>
                    <g style="mix-blend-mode:multiply" opacity="0.5">
                    <path d="M17.2277 10.4463C17.2347 10.5837 17.2509 10.7205 17.2761 10.8557C17.9388 14.6972 14.9217 15.8501 14.8894 15.8663C16.6081 18.6841 18.3483 21.491 20.0831 24.3034C20.0831 24.3034 21.1607 25.2247 21.9096 24.8422C22.6584 24.4597 22.5345 23.0373 22.5399 23.0319C20.7889 18.8241 19.0433 14.6217 17.2277 10.4463Z" fill="#DBDBDB"/>
                    </g>
                    <g style="mix-blend-mode:multiply" opacity="0.5">
                    <path d="M26.5377 27.1955C26.3396 27.408 26.1108 27.5896 25.8588 27.7342V27.7342C25.7996 27.7666 25.7403 27.7827 25.681 27.8097H25.6433C25.5833 27.8257 25.522 27.8365 25.4601 27.842H25.4062C25.342 27.8523 25.2765 27.8523 25.2123 27.842C25.1463 27.8251 25.0842 27.7958 25.0291 27.7558C25.0167 27.7588 25.0038 27.7588 24.9914 27.7558C24.9346 27.7187 24.8822 27.6753 24.8352 27.6265V27.6265C24.5498 27.27 24.3639 26.8443 24.2964 26.3927C25.2069 21.4091 26.0959 16.4093 27.1088 11.4473C28.6666 11.7807 30.1664 12.3436 31.559 13.1175C30.1905 17.2875 28.7305 21.436 27.2488 25.5792C27.0764 26.064 26.904 26.5489 26.7101 27.0338C26.7478 26.9584 26.667 27.0608 26.5377 27.1955Z" fill="#B0B0B0"/>
                    </g>
                    <path d="M26.586 5.34863C25.5085 12.2826 24.7488 19.2866 23.9353 26.269C23.9353 26.269 24.2047 27.6536 25.0128 27.8153C25.821 27.9769 26.6291 26.7862 26.6291 26.7916C28.5256 20.0462 30.4436 13.3224 32.0761 6.50699L26.586 5.34863Z" fill="#FF942D"/>
                    <path d="M29.3877 5.97469L27.6206 5.62988L27.2973 7.24619C26.2198 13.8784 25.2662 20.543 24.3018 27.1806C24.3733 27.3338 24.4774 27.4695 24.6067 27.5784C24.736 27.6872 24.8875 27.7666 25.0506 27.811C26.3437 21.2344 27.6224 14.6453 28.8867 8.04356L29.3877 5.97469Z" fill="#DE8F3C"/>
                    <path d="M29.3931 5.97363H29.2961C27.8594 13.2542 26.4353 20.5383 25.0237 27.8261H25.0506C25.216 27.845 25.3835 27.8289 25.5423 27.7787C25.701 27.7286 25.8474 27.6456 25.9719 27.5351C27.7229 20.5312 29.4955 13.5272 31.0741 6.48008L29.3931 5.97363Z" fill="#E19648"/>
                    <path d="M32.1246 6.46999L31.4835 6.38379L30.74 7.94083C29.2314 14.4923 27.5774 21.0221 25.9396 27.552C26.2182 27.3344 26.4649 27.0786 26.6723 26.7923C28.5688 20.0362 30.4922 13.28 32.1246 6.46999Z" fill="#FF942D"/>
                    <path d="M27.2973 7.24028C27.8361 5.95263 29.0106 7.40191 28.9136 8.04304C29.0914 7.42885 30.9071 7.23489 30.767 7.93529C31.0256 7.03016 32.0169 6.31898 32.1462 6.50216C32.1731 6.44505 32.1842 6.38183 32.1786 6.31898C31.8014 4.37942 30.767 2.29439 30.1312 2.17047C29.5925 2.06272 27.6637 3.93224 26.64 5.31688C26.64 5.3492 26.64 5.31688 26.64 5.37614C26.9206 5.58789 27.1326 5.87763 27.2495 6.20917C27.3664 6.54071 27.3831 6.89935 27.2973 7.24028V7.24028Z" fill="#E8E0C1"/>
                    <path d="M28.8866 8.04807C28.8846 8.02837 28.8846 8.00851 28.8866 7.98881C29.2799 6.60417 29.8133 3.75947 29.8133 3.75947C29.8133 3.75947 29.9156 3.56552 29.5115 3.37695C28.3358 4.36296 27.5427 5.72982 27.2703 7.23992V7.23992C27.8521 5.95765 29.0105 7.40694 28.8866 8.04807Z" fill="#DED6B9"/>
                    <path d="M30.4922 3.56524C29.8672 1.86273 29.8134 3.91005 29.8134 3.91005C29.5063 5.28391 29.2046 6.65239 28.8975 8.02086C29.1291 7.42821 30.8801 7.25042 30.74 7.94005C30.7424 7.91856 30.7424 7.89688 30.74 7.87539C30.8532 7.02413 30.9879 4.90139 30.4922 3.56524Z" fill="#D6CCAB"/>
                    <path d="M30.4113 2.36426C30.3456 2.5061 30.3116 2.66052 30.3116 2.81682C30.3116 2.97312 30.3456 3.12754 30.4113 3.26938C30.81 4.34692 30.7723 6.69596 30.7238 7.73578C30.749 7.80356 30.749 7.87812 30.7238 7.9459C30.9824 7.04077 31.9737 6.32959 32.103 6.51277C32.1299 6.45566 32.141 6.39244 32.1354 6.32959C31.8336 4.67557 31.0309 2.90303 30.4113 2.36426Z" fill="#D1C6A1"/>
                    <path d="M30.2552 1.56162C30.8694 1.68015 30.9178 3.846 30.9178 3.846C30.5947 4.04906 30.2219 4.15905 29.8403 4.16387C29.4822 4.0206 29.1602 3.79981 28.8975 3.51735C28.8975 3.51735 29.8888 1.48619 30.2552 1.56162Z" fill="#56575A"/>
                    <path d="M1.80273 17.3316C7.55678 21.3454 13.494 25.1329 19.3989 28.9474C19.3989 28.9474 20.762 29.3192 21.2738 28.6457C21.7856 27.9722 21.0637 26.7438 21.0691 26.7384C15.8592 22.0566 10.6547 17.3585 5.27779 12.8867L1.80273 17.3316Z" fill="#FF942D"/>
                    <path d="M3.60219 15.1006L2.52466 16.5391L3.82848 17.5412C9.29697 21.4473 14.8571 25.2348 20.3956 29.0385C20.565 29.0411 20.7329 29.0073 20.8881 28.9394C21.0433 28.8716 21.1822 28.7713 21.2953 28.6452C15.9615 24.5793 10.6152 20.5224 5.25621 16.4744L3.60219 15.1006Z" fill="#DE8F3C"/>
                    <path d="M3.6076 15.1011L3.54834 15.1766C9.45324 19.6771 15.3581 24.1668 21.263 28.6458C21.3525 28.5058 21.4113 28.3484 21.4354 28.184C21.4596 28.0196 21.4485 27.852 21.4031 27.6922C15.9185 23.021 10.423 18.3391 4.79289 13.8135L3.6076 15.1011Z" fill="#E19648"/>
                    <path d="M5.26162 12.8652L4.89526 13.404L5.9728 14.7563C11.1827 19.0072 16.3118 23.3766 21.4408 27.7298C21.3699 27.3842 21.2502 27.0504 21.0852 26.7385C15.8592 22.0512 10.6439 17.3424 5.26162 12.8652Z" fill="#FF942D"/>
                    <path d="M3.81776 17.5415C2.91263 16.464 4.72289 16.0761 5.24549 16.464C4.77137 16.0276 5.39635 14.3089 5.96744 14.7453C5.26704 14.1149 5.08386 12.9243 5.28859 12.8758C5.2401 12.8381 5.20239 12.7842 5.14313 12.768C3.23589 12.2293 0.908407 12.2616 0.515106 12.768C0.121805 13.2745 0.999997 15.7582 1.79199 17.2883C1.79199 17.326 1.79199 17.2883 1.84048 17.3314C2.15367 17.1661 2.50898 17.0979 2.86112 17.1353C3.21326 17.1727 3.54628 17.3141 3.81776 17.5415V17.5415Z" fill="#E8E0C1"/>
                    <path d="M5.24543 16.4742L5.20232 16.4204C4.12479 15.456 1.81347 13.7265 1.81347 13.7265C1.81347 13.7265 1.68955 13.5487 1.33936 13.8289C1.70857 15.3183 2.58484 16.6327 3.81769 17.5464V17.5464C2.91256 16.4742 4.72282 16.0756 5.24543 16.4742Z" fill="#DED6B9"/>
                    <path d="M1.93205 13.0481C0.127175 12.8596 1.93205 13.8132 1.93205 13.8132L5.21315 16.4477C4.78213 15.979 5.39633 14.3304 5.95665 14.756L5.90816 14.7129C5.1916 14.255 3.34901 13.1936 1.93205 13.0481Z" fill="#D6CCAB"/>
                    <path d="M0.816772 12.6012C0.91184 12.7243 1.03331 12.8245 1.17225 12.8945C1.31118 12.9644 1.46403 13.0023 1.61954 13.0053C2.77789 13.1346 4.85215 14.2013 5.76805 14.7024C5.83972 14.702 5.90961 14.7247 5.9674 14.7671V14.7671C5.267 14.1367 5.08382 12.946 5.28855 12.8975C5.24006 12.8598 5.20235 12.8059 5.14308 12.7898C3.52139 12.3372 1.5926 12.2833 0.816772 12.6012Z" fill="#D1B8A1"/>
                    <path d="M0.0248204 12.3753C0.407346 11.8796 2.36846 12.7901 2.36846 12.7901C2.40645 13.1593 2.34312 13.5318 2.18528 13.8677C1.89801 14.1173 1.55968 14.3012 1.19395 14.4064C1.19395 14.4064 -0.201462 12.677 0.0248204 12.3753Z" fill="#56575A"/>
                    <g style="mix-blend-mode:multiply" opacity="0.5">
                    <path d="M21.2846 28.6452C21.7857 27.9879 21.0745 26.7433 21.0799 26.7379C17.5725 23.5861 14.0759 20.4343 10.5146 17.3418V17.4334C11.1127 19.1197 11.1827 22.0506 11.1773 23.6346C13.9035 25.4179 16.6458 27.1797 19.3828 28.9469C19.4151 28.9415 20.7728 29.3025 21.2846 28.6452Z" fill="#DBDBDB"/>
                    </g>
                    <g style="mix-blend-mode:multiply" opacity="0.5">
                    <path d="M37.6039 18.867C33.9241 22.9939 29.3122 27.9937 26.1928 31.3287L25.9288 31.4418C25.6839 31.5366 25.4258 31.5929 25.1637 31.6088V31.6088C25.1028 31.6142 25.0415 31.6142 24.9805 31.6088H24.9482C24.8874 31.5991 24.8278 31.5828 24.7704 31.5603H24.7327C24.6741 31.5333 24.6182 31.5008 24.5657 31.4634C24.5153 31.4202 24.4701 31.3714 24.431 31.3179V31.291C24.398 31.2376 24.3692 31.1817 24.3448 31.1239V31.0916C24.2381 30.6891 24.2381 30.2657 24.3448 29.8632C24.765 29.2221 25.2337 28.5325 25.7348 27.8105C26.2359 27.0886 26.7638 26.3181 27.3188 25.5315C29.6786 22.1804 32.4155 18.4252 34.6945 15.2949C35.829 16.3414 36.8086 17.5442 37.6039 18.867V18.867Z" fill="#B0B0B0"/>
                    </g>
                    <path d="M35.7452 10.0088C32.5503 15.515 27.238 24.3723 24.2425 30.0025C24.2425 30.0025 24.027 31.274 24.7058 31.7104C25.3847 32.1468 26.4622 31.414 26.4676 31.4194C30.3413 26.382 36.5749 18.1496 40.2331 12.972L35.7452 10.0088Z" fill="#4DD6CB"/>
                    <path d="M37.9918 11.5234L36.5425 10.5967L35.7451 11.8682C32.6203 17.0996 27.2703 25.6122 24.2478 30.9029C24.2633 31.0621 24.312 31.2164 24.3909 31.3556C24.4698 31.4948 24.5771 31.6159 24.7058 31.711C27.9922 26.5927 33.6062 18.2418 36.8765 13.1235L37.9918 11.5234Z" fill="#39B7AB"/>
                    <path d="M37.9918 11.5226L37.9164 11.4688C34.2851 17.1366 28.3101 26.0155 24.6735 31.6726C24.8109 31.7469 24.962 31.7925 25.1177 31.8064C25.2733 31.8203 25.4302 31.8022 25.5786 31.7534C29.4092 26.4411 35.5997 17.934 39.2902 12.5247L37.9918 11.5226Z" fill="#2E998C"/>
                    <path d="M40.2385 12.9458L39.6998 12.6387L38.5414 13.7162C35.0718 18.7375 29.1345 26.8783 25.5625 31.8296C25.8778 31.7466 26.1791 31.6177 26.4569 31.4471C30.3575 26.3719 36.5749 18.1287 40.2385 12.9458Z" fill="#257F72"/>
                    <path d="M35.7452 11.8678C36.6557 10.9788 37.1998 12.6221 36.8766 13.1231C37.2376 12.6652 38.9023 13.1231 38.5521 13.6889C39.0909 13.0154 40.1685 12.7837 40.2331 12.9723C40.2331 12.9238 40.3085 12.8861 40.3193 12.8322C40.6156 11.0489 40.384 8.90997 39.8667 8.57594C39.3495 8.2419 37.1244 9.18475 35.7667 9.9929C35.7344 9.9929 35.7667 9.9929 35.729 10.0414C35.9156 10.3087 36.0169 10.6261 36.0198 10.9521C36.0227 11.278 35.927 11.5972 35.7452 11.8678V11.8678Z" fill="#C4B4A3"/>
                    <path d="M36.8658 13.1393L36.9143 13.0962C37.7117 12.0618 39.1125 9.86363 39.1125 9.86363C39.1125 9.86363 39.2633 9.73972 38.967 9.43262C37.6231 9.83649 36.4733 10.718 35.7344 11.911V11.911C36.6449 10.9843 37.189 12.6006 36.8658 13.1393Z" fill="#BBAB9B"/>
                    <path d="M39.7482 9.9067C39.7482 8.23651 39.037 9.95518 39.037 9.95518L36.882 13.1124C37.2806 12.6921 38.8808 13.1662 38.536 13.6996L38.5737 13.6565C38.9347 12.9561 39.7482 11.2051 39.7482 9.9067Z" fill="#B3A18F"/>
                    <path d="M40.0552 8.83008C39.9476 8.92335 39.8636 9.04086 39.8102 9.17292C39.7568 9.30499 39.7355 9.44785 39.7481 9.58974C39.7481 10.6673 38.9454 12.6284 38.5682 13.4904C38.5746 13.5546 38.5594 13.619 38.5251 13.6736V13.6736C39.0639 13.0001 40.1414 12.7685 40.2061 12.957C40.2436 12.9163 40.2728 12.8688 40.2923 12.817C40.5617 11.3138 40.427 9.54125 40.0552 8.83008Z" fill="#AE9A86"/>
                    <path d="M40.19 8.10783C40.6965 8.43109 40.0338 10.2629 40.0338 10.2629C39.6851 10.3177 39.328 10.2786 38.9994 10.1498C38.73 9.90561 38.5168 9.60601 38.3744 9.27157C38.3744 9.27157 39.8937 7.91388 40.19 8.10783Z" fill="#56575A"/>
                    <g style="mix-blend-mode:multiply" opacity="0.5">
                    <path d="M22.0713 31.8833C22.0592 31.8927 22.0483 31.9036 22.0389 31.9156C21.9914 31.9593 21.939 31.9973 21.8827 32.0288C21.8225 32.0616 21.7594 32.0887 21.6941 32.1096H21.651H21.4624H21.3385C20.9654 32.0606 20.6081 31.928 20.2933 31.7217C17.5995 27.8318 13.7904 21.6898 10.9026 17.0833C10.9996 16.9648 11.1019 16.8355 11.2043 16.717C12.0346 15.7497 12.9707 14.8787 13.9951 14.1201C16.5306 18.2183 18.8051 22.4722 20.8051 26.8566C21.4086 28.1658 21.9689 29.3996 22.4592 30.4825C22.4639 30.5758 22.4639 30.6693 22.4592 30.7627C22.4492 31.018 22.3945 31.2697 22.2975 31.5062V31.5062C22.2975 31.5654 22.2383 31.6193 22.2113 31.6732C22.1769 31.7506 22.1295 31.8217 22.0713 31.8833Z" fill="#B0B0B0"/>
                    </g>
                    <path d="M6.70557 15.0408C10.353 19.7981 16.1556 27.6048 20.0024 32.2275C20.0024 32.2275 21.0799 32.8471 21.748 32.373C22.416 31.8988 22.2221 30.6758 22.2275 30.6758C19.2858 25.4552 14.4423 17.0181 11.2851 11.9482L6.70557 15.0408Z" fill="#4DD6CB"/>
                    <path d="M9.04377 13.501L7.59448 14.5085L8.38647 15.6668C11.8184 20.2679 17.2923 27.9938 20.8212 32.5195C20.9759 32.5571 21.1366 32.5637 21.2938 32.5387C21.451 32.5137 21.6017 32.4578 21.7371 32.374C18.5045 27.6652 13.2731 19.7561 9.992 15.0526L9.04377 13.501Z" fill="#39B7AB"/>
                    <path d="M9.04381 13.5006L8.96838 13.5545C12.5835 18.7643 18.1274 27.1799 21.7264 32.4113C21.8524 32.3164 21.9575 32.1967 22.0354 32.0596C22.1132 31.9224 22.1621 31.7708 22.179 31.614C18.9464 26.3448 13.8604 17.8538 10.5093 12.6816L9.04381 13.5006Z" fill="#2E998C"/>
                    <path d="M11.2635 11.9219L10.7571 12.3098C10.9187 12.7839 11.075 13.2526 11.2258 13.7214C14.3237 18.5703 19.2104 26.7003 22.1951 31.6139C22.2528 31.3048 22.2637 30.9887 22.2275 30.6764C19.2804 25.4503 14.4315 17.0025 11.2635 11.9219Z" fill="#257F72"/>
                    <path d="M8.38645 15.6668C7.96621 14.5408 9.68488 14.5893 10.0028 15.0526C9.73876 14.5731 10.8809 13.2208 11.2258 13.7218C10.8325 13.0214 11.0857 11.9439 11.285 11.9493C11.2527 11.9062 11.2419 11.8523 11.1934 11.8254C9.70104 10.9526 7.65911 10.4461 7.1419 10.8071C6.62468 11.1681 6.53309 13.5009 6.69472 15.0149C6.69472 15.0526 6.69472 15.0418 6.72166 15.0634C7.02762 14.9837 7.35055 14.9987 7.64779 15.1065C7.94503 15.2142 8.20259 15.4096 8.38645 15.6668V15.6668Z" fill="#C4B4A3"/>
                    <path d="M10.0028 15.0516V14.9977C9.39934 13.9202 7.9716 11.9052 7.9716 11.9052C7.9716 11.9052 7.92312 11.7274 7.51904 11.9052C7.30813 13.2295 7.6254 14.5837 8.40262 15.6766V15.6766C7.96622 14.5398 9.68489 14.5936 10.0028 15.0516Z" fill="#BBAB9B"/>
                    <path d="M8.26801 11.3511C6.75407 10.7854 8.01479 12.0138 8.01479 12.0138L9.9759 15.0308C9.7604 14.5244 10.8649 13.2314 11.2043 13.7216V13.6732C10.7248 13.1398 9.48024 11.7875 8.26801 11.3511Z" fill="#B3A18F"/>
                    <path d="M7.47058 10.7049C7.50739 10.833 7.57614 10.9497 7.67038 11.0439C7.76462 11.1381 7.88126 11.2069 8.00935 11.2437C8.97913 11.6154 10.4284 12.9947 11.0534 13.6304C11.0832 13.6371 11.1114 13.6495 11.1363 13.6671C11.1613 13.6847 11.1825 13.707 11.1989 13.7328V13.7328C10.8056 13.0324 11.0588 11.9549 11.2581 11.9602C11.2258 11.9171 11.215 11.8633 11.1665 11.8363C9.92198 11.0821 8.26796 10.6079 7.47058 10.7049Z" fill="#AE9A86"/>
                    <path d="M6.85637 10.3441C7.36281 9.99386 8.7636 11.2223 8.7636 11.2223C8.66356 11.5647 8.47818 11.8762 8.22484 12.1274C7.88795 12.2902 7.52116 12.3819 7.1473 12.3968C7.1473 12.3968 6.55466 10.5542 6.85637 10.3441Z" fill="#56575A"/>
                    <g style="mix-blend-mode:multiply" opacity="0.5">
                    <path d="M23.3858 34.383C23.3391 34.4285 23.2887 34.4699 23.235 34.5069H23.2027C23.1493 34.5399 23.0935 34.5687 23.0356 34.5931H22.9979C22.9418 34.634 22.8801 34.6667 22.8148 34.6901C22.7466 34.6954 22.6782 34.6954 22.61 34.6901H22.5723C22.5099 34.6757 22.45 34.6521 22.3945 34.62H22.3622C22.0026 34.3526 21.714 34.0011 21.5217 33.5964C21.4678 33.1546 21.414 32.6859 21.3547 32.2064C21.1769 30.5901 20.9937 28.8229 20.8159 26.9534C20.7297 26.059 20.6543 25.1485 20.5681 24.2595C20.261 20.736 19.9647 17.0939 19.7007 13.9152C19.636 13.1178 19.5714 12.3528 19.5067 11.6254C21.1254 11.1937 22.8006 11.012 24.4742 11.0866C24.4742 17.5519 24.2155 27.3413 24.0054 33.4725C24.0054 33.4725 23.9569 33.591 23.8761 33.758C23.7476 33.9915 23.582 34.2026 23.3858 34.383Z" fill="#B0B0B0"/>
                    </g>
                    <path d="M17.2493 8.73856C18.3268 15.6725 19.9862 26.9489 21.3277 33.8559C21.3277 33.8559 21.9958 35.0951 22.8201 34.9981C23.6444 34.9011 24.0162 33.5273 24.0216 33.5273C23.763 26.5233 23.2619 15.1445 22.7447 8.17285L17.2493 8.73856Z" fill="#6C91B8"/>
                    <path d="M20.0401 8.49023L18.2837 8.69497C18.343 9.23374 18.4076 9.77251 18.4669 10.3113C19.4474 16.9597 20.8321 27.9667 21.9312 34.5989C22.043 34.7226 22.1805 34.8204 22.334 34.8856C22.4876 34.9507 22.6534 34.9816 22.8201 34.9761C22.0443 28.3115 20.9883 17.2668 20.1909 10.6022C20.1209 9.90719 20.0886 9.20141 20.0401 8.49023Z" fill="#507CAB"/>
                    <path d="M20.0401 8.48982H19.9485C20.8105 15.8656 21.9365 27.6161 22.7932 34.9864H22.8147C22.9739 34.9561 23.1249 34.8924 23.2577 34.7996C23.3904 34.7067 23.5021 34.5868 23.5852 34.4477C23.1111 27.2443 22.3945 15.6554 21.7534 8.46289L20.0401 8.48982Z" fill="#4371A1"/>
                    <path d="M22.7393 8.13477L22.109 8.2479C22.0389 8.81361 21.9635 9.3847 21.8881 9.9558C22.4268 16.6581 23.1272 27.7352 23.5636 34.4751C23.7605 34.1824 23.9147 33.8631 24.0216 33.5269C23.763 26.5121 23.2619 15.1226 22.7393 8.13477Z" fill="#386B9C"/>
                    <path d="M18.4669 10.3324C18.5962 8.94241 20.0832 9.97146 20.1856 10.6234C20.1856 9.97685 21.8019 9.24412 21.8827 9.9553C21.8503 9.01245 22.5669 8.05345 22.7393 8.17198C22.7441 8.10967 22.7349 8.0471 22.7124 7.9888C21.7749 6.25396 20.1856 4.57839 19.5552 4.65382C19.0164 4.71309 17.7826 7.07828 17.2493 8.71075C17.2493 8.74846 17.2493 8.73768 17.2493 8.77539C17.5843 8.88405 17.8792 9.09033 18.0961 9.36776C18.3131 9.64519 18.4422 9.98111 18.4669 10.3324V10.3324Z" fill="#C4B4A3"/>
                    <path d="M20.1909 10.6232C20.1884 10.5999 20.1884 10.5764 20.1909 10.5532C20.1371 9.11465 19.7815 6.24302 19.7815 6.24302C19.7815 6.24302 19.8192 6.0329 19.3828 5.97363C18.5854 7.28013 18.2585 8.81988 18.4561 10.3377V10.3377C18.6016 8.94225 20.1209 9.9713 20.1909 10.6232Z" fill="#BBAB9B"/>
                    <path d="M20.3418 5.86092C19.2643 4.4278 19.803 6.39969 19.803 6.39969C19.9269 7.80049 20.0562 9.1959 20.1856 10.5967C20.2233 9.96095 21.8019 9.26055 21.8773 9.96095C21.8773 9.96095 21.8773 9.91246 21.8773 9.89091C21.7372 9.04504 21.1984 6.98156 20.3418 5.86092Z" fill="#B3A18F"/>
                    <path d="M19.9054 4.73438C19.8845 4.8886 19.8973 5.04552 19.9429 5.19433C19.9884 5.34314 20.0657 5.48031 20.1693 5.59641C20.8644 6.52309 21.5324 8.75898 21.7857 9.76648C21.8123 9.79026 21.8336 9.81929 21.8485 9.85174C21.8633 9.8842 21.8713 9.91936 21.8719 9.95504V9.95504C21.8395 9.0122 22.5561 8.05319 22.7285 8.17172C22.7332 8.10942 22.724 8.04684 22.7016 7.98854C21.9257 6.51231 20.6596 5.08457 19.9054 4.73438Z" fill="#AE9A86"/>
                    <path d="M19.5174 4.01836C20.1262 3.94832 20.8212 5.99564 20.8212 5.99564C20.8212 5.99564 20.3256 6.57211 19.9323 6.6206C19.5529 6.59354 19.1846 6.48119 18.8547 6.29195C18.8547 6.29195 19.1511 4.06146 19.5174 4.01836Z" fill="#56575A"/>
                    <g style="mix-blend-mode:multiply" opacity="0.5">
                    <path d="M25.0183 17.1962C24.6592 20.2169 24.3 23.2411 23.9408 26.269C23.9408 26.269 24.2102 27.6537 25.0183 27.8153C25.8265 27.9769 26.6346 26.7862 26.6346 26.7916C27.9762 22.0289 29.3285 17.2608 30.573 12.4766C30.4491 12.7136 27.4105 17.0669 25.0183 17.1962Z" fill="#DBDBDB"/>
                    </g>
                    <g style="mix-blend-mode:multiply" opacity="0.5">
                    <path d="M24.2317 30.0038C24.2317 30.0038 24.0162 31.2753 24.6951 31.7117C25.3739 32.1481 26.4514 31.4153 26.4568 31.4207C28.3102 29.0124 30.7023 25.866 33.0945 22.6819C29.1722 24.4545 28.7412 22.1162 28.7412 22.1162H28.6873C27.001 24.9932 25.4278 27.7517 24.2317 30.0038Z" fill="#DBDBDB"/>
                    </g>
                    <g style="mix-blend-mode:multiply" opacity="0.5">
                    <path d="M24.0215 33.5261C23.9192 30.7784 23.7791 27.3464 23.6174 23.7744C22.6423 26.7915 19.8461 25.423 19.8461 25.423C20.3471 28.5156 20.8536 31.4519 21.3169 33.8548C21.3169 33.8548 21.985 35.0939 22.8093 34.997C23.6336 34.9 24.0161 33.5261 24.0215 33.5261Z" fill="#DBDBDB"/>
                    </g>
                    <g style="mix-blend-mode:multiply" opacity="0.5">
                    <path d="M20.0023 32.2288C20.0023 32.2288 21.0799 32.8484 21.7479 32.3742C22.416 31.9001 22.222 30.6771 22.2274 30.6771C20.7243 28.0102 18.7254 24.5082 16.7104 21.0439C17.3677 24.1526 14.0166 24.6752 14.0166 24.6752C16.1717 27.4553 18.2836 30.1599 20.0023 32.2288Z" fill="#DBDBDB"/>
                    </g>
                </svg>