<svg class="phone" width="38" height="50" viewBox="0 0 38 50" fill="none" xmlns="http://www.w3.org/2000/svg">
                    <path d="M10.2636 4.88769L0.972988 42.2059C0.753023 43.0894 1.29096 43.984 2.1745 44.2039L23.8554 49.6016C24.739 49.8215 25.6335 49.2836 25.8535 48.4001L35.1441 11.0819C35.3641 10.1983 34.8262 9.30376 33.9426 9.0838L12.2617 3.68617C11.3782 3.46621 10.4836 4.00414 10.2636 4.88769Z" fill="#003A66"/>
                    <path d="M36.3091 6.29032L13.6139 0.640192C13.0104 0.489955 12.3994 0.857368 12.2492 1.46084L2.12167 42.1407C1.97143 42.7441 2.33884 43.3552 2.94231 43.5054L25.6375 49.1555C26.241 49.3058 26.852 48.9383 27.0022 48.3349L37.1297 7.65502C37.28 7.05156 36.9126 6.44056 36.3091 6.29032Z" fill="#555E64"/>
                    <path d="M35.2801 9.68825L12.9299 4.12402L4.15863 39.3562L26.5088 44.9204L35.2801 9.68825Z" fill="#88CCD9"/>
                    <g style="mix-blend-mode:multiply" opacity="0.24">
                    <path d="M35.2801 9.68825L12.9299 4.12402L4.15863 39.3562L26.5088 44.9204L35.2801 9.68825Z" fill="#009DD8"/>
                    </g>
                    <path d="M3.64294 39.6692L12.6242 3.59863L35.7912 9.37423L26.8154 45.4394L3.64294 39.6692ZM13.0444 4.3583L4.37566 39.1951L26.4059 44.6797L35.0855 9.84295L13.0444 4.3583Z" fill="#86D1D1"/>
                    <path d="M27.047 6.07779L21.8694 4.79015C21.8128 4.77644 21.7596 4.75141 21.713 4.71658C21.6664 4.68176 21.6273 4.63784 21.5981 4.5875C21.5689 4.53715 21.5502 4.48141 21.5431 4.42364C21.536 4.36587 21.5407 4.30728 21.5569 4.25138V4.25138C21.5706 4.19481 21.5956 4.14161 21.6305 4.09498C21.6653 4.04835 21.7092 4.00925 21.7596 3.98005C21.8099 3.95085 21.8656 3.93215 21.9234 3.92507C21.9812 3.918 22.0398 3.92269 22.0957 3.93888L27.2732 5.22655C27.3299 5.24033 27.3832 5.26533 27.4301 5.30007C27.4769 5.33482 27.5163 5.37859 27.5459 5.42881C27.5756 5.47904 27.5948 5.5347 27.6026 5.59249C27.6104 5.65029 27.6065 5.70905 27.5911 5.76531V5.76531C27.5775 5.82248 27.5523 5.87625 27.5171 5.92332C27.4819 5.9704 27.4375 6.00977 27.3865 6.03904C27.3356 6.06831 27.2791 6.08685 27.2207 6.09351C27.1624 6.10018 27.1032 6.09483 27.047 6.07779V6.07779Z" fill="#808080"/>
                    <path d="M16.0938 2.89871C16.0645 2.99918 16.0065 3.08893 15.927 3.157C15.8475 3.22507 15.7499 3.26852 15.6461 3.28202C15.5423 3.29553 15.4369 3.27851 15.3426 3.23304C15.2483 3.18758 15.1693 3.11565 15.1153 3.02602C15.0612 2.9364 15.0344 2.83297 15.0382 2.72838C15.042 2.62378 15.0761 2.52255 15.1364 2.43704C15.1968 2.35154 15.2808 2.28548 15.3781 2.24691C15.4754 2.20834 15.5818 2.19893 15.6843 2.21986C15.7573 2.23476 15.8264 2.26463 15.8873 2.3076C15.9482 2.35056 15.9995 2.40569 16.038 2.46948C16.0764 2.53328 16.1013 2.60437 16.1109 2.67825C16.1205 2.75213 16.1147 2.8272 16.0938 2.89871Z" fill="#808080"/>
                    <path d="M15.4365 44.653C15.3832 44.8582 15.2706 45.0432 15.1127 45.1847C14.9549 45.3262 14.7587 45.4179 14.5489 45.4485C14.3391 45.4791 14.125 45.4471 13.9333 45.3565C13.7416 45.266 13.5809 45.1209 13.4713 44.9394C13.3616 44.7579 13.308 44.5481 13.317 44.3363C13.3261 44.1245 13.3974 43.9201 13.522 43.7486C13.6467 43.5771 13.8192 43.4462 14.0179 43.3723C14.2166 43.2984 14.4327 43.2847 14.6391 43.333C14.7791 43.3658 14.911 43.4262 15.0272 43.5107C15.1434 43.5952 15.2416 43.7021 15.3159 43.8251C15.3902 43.9481 15.4391 44.0847 15.4599 44.2269C15.4806 44.369 15.4726 44.514 15.4365 44.653Z" fill="#808080"/>
                    <g style="mix-blend-mode:multiply" opacity="0.24">
                    <path d="M34.7723 9.97557L13.2559 4.63086L12.4584 7.84132L33.9748 13.186L34.7723 9.97557Z" fill="#006AA7"/>
                    </g>
                    <path d="M14.0465 13.5452L12.9043 13.2651L14.0519 12.6562L14.0465 13.5452Z" fill="white"/>
                    <path d="M23.196 13.1049L14.4901 10.9424L13.8576 13.4888L22.5635 15.6514L23.196 13.1049Z" fill="white"/>
                    <path d="M11.8807 22.2508L10.7385 21.9652L11.8915 21.3564L11.8807 22.2508Z" fill="white"/>
                    <path d="M21.0328 21.809L12.3269 19.6465L11.6944 22.1929L20.4003 24.3555L21.0328 21.809Z" fill="white"/>
                    <path d="M28.2754 22.3213L29.4176 22.6068L28.6849 21.5293L28.2754 22.3213Z" fill="#9EE8FF"/>
                    <path d="M19.7571 20.2134L28.463 22.376L29.393 18.6322L20.6871 16.4696L19.7571 20.2134Z" fill="#9EE8FF"/>
                    <path d="M10.1351 31.2923L8.99292 31.0121L10.1459 30.4033L10.1351 31.2923Z" fill="white"/>
                    <path d="M19.5862 29.6518L10.8802 27.4893L9.95028 31.2331L18.6562 33.3956L19.5862 29.6518Z" fill="white"/>
                    <path d="M26.3519 30.0786L27.4887 30.3641L26.756 29.292L26.3519 30.0786Z" fill="#9EE8FF"/>
                    <path d="M17.834 27.981L26.5399 30.1436L27.2062 27.4612L18.5003 25.2986L17.834 27.981Z" fill="#9EE8FF"/>
                    <g style="mix-blend-mode:multiply" opacity="0.24">
                    <path d="M27.1597 40.5853L5.63806 35.2393L4.69251 39.0458L26.2142 44.3918L27.1597 40.5853Z" fill="#0053BB"/>
                    </g>
                    <path d="M25.7718 41.5424L22.1848 40.6514L21.8017 42.1939L25.3886 43.0849L25.7718 41.5424Z" fill="#9EE8FF"/>
                    <path d="M20.8935 40.3309L6.44641 36.7422L6.06325 38.2847L20.5104 41.8734L20.8935 40.3309Z" fill="#75C4DC"/>
                    <path d="M20.6926 13.555L19.4583 13.25L19.3148 13.8306L20.5492 14.1356L20.6926 13.555Z" fill="#D4D3DB"/>
                    <path d="M18.9562 13.1149L17.9102 12.8564L17.7667 13.437L18.8128 13.6955L18.9562 13.1149Z" fill="#D4D3DB"/>
                    <path d="M17.4282 12.7502L15.9219 12.3779L15.7784 12.9585L17.2848 13.3307L17.4282 12.7502Z" fill="#D4D3DB"/>
                    <path d="M19.5915 22.5154L18.6082 22.2725L18.4647 22.853L19.448 23.096L19.5915 22.5154Z" fill="#D4D3DB"/>
                    <path d="M18.0177 22.126L15.7373 21.5625L15.5938 22.1431L17.8743 22.7066L18.0177 22.126Z" fill="#D4D3DB"/>
                    <path d="M15.2705 21.4435L13.7642 21.0713L13.6207 21.6519L15.127 22.0241L15.2705 21.4435Z" fill="#D4D3DB"/>
                    <path d="M27.4936 20.5085L25.0249 19.8984L24.8814 20.479L27.3502 21.0891L27.4936 20.5085Z" fill="white"/>
                    <path d="M24.5099 19.7731L23.4639 19.5146L23.3204 20.0952L24.3665 20.3537L24.5099 19.7731Z" fill="white"/>
                    <path d="M27.8087 19.2558L26.9038 19.0322L26.7603 19.6128L27.6652 19.8364L27.8087 19.2558Z" fill="white"/>
                    <path d="M26.424 18.9219L23.7722 18.2666L23.6288 18.8472L26.2806 19.5024L26.424 18.9219Z" fill="white"/>
                    <path d="M23.3104 18.1437L21.8041 17.7715L21.6606 18.3521L23.167 18.7243L23.3104 18.1437Z" fill="white"/>
                    <path d="M15.5935 31.0533L14.5004 30.7832L14.3569 31.3638L15.45 31.6339L15.5935 31.0533Z" fill="#D4D3DB"/>
                    <path d="M14.0863 30.6861L11.5862 30.0684L11.4427 30.6489L13.9428 31.2667L14.0863 30.6861Z" fill="#D4D3DB"/>
                    <path d="M18.0091 30.3006L17.1042 30.0771L16.9609 30.6577L17.8658 30.8812L18.0091 30.3006Z" fill="#D4D3DB"/>
                    <path d="M16.5969 29.9791L14.6146 29.4893L14.4712 30.0698L16.4535 30.5597L16.5969 29.9791Z" fill="#D4D3DB"/>
                    <path d="M14.1235 29.3694L12.6486 29.0049L12.5051 29.5854L13.9801 29.9499L14.1235 29.3694Z" fill="#D4D3DB"/>
                    <path d="M8.31918 37.7428L6.87036 37.3848L6.7269 37.9653L8.17572 38.3234L8.31918 37.7428Z" fill="white"/>
                    <path d="M11.3979 38.5027L8.99194 37.9082L8.84848 38.4888L11.2545 39.0833L11.3979 38.5027Z" fill="white"/>
                    <path d="M11.9016 40.2009L12.4961 37.7949L12.3549 37.76L11.7604 40.166L11.9016 40.2009Z" fill="white"/>
                    <path d="M25.5786 28.2253L22.9478 27.5752L22.8043 28.1558L25.4352 28.8059L25.5786 28.2253Z" fill="white"/>
                    <path d="M22.2738 27.4131L21.2225 27.1533L21.0791 27.7339L22.1304 27.9937L22.2738 27.4131Z" fill="white"/>
                    <path d="M20.5608 26.9793L19.5775 26.7363L19.4341 27.3169L20.4174 27.5599L20.5608 26.9793Z" fill="white"/>
                    <path d="M23.6851 37.0033C23.6731 37.0496 23.6477 37.0913 23.6122 37.1232C23.5766 37.1551 23.5324 37.1757 23.4851 37.1826C23.4378 37.1894 23.3895 37.1821 23.3463 37.1616C23.3032 37.1412 23.267 37.1084 23.2424 37.0674C23.2178 37.0264 23.2059 36.9791 23.2081 36.9313C23.2104 36.8836 23.2267 36.8376 23.255 36.7991C23.2833 36.7606 23.3223 36.7313 23.3672 36.7149C23.4121 36.6985 23.4608 36.6958 23.5073 36.707C23.5697 36.7235 23.6231 36.7637 23.6563 36.819C23.6895 36.8744 23.6998 36.9405 23.6851 37.0033Z" fill="#9EE8FF"/>
                    <path d="M24.9081 37.3101C24.8952 37.3558 24.8692 37.3968 24.8332 37.4278C24.7973 37.4589 24.753 37.4787 24.7059 37.4848C24.6588 37.4909 24.6109 37.4831 24.5682 37.4622C24.5256 37.4414 24.4899 37.4084 24.4658 37.3675C24.4417 37.3266 24.4301 37.2794 24.4326 37.232C24.435 37.1846 24.4513 37.1389 24.4795 37.1006C24.5076 37.0624 24.5464 37.0332 24.591 37.0168C24.6356 37.0005 24.684 36.9975 24.7303 37.0084C24.7938 37.0249 24.8482 37.0659 24.8816 37.1225C24.9149 37.1791 24.9244 37.2465 24.9081 37.3101V37.3101Z" fill="#9EE8FF"/>
                    <path d="M26.1311 37.6112C26.1235 37.6425 26.1098 37.6719 26.0908 37.6979C26.0717 37.7238 26.0477 37.7456 26.0201 37.7622C25.9926 37.7787 25.962 37.7896 25.9301 37.7942C25.8983 37.7988 25.8659 37.7971 25.8347 37.789C25.7719 37.7733 25.7178 37.7333 25.6845 37.6777C25.6511 37.6221 25.6412 37.5556 25.657 37.4927C25.6727 37.4298 25.7127 37.3758 25.7683 37.3424C25.8239 37.3091 25.8904 37.2992 25.9533 37.3149C25.9849 37.3218 26.0148 37.335 26.0411 37.3539C26.0675 37.3728 26.0896 37.3969 26.1063 37.4246C26.1229 37.4524 26.1337 37.4833 26.138 37.5154C26.1423 37.5475 26.1399 37.5801 26.1311 37.6112V37.6112Z" fill="#9EE8FF"/>
                    <path d="M32.2892 11.7939L29.8324 11.1797C29.7988 11.1709 29.7672 11.1556 29.7395 11.1346C29.7118 11.1136 29.6885 11.0873 29.671 11.0572C29.6535 11.0272 29.642 10.994 29.6374 10.9595C29.6327 10.9251 29.6349 10.89 29.6439 10.8564L29.854 10.0267C29.861 9.99274 29.8747 9.9605 29.8943 9.93182C29.9138 9.90314 29.9388 9.87859 29.9678 9.85958C29.9968 9.84056 30.0293 9.82746 30.0634 9.82101C30.0975 9.81456 30.1325 9.81489 30.1665 9.82199L32.6232 10.4308C32.7779 10.4955 32.9037 10.6143 32.977 10.7651C33.0504 10.9158 33.0664 11.0881 33.0219 11.2497C32.9803 11.4104 32.8848 11.5521 32.7515 11.651C32.6183 11.75 32.4551 11.8004 32.2892 11.7939ZM30.1341 9.97822C30.1049 9.97352 30.075 9.98048 30.0508 9.99761C30.0266 10.0147 30.0101 10.0407 30.0048 10.0698L29.8001 10.8995C29.7917 10.9281 29.7949 10.9588 29.809 10.9851C29.8232 11.0113 29.847 11.0309 29.8755 11.0396L32.3323 11.643C32.4557 11.6384 32.5743 11.5946 32.6712 11.5181C32.768 11.4416 32.838 11.3363 32.8711 11.2174C32.9051 11.0955 32.8951 10.9656 32.8429 10.8503C32.7907 10.7351 32.6996 10.6418 32.5855 10.587L30.1341 9.97822Z" fill="#9FD4DB"/>
                    <path d="M30.2407 10.2783L30.1063 10.8223L30.6032 10.945L30.7376 10.4011L30.2407 10.2783Z" fill="#9FD4DB"/>
                    <path d="M30.9505 10.4521L30.816 10.9961L31.3129 11.1189L31.4473 10.5749L30.9505 10.4521Z" fill="#9FD4DB"/>
                    <path d="M31.6533 10.6289L31.5189 11.1729L32.0158 11.2956L32.1502 10.7517L31.6533 10.6289Z" fill="#9FD4DB"/>
                    <path d="M28.2107 9.62263C28.1926 9.61757 28.1771 9.60593 28.1671 9.58998C28.1571 9.57403 28.1535 9.55494 28.1569 9.53645L28.2 9.36943C28.205 9.35158 28.2169 9.33644 28.233 9.32735C28.2492 9.31827 28.2683 9.31595 28.2862 9.32093C28.3043 9.32599 28.3198 9.33765 28.3298 9.3536C28.3398 9.36954 28.3434 9.38863 28.3401 9.40713L28.2969 9.56877C28.295 9.57809 28.2913 9.58693 28.2859 9.59475C28.2804 9.60257 28.2735 9.60919 28.2654 9.61423C28.2574 9.61927 28.2484 9.62262 28.2389 9.62407C28.2295 9.62551 28.2199 9.62502 28.2107 9.62263V9.62263Z" fill="#9FD4DB"/>
                    <path d="M28.6902 10.2374C28.661 10.3554 28.5975 10.4621 28.5076 10.5439C28.4177 10.6257 28.3056 10.6791 28.1854 10.6971C28.0653 10.7152 27.9424 10.6972 27.8325 10.6455C27.7225 10.5937 27.6304 10.5105 27.5677 10.4063C27.5051 10.3022 27.4747 10.1818 27.4806 10.0604C27.4864 9.93901 27.5281 9.82207 27.6004 9.72439C27.6727 9.6267 27.7723 9.55265 27.8867 9.51163C28.0011 9.47061 28.1251 9.46445 28.2431 9.49394C28.4008 9.5334 28.5365 9.63383 28.6204 9.77322C28.7042 9.9126 28.7293 10.0796 28.6902 10.2374Z" fill="#9FD4DB"/>
                    <g style="mix-blend-mode:multiply" opacity="0.24">
                    <path d="M28.0814 10.1559C28.0717 10.1549 28.0623 10.1516 28.054 10.1464C28.0457 10.1412 28.0387 10.1342 28.0335 10.1259C28.0283 10.1176 28.0251 10.1083 28.024 10.0985C28.023 10.0888 28.0242 10.079 28.0275 10.0697L28.1299 9.64411C28.135 9.62486 28.1474 9.6084 28.1646 9.59831C28.1817 9.58821 28.2022 9.58531 28.2215 9.59023C28.2393 9.59526 28.2544 9.60715 28.2635 9.62331C28.2726 9.63947 28.2749 9.65858 28.27 9.67644L28.1676 10.1075C28.1626 10.1253 28.1507 10.1404 28.1345 10.1495C28.1184 10.1586 28.0993 10.1609 28.0814 10.1559V10.1559Z" fill="#006AA7"/>
                    </g>
                    <g style="mix-blend-mode:multiply" opacity="0.24">
                    <path d="M27.742 10.2363C27.7303 10.2317 27.7198 10.2244 27.7114 10.2151C27.703 10.2057 27.6969 10.1945 27.6935 10.1824C27.6902 10.1732 27.689 10.1633 27.6901 10.1536C27.6911 10.1439 27.6943 10.1345 27.6995 10.1262C27.7047 10.1179 27.7117 10.1109 27.72 10.1057C27.7283 10.1005 27.7377 10.0972 27.7474 10.0962L28.0814 10.0208C28.0908 10.017 28.1008 10.0152 28.1109 10.0157C28.121 10.0161 28.1308 10.0188 28.1398 10.0234C28.1488 10.028 28.1566 10.0345 28.1628 10.0424C28.1691 10.0503 28.1735 10.0595 28.1759 10.0693C28.1782 10.0791 28.1784 10.0893 28.1765 10.0992C28.1745 10.1091 28.1705 10.1185 28.1646 10.1266C28.1587 10.1348 28.1511 10.1416 28.1423 10.1466C28.1335 10.1516 28.1238 10.1546 28.1138 10.1555L27.7743 10.2363H27.742Z" fill="#006AA7"/>
                    </g>
                    <path d="M28.0815 9.32057C28.0815 9.36367 27.9683 9.3529 27.8282 9.396C27.6882 9.43911 27.5966 9.51454 27.5804 9.46605C27.5643 9.41756 27.6451 9.26131 27.7798 9.2236C27.9144 9.18588 28.0438 9.24514 28.0815 9.32057Z" fill="#9FD4DB"/>
                    <path d="M28.4801 9.42856C28.4532 9.4555 28.5663 9.50398 28.6687 9.60635C28.771 9.70872 28.8195 9.82187 28.8572 9.78415C28.8807 9.73278 28.8872 9.67522 28.8755 9.61995C28.8639 9.56467 28.8348 9.51459 28.7926 9.47705C28.7543 9.43384 28.7022 9.40534 28.6451 9.39649C28.588 9.38763 28.5297 9.39898 28.4801 9.42856V9.42856Z" fill="#9FD4DB"/>
                    <path d="M28.3724 10.8835C28.3616 10.8803 28.3517 10.8748 28.3433 10.8674C28.3349 10.8599 28.3283 10.8507 28.3239 10.8403L28.2646 10.711C28.2595 10.693 28.2604 10.6737 28.2672 10.6562C28.274 10.6387 28.2864 10.6239 28.3024 10.6141C28.3203 10.6067 28.3403 10.6065 28.3584 10.6135C28.3764 10.6205 28.3911 10.6342 28.3993 10.6518L28.4532 10.7865C28.4607 10.8029 28.4615 10.8217 28.4555 10.8388C28.4495 10.8559 28.4371 10.8699 28.4209 10.8781L28.3724 10.8835Z" fill="#9FD4DB"/>
                    <path d="M27.4834 10.6409C27.47 10.6387 27.4576 10.6326 27.4476 10.6235C27.4375 10.6144 27.4304 10.6025 27.427 10.5894C27.4235 10.5763 27.424 10.5625 27.4283 10.5496C27.4326 10.5367 27.4405 10.5254 27.4511 10.5169L27.5642 10.4254C27.5794 10.4187 27.5963 10.4172 27.6124 10.4211C27.6285 10.425 27.6429 10.4341 27.6533 10.4469C27.6637 10.4598 27.6696 10.4757 27.67 10.4923C27.6705 10.5088 27.6655 10.5251 27.6558 10.5385L27.5427 10.6409C27.5335 10.6456 27.5234 10.648 27.5131 10.648C27.5028 10.648 27.4926 10.6456 27.4834 10.6409V10.6409Z" fill="#9FD4DB"/>
                    <path d="M16.1099 6.77235L15.916 6.88549C15.8358 6.75336 15.7304 6.63835 15.6057 6.54705C15.4811 6.45574 15.3396 6.38993 15.1895 6.35339C15.0393 6.31686 14.8834 6.31031 14.7307 6.33412C14.5781 6.35794 14.4316 6.41165 14.2997 6.49218L14.1812 6.29823C14.3386 6.20151 14.5137 6.13702 14.6962 6.10851C14.8788 6.08 15.0652 6.08803 15.2446 6.13214C15.4241 6.17624 15.593 6.25555 15.7415 6.36545C15.89 6.47535 16.0153 6.61366 16.1099 6.77235V6.77235Z" fill="#9FD4DB"/>
                    <path d="M15.6898 7.02004L15.485 7.14396C15.4396 7.06771 15.3795 7.00119 15.3083 6.94824C15.237 6.89528 15.156 6.85693 15.0699 6.8354C14.9838 6.81386 14.8942 6.80957 14.8064 6.82277C14.7187 6.83596 14.6343 6.86638 14.5584 6.91228L14.4344 6.70756C14.6424 6.58284 14.8914 6.54569 15.1267 6.60427C15.362 6.66285 15.5645 6.81237 15.6898 7.02004V7.02004Z" fill="#9FD4DB"/>
                    <path d="M15.3019 7.25738L14.9139 7.49444L14.6769 7.10113C14.7806 7.03962 14.9045 7.02153 15.0215 7.05078C15.1385 7.08004 15.2392 7.15428 15.3019 7.25738Z" fill="#9FD4DB"/>
                    <g opacity="0.15">
                    <path opacity="0.15" d="M33.0866 8.69099L32.1976 9.35906L7.44123 27.9843V27.9897L6.34753 28.8086L6.69234 27.4455L6.9294 26.6589L7.96384 25.8831L30.4897 8.93882L31.3787 8.27075L33.0866 8.69099Z" fill="white"/>
                    <path opacity="0.15" d="M35.802 9.36968L35.7535 9.56362L34.6706 10.3772L6.55229 31.5454L5.46936 32.3535L5.72798 31.3029V31.2975L6.81628 30.484L34.2234 9.86533L35.1124 9.19727L35.802 9.36968Z" fill="white"/>
                    <path opacity="0.15" d="M28.2701 7.47883L28.2539 7.4896L27.3703 8.15768L8.91751 22.0363L7.83459 22.8607L8.71277 19.3156L9.8011 18.4966L24.4933 7.44111L25.3877 6.77304L25.42 6.74609L28.2701 7.47883Z" fill="white"/>
                    </g>
                </svg>