<svg width="217" height="226" viewBox="0 0 217 226" fill="none" xmlns="http://www.w3.org/2000/svg">
<path d="M83.8027 140.686L53.2139 150.038L76.4199 225.942L107.009 216.59L83.8027 140.686Z" fill="white"/>
<path d="M86.5005 67.3789L10.0283 90.7588L30.2933 157.043L106.765 133.663L86.5005 67.3789Z" fill="#FF942D"/>
<path d="M39.5107 141.463L37.2561 142.157L24.1245 99.1945L26.3792 98.5132L39.5107 141.463Z" fill="#FF6D3B"/>
<path d="M44.355 139.977L42.1003 140.671L28.9688 97.7206L31.2234 97.0269L44.355 139.977Z" fill="#FF6D3B"/>
<path d="M49.1982 138.503L46.9436 139.184L33.812 96.2338L36.0667 95.54L49.1982 138.503Z" fill="#FF6D3B"/>
<path d="M54.0544 137.017L51.7873 137.71L38.6558 94.7478L40.9228 94.0664L54.0544 137.017Z" fill="#FF6D3B"/>
<path d="M58.8862 135.53L56.6316 136.236L43.5 93.2733L45.7671 92.5796L58.8862 135.53Z" fill="#FF6D3B"/>
<path d="M50.598 91.1078L48.335 91.7988L61.4533 134.761L63.7163 134.07L50.598 91.1078Z" fill="#FF6D3B"/>
<path d="M68.5866 132.581L66.3196 133.263L53.188 90.3124L55.4427 89.6187L68.5866 132.581Z" fill="#FF6D3B"/>
<path d="M60.2619 88.1547L57.9995 88.8477L71.1553 131.798L73.4177 131.105L60.2619 88.1547Z" fill="#FF6D3B"/>
<path d="M186.398 54.7081L196.668 88.3051C201.083 86.91 204.769 83.828 206.924 79.7296C209.079 75.6312 209.528 70.8478 208.175 66.4197C206.821 61.9916 203.774 58.277 199.696 56.0838C195.618 53.8906 190.839 53.3962 186.398 54.7081Z" fill="#3E4959"/>
<path d="M172.493 0.694951L162.293 3.81348L206.463 148.287L216.663 145.169L172.493 0.694951Z" fill="#242D3C"/>
<path d="M13.5992 102.424L5.58984 104.87L18.7082 147.832L26.7176 145.386L13.5992 102.424Z" fill="#242D3C"/>
<path d="M7.99841 112.78L0 115.22L8.27539 142.355L16.2738 139.916L7.99841 112.78Z" fill="white"/>
<path d="M164.261 10.1479L183.736 73.8733L96.6336 100.496L86.5 67.357L164.261 10.1479Z" fill="white"/>
<path d="M183.735 73.873L203.222 137.598L106.754 133.646L96.6328 100.495L183.735 73.873Z" fill="#E6E5E5"/>
</svg>
