<svg width="300" height="140" viewBox="0 0 300 140" fill="none" xmlns="http://www.w3.org/2000/svg">
<path d="M152.415 37.0442V102.955H218.877V37.0442H152.415ZM199.896 88.2256H171.396V80.5455H181.319V62.8929C179.704 65.7586 175.896 66.7902 171.396 67.0194V58.4223C177.165 57.7346 180.857 54.4104 182.127 50.1691H190.319V80.6602H199.896V88.2256Z" fill="black"/>
<path d="M117.239 34.1213C112.252 34.1213 107.501 35.1253 103.181 36.9409C98.8598 38.7564 94.9686 41.3836 91.7008 44.6299C88.4329 47.8763 85.7884 51.7419 83.9608 56.0343C82.1333 60.3268 81.1227 65.0461 81.1227 69.9999C81.1227 74.9537 82.1333 79.673 83.9608 83.9655C85.7884 88.2579 88.4329 92.1235 91.7008 95.3699C94.9686 98.6162 98.8598 101.243 103.181 103.059C107.501 104.874 112.252 105.878 117.239 105.878C122.225 105.878 126.976 104.874 131.297 103.059C135.617 101.243 139.509 98.6162 142.776 95.3699C146.044 92.1235 148.689 88.2579 150.516 83.9655C152.344 79.673 153.354 74.9537 153.354 69.9999C153.354 65.0461 152.344 60.3268 150.516 56.0343C148.689 51.7419 146.044 47.8763 142.776 44.6299C139.509 41.3836 135.617 38.7564 131.297 36.9409C126.976 35.1253 122.225 34.1213 117.239 34.1213ZM133.912 74.4131H130.854H127.796H124.739H121.681V77.508V80.603V83.6979V86.7929H119.46H117.239H115.017H112.796V83.6979V80.603V77.508V74.4131H109.738H106.681H103.623H100.565V72.1778V69.9426V67.7073V65.4721H103.623H106.681H109.738H112.796V62.4058V59.3395V56.2732V53.2069H115.017H117.239H119.46H121.681V56.3018V59.3968V62.4917V65.5867H124.739H127.796H130.854H133.912V67.7933V69.9999V72.2065V74.4131Z" fill="black"/>
</svg>
