<svg width="673" height="140" viewBox="0 0 673 140" fill="none" xmlns="http://www.w3.org/2000/svg">
<path fill-rule="evenodd" clip-rule="evenodd" d="M57.5012 28.3564C66.0701 28.3564 74.6745 28.3564 83.2434 28.3564C75.2434 36.8542 66.9589 45.1031 58.8878 53.5653C67.8834 67.3964 76.8789 81.2631 85.8034 95.1298C77.0212 95.0942 68.2745 95.1298 59.4923 95.1298C54.1945 86.312 48.8256 77.5653 43.5989 68.712C41.7145 70.3831 40.0789 72.3387 38.3367 74.152C38.3723 81.1564 38.3367 88.1609 38.3723 95.1653C31.0834 95.1653 23.7945 95.1653 16.5056 95.1653C16.5056 72.872 16.5056 50.6142 16.5056 28.3564C23.7945 28.3564 31.0834 28.3564 38.3723 28.3564C38.3723 35.5387 38.3723 42.7209 38.3723 49.8676C44.7367 42.7209 51.1367 35.5387 57.5012 28.3564ZM101.306 45.4942C96.0078 46.2053 90.7456 48.1964 86.7278 51.8231C82.2834 55.8409 79.7945 61.7076 79.2256 67.6453C78.4789 74.3653 79.6523 81.6187 83.919 87.0231C87.759 92.0009 93.7678 94.9164 99.8834 95.9831C106.319 97.0498 113.11 96.6942 119.226 94.3831C124.559 92.392 129.146 88.4098 131.599 83.2542C134.266 77.7431 134.763 71.4142 133.875 65.4053C132.915 59.2187 129.395 53.4231 124.132 49.9387C117.519 45.4587 109.092 44.5342 101.306 45.4942ZM104.719 58.472C107.137 57.7964 109.946 58.4009 111.652 60.3209C114.177 63.0587 114.923 66.9342 114.959 70.5253C114.888 73.9387 114.568 77.6364 112.612 80.552C111.012 82.9698 107.812 83.9653 105.039 83.3253C102.941 82.9342 101.199 81.4053 100.239 79.5564C98.8167 76.9253 98.4967 73.832 98.3901 70.8809C98.3901 67.752 98.8523 64.4453 100.523 61.7431C101.448 60.1431 102.977 58.9342 104.719 58.472ZM268.132 54.7031C272.577 49.2276 279.403 46.0631 286.337 45.3164C292.523 44.712 299.03 45.4587 304.612 48.3387C309.163 50.6498 312.932 54.5253 315.208 59.0764C317.732 64.0187 318.728 69.6364 318.692 75.1476C306.461 75.1831 294.194 75.1476 281.963 75.1476C281.963 77.9564 283.172 80.7653 285.377 82.5076C288.186 84.7831 292.452 85.352 295.652 83.5742C296.968 82.8987 297.928 81.7253 298.603 80.4453C304.79 80.3742 310.977 80.4453 317.163 80.4098C315.883 85.0676 312.897 89.2276 308.772 91.7876C302.692 95.6631 295.261 96.7298 288.186 96.4453C281.181 96.1253 273.963 93.7431 268.986 88.5876C265.217 84.712 263.083 79.4142 262.657 74.0453C262.017 67.2542 263.723 60.0364 268.132 54.7031ZM284.31 59.1831C282.603 60.712 281.857 63.0942 281.892 65.3342C287.688 65.3342 293.519 65.3342 299.315 65.3342C299.243 61.0676 295.581 57.2987 291.35 56.9787C288.897 56.9076 286.195 57.4409 284.31 59.1831ZM344.541 46.8453C349.697 44.5342 355.777 44.6409 361.003 46.7387C365.875 48.7298 369.643 52.8542 371.706 57.6542C374.195 63.4498 374.657 69.9564 373.803 76.1431C373.128 81.0853 371.243 86.0276 367.83 89.6898C364.701 93.2098 360.257 95.3787 355.635 96.1609C352.328 96.6942 348.843 96.7298 345.715 95.5209C343.048 94.5253 340.843 92.6409 339.101 90.4364C339.101 97.512 339.101 104.552 339.101 111.628C332.63 111.628 326.195 111.663 319.723 111.628C319.759 89.9031 319.759 68.2142 319.723 46.4898C325.519 46.4898 331.35 46.4898 337.146 46.4898C337.181 48.9431 337.11 51.3609 337.181 53.8142C338.639 50.6853 341.377 48.232 344.541 46.8453ZM344.755 59.5387C341.839 60.3209 339.99 63.1298 339.279 65.9031C338.39 69.2809 338.497 72.9076 339.599 76.2142C340.31 78.2409 341.626 80.232 343.688 81.1209C346.568 82.4009 350.266 81.5831 352.257 79.0942C354.39 76.5342 354.923 73.0142 354.817 69.7787C354.675 67.0053 354.141 64.0542 352.257 61.8853C350.515 59.7164 347.421 58.8276 344.755 59.5387ZM385.999 49.5831C390.728 46.5609 396.381 45.2453 401.928 45.1742C407.083 45.0676 412.346 45.8142 417.074 47.912C420.274 49.3342 423.19 51.432 425.288 54.2409C427.706 57.3698 428.986 61.2453 429.377 65.1564C422.834 65.192 416.292 65.1564 409.786 65.1564C409.679 63.3787 409.11 61.5653 407.866 60.2853C405.519 57.7964 401.394 57.5476 398.586 59.3253C396.097 60.9964 395.101 64.0898 394.674 66.8987C394.212 70.5253 394.141 74.3298 395.35 77.8142C396.132 80.1965 397.91 82.4009 400.363 83.112C402.817 83.7876 405.697 83.5031 407.652 81.7609C409.181 80.3387 409.892 78.2764 410.212 76.2853C416.755 76.2142 423.261 76.2853 429.803 76.2498C429.306 80.3742 427.955 84.4631 425.323 87.7342C421.875 92.1076 416.577 94.632 411.208 95.6987C405.448 96.8364 399.403 96.8365 393.715 95.4142C388.666 94.0987 383.794 91.5031 380.452 87.4142C377.252 83.6809 375.546 78.8098 375.155 73.9387C374.692 68.4276 375.546 62.6676 378.248 57.7964C380.061 54.4898 382.763 51.6098 385.999 49.5831ZM443.812 47.272C448.079 45.8142 452.595 45.352 457.039 45.1742C461.768 45.1031 466.568 45.1387 471.226 46.1342C474.106 46.7387 477.021 47.7342 479.332 49.6187C481.394 51.2542 482.781 53.6364 483.386 56.1964C484.381 60.1787 484.168 64.3031 484.203 68.392C484.203 75.2542 484.203 82.152 484.203 89.0142C484.203 90.4009 484.488 91.8587 485.483 92.8898C486.017 93.6009 487.083 94.0987 486.799 95.1298C480.15 95.1298 473.466 95.1298 466.817 95.1298C466.497 93.4231 466.177 91.7164 465.892 90.0098C464.115 91.6453 462.195 93.0676 459.99 94.0987C456.008 96.0898 451.457 96.5876 447.048 96.5164C442.923 96.3742 438.657 95.4142 435.35 92.8187C432.683 90.792 430.941 87.6631 430.479 84.3564C430.017 80.8009 430.372 76.9609 432.363 73.9031C434.177 71.0587 437.235 69.2453 440.328 68.1076C444.772 66.5431 449.501 66.0809 454.123 65.512C456.861 65.1564 459.635 64.9076 462.195 63.912C463.439 63.4142 464.755 62.3831 464.79 60.9253C464.932 59.3253 463.723 57.8676 462.23 57.4053C459.883 56.6231 457.217 56.5876 454.87 57.4053C453.128 58.0098 451.99 59.752 451.812 61.5298C445.626 61.4942 439.403 61.5298 433.217 61.5298C433.252 58.6853 433.786 55.7342 435.386 53.3164C437.341 50.2942 440.541 48.4098 443.812 47.272ZM455.261 76.392C453.839 76.8187 452.381 77.3164 451.386 78.4187C450.106 79.9476 449.892 82.5431 451.421 83.9653C453.057 85.352 455.332 85.6364 457.395 85.4942C459.492 85.3876 461.59 84.4987 462.87 82.792C464.683 80.1609 464.861 76.8187 464.861 73.7253C461.839 75.1476 458.497 75.5387 455.261 76.392ZM238.941 46.5253C246.337 46.4898 253.697 46.5253 261.092 46.4898C261.163 62.7031 261.092 78.9164 261.128 95.0942C255.403 95.1298 249.679 95.1298 243.955 95.0942C243.955 88.4453 243.955 81.7609 243.955 75.112C244.417 71.2009 245.092 67.3253 245.661 63.4142C245.697 63.0231 245.697 62.6676 245.626 62.2764C242.07 73.192 238.657 84.1787 235.137 95.0942C232.079 95.0942 229.021 95.1298 225.963 95.0942C223.368 86.8809 220.737 78.7031 218.141 70.5253C217.181 67.8231 216.541 64.9787 215.403 62.3476C215.759 67.0053 216.683 71.592 217.146 76.2142C217.181 82.5076 217.146 88.8009 217.146 95.0942C211.421 95.0942 205.697 95.1298 199.972 95.0587C200.008 78.8809 199.972 62.6676 199.972 46.4898C207.368 46.4898 214.763 46.4187 222.159 46.5253C224.897 55.4853 227.741 64.3742 230.515 73.2987C233.395 64.3742 236.203 55.4498 238.941 46.5253ZM488.15 46.4898C494.586 46.4542 501.057 46.4898 507.492 46.4898C507.563 51.9298 507.492 57.3342 507.528 62.7742C512.221 62.7387 516.915 62.7387 521.608 62.7742C521.679 57.3342 521.643 51.9298 521.643 46.4898C528.115 46.4898 534.55 46.4898 541.021 46.4898C541.021 62.7031 541.021 78.8809 541.021 95.0942C534.55 95.0942 528.115 95.0942 521.643 95.0942C521.643 89.0142 521.679 82.9698 521.643 76.8898C516.915 76.8898 512.221 76.8542 507.492 76.8898C507.563 82.9698 507.492 89.0142 507.528 95.0942C501.057 95.1298 494.621 95.0942 488.15 95.0942C488.15 78.9164 488.15 62.7031 488.15 46.4898ZM541.555 46.5253C559.19 46.4898 576.826 46.5253 594.461 46.5253C594.461 51.2542 594.461 56.0187 594.461 60.7476C588.879 60.7476 583.261 60.7476 577.679 60.7476C577.679 72.1964 577.679 83.6809 577.679 95.1298C571.243 95.1298 564.808 95.1298 558.372 95.1298C558.372 83.6809 558.408 72.1964 558.337 60.7476C552.755 60.7831 547.172 60.7476 541.59 60.7476C541.555 55.9831 541.59 51.2542 541.555 46.5253ZM136.435 46.5253C143.795 46.5253 151.155 46.4898 158.515 46.5253C161.288 55.4498 164.061 64.3742 166.906 73.2987C169.643 64.3742 172.523 55.4853 175.226 46.5609C182.621 46.4187 189.981 46.5609 197.377 46.4898C197.448 62.7031 197.377 78.9165 197.412 95.1298C191.688 95.1298 185.963 95.1298 180.275 95.1298C180.275 89.6542 180.275 84.1787 180.275 78.7031C180.061 73.192 181.59 67.8587 182.088 62.4187C181.91 62.632 181.803 62.8453 181.697 63.0942C178.283 73.7964 174.906 84.4987 171.492 95.1653C168.435 95.1653 165.412 95.1653 162.355 95.1653C159.759 87.2364 157.27 79.2364 154.746 71.272C153.75 68.3209 152.968 65.2631 151.83 62.3476C152.115 66.9698 153.11 71.592 153.537 76.2142C153.537 82.5076 153.537 88.8365 153.537 95.1298C147.848 95.1298 142.159 95.1298 136.47 95.1298C136.435 78.9165 136.435 62.7031 136.435 46.5253ZM594.995 46.4898C604.879 46.4898 614.799 46.4898 624.683 46.4898C624.683 52.1787 624.683 57.8676 624.683 63.5564C628.523 63.5564 632.399 63.5564 636.239 63.5564C640.435 63.6631 644.701 64.4453 648.435 66.472C651.386 68.1076 653.981 70.5964 655.297 73.7609C656.79 77.0676 656.79 80.9076 655.83 84.3564C654.799 88.0542 651.955 91.1476 648.47 92.712C642.781 95.4498 636.346 95.1653 630.195 95.1298C622.123 95.1298 614.052 95.1298 606.017 95.1298C605.981 83.6809 606.052 72.1964 605.981 60.712C602.319 60.7476 598.657 60.712 594.995 60.712C594.995 55.9831 594.995 51.2542 594.995 46.4898ZM624.683 74.7564C624.683 77.8142 624.683 80.872 624.683 83.8942C627.243 83.9298 629.768 83.9298 632.328 83.8942C634.106 83.7876 636.239 83.5387 637.306 81.9031C638.123 80.3742 638.088 78.4542 637.27 76.9253C636.203 75.2898 634.106 74.9342 632.328 74.8276C629.803 74.6853 627.243 74.8276 624.683 74.7564Z" fill="black"/>
</svg>
