<svg width="530" height="140" viewBox="0 0 530 140" fill="none" xmlns="http://www.w3.org/2000/svg">
<path d="M215.186 103.658H224.322V23.9509H215.188V30.7855L195.091 84.1983V23.9465H185.957V103.658H195.091V96.8277L215.188 43.4192V103.66L215.186 103.658ZM164.949 103.658H174.538L159.354 57.4217L169.976 23.9465H165.292L154.559 57.4239H142.34V23.9531H133.199V103.66H142.34V61.9861H151.243L164.951 103.66L164.949 103.658ZM113.458 103.658H122.937L105.452 23.9509H95.982L97.9218 33.1762L82.8497 103.664H87.5343L93.2526 77.1313H107.63L113.458 103.667V103.658ZM249.443 28.5044H269.985V23.9465H240.311V103.658H269.994V99.0956H249.452V56.2899H265.434V51.7365H249.456V28.5044H249.443ZM37.8667 28.5044H56.1366V103.664H65.2682V28.5044H83.5359V23.9422H37.8711V28.5044H37.8667ZM100.321 41.715L106.607 72.5691H94.1587L100.321 41.715ZM307.277 99.0861V116.063H311.847V103.648H353.289V116.063H357.864V99.0861H350.557V23.9414H319.729C319.729 55.9382 318.702 74.9591 314.02 99.0927H307.281L307.277 99.0861ZM318.581 99.0861C322.461 76.2027 324.062 57.7587 324.295 28.4904H341.413V99.0883H318.584L318.581 99.0861ZM375.67 28.4948H396.227V23.937H366.542V103.648H396.227V99.0861H375.667V56.2782H391.646V51.7269H375.663V28.4926L375.67 28.4948ZM433.785 103.648H442.93V23.9414H412.209V28.4948C412.099 46.1514 411.299 68.2386 409.695 79.3897C408.671 86.1145 406.155 91.4707 401.927 91.4707V103.655C409.819 103.655 412.095 93.0609 413.465 83.3882C415.524 68.5786 416.544 46.1536 416.777 28.4992H433.783L433.785 103.648ZM482.654 103.648H492.133L474.671 23.9414H465.191L467.127 33.1667L452.057 103.655H456.742L462.438 77.1217H476.839L482.652 103.657L482.654 103.648ZM469.528 41.7077L475.799 72.5574H463.351L469.524 41.7033L469.528 41.7077Z" fill="#302F2D"/>
</svg>
