<svg width="120" height="9" viewBox="0 0 120 9" fill="none" xmlns="http://www.w3.org/2000/svg">
<g opacity="0.3">
<path d="M0 8.37948V0.141227H1.94998L4.1114 3.62483L6.27283 0.141227H8.22281V8.37948H6.42554V3.00108L4.1114 6.51999H4.06442L1.77378 3.03639V8.37948H0Z" fill="black"/>
<path d="M9.1671 8.37948L12.6912 0.0823822H14.3592L17.8833 8.37948H15.992L15.2402 6.53176H11.7632L11.0114 8.37948H9.1671ZM12.4092 4.93118H14.5942L13.5017 2.25964L12.4092 4.93118Z" fill="black"/>
<path d="M21.6363 8.49717C20.2894 8.49717 19.1264 8.0578 18.1475 7.17905L19.2165 5.89624C20.0231 6.56314 20.8415 6.8966 21.6716 6.8966C22.0397 6.8966 22.3294 6.82598 22.5409 6.68476C22.7523 6.54353 22.858 6.34738 22.858 6.09631C22.858 5.86093 22.7484 5.67263 22.5291 5.5314C22.3098 5.38233 21.8674 5.22149 21.2017 5.04887C20.7318 4.93118 20.352 4.81742 20.0623 4.70757C19.7725 4.58989 19.4945 4.43689 19.2282 4.24859C18.9698 4.06028 18.7779 3.8249 18.6526 3.54245C18.5352 3.25215 18.4764 2.90693 18.4764 2.50678C18.4764 1.76142 18.7427 1.1612 19.2752 0.706136C19.8156 0.25107 20.5086 0.0235376 21.3544 0.0235376C22.5213 0.0235376 23.5393 0.372683 24.4086 1.07097L23.4689 2.43617C22.6936 1.8948 21.9809 1.62411 21.3309 1.62411C20.9942 1.62411 20.7318 1.69473 20.5439 1.83595C20.3638 1.96934 20.2737 2.14587 20.2737 2.36556C20.2737 2.63232 20.3873 2.83239 20.6144 2.96577C20.8415 3.09915 21.3192 3.26 22.0475 3.4483C22.9403 3.68368 23.5981 3.98575 24.021 4.35451C24.4439 4.72327 24.6553 5.25287 24.6553 5.94331C24.6553 6.7436 24.3773 7.37128 23.8213 7.82634C23.2731 8.27356 22.5448 8.49717 21.6363 8.49717Z" fill="black"/>
<path d="M27.6416 8.37948V1.81242H25.1395V0.141227H31.9527V1.81242H29.4506V8.37948H27.6416Z" fill="black"/>
<path d="M33.0177 8.37948V0.141227H39.22V1.75357H34.815V3.42476H38.6914V5.03711H34.815V6.76714H39.2788V8.37948H33.0177Z" fill="black"/>
<path d="M40.5609 8.37948V0.141227H44.3199C45.3614 0.141227 46.1602 0.419759 46.7162 0.976822C47.1861 1.44758 47.421 2.0831 47.421 2.88339C47.421 4.14659 46.8337 4.99787 45.659 5.43725L47.6677 8.37948H45.5533L43.7678 5.74324H42.3699V8.37948H40.5609ZM42.3699 4.14267H44.2024C44.6409 4.14267 44.9816 4.03675 45.2244 3.8249C45.4671 3.60522 45.5885 3.31492 45.5885 2.954C45.5885 2.56955 45.4632 2.27925 45.2126 2.0831C44.962 1.87911 44.6135 1.77711 44.1672 1.77711H42.3699V4.14267Z" fill="black"/>
<path d="M48.0187 8.37948L51.5428 0.0823822H53.2108L56.7349 8.37948H54.8436L54.0918 6.53176H50.6148L49.863 8.37948H48.0187ZM51.2608 4.93118H53.4457L52.3533 2.25964L51.2608 4.93118Z" fill="black"/>
<path d="M57.4193 8.37948V6.49645H59.3223V8.37948H57.4193Z" fill="black"/>
<path d="M60.0077 8.37948L63.5318 0.0823822H65.1999L68.7239 8.37948H66.8327L66.0809 6.53176H62.6038L61.852 8.37948H60.0077ZM63.2499 4.93118H65.4348L64.3423 2.25964L63.2499 4.93118Z" fill="black"/>
<path d="M72.992 8.52071C71.786 8.52071 70.7797 8.11272 69.9731 7.29674C69.1743 6.47291 68.7749 5.46079 68.7749 4.26035C68.7749 3.06777 69.1782 2.05956 69.9848 1.23574C70.7915 0.411913 71.8173 0 73.0625 0C73.7752 0 74.3742 0.117689 74.8598 0.353068C75.3453 0.580601 75.8074 0.910131 76.2459 1.34166L75.1652 2.58917C74.8128 2.26748 74.48 2.03603 74.1667 1.8948C73.8613 1.74573 73.4893 1.67119 73.0508 1.67119C72.3616 1.67119 71.7899 1.92226 71.3357 2.4244C70.8893 2.9187 70.6662 3.53068 70.6662 4.26035C70.6662 4.98218 70.8893 5.59417 71.3357 6.09631C71.7899 6.59845 72.3616 6.84952 73.0508 6.84952C73.4893 6.84952 73.8691 6.77106 74.1902 6.61414C74.5113 6.45722 74.852 6.214 75.2122 5.88447L76.3634 7.12021C75.917 7.59881 75.4315 7.95188 74.9068 8.17941C74.3899 8.40694 73.7517 8.52071 72.992 8.52071Z" fill="black"/>
<path d="M76.7804 8.37948L80.3045 0.0823822H81.9726L85.4966 8.37948H83.6054L82.8536 6.53176H79.3765L78.6247 8.37948H76.7804ZM80.0226 4.93118H82.2075L81.115 2.25964L80.0226 4.93118Z" fill="black"/>
<path d="M86.4394 8.37948V0.141227H89.6463C90.9306 0.141227 91.98 0.533525 92.7945 1.31812C93.6089 2.09487 94.0162 3.07562 94.0162 4.26035C94.0162 5.43725 93.605 6.41799 92.7827 7.20259C91.9683 7.98719 90.9228 8.37948 89.6463 8.37948H86.4394ZM88.2484 6.7436H89.6463C90.3903 6.7436 90.9894 6.51607 91.4436 6.061C91.8978 5.59809 92.1249 4.99788 92.1249 4.26035C92.1249 3.53068 91.8939 2.93439 91.4319 2.47148C90.9776 2.00856 90.3825 1.77711 89.6463 1.77711H88.2484V6.7436Z" fill="black"/>
<path d="M95.3018 8.37948V0.141227H101.504V1.75357H97.0991V3.42476H100.976V5.03711H97.0991V6.76714H101.563V8.37948H95.3018Z" fill="black"/>
<path d="M102.845 8.37948V0.141227H104.795L106.956 3.62483L109.118 0.141227H111.068V8.37948H109.271V3.00108L106.956 6.51999H106.909L104.619 3.03639V8.37948H102.845Z" fill="black"/>
<path d="M115.031 8.37948V5.13126L111.871 0.141227H113.986L115.947 3.4483L117.944 0.141227H120L116.84 5.09595V8.37948H115.031Z" fill="black"/>
</g>
</svg>
