<svg width="22" height="16" viewBox="0 0 22 16" fill="none" xmlns="http://www.w3.org/2000/svg">
<path d="M19.3333 1H2.66667C1.74667 1.00108 1.00108 1.74667 1 2.66667V13.3333C1.00108 14.2533 1.74667 14.9989 2.66667 15H19.3333C19.4269 15.0004 19.5202 14.9922 19.6123 14.9757C20.4144 14.8414 21.0015 14.1465 21 13.3333V2.66667C20.9989 1.74662 20.2533 1.00108 19.3333 1ZM2.66667 14.3333C2.14854 14.3332 1.71625 13.9375 1.67067 13.4213L8.31667 9.076L15.0753 14.3333H2.66667ZM20.3333 13.3333C20.3339 13.8226 19.9795 14.24 19.4967 14.319C19.4427 14.3287 19.3881 14.3335 19.3333 14.3333H16.161L11.7447 10.8963L15.694 7.73833L20.3333 10.522V13.3333ZM20.3333 9.74467L15.8383 7.04767C15.7188 6.97579 15.5672 6.98592 15.4583 7.073L11.2027 10.4763L8.53767 8.40367C8.42537 8.31642 8.27012 8.30996 8.151 8.38767L1.66667 12.6273V2.66667C1.66667 2.11437 2.11437 1.66667 2.66667 1.66667H19.3333C19.8856 1.66667 20.3333 2.11437 20.3333 2.66667V9.74467Z" fill="black"/>
<path d="M11 3C9.89542 3 9 3.89542 9 5C9.00108 6.10413 9.89588 6.99892 11 7C12.1046 7 13 6.10458 13 5C13 3.89542 12.1046 3 11 3ZM11 6.33333C10.2636 6.33333 9.66667 5.73638 9.66667 5C9.66667 4.26363 10.2636 3.66667 11 3.66667C11.7364 3.66667 12.3333 4.26363 12.3333 5C12.3333 5.73638 11.7364 6.33333 11 6.33333Z" fill="black"/>
</svg>
