<svg width="20" height="20" viewBox="0 0 20 20" fill="none" xmlns="http://www.w3.org/2000/svg">
<path d="M13.2403 9.50307L8.55277 6.57338C8.37211 6.46049 8.14445 6.45451 7.95816 6.55775C7.77184 6.661 7.65625 6.85725 7.65625 7.07025V12.9296C7.65625 13.1426 7.77184 13.3388 7.95816 13.4421C8.04668 13.4912 8.14449 13.5156 8.24219 13.5156C8.35012 13.5156 8.45789 13.4858 8.55273 13.4265L13.2402 10.4968C13.4116 10.3897 13.5156 10.202 13.5156 9.99994C13.5156 9.79791 13.4116 9.61014 13.2403 9.50307ZM8.82816 11.8724V8.1274L11.8242 9.99994L8.82816 11.8724Z" fill="black"/>
<path d="M17.0703 2.38281H2.92969C1.31426 2.38281 0 3.69707 0 5.3125V14.6875C0 16.3029 1.31426 17.6172 2.92969 17.6172H17.0703C18.6857 17.6172 20 16.3029 20 14.6875V5.3125C20 3.69707 18.6857 2.38281 17.0703 2.38281ZM18.8281 14.6875C18.8281 15.6568 18.0396 16.4453 17.0703 16.4453H2.92969C1.96043 16.4453 1.17188 15.6568 1.17188 14.6875V5.3125C1.17188 4.34324 1.96043 3.55469 2.92969 3.55469H17.0703C18.0396 3.55469 18.8281 4.34324 18.8281 5.3125V14.6875Z" fill="black"/>
</svg>
