<svg xmlns="http://www.w3.org/2000/svg" viewBox="0 0 22 10" width="22" height="10">
	<style>
		tspan { white-space:pre }
		.shp0 { fill: #0070ba } 
	</style>
	<path id="Layer" class="shp0" d="M10.14 0.27L0.35 7.85C0.12 8.02 0 8.26 0 8.5C0 8.75 0.12 8.99 0.35 9.16L1.07 9.72C1.54 10.08 2.31 10.08 2.77 9.72L11 3.36L19.23 9.73C19.45 9.9 19.75 10 20.08 10C20.4 10 20.7 9.9 20.93 9.73L21.65 9.17C21.88 8.99 22 8.76 22 8.51C22 8.26 21.88 8.03 21.65 7.85L11.85 0.27C11.62 0.1 11.32 0 11 0C10.67 0 10.37 0.1 10.14 0.27Z" />
</svg>