<svg width="24" height="25" viewBox="0 0 24 25" fill="none" xmlns="http://www.w3.org/2000/svg">
<path d="M20 11.1022C19.7554 9.34246 18.9391 7.7119 17.6766 6.46174C16.4142 5.21158 14.7758 4.41116 13.0137 4.1838C11.2516 3.95643 9.46362 4.31473 7.9252 5.20349C6.38678 6.09225 5.18325 7.46218 4.5 9.10224M4 5.10225V9.10224H8" stroke="#AAAAAA" stroke-width="1.5" stroke-linecap="round" stroke-linejoin="round"/>
<path d="M4 13.1016C4.24456 14.8613 5.06093 16.4919 6.32336 17.7421C7.58579 18.9922 9.22425 19.7926 10.9863 20.02C12.7484 20.2474 14.5364 19.8891 16.0748 19.0003C17.6132 18.1116 18.8168 16.7416 19.5 15.1016M20 19.1016V15.1016H16" stroke="#AAAAAA" stroke-width="1.5" stroke-linecap="round" stroke-linejoin="round"/>
</svg>
