<svg width="400" height="201" viewBox="0 0 400 201" fill="none" xmlns="http://www.w3.org/2000/svg">
<mask id="mask0" mask-type="alpha" maskUnits="userSpaceOnUse" x="0" y="0" width="400" height="200">
<rect width="400" height="200" fill="#C4C4C4"/>
</mask>
<g mask="url(#mask0)">
<rect opacity="0.5" width="400" height="200" fill="#009AFF"/>
</g>
<path d="M40.9215 200.009C40.9215 200.009 4.69142 161.109 34.7944 118.995C61.5039 81.6281 92.6445 84.1824 115.492 99.3459C125.223 105.804 153.278 100.142 177.156 62.1199C209.722 10.2682 322.599 41.7166 302.018 121.491C292.058 160.097 332.33 161.5 311.81 200.091L40.9215 200.009Z" fill="#EBF3FA"/>
<path d="M70.1947 147.314L93.7927 172.954L68.1527 196.552L44.5547 170.912L70.1947 147.314Z" fill="#DFEBFD"/>
<path d="M70.1947 147.314L74.9473 152.478L49.3074 176.076L44.5547 170.912L70.1947 147.314Z" fill="#BED7FB"/>
<path d="M145.076 46.3088L162.657 48.8165L150.99 40.8642L150.398 43.4133L146.121 44.1877L145.076 46.3088Z" fill="#9EC3F6"/>
<path d="M162.658 48.8158L148.028 41.2718L133.688 40.5509L162.658 48.8158Z" fill="#CDE0FB"/>
<path d="M150.99 40.8636L162.658 48.8168L153.626 36.3879L150.99 40.8636Z" fill="#CDE0FB"/>
<path d="M243.39 80.993L238.969 84.1666L234.523 81.0274C235.507 79.6412 237.136 78.7245 238.969 78.7245C240.79 78.7245 242.406 79.6183 243.39 80.993Z" fill="white"/>
<path d="M238.967 70.9917C234.522 70.9917 230.592 73.2029 228.209 76.5827L231.017 78.5531C232.78 76.0555 235.69 74.4288 238.967 74.4288C242.221 74.4288 245.108 76.0327 246.873 78.4958L249.669 76.491C247.273 73.157 243.366 70.9917 238.967 70.9917Z" fill="white"/>
<path d="M238.968 56.2922C229.563 56.2922 221.245 60.9668 216.205 68.1155L219.011 70.0861C223.433 63.8305 230.731 59.7299 238.968 59.7299C247.138 59.7299 254.39 63.7619 258.824 69.9372L261.607 67.9322C256.554 60.887 248.295 56.2922 238.968 56.2922Z" fill="white"/>
<path d="M238.969 64.3349C232.278 64.3349 226.343 67.6455 222.734 72.7209L225.542 74.6914C228.531 70.5098 233.436 67.7716 238.969 67.7716C244.456 67.7716 249.325 70.4639 252.327 74.5884L255.111 72.5949C251.491 67.5883 245.601 64.3349 238.969 64.3349Z" fill="white"/>
<path d="M124.122 124.574C121.397 127.309 118.394 129.685 115.151 131.686C107.292 125.942 98.8946 121.025 90.1463 117.045C91.349 114.841 92.5343 112.514 93.6916 110.084C101.699 111.145 109.397 111.782 116.426 111.946C118.261 111.999 120.041 111.999 121.769 111.986C126.249 111.933 130.237 111.667 133.654 111.189C131.26 116.147 128.057 120.64 124.122 124.574ZM74.2981 136.717C77.947 134.803 81.6131 130.411 84.4365 126.364C85.8927 124.277 87.348 121.967 88.7846 119.473C97.0679 123.224 105.033 127.833 112.515 133.202C100.182 139.792 86.2935 140.538 74.2981 136.717ZM43.4674 108.095C47.2631 108.248 54.2999 108.823 63.2884 110.869C63.9314 111.015 64.5742 111.169 65.2166 111.325C64.754 114.024 64.4125 116.602 64.2018 119.025C63.8025 123.617 63.7741 128.912 65.0549 132.692C61.1568 130.497 57.5823 127.782 54.3743 124.574C49.5923 119.793 45.9124 114.193 43.4674 108.095ZM66.4637 105.048C66.1948 106.247 65.9469 107.429 65.7194 108.592C65.1146 108.446 64.5095 108.301 63.9039 108.164C53.6726 105.835 45.9953 105.361 42.4363 105.281C41.5549 102.626 40.9066 99.9101 40.4963 97.1384C47.4666 99.819 55.3125 102.391 66.4637 105.048ZM34.9 92.0861C25.4752 87.4872 21.1683 83.0477 23.0958 79.8967C24.651 77.3449 30.3138 75.6167 38.9809 74.9788C37.2336 80.8753 36.6259 87.0064 36.9871 93.0704C36.2691 92.7514 35.578 92.4187 34.9 92.0861ZM45.1755 67.5216L45.1766 67.5182C51.2692 75.1337 60.249 82.919 70.7412 89.6699C69.2534 94.1982 67.9841 98.6479 66.9598 102.913C58.2605 100.808 48.1494 97.8311 40.164 94.4533C39.5017 87.8312 40.2228 81.1282 42.2111 74.8056C42.9829 72.3541 44.0068 69.8273 45.1755 67.5216ZM41.0688 46.5365C42.6723 43.9904 46.2557 42.6769 51.2872 42.6769C53.6936 42.6769 56.4331 42.9776 59.4438 43.5894C60.5869 43.8206 61.7544 44.0929 62.9419 44.4062H62.945C55.7615 48.5608 49.4343 54.5735 44.7235 62.1116L44.7211 62.115C40.275 55.5133 38.9384 49.9165 41.0688 46.5365ZM89.2549 40.3632C92.6717 40.3632 96.0322 40.7072 99.3172 41.3896C95.4425 43.0767 91.4866 47.7702 88.4838 52.0752C85.4104 56.4805 82.3414 61.8723 79.4434 67.9078C71.6209 63.6563 64.2317 57.1413 60.6999 49.4642C68.9464 43.5996 78.8637 40.3632 89.2549 40.3632ZM124.122 54.8127C130.519 61.2093 134.762 68.8921 136.908 76.9268C125.539 77.7584 115.121 77.4964 105.809 76.1487C107.287 70.111 108.282 64.431 108.718 59.4139C109.2 53.874 109.142 47.3111 106.895 43.6178C113.403 46.1184 119.215 49.8914 124.122 54.8127ZM102.372 78.4066C101.093 83.2186 99.5179 88.2299 97.6828 93.2902C96.9754 95.2405 96.243 97.1601 95.4896 99.042C88.596 96.5107 81.2791 92.8904 74.0858 88.419C74.4574 87.3322 74.8411 86.242 75.2374 85.1495C76.9423 80.4481 78.7928 75.9243 80.7332 71.6865C87.5227 74.9776 94.8775 77.1011 102.372 78.4066ZM102.984 43.6589C104.497 44.2068 105.265 46.3781 105.643 48.1029C106.24 50.8278 106.348 54.6567 105.955 59.1736C105.525 64.1177 104.535 69.7339 103.061 75.7124C95.8162 74.4661 88.5763 72.411 81.9102 69.1757C84.7513 63.2508 87.7554 57.9672 90.7589 53.6621C93.3529 49.9438 95.8899 47.0742 98.0953 45.3654C99.246 44.4734 100.795 43.5187 102.151 43.5187C102.439 43.5187 102.719 43.562 102.984 43.6589ZM58.4389 51.173C62.4026 59.2943 70.0416 65.9848 78.2621 70.4231C76.2707 74.7623 74.3738 79.3943 72.6296 84.204C72.3044 85.1006 71.9882 85.9948 71.6791 86.8879C61.2614 80.1074 52.4413 72.3256 46.6554 64.7955L46.653 64.7921C49.7066 59.5837 53.6854 54.9836 58.4389 51.173ZM75.8556 104.901C73.7577 104.469 71.6902 104.018 69.6583 103.55C70.6148 99.5695 71.79 95.4205 73.1618 91.1918C80.2928 95.5755 87.5449 99.1411 94.4115 101.672C93.55 103.729 92.6653 105.734 91.7616 107.675C86.546 106.926 81.2096 105.999 75.8556 104.901ZM87.6007 115.919C81.343 113.223 74.9093 110.994 68.4113 109.274C68.6404 108.095 68.8915 106.896 69.1644 105.677C70.9712 106.088 72.8037 106.486 74.6591 106.868C80.0891 107.979 85.5058 108.922 90.8081 109.685C89.7579 111.858 88.6861 113.94 87.6007 115.919ZM69.9358 134.781C68.4232 134.232 67.6554 132.062 67.2776 130.336C66.6806 127.61 66.5726 123.783 66.9655 119.266C67.164 116.981 67.4835 114.553 67.9133 112.012C74.113 113.664 80.2527 115.789 86.2311 118.35C84.8845 120.672 83.5229 122.825 82.1613 124.777C79.5673 128.496 77.0304 131.365 74.8249 133.074C73.4294 134.155 71.4486 135.329 69.9358 134.781ZM134.73 108.822C131.182 109.461 126.755 109.833 121.584 109.886C113.559 109.984 104.344 109.35 94.633 108.07C95.4503 106.292 96.2513 104.463 97.0326 102.594C100.046 103.602 102.971 104.401 105.76 104.967C108.955 105.615 111.872 105.935 114.474 105.935C120.576 105.935 124.946 104.174 127.104 100.747C127.46 100.184 127.75 99.5843 127.974 98.952H124.864C124.811 99.0466 124.756 99.14 124.699 99.2311C123.096 101.777 119.513 103.092 114.482 103.091C112.075 103.091 109.335 102.79 106.325 102.179C103.7 101.646 100.948 100.899 98.1106 99.9568C98.8596 98.084 99.5876 96.1747 100.291 94.2358C102.186 89.0091 103.809 83.8269 105.122 78.8509C115.761 80.4196 126.878 80.4663 137.555 79.662C138.23 82.9372 138.571 86.2887 138.571 89.6938C138.571 96.3273 137.282 102.76 134.73 108.822ZM147.239 100.248L143.184 100.155C144.487 101.843 144.78 103.399 143.968 104.715C143.158 106.057 141.217 107.161 138.32 107.998C140.513 102.162 141.617 96.0084 141.617 89.6938C141.617 76.0382 136.303 62.672 126.276 52.6733C116.57 42.9674 103.45 37.3329 89.2549 37.3329C81.2838 37.3329 73.5817 39.0998 66.5771 42.4775L66.5702 42.4809C64.3183 41.794 62.1248 41.2301 60.0084 40.8017C49.3248 38.6339 41.7431 40.1319 38.6635 45.0202C35.7328 49.6704 37.3284 56.6696 43.1437 64.832L43.1416 64.8365C41.8422 67.2368 40.5915 70.0848 39.6721 72.812C28.7453 73.4637 22.8963 75.3866 20.7696 78.8691C18.2971 82.9235 21.6735 88.3643 32.4807 93.6548C33.9694 94.3861 35.5647 95.1038 37.2395 95.8215C38.5341 107.198 43.7161 118.223 52.2207 126.728C57.0327 131.527 62.629 135.303 68.8635 137.948C87.9621 146.004 110.73 142.231 126.276 126.728C130.955 122.049 134.664 116.599 137.282 110.564C142.612 109.461 146.122 107.733 147.518 105.447C148.488 103.864 148.369 102.11 147.239 100.248Z" fill="#5D779E"/>
<path d="M123.004 108.42L115.763 194.519C115.763 194.519 115.004 199.737 118.886 199.747C125.27 199.762 150.656 199.747 150.656 199.747C150.656 199.747 145.853 198.66 145.911 196.216C145.98 193.334 154.374 107.606 154.374 107.606L123.004 108.42Z" fill="#D86713"/>
<path d="M152.715 198.185C151.46 198.188 127.213 198.264 120.997 198.185C118.287 198.151 117.813 195.776 117.79 194.238C117.778 193.502 117.872 192.958 117.872 192.958L118.061 190.719L118.541 185.015L118.965 179.977L119.509 173.501L119.967 168.036L125.113 106.857L156.483 106.044C156.483 106.044 152.947 141.92 150.447 168.036C150.168 170.946 149.902 173.735 149.656 176.34C149.576 177.172 149.5 177.985 149.426 178.776C149.194 181.247 148.982 183.516 148.797 185.52C148.7 186.575 148.61 187.557 148.53 188.455C148.21 191.978 148.023 194.227 148.021 194.654C148.02 194.903 148.04 195.135 148.082 195.351C148.596 198.095 152.244 198.185 152.715 198.185Z" fill="#F99746"/>
<path d="M46.8203 61.5686L64.4583 132.417L66.8732 142.12L75.088 175.119H227.708L197.429 61.5686H46.8203Z" fill="#F99746"/>
<path d="M46.8194 61.5688L44.375 62.3837L71.8377 177.584L75.0877 175.119L46.8194 61.5688Z" fill="#EE9849"/>
<path d="M71.8379 177.584H223.519L227.706 175.119H75.0878L71.8379 177.584Z" fill="#D86713"/>
<path d="M125.104 199.779H157.944V198.219H125.104V199.779Z" fill="#F1A34F"/>
<path d="M220.314 154.195L195.55 63.0701H46.5762V61.569H197.429L222.11 153.993L220.314 154.195Z" fill="#F1A34F"/>
<path d="M149.596 177.583L149.427 178.776L118.541 185.015L118.965 179.977L119.167 177.583H149.596Z" fill="#D86713"/>
<path d="M117.791 198.219H152.716V188.455H117.791V198.219Z" fill="#EC8432"/>
<path d="M132.025 198.221C130.834 198.221 129.674 198.22 128.57 198.219H136.003C134.664 198.22 133.326 198.221 132.025 198.221Z" fill="#E78B37"/>
<path d="M75.0878 175.119L66.873 142.12L142.131 152.132L75.0882 175.119" fill="#EC8432"/>
<path d="M46.8184 61.5684H197.426L221.864 152.828H68.7613L46.8184 61.5684Z" fill="#699DEE"/>
<path d="M155.443 164.363C155.008 162.126 152.841 160.312 150.603 160.312C148.365 160.312 146.903 162.126 147.338 164.363C147.773 166.602 149.941 168.416 152.178 168.416C154.416 168.416 155.879 166.602 155.443 164.363Z" fill="#D86713"/>
<path d="M214.762 148.873H73.7467L57.7765 85.2551L56.553 80.3767L55.5081 76.2155L54.6722 72.8839L53.0586 66.4576H192.042L192.138 66.8109L193.812 72.8839L194.731 76.2155L195.878 80.3767L197.224 85.2551L214.762 148.873Z" fill="#E9F3FE"/>
<path d="M214.762 149.091H73.7467L57.7765 85.4723L56.553 80.594L55.5081 76.4328L54.6722 73.1012L53.0586 66.6748H192.042L192.138 67.0281L193.812 73.1012L194.731 76.4328L195.878 80.594L197.224 85.4723L214.762 149.091Z" fill="#E9F3FE"/>
<path d="M193.812 72.8837H54.6722L53.0586 66.4572H191.989L192.14 66.81L193.812 72.8837Z" fill="#AFCDFB"/>
<path d="M56.9243 69.67C56.7564 68.9968 57.1663 68.4504 57.84 68.4504C58.5137 68.4504 59.1959 68.9968 59.3639 69.67C59.5318 70.3442 59.1219 70.8906 58.4483 70.8906C57.7746 70.8906 57.0924 70.3442 56.9243 69.67Z" fill="#E9F3FE"/>
<path d="M60.9771 69.67C60.8091 68.9968 61.219 68.4504 61.8927 68.4504C62.5663 68.4504 63.2486 68.9968 63.4166 69.67C63.5845 70.3442 63.1746 70.8906 62.5009 70.8906C61.8273 70.8906 61.145 70.3442 60.9771 69.67Z" fill="#E9F3FE"/>
<path d="M65.3403 69.67C65.1724 68.9968 65.5824 68.4504 66.2561 68.4504C66.9298 68.4504 67.612 68.9968 67.7799 69.67C67.9479 70.3442 67.5379 70.8906 66.8643 70.8906C66.1906 70.8906 65.5084 70.3442 65.3403 69.67Z" fill="#E9F3FE"/>
<path d="M117.674 149.091H103.73C103.597 148.001 103.479 146.849 103.373 145.647C103.186 143.492 103.043 141.173 102.937 138.762C102.912 138.205 102.89 137.644 102.869 137.078C102.842 136.359 102.819 135.631 102.798 134.9C102.764 133.658 102.738 132.402 102.718 131.138L102.717 131.134C102.693 129.523 102.681 127.9 102.677 126.285V126.284C102.676 125.88 102.676 125.476 102.676 125.075V125.074C102.676 124.694 102.677 124.318 102.678 123.941C102.69 120.463 102.743 117.051 102.817 113.879C102.977 106.858 103.237 101.01 103.376 98.198V98.1969C103.431 97.0429 103.468 96.4009 103.468 96.4009L103.472 96.403C103.503 96.4073 103.715 96.4459 104.047 96.5265C104.292 96.5866 104.602 96.6671 104.954 96.7755H104.955C105.273 96.8711 105.625 96.9902 105.994 97.1309L105.998 97.132C106.626 97.3735 107.303 97.6816 107.939 98.0692C107.949 98.0746 107.959 98.0789 107.968 98.0842C109.01 98.7305 109.95 99.5872 110.379 100.719C110.747 101.68 111.609 106.845 112.65 113.705C112.679 113.9 112.708 114.097 112.738 114.296C113.289 117.939 113.884 122.026 114.482 126.2C115.115 130.622 115.748 135.14 116.331 139.325C116.826 142.915 117.287 146.261 117.674 149.091Z" fill="#2B478B"/>
<path d="M113.769 149.091H97.5387C97.2276 147.752 96.936 146.46 96.6772 145.248C95.964 141.909 95.4951 139.174 95.5205 137.703C95.5326 137.014 95.7927 136.475 96.2398 136.061C96.546 135.776 96.9397 135.551 97.4026 135.375C98.7719 134.854 100.739 134.769 102.798 134.9C103.498 134.944 104.208 135.012 104.908 135.097C108.765 135.565 112.346 136.52 112.346 136.52C112.346 136.52 112.586 137.489 112.868 139.18C113.081 140.45 113.318 142.13 113.494 144.112C113.596 145.264 113.679 146.519 113.725 147.857C113.739 148.26 113.753 148.671 113.769 149.091Z" fill="#233862"/>
<path d="M106.274 137.723L106.112 138.895L105.326 144.589L105.193 145.561L104.705 149.091H87.7912C87.66 146.758 87.5385 144.484 87.5154 142.502C87.513 142.283 87.5117 142.067 87.5117 141.856C87.5117 138.872 87.7742 136.66 88.6295 136.1C89.5992 135.468 92.8153 135.641 96.2404 136.061C96.5818 136.101 96.9256 136.147 97.2695 136.193C99.2658 136.461 101.263 136.793 102.87 137.078C103.703 137.227 104.431 137.363 104.997 137.471C105.796 137.625 106.274 137.723 106.274 137.723Z" fill="#C65447"/>
<path d="M87.5117 99.3371C87.5117 99.3371 96.8039 93.3294 103.469 96.402C104.531 96.8915 105.742 98.2581 106.61 99.2136C109.019 101.869 113.726 144.037 113.726 144.037C113.726 144.037 100.363 148.563 87.5117 142.502V99.3371Z" fill="white"/>
<path d="M103.996 96.2495C103.996 96.2495 113.403 100.105 114.677 103.067C115.952 106.029 120.092 124.219 120.092 126.352C120.092 128.486 112.882 126.829 111.722 123.389C110.758 120.533 107.506 111.756 105.792 106.205L103.996 96.2495Z" fill="#2B478B"/>
<path d="M102.043 99.1867C99.9889 99.5893 96.9723 99.1599 94.7637 97.7052C95.7608 95.323 96.1696 93.4421 96.3151 92.2257C96.3236 92.1613 96.3299 92.098 96.3362 92.0378C96.4021 91.4066 96.3926 90.9793 96.3618 90.7828H101.671C101.671 90.7828 103.122 91.4463 103.122 91.9047C103.122 92.1506 103.125 92.3846 103.129 92.609C103.139 93.2198 103.164 93.7523 103.196 94.2107C103.297 95.6998 103.468 96.4019 103.468 96.4019C103.468 96.4019 104.116 98.7798 102.043 99.1867Z" fill="#FFB27D"/>
<path d="M103.196 94.2107C99.1741 94.9869 96.8391 92.7893 96.3157 92.2257C96.2413 92.1452 96.2031 92.0969 96.2031 92.0969C96.2456 92.0754 96.2902 92.0571 96.3369 92.0378C97.8341 91.4313 101.232 91.9133 103.129 92.609C103.14 93.2198 103.164 93.7523 103.196 94.2107Z" fill="#E2915A"/>
<path d="M95.0024 89.9101C95.7211 93.7782 100.713 93.6515 102.87 93.4078C103.477 93.3412 103.859 93.2629 103.859 93.2629C104.543 93.0804 104.925 92.0025 105.102 90.5897C105.455 87.7952 105.01 83.6931 104.538 82.6431C103.827 81.065 102.489 79.3569 97.462 80.5894C92.4345 81.8218 94.08 84.9534 95.0024 89.9101Z" fill="#FFB27D"/>
<path d="M104.723 80.4852C104.036 79.534 102.58 78.3724 101.257 77.6563C98.4145 76.119 94.7767 77.7047 94.7614 77.7111C90.6557 79.5169 89.5835 82.6581 91.7603 87.5514C94.0621 92.725 96.2538 92.1431 96.2538 92.1431C96.2538 92.1431 95.7886 91.8543 95.8306 90.2407C95.833 90.1495 95.8367 90.0733 95.8409 90.0067C95.862 89.676 95.7456 89.3454 95.4985 89.1242C94.9886 88.669 94.7399 87.2927 95.167 86.9094C95.6821 86.4467 96.4061 87.0093 96.6374 87.4409C96.8394 87.7458 97.2013 87.8531 97.5384 87.6395C98.8163 86.8322 97.9862 85.2164 99.2073 84.2277C100.428 83.2389 102.906 84.0688 104.738 83.2808C107.136 82.3876 105.241 81.2023 104.723 80.4852Z" fill="#233862"/>
<path d="M105.385 149.091H85.1523C85.2968 144.895 85.4828 139.886 85.6784 134.814C85.7282 133.499 85.7805 132.179 85.8315 130.869C85.8546 130.314 85.8752 129.762 85.8971 129.21C86.3442 117.947 86.7877 107.776 86.8812 107.229C87.0939 105.989 87.2943 104.934 87.5118 104.017C88.1473 101.349 88.9371 99.8857 90.66 98.6274C90.8277 98.4997 92.2055 97.8062 93.4193 97.2007C94.4107 96.709 95.2927 96.2785 95.3195 96.2667V96.2656H95.3208C95.5212 96.3622 95.7424 96.6424 95.9756 97.0568C96.2089 97.4701 96.4543 98.022 96.7058 98.6661C97.6304 101.042 98.6292 104.677 99.3229 107.392L99.3254 107.401L99.3267 107.406V107.407C99.7737 109.16 100.094 110.525 100.186 110.917C100.341 111.578 100.545 112.858 100.787 114.59V114.595C101.114 116.959 101.504 120.164 101.917 123.804V123.805C101.96 124.179 102.002 124.557 102.045 124.938C102.093 125.374 102.143 125.816 102.193 126.261V126.263C102.209 126.406 102.224 126.55 102.239 126.693V126.694C102.398 128.136 102.559 129.621 102.718 131.134L102.719 131.138C102.855 132.385 104.746 133.288 104.877 134.558C104.886 134.65 104.896 134.837 104.908 135.097C104.933 135.634 104.962 136.486 104.997 137.471C105.012 137.909 105.027 138.375 105.045 138.85C105.119 140.962 105.21 143.275 105.313 144.388C105.318 144.441 105.323 144.508 105.326 144.589C105.339 144.811 105.348 145.138 105.357 145.549C105.374 146.421 105.382 147.669 105.385 149.091Z" fill="#2B478B"/>
<path d="M91.5818 111.769C91.5758 111.795 91.2596 123.157 99.8074 124.538C108.355 125.919 102.676 126.284 102.676 126.284C102.676 126.284 86.5931 125.6 86.3276 125.176C86.0621 124.751 91.5818 111.769 91.5818 111.769Z" fill="#233862"/>
<path d="M98.8048 129.416C98.8048 129.416 98.6444 129.53 98.3365 129.729L98.3205 129.738C97.0166 130.57 93.1462 132.84 87.5111 134.361C86.9197 134.521 86.308 134.674 85.6784 134.813C85.7283 133.499 85.7804 132.179 85.8313 130.869C85.087 130.811 84.3745 130.717 83.7129 130.576C83.7353 130.403 83.7586 130.23 83.7808 130.056C84.4977 129.762 85.2101 129.479 85.8972 129.21C86.4567 128.991 86.9982 128.783 87.5111 128.591C89.8259 127.712 91.5418 127.116 91.5418 127.116L98.3938 129.285L98.8048 129.416Z" fill="#233862"/>
<path d="M100.617 129.226C100.617 129.226 99.737 129.446 98.3355 129.729L98.3206 129.732C95.736 130.25 91.3911 130.979 87.51 130.94C86.9377 130.933 86.375 130.912 85.8302 130.869C85.0859 130.811 84.3735 130.716 83.7119 130.576C82.2934 130.276 81.1051 129.77 80.3279 128.977C74.5547 123.097 83.4784 101.992 85.3545 99.9383C87.5451 97.541 91.5429 96.7004 93.7505 96.4116C93.8428 96.3998 93.9309 96.388 94.0169 96.3772C94.7931 96.2849 95.2912 96.2656 95.3188 96.2645H95.3198C95.3198 96.2645 95.1468 96.8217 94.8569 97.7654C94.7443 98.1304 94.6137 98.5544 94.4704 99.0268C93.1145 103.467 90.498 112.194 89.345 117.116C88.9223 118.917 88.6961 120.208 88.7992 120.594C89.2493 122.274 93.914 123.139 96.8691 123.521C98.1019 123.68 99.0373 123.755 99.2465 123.772C99.2613 123.772 99.2752 123.773 99.29 123.775L99.461 124.476L99.8698 126.157L100.272 127.808L100.617 129.226Z" fill="#2B478B"/>
<path d="M116.72 139.343L96.8926 138.507L100.915 113.798L120.743 114.633L116.72 139.343Z" fill="#F99746"/>
<path d="M99.2912 123.775C99.2912 123.775 103.151 123.506 103.344 124.406C103.796 126.503 100.026 128.225 98.8051 128.107C97.584 127.99 98.4029 123.635 99.2912 123.775Z" fill="#FFB27D"/>
<path d="M119.658 119.651C119.658 119.651 115.965 118.496 115.569 119.327C114.644 121.263 117.913 123.81 119.129 123.978C120.344 124.145 120.554 119.72 119.658 119.651Z" fill="#FFB27D"/>
<path d="M95.721 95.0246C95.721 95.0246 94.0972 95.7975 93.2832 96.9656C93.2832 96.9656 99.3526 107.504 99.3256 107.405C99.2984 107.306 97.2739 96.374 95.721 95.0246Z" fill="#233862"/>
<path d="M103.281 95.1727C103.816 95.3745 104.841 96.4245 105.072 97.0053L105.794 106.205C105.794 106.205 104.253 99.4541 103.469 96.402C103.27 95.6258 103.306 95.3907 103.281 95.1727Z" fill="#233862"/>
<path d="M107.488 114.075C107.488 114.075 107.645 113.389 108.548 113.468C109.45 113.548 114.52 113.798 114.52 113.798C114.52 113.798 115.498 113.782 115.408 114.408L107.488 114.075Z" fill="#C65447"/>
<path d="M101.672 90.7829C101.672 90.7829 102.33 91.3831 103.392 91.1963C104.022 91.0868 104.374 90.2676 104.374 90.2676C104.374 90.2676 103.164 90.0497 101.672 90.7829Z" fill="white"/>
<path d="M195.622 98.4721L180.977 98.5269L176.227 80.344L190.873 80.2904L195.622 98.4721Z" fill="white"/>
<path d="M187.243 82.6785L181.102 82.7013L181.031 82.4323L187.172 82.4095L187.243 82.6785Z" fill="#ADCBF9"/>
<path d="M188.223 83.4255L180.512 83.4541L180.443 83.1849L188.153 83.1574L188.223 83.4255Z" fill="#ADCBF9"/>
<path d="M190.342 87.1276L180.327 87.1636L180.258 86.8947L190.272 86.8577L190.342 87.1276Z" fill="#ADCBF9"/>
<path d="M190.574 88.0124L180.558 88.0496L180.488 87.7816L190.503 87.7444L190.574 88.0124Z" fill="#ADCBF9"/>
<path d="M190.806 88.8999L180.792 88.9359L180.721 88.6676L190.736 88.6304L190.806 88.8999Z" fill="#ADCBF9"/>
<path d="M191.037 89.7865L181.022 89.8237L180.951 89.5551L190.966 89.5179L191.037 89.7865Z" fill="#ADCBF9"/>
<path d="M191.269 90.6721L181.253 90.7094L181.184 90.4404L191.198 90.4031L191.269 90.6721Z" fill="#ADCBF9"/>
<path d="M191.833 92.8298L181.817 92.8672L181.748 92.5986L191.762 92.5612L191.833 92.8298Z" fill="#ADCBF9"/>
<path d="M192.064 93.7161L182.05 93.7535L181.979 93.4846L191.994 93.4472L192.064 93.7161Z" fill="#ADCBF9"/>
<path d="M192.294 94.6037L182.279 94.6411L182.209 94.3718L192.223 94.3344L192.294 94.6037Z" fill="#ADCBF9"/>
<path d="M192.527 95.4891L182.512 95.5266L182.441 95.257L192.456 95.2207L192.527 95.4891Z" fill="#ADCBF9"/>
<path d="M192.758 96.3759L182.744 96.4135L182.674 96.1435L192.689 96.1071L192.758 96.3759Z" fill="#ADCBF9"/>
<path d="M201.526 121.066L186.88 121.119L182.131 102.937L196.776 102.883L201.526 121.066Z" fill="white"/>
<path d="M193.143 105.272L187.002 105.296L186.932 105.026L193.074 105.004L193.143 105.272Z" fill="#ADCBF9"/>
<path d="M194.123 106.02L186.413 106.049L186.344 105.78L194.054 105.751L194.123 106.02Z" fill="#ADCBF9"/>
<path d="M196.244 109.72L186.23 109.757L186.158 109.488L196.174 109.451L196.244 109.72Z" fill="#ADCBF9"/>
<path d="M196.474 110.607L186.459 110.644L186.389 110.375L196.404 110.338L196.474 110.607Z" fill="#ADCBF9"/>
<path d="M196.705 111.494L186.691 111.531L186.621 111.262L196.636 111.225L196.705 111.494Z" fill="#ADCBF9"/>
<path d="M196.939 112.38L186.924 112.417L186.854 112.148L196.869 112.111L196.939 112.38Z" fill="#ADCBF9"/>
<path d="M197.169 113.267L187.154 113.304L187.084 113.035L197.098 112.998L197.169 113.267Z" fill="#ADCBF9"/>
<path d="M197.734 115.424L187.718 115.461L187.648 115.192L197.663 115.155L197.734 115.424Z" fill="#ADCBF9"/>
<path d="M197.965 116.31L187.951 116.348L187.881 116.078L197.895 116.042L197.965 116.31Z" fill="#ADCBF9"/>
<path d="M198.197 117.197L188.183 117.234L188.111 116.965L198.127 116.928L198.197 117.197Z" fill="#ADCBF9"/>
<path d="M198.429 118.084L188.414 118.12L188.344 117.852L198.357 117.815L198.429 118.084Z" fill="#ADCBF9"/>
<path d="M198.66 118.971L188.645 119.007L188.576 118.739L198.589 118.701L198.66 118.971Z" fill="#ADCBF9"/>
<path d="M207.466 143.812L192.82 143.866L188.07 125.684L202.717 125.629L207.466 143.812Z" fill="white"/>
<path d="M199.083 128.019L192.943 128.041L192.871 127.772L199.013 127.749L199.083 128.019Z" fill="#ADCBF9"/>
<path d="M200.064 128.766L192.355 128.795L192.283 128.525L199.994 128.497L200.064 128.766Z" fill="#ADCBF9"/>
<path d="M202.185 132.466L192.171 132.503L192.1 132.234L202.115 132.197L202.185 132.466Z" fill="#ADCBF9"/>
<path d="M202.417 133.353L192.401 133.39L192.332 133.12L202.346 133.084L202.417 133.353Z" fill="#ADCBF9"/>
<path d="M202.65 134.239L192.635 134.276L192.564 134.007L202.579 133.97L202.65 134.239Z" fill="#ADCBF9"/>
<path d="M202.88 135.125L192.867 135.163L192.795 134.893L202.811 134.857L202.88 135.125Z" fill="#ADCBF9"/>
<path d="M203.11 136.013L193.096 136.049L193.025 135.781L203.04 135.743L203.11 136.013Z" fill="#ADCBF9"/>
<path d="M203.673 138.171L193.66 138.207L193.588 137.938L203.603 137.901L203.673 138.171Z" fill="#ADCBF9"/>
<path d="M203.907 139.056L193.892 139.094L193.822 138.824L203.836 138.787L203.907 139.056Z" fill="#ADCBF9"/>
<path d="M204.138 139.943L194.124 139.98L194.053 139.711L204.068 139.674L204.138 139.943Z" fill="#ADCBF9"/>
<path d="M204.369 140.83L194.354 140.866L194.283 140.598L204.298 140.56L204.369 140.83Z" fill="#ADCBF9"/>
<path d="M204.602 141.716L194.587 141.753L194.518 141.484L204.531 141.447L204.602 141.716Z" fill="#ADCBF9"/>
<path d="M188.208 143.966L136.985 144.154L122.242 87.7137L128.915 80.5282L171.597 80.3712L188.208 143.966Z" fill="white"/>
<path d="M157.487 89.909L139.434 89.9756L139.227 89.1844L157.28 89.1178L157.487 89.909Z" fill="#ADCBF9"/>
<path d="M160.37 92.1065L137.704 92.1892L137.498 91.3991L160.163 91.3153L160.37 92.1065Z" fill="#ADCBF9"/>
<path d="M166.603 102.984L137.162 103.092L136.955 102.302L166.396 102.193L166.603 102.984Z" fill="#ADCBF9"/>
<path d="M167.282 105.591L137.842 105.699L137.635 104.908L167.075 104.799L167.282 105.591Z" fill="#ADCBF9"/>
<path d="M167.963 108.196L138.523 108.306L138.316 107.514L167.756 107.406L167.963 108.196Z" fill="#ADCBF9"/>
<path d="M168.645 110.803L139.204 110.911L138.998 110.121L168.437 110.012L168.645 110.803Z" fill="#ADCBF9"/>
<path d="M169.324 113.409L139.884 113.518L139.678 112.727L169.118 112.618L169.324 113.409Z" fill="#ADCBF9"/>
<path d="M170.981 119.751L141.54 119.859L141.334 119.069L170.774 118.96L170.981 119.751Z" fill="#ADCBF9"/>
<path d="M171.662 122.358L142.222 122.466L142.016 121.675L171.456 121.566L171.662 122.358Z" fill="#ADCBF9"/>
<path d="M172.342 124.963L142.901 125.073L142.695 124.281L172.136 124.173L172.342 124.963Z" fill="#ADCBF9"/>
<path d="M173.024 127.57L143.584 127.678L143.377 126.887L172.817 126.779L173.024 127.57Z" fill="#ADCBF9"/>
<path d="M173.703 130.176L144.264 130.285L144.057 129.494L173.497 129.385L173.703 130.176Z" fill="#ADCBF9"/>
<path d="M122.242 87.7135L130.784 87.6824L128.914 80.5281L122.242 87.7135Z" fill="#ADCBF9"/>
<path d="M245.619 188.23H203.918V173.501H245.753C249.005 173.501 251.642 176.138 251.642 179.39V182.207C251.642 185.533 248.945 188.23 245.619 188.23Z" fill="#FCECDB"/>
<path d="M287.236 179.561V181.776C287.236 182.961 286.919 184.069 286.361 185.023C285.243 186.94 283.164 188.23 280.783 188.23H202.641C202.124 188.23 201.705 187.81 201.705 187.294V186.962C201.705 186.446 202.124 186.027 202.641 186.027H250.276C250.531 185.716 250.756 185.38 250.943 185.023C251.391 184.182 251.643 183.224 251.643 182.207V179.39C251.643 178.872 251.576 178.369 251.45 177.891C251.236 177.081 250.856 176.338 250.346 175.704H202.641C202.124 175.704 201.705 175.286 201.705 174.768V174.437C201.705 173.92 202.124 173.501 202.641 173.501H281.177C283.946 173.501 286.279 175.356 287.003 177.891C287.156 178.422 287.236 178.982 287.236 179.561Z" fill="#699DEE"/>
<path d="M287.004 177.891H251.45C251.236 177.081 250.856 176.338 250.346 175.704H202.642C202.124 175.704 201.705 175.286 201.705 174.768V174.437C201.705 173.92 202.124 173.501 202.642 173.501H281.177C283.945 173.501 286.279 175.356 287.004 177.891Z" fill="#548EE2"/>
<path d="M203.918 180.865L209.704 181.113L203.918 181.262V180.865Z" fill="#F4D2B8"/>
<path d="M203.918 183.176L217.683 183.424L203.918 183.573V183.176Z" fill="#F4D2B8"/>
<path d="M213.865 199.655H258.256V188.199H213.504C210.44 188.199 207.957 190.683 207.957 193.747C207.957 197.009 210.601 199.655 213.865 199.655Z" fill="#2B478B"/>
<path d="M255.708 199.655H306.231V188.198H255.58C252.465 188.198 249.939 190.723 249.939 193.839V193.886C249.939 197.072 252.523 199.655 255.708 199.655Z" fill="#FCECDB"/>
<path d="M246.567 199.655H307.986C308.459 199.655 308.842 199.271 308.842 198.798C308.842 198.324 308.459 197.941 307.986 197.941H246.567C246.092 197.941 245.709 198.324 245.709 198.798C245.709 199.271 246.092 199.655 246.567 199.655Z" fill="#2B478B"/>
<path d="M246.567 189.912H307.986C308.459 189.912 308.842 189.529 308.842 189.055C308.842 188.582 308.459 188.198 307.986 188.198H246.567C246.092 188.198 245.709 188.582 245.709 189.055C245.709 189.529 246.092 189.912 246.567 189.912Z" fill="#2B478B"/>
<path d="M306.231 193.927L299.406 194.119L306.231 194.235V193.927Z" fill="#F4D2B8"/>
<path d="M306.231 191.29L289.994 191.483L306.231 191.599V191.29Z" fill="#F4D2B8"/>
<path d="M290.162 191.444C290.162 191.444 290.858 191.937 291.089 192.746C291.128 192.887 291.155 193.039 291.161 193.198C291.199 194.274 291.161 196.707 291.161 196.707L293.214 195.49L295.263 196.707V193.409C295.263 192.785 295.086 192.179 294.76 191.782C294.603 191.589 294.41 191.444 294.192 191.444H290.162Z" fill="#699DEE"/>
<path d="M290.162 191.444C290.162 191.444 290.858 191.937 291.088 192.746L295.204 192.794C295.204 192.794 295.044 191.635 294.193 191.444H290.162Z" fill="#568CDB"/>
<path d="M250.541 173.532H295.898V156.701H250.393C246.761 156.701 243.816 159.645 243.816 163.278V166.806C243.816 170.521 246.828 173.532 250.541 173.532Z" fill="#FCECDB"/>
<path d="M244.885 163.231V166.854C244.895 168.401 245.751 169.743 247.01 170.461C247.63 170.813 248.345 171.014 249.107 171.014H298.362C298.94 171.014 299.408 171.482 299.408 172.059V172.487C299.408 173.064 298.94 173.532 298.362 173.532H213.272C210.83 173.532 208.673 172.318 207.37 170.461C206.549 169.29 206.064 167.865 206.064 166.325V163.468C206.064 162.412 206.306 161.414 206.737 160.525C207.832 158.261 210.148 156.701 212.831 156.701H298.362C298.94 156.701 299.408 157.168 299.408 157.745V158.173C299.408 158.749 298.94 159.217 298.362 159.217H248.957C247.776 159.217 246.707 159.721 245.959 160.525C245.299 161.237 244.89 162.186 244.885 163.231Z" fill="#B5453C"/>
<path d="M295.899 165.117L289.584 165.399L295.899 165.57V165.117Z" fill="#F4D2B8"/>
<path d="M295.898 161.243L280.875 161.526L295.898 161.696V161.243Z" fill="#F4D2B8"/>
<path d="M281.029 161.47C281.029 161.47 282.022 162.003 282.349 162.881C282.407 163.034 282.444 163.198 282.453 163.371C282.507 164.537 282.453 167.175 282.453 167.175L285.379 165.856L288.299 167.175V163.6C288.299 162.924 288.049 162.266 287.582 161.835C287.357 161.627 287.084 161.47 286.775 161.47H281.029Z" fill="#F99746"/>
<path d="M281.029 161.47C281.029 161.47 282.02 162.004 282.349 162.881L288.214 162.933C288.214 162.933 287.983 161.677 286.773 161.47H281.029Z" fill="#ED7D2B"/>
<path d="M268.82 138.25C273.912 138.588 282.86 137.75 283.201 136.809C284.375 133.553 283.546 132.542 284.526 127.558L282.07 120.644C282.07 120.644 282.477 128.344 280.205 130.369C277.937 132.394 270.909 134.278 269.805 135.97C269.272 136.782 268.923 137.596 268.82 138.25Z" fill="#EBF3FF"/>
<path d="M47.2504 146.446L46.735 146.803C46.1848 147.185 45.4268 147.047 45.0455 146.497L42.0479 142.172C41.6665 141.622 41.8039 140.864 42.3542 140.483L43.0924 139.971C43.2002 139.896 43.3483 139.923 43.4229 140.031C43.4977 140.139 43.4709 140.286 43.363 140.361L42.6248 140.873C42.29 141.105 42.2063 141.567 42.4384 141.902L45.436 146.226C45.6681 146.561 46.1294 146.645 46.4642 146.413L46.9797 146.056C47.3146 145.824 47.3982 145.362 47.1661 145.027L45.1763 142.156C45.1015 142.048 45.1284 141.9 45.2362 141.826C45.3441 141.751 45.4921 141.777 45.5668 141.886L47.5567 144.756C47.938 145.306 47.8007 146.064 47.2504 146.446Z" fill="#AFCDFB"/>
<path d="M50.5357 150.711L49.6117 151.351C48.7538 151.946 47.5376 151.682 46.9005 150.763L42.3939 144.261C42.3192 144.153 42.346 144.005 42.4539 143.93C42.5617 143.856 42.7097 143.883 42.7844 143.99L47.2911 150.492C47.7789 151.196 48.6985 151.406 49.3411 150.961L50.2651 150.321C50.9076 149.875 51.0334 148.94 50.5456 148.236L45.4123 140.831C44.9245 140.126 44.005 139.916 43.3623 140.361C43.2546 140.437 43.1065 140.41 43.0318 140.301C42.957 140.194 42.9838 140.046 43.0917 139.971C43.9496 139.376 45.1658 139.64 45.8029 140.56L50.9362 147.965C51.5732 148.884 51.3936 150.117 50.5357 150.711Z" fill="#AFCDFB"/>
<path d="M56.7353 184.671L56.8465 185.587C56.9651 186.565 56.2662 187.457 55.2884 187.575L47.6034 188.508C46.6256 188.626 45.7336 187.927 45.6149 186.95L45.4557 185.638C45.4324 185.446 45.569 185.272 45.7606 185.248C45.9522 185.226 46.1265 185.362 46.1498 185.553L46.3089 186.865C46.3811 187.461 46.924 187.886 47.5191 187.814L55.2042 186.881C55.7993 186.809 56.2247 186.266 56.1524 185.671L56.0413 184.755C55.9691 184.16 55.4262 183.735 54.8311 183.807L49.7295 184.426C49.5379 184.449 49.3636 184.312 49.3404 184.121C49.3171 183.929 49.4537 183.755 49.6453 183.731L54.7469 183.113C55.7246 182.994 56.6166 183.693 56.7353 184.671Z" fill="#AFCDFB"/>
<path d="M64.5415 183.321L64.7407 184.964C64.9257 186.488 63.7474 187.889 62.1141 188.088L50.5603 189.49C50.3686 189.514 50.1944 189.376 50.1711 189.185C50.1478 188.993 50.2844 188.819 50.476 188.795L62.0298 187.393C63.2806 187.242 64.1853 186.19 64.0468 185.048L63.8474 183.406C63.7089 182.264 62.5787 181.459 61.3281 181.61L48.1675 183.208C46.9168 183.36 46.0121 184.412 46.1507 185.553C46.1739 185.745 46.0373 185.919 45.8458 185.943C45.6542 185.966 45.4799 185.829 45.4566 185.638C45.2716 184.114 46.4499 182.712 48.0832 182.514L61.2438 180.917C62.8771 180.718 64.3565 181.797 64.5415 183.321Z" fill="#AFCDFB"/>
<path d="M187.689 75.9208C187.689 75.3326 188.166 74.8554 188.754 74.8554C189.343 74.8554 189.819 75.3326 189.819 75.9208C189.819 76.509 189.343 76.9862 188.754 76.9862C188.166 76.9862 187.689 76.509 187.689 75.9208Z" fill="#F99746"/>
</svg>
