<svg width="400" height="200" viewBox="0 0 400 200" fill="none" xmlns="http://www.w3.org/2000/svg">
<mask id="mask0" mask-type="alpha" maskUnits="userSpaceOnUse" x="0" y="0" width="400" height="200">
<rect width="400" height="200" fill="#C4C4C4"/>
</mask>
<g mask="url(#mask0)">
<rect opacity="0.7" width="397" height="200" fill="#FF942D"/>
<path opacity="0.3" fill-rule="evenodd" clip-rule="evenodd" d="M270.304 13.6613C301.489 11.3947 320.483 41.1435 346.387 55.5829C373.076 70.4599 407.4 76.7225 424.22 99.4568C443.179 125.08 457.994 158.657 443.014 186.183C428.123 213.545 382.08 214.52 352.302 231.612C324.292 247.687 308.185 281.673 274.243 283.047C240.293 284.422 215.536 257.632 191.124 238.136C170.208 221.432 157.096 200.933 144.32 179.291C129.407 154.026 97.2261 127.771 110.65 101.81C124.366 75.2865 173.917 82.0131 202.897 66.0119C229.158 51.5128 238.943 15.9407 270.304 13.6613Z" fill="white"/>
<path d="M248.469 60.3507C248.469 60.3507 232.139 57.0184 231.221 74.7284C231.221 74.7284 226.964 79.3232 228.572 80.703C230.179 82.0828 231.331 81.2825 231.331 81.2825C231.331 81.2825 231.221 83.3522 231.911 84.3871C231.911 84.3871 230.069 87.3744 232.021 88.9819C233.974 90.5894 240.99 88.9819 240.99 88.9819L244.44 95.881L255.133 87.947L252.491 82.0828C252.491 82.0828 259.618 63.4553 248.469 60.3507Z" fill="#FEF0E4"/>
<path d="M258.499 70.6717C257.982 61.2752 250.682 58.6121 247.833 58.2534C245.129 57.8877 239.782 58.0671 237.595 63.6208C235.601 68.6986 240.355 73.2382 241.734 74.4386C242.023 73.8981 242.484 73.469 243.043 73.2192C243.603 72.9694 244.23 72.9129 244.825 73.0588C246.253 73.4934 246.985 75.2389 246.46 76.9499C246.304 77.5565 245.975 78.1048 245.513 78.5284C245.051 78.952 244.477 79.2329 243.859 79.337C246.115 82.959 249.813 84.7596 252.028 83.8076C255.05 82.4898 258.92 78.3021 258.499 70.6717Z" fill="#B1B2B2"/>
<path d="M243.274 97.2607L241.652 94.2734C241.652 94.2734 249.338 85.4978 254.512 85.1528L255.892 89.0991L243.274 97.2607Z" fill="#E6EDEC"/>
<path d="M227.881 142.326C227.881 142.326 230.53 106.05 244.018 95.0324C244.018 95.0324 252.545 88.0091 255.132 86.8018C255.132 86.8018 263.232 92.7143 264.156 100.993C265.081 109.272 257.809 143.036 257.809 143.036L227.881 142.326Z" fill="#918A76"/>
<path d="M257.809 143.036C257.809 143.036 256.746 155.903 253.297 158.663H204.941L187.127 182.927L182.381 176.207C182.381 176.207 191.529 143.602 204.637 141.774L257.809 143.036Z" fill="#C94D47"/>
<path d="M182.381 176.207L166.997 173.385C166.997 173.385 164.754 175.8 166.997 177.525L184.072 186.838L187.128 182.927L182.381 176.207Z" fill="#893434"/>
<path d="M222.135 118.538C222.135 118.538 217.091 118.717 213.738 121.815C211.669 123.746 209.661 127.092 211.041 129.342C212.345 131.48 217.423 127.092 217.423 127.092L221.762 126.202L222.135 118.538Z" fill="#FFC1A9"/>
<path d="M243.749 114.922C243.749 114.922 242.783 96.0328 248.316 93.011C252.952 90.479 258.823 93.487 258.534 98.6613C258.244 103.836 259.272 124.229 253.063 126.299L221.154 126.202V118.248L243.749 114.922Z" fill="#7A7464"/>
<path d="M293.423 79.5576L292.988 87.664L277.555 104.222C277.555 104.222 274.623 104.995 274.623 107.326C274.623 109.658 275.548 111.266 278.935 110.969C281.391 110.755 283.764 108.734 285.662 106.05L300.364 89.6648C301.156 88.776 301.625 87.6455 301.695 86.4567L302.047 80.2889L293.423 79.5576Z" fill="#D69C83"/>
<path d="M292.388 60.1023L291.525 80.765L302.909 82.89L304.289 60.1023H292.388Z" fill="#D1A142"/>
<path d="M259.72 153.433H215.117V134.916H262.486L259.72 153.433Z" fill="#498F91"/>
<path d="M257.437 170.508H199.25C198.793 170.508 198.354 170.327 198.031 170.003C197.707 169.68 197.525 169.241 197.525 168.783C197.525 168.326 197.707 167.887 198.031 167.564C198.354 167.24 198.793 167.059 199.25 167.059H255.947L263.494 116.557C263.902 113.905 265.242 111.486 267.275 109.734C269.307 107.983 271.898 107.014 274.581 107.002H291.698C292.155 107.002 292.594 107.184 292.917 107.507C293.241 107.831 293.423 108.27 293.423 108.727C293.423 109.184 293.241 109.623 292.917 109.947C292.594 110.27 292.155 110.452 291.698 110.452H274.581C272.724 110.461 270.93 111.132 269.523 112.345C268.115 113.558 267.186 115.232 266.903 117.068L259.141 169.011C259.087 169.425 258.885 169.805 258.571 170.081C258.258 170.356 257.854 170.508 257.437 170.508Z" fill="#4A3C3A"/>
<path d="M290.717 106.216H273.532C273.086 106.216 272.725 106.577 272.725 107.023V110.328C272.725 110.773 273.086 111.135 273.532 111.135H290.717C291.163 111.135 291.525 110.773 291.525 110.328V107.023C291.525 106.577 291.163 106.216 290.717 106.216Z" fill="#498F91"/>
<path d="M200.629 192.406H197.869V143.195C197.869 142.829 198.015 142.478 198.273 142.219C198.532 141.96 198.883 141.815 199.249 141.815H215.117V144.575H200.629V192.406Z" fill="#4A3C3A"/>
<path d="M216.498 181.367H213.738V128.472C213.738 128.106 213.884 127.755 214.142 127.496C214.401 127.238 214.752 127.092 215.118 127.092H263.453V129.852H216.498V181.367Z" fill="#4A3C3A"/>
<path d="M259.016 126.202H220.374C219.948 126.202 219.602 126.548 219.602 126.975V130.059C219.602 130.486 219.948 130.832 220.374 130.832H259.016C259.443 130.832 259.789 130.486 259.789 130.059V126.975C259.789 126.548 259.443 126.202 259.016 126.202Z" fill="#498F91"/>
<path d="M236.319 183.092H199.25V179.643H234.594V160.208H238.044V181.367C238.044 181.825 237.862 182.264 237.538 182.587C237.215 182.911 236.776 183.092 236.319 183.092Z" fill="#4A3C3A"/>
<path d="M258.706 158.828H215.117V161.588H258.706V158.828Z" fill="#4A3C3A"/>
<path d="M184.885 189.198C184.693 189.196 184.503 189.156 184.326 189.081L169.224 182.361C168.889 182.212 168.627 181.936 168.496 181.594C168.365 181.251 168.375 180.871 168.524 180.536C168.673 180.201 168.949 179.939 169.291 179.808C169.633 179.677 170.014 179.687 170.349 179.836L184.43 186.1L197.821 167.68C197.927 167.533 198.062 167.409 198.216 167.314C198.371 167.219 198.542 167.155 198.721 167.127C198.9 167.098 199.083 167.105 199.26 167.148C199.436 167.19 199.602 167.266 199.749 167.373C199.896 167.479 200.02 167.613 200.115 167.768C200.21 167.922 200.273 168.094 200.302 168.273C200.33 168.452 200.323 168.635 200.281 168.812C200.239 168.988 200.163 169.154 200.056 169.301L186.01 188.625C185.881 188.803 185.712 188.948 185.517 189.048C185.321 189.147 185.104 189.199 184.885 189.198Z" fill="#4A3C3A"/>
<path d="M199.25 201.554C197.689 201.554 196.163 201.091 194.865 200.224C193.567 199.357 192.556 198.124 191.958 196.682C191.361 195.24 191.205 193.653 191.509 192.122C191.814 190.591 192.565 189.185 193.669 188.081C194.773 186.977 196.179 186.225 197.71 185.921C199.241 185.616 200.828 185.772 202.27 186.37C203.712 186.967 204.945 187.979 205.812 189.277C206.68 190.575 207.143 192.101 207.143 193.662C207.141 195.754 206.309 197.761 204.829 199.24C203.349 200.72 201.343 201.552 199.25 201.554ZM199.25 188.239C198.178 188.24 197.13 188.559 196.239 189.156C195.348 189.753 194.654 190.6 194.245 191.591C193.836 192.582 193.729 193.672 193.939 194.724C194.149 195.775 194.666 196.741 195.425 197.498C196.184 198.256 197.15 198.772 198.201 198.981C199.253 199.189 200.343 199.081 201.334 198.671C202.324 198.26 203.171 197.565 203.766 196.674C204.362 195.782 204.68 194.734 204.68 193.662C204.676 192.224 204.102 190.846 203.084 189.831C202.067 188.816 200.688 188.246 199.25 188.246V188.239Z" fill="#403024"/>
<path d="M202.809 193.669C202.811 194.373 202.603 195.062 202.213 195.648C201.822 196.234 201.267 196.692 200.616 196.962C199.966 197.233 199.25 197.304 198.559 197.168C197.868 197.031 197.233 196.693 196.735 196.195C196.236 195.698 195.896 195.063 195.758 194.372C195.62 193.682 195.691 192.966 195.96 192.315C196.229 191.664 196.685 191.107 197.271 190.716C197.856 190.324 198.545 190.115 199.249 190.115C199.717 190.115 200.179 190.206 200.611 190.384C201.043 190.562 201.436 190.824 201.766 191.154C202.097 191.484 202.359 191.876 202.538 192.307C202.717 192.739 202.809 193.201 202.809 193.669Z" fill="#403024"/>
<path d="M222.396 144.116L221.99 144.378L237.798 168.86L238.204 168.598L222.396 144.116Z" fill="#403024"/>
<path d="M227.034 142.037L226.572 142.179L235.154 170.021L235.615 169.879L227.034 142.037Z" fill="#403024"/>
<path d="M208.752 161.596L208.65 162.068L237.133 168.2L237.234 167.728L208.752 161.596Z" fill="#403024"/>
<path d="M210.554 156.851L210.328 157.278L236.088 170.889L236.314 170.462L210.554 156.851Z" fill="#403024"/>
<path d="M235.936 167.804L211.463 183.612L211.725 184.018L236.198 168.21L235.936 167.804Z" fill="#403024"/>
<path d="M236.721 171.475L208.752 179.924L208.892 180.387L236.861 171.938L236.721 171.475Z" fill="#403024"/>
<path d="M235.074 168.756L228.947 197.24L229.419 197.341L235.546 168.858L235.074 168.756Z" fill="#403024"/>
<path d="M237.803 169.688L224.188 195.446L224.614 195.671L238.23 169.913L237.803 169.688Z" fill="#403024"/>
<path d="M235.554 169.785L235.148 170.047L250.956 194.529L251.362 194.267L235.554 169.785Z" fill="#403024"/>
<path d="M238.184 168.637L237.723 168.779L246.309 196.62L246.77 196.478L238.184 168.637Z" fill="#403024"/>
<path d="M236.207 170.449L236.105 170.921L264.588 177.053L264.689 176.581L236.207 170.449Z" fill="#403024"/>
<path d="M237.261 167.775L237.035 168.202L262.795 181.813L263.021 181.386L237.261 167.775Z" fill="#403024"/>
<path d="M261.614 154.641L237.135 170.453L237.397 170.859L261.876 155.047L261.614 154.641Z" fill="#403024"/>
<path d="M263.82 159.226L235.98 167.817L236.123 168.278L263.962 159.687L263.82 159.226Z" fill="#403024"/>
<path d="M243.922 141.311L237.795 169.794L238.267 169.896L244.394 141.412L243.922 141.311Z" fill="#403024"/>
<path d="M248.733 142.992L235.113 168.747L235.54 168.973L249.16 143.218L248.733 142.992Z" fill="#403024"/>
<path d="M241.375 169.328C241.375 170.259 241.099 171.169 240.582 171.943C240.064 172.717 239.329 173.32 238.469 173.676C237.609 174.032 236.662 174.125 235.75 173.943C234.837 173.761 233.998 173.312 233.341 172.653C232.683 171.994 232.235 171.155 232.054 170.242C231.874 169.329 231.968 168.383 232.325 167.523C232.682 166.663 233.286 165.929 234.061 165.413C234.836 164.897 235.746 164.622 236.677 164.623C237.294 164.623 237.906 164.745 238.476 164.982C239.047 165.218 239.565 165.565 240.002 166.002C240.438 166.439 240.784 166.958 241.02 167.528C241.255 168.099 241.376 168.711 241.375 169.328Z" fill="#403024"/>
<path d="M236.677 201.671C230.28 201.671 224.027 199.775 218.708 196.221C213.389 192.667 209.244 187.615 206.796 181.706C204.348 175.796 203.708 169.293 204.955 163.019C206.203 156.745 209.284 150.982 213.807 146.459C218.33 141.935 224.093 138.855 230.367 137.607C236.641 136.359 243.144 137 249.054 139.448C254.964 141.896 260.015 146.041 263.569 151.36C267.123 156.679 269.02 162.932 269.02 169.328C269.011 177.904 265.6 186.125 259.537 192.188C253.473 198.252 245.252 201.662 236.677 201.671ZM236.677 141.849C231.242 141.849 225.929 143.461 221.41 146.481C216.891 149.5 213.369 153.792 211.29 158.813C209.21 163.834 208.666 169.359 209.726 174.689C210.786 180.02 213.403 184.916 217.246 188.759C221.089 192.602 225.986 195.219 231.316 196.28C236.646 197.34 242.172 196.796 247.193 194.716C252.214 192.636 256.505 189.114 259.525 184.595C262.544 180.076 264.156 174.763 264.156 169.328C264.149 162.043 261.251 155.058 256.099 149.906C250.948 144.754 243.963 141.857 236.677 141.849Z" fill="#403024"/>
<path d="M236.677 198.263C230.952 198.265 225.356 196.568 220.595 193.389C215.835 190.209 212.124 185.689 209.933 180.4C207.742 175.112 207.168 169.292 208.284 163.677C209.401 158.062 212.157 152.905 216.205 148.857C220.253 144.809 225.411 142.052 231.026 140.936C236.64 139.819 242.46 140.393 247.749 142.584C253.038 144.776 257.558 148.486 260.737 153.247C263.917 158.007 265.613 163.604 265.612 169.328C265.601 176.999 262.549 184.352 257.125 189.776C251.701 195.2 244.348 198.252 236.677 198.263ZM236.677 142.822C231.435 142.822 226.31 144.377 221.951 147.289C217.592 150.202 214.195 154.342 212.188 159.185C210.182 164.028 209.657 169.358 210.68 174.5C211.703 179.641 214.227 184.364 217.934 188.071C221.641 191.778 226.364 194.303 231.506 195.325C236.648 196.348 241.977 195.823 246.821 193.817C251.664 191.811 255.804 188.413 258.716 184.055C261.629 179.696 263.183 174.571 263.183 169.328C263.176 162.301 260.381 155.563 255.412 150.594C250.442 145.624 243.705 142.829 236.677 142.822Z" fill="#EDBD4F"/>
<path d="M332.588 187.659L329.587 196.408L321.032 197.953C321.032 197.953 318.148 199.629 320.418 201.672H333.65L345.634 189.364L341.722 184.424L332.588 187.659Z" fill="#7A7464"/>
<path d="M313.348 122.097L315.39 144.009L330.782 190.06L343.214 184.424L327.863 138.559V122.097H313.348Z" fill="#498F91"/>
<path d="M296.526 193.503L289.779 197.353L280.866 198.394C280.866 198.394 279.141 200.519 281.438 201.671H306.158C306.361 199.487 306.254 197.285 305.84 195.131L296.526 193.503Z" fill="#7A7464"/>
<path d="M304.289 122.097L299.673 136.82L295.037 193.503L307.338 195.669L312.512 142.657L324.124 122.097H304.289Z" fill="#4D9AA0"/>
<path d="M267.42 20.1083C267.42 20.1083 261.783 27.1246 265.233 34.3687C265.233 34.3687 268.11 41.3781 266.84 43.2202C266.84 43.2202 269.717 43.4478 270.869 42.7579C270.869 42.7579 275.119 47.2423 278.224 46.442C281.328 45.6418 283.86 42.413 283.86 42.413L291.932 48.3945L295.837 41.2677L288.366 35.5139C288.366 35.5139 290.58 20.3359 279.99 17.121C279.99 17.121 271.118 14.589 267.42 20.1083Z" fill="#FEF0E4"/>
<path d="M289 21.0258C287.778 18.0692 285.448 15.7074 282.508 14.4441C283.079 14.1236 283.559 13.6638 283.904 13.1077C284.249 12.5516 284.448 11.9172 284.482 11.2636C284.482 8.91105 281.86 7 278.624 7C275.389 7 272.76 8.91105 272.76 11.2636C272.77 11.9411 272.984 12.5998 273.374 13.154C273.112 13.154 272.96 13.2092 272.96 13.2092C270.912 13.4465 268.948 14.1637 267.229 15.3025C265.51 16.4414 264.084 17.9697 263.067 19.7633C260.769 23.5578 255.133 27.0073 255.133 27.0073C256.975 34.824 264.543 32.4645 264.543 32.4645C263.853 30.5673 265.371 28.5044 265.371 28.5044C268.227 30.4086 275.754 30.4983 278.238 30.4707C278.281 30.2494 278.343 30.0324 278.424 29.8222C279.045 28.2285 280.584 27.3316 281.874 27.8283C283.164 28.3251 283.667 30.0222 283.046 31.6228C282.779 32.3285 282.297 32.9321 281.667 33.3476C283.618 34.7729 285.977 35.5324 288.393 35.5139C292.505 29.8843 289 21.0258 289 21.0258Z" fill="#983C25"/>
<path d="M290.386 53.4515L287.902 51.7267L293.353 36.7212L298.065 40.971L290.386 53.4515Z" fill="#4D9AA0"/>
<path d="M330.319 78.7505C327.325 70.6993 317.9 55.611 317.9 55.611C309.856 41.1229 298.052 40.9504 298.052 40.9504C292.691 43.7584 290.373 53.424 290.373 53.424C290.373 53.424 293.222 66.9669 294.388 72.9139C295.768 79.9303 304.564 76.7705 306.979 78.5504C310.318 81.0065 311.808 88.6162 311.808 88.6162C311.808 88.6162 303.668 111.162 299.756 124.781H333.561C333.561 124.781 339.129 100.082 330.319 78.7505Z" fill="#4DD6CB"/>
<path d="M303.295 76.6808L304.296 86.7949L283.171 103.87C283.171 103.87 278.079 103.525 277.479 105.16C277.479 105.16 277.044 106.285 277.907 106.802C277.907 106.802 274.63 110.597 275.582 111.714C276.534 112.832 279.286 112.149 279.286 112.149C279.286 112.149 282.391 114.129 284.806 113.184C287.22 112.239 289.635 109.258 290.725 106.043C290.725 106.043 310.505 92.6246 311.809 88.6369C313.113 84.6492 312.174 75.4114 312.174 75.4114L303.295 76.6808Z" fill="#FEF0E4"/>
<path d="M299.846 56.5492L302.557 77.3154L313.161 76.1909L311.181 55.4177C311.181 55.4177 311.029 47.7597 304.723 48.2151C298.287 48.6773 299.846 56.5492 299.846 56.5492Z" fill="#219653"/>
</g>
<circle opacity="0.4" cx="78" cy="90" r="10" fill="white"/>
<circle opacity="0.3" cx="65" cy="60" r="6" fill="white"/>
<circle opacity="0.2" cx="88" cy="32" r="6" fill="white"/>
</svg>
