<svg width="400" height="200" viewBox="0 0 400 200" fill="none" xmlns="http://www.w3.org/2000/svg">
<mask id="mask0" mask-type="alpha" maskUnits="userSpaceOnUse" x="0" y="0" width="400" height="200">
<rect width="400" height="200" fill="#C4C4C4"/>
</mask>
<g mask="url(#mask0)">
<rect opacity="0.5" x="-15" y="-5" width="415" height="222" fill="#80CCFF"/>
<path fill-rule="evenodd" clip-rule="evenodd" d="M169.462 188.746C169.462 196.11 167.278 203.308 163.187 209.431C159.096 215.553 153.282 220.325 146.479 223.143C139.676 225.961 132.19 226.698 124.968 225.262C117.745 223.825 111.112 220.279 105.905 215.073C100.698 209.866 97.152 203.232 95.7154 196.01C94.2788 188.788 95.0161 181.302 97.8341 174.499C100.652 167.696 105.424 161.881 111.547 157.79C117.669 153.699 124.867 151.515 132.231 151.515V156.745C125.902 156.745 119.714 158.622 114.452 162.138C109.189 165.654 105.087 170.652 102.665 176.5C100.243 182.347 99.6095 188.782 100.844 194.99C102.079 201.197 105.127 206.899 109.602 211.375C114.078 215.85 119.78 218.898 125.988 220.133C132.195 221.368 138.63 220.734 144.477 218.312C150.325 215.89 155.323 211.788 158.839 206.526C162.356 201.263 164.233 195.076 164.233 188.746H169.462Z" fill="#D84C5A"/>
<path fill-rule="evenodd" clip-rule="evenodd" d="M133.119 151.515C135.732 151.589 138.33 151.934 140.872 152.545L139.52 157.593C137.42 157.1 135.275 156.823 133.119 156.765V151.515ZM142.71 153.03C145.221 153.768 147.644 154.776 149.938 156.038L147.333 160.561C145.403 159.531 143.374 158.699 141.276 158.077L142.629 153.03H142.71ZM151.593 157.068L148.989 161.59C150.818 162.73 152.529 164.049 154.097 165.527L157.792 161.833C155.901 160.028 153.823 158.43 151.593 157.068ZM159.144 163.125C160.94 165.023 162.536 167.1 163.909 169.323L159.387 171.948C158.243 170.116 156.924 168.398 155.45 166.82L159.144 163.125ZM164.879 170.979L160.336 173.604C161.376 175.529 162.208 177.559 162.819 179.661L167.867 178.308C167.123 175.802 166.122 173.379 164.879 171.08V170.979ZM168.371 180.064C168.977 182.607 169.315 185.205 169.381 187.818H164.152C164.087 185.661 163.803 183.516 163.304 181.417L168.371 180.064Z" fill="white"/>
<path fill-rule="evenodd" clip-rule="evenodd" d="M138.874 154.16L134.089 156.926L129.283 159.692V154.16V148.628L134.089 151.394L138.874 154.16Z" fill="#855236"/>
<path fill-rule="evenodd" clip-rule="evenodd" d="M132.13 173.563H132.271L133.745 188.746H130.656L132.13 173.563Z" fill="#FF942D"/>
<path d="M131.466 188.762L119.988 208.643L120.793 209.108L132.271 189.227L131.466 188.762Z" fill="#FF942D"/>
<path fill-rule="evenodd" clip-rule="evenodd" d="M152.219 177.521L152.28 177.662L133.341 190.301L131.807 187.616L152.219 177.521Z" fill="#FF942D"/>
<path fill-rule="evenodd" clip-rule="evenodd" d="M132.191 192.643C132.963 192.647 133.718 192.422 134.361 191.996C135.005 191.57 135.507 190.963 135.805 190.252C136.104 189.54 136.184 188.756 136.035 187.999C135.887 187.241 135.518 186.545 134.974 185.998C134.43 185.451 133.735 185.078 132.979 184.926C132.222 184.774 131.438 184.85 130.725 185.144C130.011 185.439 129.402 185.938 128.973 186.579C128.544 187.221 128.314 187.975 128.314 188.746C128.32 189.775 128.729 190.76 129.454 191.489C130.18 192.218 131.163 192.632 132.191 192.643Z" fill="#FF942D"/>
<path fill-rule="evenodd" clip-rule="evenodd" d="M132.191 191.633C132.763 191.637 133.323 191.472 133.801 191.157C134.278 190.842 134.651 190.392 134.873 189.865C135.095 189.338 135.155 188.757 135.046 188.195C134.937 187.634 134.663 187.118 134.26 186.712C133.857 186.306 133.343 186.029 132.782 185.916C132.222 185.803 131.64 185.859 131.111 186.077C130.583 186.295 130.13 186.665 129.812 187.14C129.494 187.615 129.324 188.174 129.324 188.746C129.324 189.509 129.626 190.24 130.163 190.781C130.7 191.322 131.429 191.628 132.191 191.633Z" fill="#FEFFFA"/>
<path d="M157.082 173.935L154.219 175.598L154.564 176.192L157.427 174.528L157.082 173.935Z" fill="#FF942D"/>
<path d="M161.163 187.172H155.631V190.342H161.163V187.172Z" fill="#FF942D"/>
<path fill-rule="evenodd" clip-rule="evenodd" d="M158.156 195.995L158.298 195.45L160.256 195.975L160.095 196.52L158.156 195.995Z" fill="#FF942D"/>
<path fill-rule="evenodd" clip-rule="evenodd" d="M151.453 169.888L151.049 169.505L152.482 168.071L152.886 168.455L151.453 169.888Z" fill="#FF942D"/>
<path d="M133.785 159.773H130.615V165.305H133.785V159.773Z" fill="#FF942D"/>
<path d="M118.026 163.542L117.432 163.885L119.086 166.753L119.681 166.41L118.026 163.542Z" fill="#FF942D"/>
<path d="M146.354 163.478L144.699 166.346L145.294 166.689L146.948 163.821L146.354 163.478Z" fill="#FF942D"/>
<path d="M107.302 173.993L106.959 174.588L109.827 176.243L110.17 175.649L107.302 173.993Z" fill="#FF942D"/>
<path d="M108.77 187.172H103.238V190.342H108.77V187.172Z" fill="#FF942D"/>
<path d="M124.982 160.691L124.436 160.838L124.959 162.788L125.505 162.641L124.982 160.691Z" fill="#FF942D"/>
<path d="M111.913 168.072L111.514 168.472L112.941 169.899L113.341 169.5L111.913 168.072Z" fill="#FF942D"/>
<path d="M104.325 180.995L104.178 181.541L106.127 182.067L106.274 181.521L104.325 180.995Z" fill="#FF942D"/>
<path d="M160.109 180.994L158.158 181.515L158.304 182.061L160.255 181.54L160.109 180.994Z" fill="#FF942D"/>
<path fill-rule="evenodd" clip-rule="evenodd" d="M104.288 196.52L104.146 195.975L106.105 195.45L106.246 195.995L104.288 196.52Z" fill="#FF942D"/>
<path d="M139.467 160.724L138.945 162.675L139.491 162.821L140.013 160.87L139.467 160.724Z" fill="#FF942D"/>
<path d="M160.843 184.32L158.844 184.604L158.923 185.164L160.922 184.88L160.843 184.32Z" fill="#FF942D"/>
<path d="M105.477 192.301L103.479 192.586L103.558 193.146L105.557 192.861L105.477 192.301Z" fill="#FF942D"/>
<path d="M154.989 170.897L153.389 172.127L153.733 172.575L155.334 171.345L154.989 170.897Z" fill="#FF942D"/>
<path d="M158.684 177.066L156.826 177.857L157.048 178.377L158.905 177.586L158.684 177.066Z" fill="#FF942D"/>
<path d="M107.334 199.135L105.479 199.932L105.702 200.452L107.557 199.655L107.334 199.135Z" fill="#FF942D"/>
<path d="M149.543 165.575L148.322 167.183L148.773 167.525L149.993 165.916L149.543 165.575Z" fill="#FF942D"/>
<path d="M142.94 161.855L142.176 163.723L142.699 163.937L143.463 162.069L142.94 161.855Z" fill="#FF942D"/>
<path fill-rule="evenodd" clip-rule="evenodd" d="M136.249 162.115L135.684 162.034L135.966 160.036L136.532 160.096L136.249 162.115Z" fill="#FF942D"/>
<path d="M127.689 163.197L127.129 163.276L127.412 165.275L127.971 165.196L127.689 163.197Z" fill="#FF942D"/>
<path d="M121.486 161.787L120.963 162.002L121.73 163.87L122.253 163.655L121.486 161.787Z" fill="#FF942D"/>
<path d="M114.968 165.509L114.518 165.85L115.736 167.46L116.187 167.119L114.968 165.509Z" fill="#FF942D"/>
<path d="M109.614 170.63L109.266 171.075L110.855 172.32L111.204 171.875L109.614 170.63Z" fill="#FF942D"/>
<path d="M105.592 177.379L105.375 177.901L107.239 178.677L107.456 178.155L105.592 177.379Z" fill="#FF942D"/>
<path d="M157.217 198.903L156.998 199.424L158.86 200.206L159.078 199.684L157.217 198.903Z" fill="#FF942D"/>
<path d="M103.582 184.294L103.5 184.853L105.498 185.145L105.58 184.585L103.582 184.294Z" fill="#FF942D"/>
<path d="M156.05 191.046L155.971 191.605L157.97 191.888L158.049 191.328L156.05 191.046Z" fill="#FF942D"/>
<path fill-rule="evenodd" clip-rule="evenodd" d="M318.528 52.926H323.817L287.334 198.438H282.023L318.528 52.926Z" fill="#B26822"/>
<path fill-rule="evenodd" clip-rule="evenodd" d="M329.249 52.926H323.959L360.443 198.438H365.753L329.249 52.926Z" fill="#FFF8EB"/>
<path d="M385.075 5.70093H262.682V128.095H385.075V5.70093Z" fill="white"/>
<path d="M385.095 5.70093H323.898V128.095H385.095V5.70093Z" fill="#EAD8C8"/>
<path d="M391.354 4.24707H256.422V13.8779H391.354V4.24707Z" fill="#B26822"/>
<path d="M391.354 4.24707H323.898V13.8779H391.354V4.24707Z" fill="#FFF8EB"/>
<path fill-rule="evenodd" clip-rule="evenodd" d="M280.71 75.721L264.941 105.764L268.091 107.42L282.325 80.284L286.747 88.2996L288.564 91.5704L289.957 88.0977L307.402 44.4462L312.126 64.1924L313.358 69.3409L315.478 64.475L330.338 30.4745L339.888 48.4439L341.039 50.6245L342.735 48.8477L353.294 37.7834L361.33 51.8763L361.693 52.5425L362.44 52.7243L368.175 54.1174L369.931 73.702L370.012 74.651L370.86 75.1153L376.372 78.0227L377.543 94.9018L374.736 95.0836L379.966 103.947L383.903 94.4577L381.096 94.6596L379.845 76.7911L379.784 75.8018L378.916 75.3576L373.384 72.4098L371.587 52.5224L371.466 51.2706L370.234 50.9677L364.035 49.4534L355.212 33.9674L354.021 31.908L352.386 33.6242L341.867 44.6077L331.751 25.5683L330.035 22.3176L328.561 25.6894L314.347 58.216L309.562 38.1872L308.27 32.756L306.19 37.9449L288.039 83.2924L283.84 75.6807L282.244 72.7934L280.71 75.721Z" fill="#05BA79"/>
<path fill-rule="evenodd" clip-rule="evenodd" d="M245.761 58.8418C246.603 60.5262 248.043 61.8363 249.799 62.5164C256.744 65.4844 258.077 65.2623 260.278 72.874C257.269 76.6294 255.25 79.6378 251.131 81.5963H228.013C224.218 79.7993 223.349 76.8112 220.482 73.5201C220.664 60.3762 230.578 68.3312 233.384 58.9427C233.912 56.863 233.988 54.6942 233.606 52.5828L239.663 52.7241L245.72 52.5828C245.285 54.6479 245.299 56.7825 245.761 58.8418Z" fill="#F0C17D"/>
<path fill-rule="evenodd" clip-rule="evenodd" d="M245.7 58.7207C246.334 60.1013 247.425 61.2209 248.789 61.8906C255.997 65.5854 258.601 65.7671 259.369 73.2779C256.36 77.0333 255.33 79.6379 251.171 81.5964H239.582V52.6838L245.639 52.5425C245.203 54.5812 245.224 56.691 245.7 58.7207Z" fill="#E0AF6A"/>
<path fill-rule="evenodd" clip-rule="evenodd" d="M239.745 56.8428H239.644C238.819 56.9166 237.988 56.8204 237.201 56.5602C236.575 56.2775 236.272 55.6718 235.404 54.844C234.536 54.0162 233.385 53.4105 233.042 52.6432C232.739 51.5585 232.583 50.4381 232.578 49.3118C231.891 49.6954 231.164 47.737 231.023 47.1111C230.801 46.1621 230.114 44.5671 229.912 43.4768C229.791 42.8711 229.912 42.3664 230.074 42.225C230.236 42.0837 230.983 42.0837 231.689 43.0326C231.606 41.8679 231.64 40.6977 231.79 39.5397C232.739 34.1489 245.923 31.1203 247.377 39.5397C247.536 40.7037 247.576 41.8807 247.498 43.0528C248.185 42.1039 248.649 41.902 249.093 42.2452C249.537 42.5884 249.376 42.8913 249.255 43.497C249.053 44.5873 248.366 46.1823 248.165 47.1313C248.023 47.7572 247.296 49.6753 246.63 49.3522C246.61 50.4428 246.461 51.5271 246.186 52.5827C245.863 53.3701 244.55 54.0969 243.824 54.8036C243.097 55.5103 242.653 56.2573 242.047 56.54C241.31 56.8032 240.525 56.9064 239.745 56.8428Z" fill="#FFDBA7"/>
<path fill-rule="evenodd" clip-rule="evenodd" d="M239.744 56.843H239.582V34.3509C243.115 34.0279 246.669 35.4008 247.375 39.5197C247.534 40.6836 247.575 41.8607 247.497 43.0328C248.183 42.0838 248.647 41.8819 249.092 42.2252C249.536 42.5684 249.374 42.8713 249.253 43.477C249.051 44.5672 248.365 46.1623 248.163 47.1112C248.022 47.7371 247.295 49.6552 246.628 49.3322C246.608 50.4227 246.459 51.507 246.184 52.5626C245.861 53.35 244.549 54.0769 243.822 54.7836C243.095 55.4902 242.651 56.2373 242.045 56.5199C241.31 56.79 240.525 56.9001 239.744 56.843Z" fill="#F0C17D"/>
<path fill-rule="evenodd" clip-rule="evenodd" d="M252.445 199.912H243.743L242.592 206.635L255.069 206.554L252.445 199.912Z" fill="#662505"/>
<path fill-rule="evenodd" clip-rule="evenodd" d="M226.822 199.912H235.504L236.816 206.635L224.318 206.554L226.822 199.912Z" fill="#823008"/>
<path fill-rule="evenodd" clip-rule="evenodd" d="M239.037 128.862L237.119 160.238L235.867 200.315L226.661 200.214L225.712 171.282L226.338 160.904L223.834 124.501L224.561 104.27L251.737 103.059L252.201 160.985L253.11 170.656L244.024 159.874L239.704 128.862H239.037Z" fill="#0070BA"/>
<path fill-rule="evenodd" clip-rule="evenodd" d="M237.545 153.191L237.121 160.238L235.869 200.315L232.134 200.275L232.013 182.972L231.447 163.024L234.981 159.854L237.545 153.191Z" fill="#0070BA"/>
<path fill-rule="evenodd" clip-rule="evenodd" d="M239.361 103.059H251.738L254.928 116.485L254.706 127.348L253.131 160.985L253.656 170.373L252.485 199.932L243.743 200.214L242.35 160.339L239.705 128.862H239.361V103.059Z" fill="#08456C"/>
<path fill-rule="evenodd" clip-rule="evenodd" d="M244.348 103.059H251.737L254.927 116.485L254.705 127.348L253.13 160.985L253.655 170.373L252.484 199.932L249.052 200.053L248.588 172.715L247.477 165.447L250.284 161.065L251.717 144.106L252.424 126.338L250.183 122.138L247.618 117.535L244.348 103.059Z" fill="#072023"/>
<path fill-rule="evenodd" clip-rule="evenodd" d="M232.496 59.0233L239.603 59.7905L246.811 58.9829L246.145 106.572H233.223L232.496 59.0233Z" fill="#F7F2C1"/>
<path fill-rule="evenodd" clip-rule="evenodd" d="M245.438 56.4392C245.46 56.9255 245.595 57.3998 245.834 57.8242C246.072 58.2485 246.407 58.6109 246.811 58.8822L243.257 64.9393L239.502 59.6697C241.587 58.8008 243.576 57.7182 245.438 56.4392Z" fill="#FFF4EA"/>
<path fill-rule="evenodd" clip-rule="evenodd" d="M233.727 56.4392C233.698 56.9262 233.558 57.3999 233.316 57.8237C233.075 58.2474 232.739 58.6097 232.334 58.8822L235.887 64.9393L239.663 59.6697C237.574 58.81 235.583 57.7269 233.727 56.4392Z" fill="#FFF4EA"/>
<path fill-rule="evenodd" clip-rule="evenodd" d="M232.496 58.9023C231.395 59.718 230.167 60.3457 228.861 60.7599L228.68 68.5129L232.011 68.1495L229.992 70.7339L232.92 81.3742H237.362C235.928 75.5796 233.848 62.9202 232.496 58.9023Z" fill="#026499"/>
<path fill-rule="evenodd" clip-rule="evenodd" d="M223.23 123.633L239.584 124.46L240.634 115.314L254.646 114.809L252.627 98.6571C253.576 88.7437 260.703 69.3609 258.825 66.0901C256.948 62.8193 253.354 62.5568 250.265 61.83C248.569 61.4261 248.649 76.2257 247.458 75.2363L240.876 90.1368L239.806 90.5002V89.8541L232.013 66.292L230.397 60.9214C223.028 64.1922 216.082 65.4844 220.565 78.3456C221.941 81.8999 222.758 85.6459 222.987 89.4503L223.694 94.5989L224.623 104.512L223.23 123.633Z" fill="#0F7CC4"/>
<path fill-rule="evenodd" clip-rule="evenodd" d="M255.936 123.633L239.582 124.46V89.6725L247.375 66.1104L248.971 60.7397C256.602 62.4963 262.538 65.8479 259.752 74.873C257.836 81.2842 256.484 87.8509 255.714 94.498L254.805 104.411L255.936 123.633Z" fill="#0070BA"/>
<path fill-rule="evenodd" clip-rule="evenodd" d="M239.401 59.9524L237.563 62.6781L237.604 63.3646L239.138 64.9192L237.422 67.6651L239.562 89.7735L239.582 89.4908L239.905 69.5428L239.582 59.9524H239.401Z" fill="#CA6D13"/>
<path fill-rule="evenodd" clip-rule="evenodd" d="M239.744 59.9524L241.601 62.6781L241.54 63.3646L240.026 64.9192L241.722 67.6651L239.602 89.7735L239.582 89.4908V59.9524H239.744Z" fill="#7C4F38"/>
<path fill-rule="evenodd" clip-rule="evenodd" d="M246.649 58.9023C247.755 59.722 248.99 60.3499 250.304 60.7599L250.485 68.5129L247.154 68.1495L249.496 72.4702L239.744 89.8137L241.763 81.3742C243.217 75.6199 245.276 63.0616 246.649 58.9023Z" fill="white"/>
<path fill-rule="evenodd" clip-rule="evenodd" d="M254.423 66.1506H256.866C259.188 66.1506 260.339 68.412 261.066 70.9559L266.376 89.7531C269.122 99.5252 263.125 101.988 259.834 99.8483C258.306 98.5602 257.3 96.7579 257.008 94.7805L249.436 70.9559C248.851 68.3918 252.121 66.1506 254.423 66.1506Z" fill="#0070BA"/>
<path fill-rule="evenodd" clip-rule="evenodd" d="M225.329 65.2422H222.886C220.584 65.2422 219.413 67.5035 218.687 70.0475L213.397 88.8245C210.631 98.6168 216.647 101.08 219.918 98.9197C221.447 97.6315 222.452 95.8293 222.745 93.8519L230.316 70.0273C230.922 67.4631 227.631 65.2422 225.329 65.2422Z" fill="#0F7CC4"/>
<path fill-rule="evenodd" clip-rule="evenodd" d="M276.45 72.1676L282.305 71.1581L287.433 63.6271L286.585 62.2542L281.013 67.3421L275.703 66.3528L272.795 69.0785L270.393 71.9657L274.33 73.0156L276.45 72.1676Z" fill="#F0C17D"/>
<path fill-rule="evenodd" clip-rule="evenodd" d="M269.646 71.8644L270.454 70.3704L277.642 72.0663L276.854 73.0961L269.646 71.8644Z" fill="#F7F2C1"/>
<path fill-rule="evenodd" clip-rule="evenodd" d="M269.182 71.2791L257.956 94.397C255.776 98.8792 264.134 102.473 267.042 96.416L278.025 73.1568L269.182 71.2791Z" fill="#0070BA"/>
<path fill-rule="evenodd" clip-rule="evenodd" d="M203.322 71.2589L197.447 70.2494L192.318 62.7184L193.187 61.3455L198.739 66.4334L204.049 65.4239L206.956 68.1698L209.379 71.057L205.422 72.1069L203.322 71.2589Z" fill="#FFDBA7"/>
<path fill-rule="evenodd" clip-rule="evenodd" d="M210.105 70.956L209.317 69.4619L202.109 71.1579L202.917 72.1674L210.105 70.956Z" fill="#FFF4EA"/>
<path fill-rule="evenodd" clip-rule="evenodd" d="M210.569 70.3704L221.794 93.4681C223.975 97.9705 215.616 101.665 212.709 95.4871L201.766 72.2077L210.569 70.3704Z" fill="#0F7CC4"/>
<path fill-rule="evenodd" clip-rule="evenodd" d="M233.868 38.1466C232.738 39.4994 232.475 44.7085 232.556 46.5256C230.658 39.6609 229.649 34.7749 233.747 31.6857C239.138 27.6477 245.175 30.1513 246.164 31.8069C250.101 33.9874 248.728 40.1253 247.557 45.5565C247.309 42.4361 246.706 39.3541 245.76 36.3699C242.732 34.472 236.756 40.0849 233.868 38.1466Z" fill="#9B3B0B"/>
<path fill-rule="evenodd" clip-rule="evenodd" d="M239.846 29.5053C241.007 29.3983 242.177 29.5492 243.273 29.9471C244.369 30.3449 245.364 30.9801 246.185 31.807C250.123 33.9876 248.75 40.1254 247.579 45.5566C247.33 42.4362 246.727 39.3542 245.782 36.37C244.288 35.4211 242.067 36.37 239.866 37.2382L239.846 29.5053Z" fill="#823008"/>
<path fill-rule="evenodd" clip-rule="evenodd" d="M240.552 45.092C240.843 45.7905 241.187 46.4655 241.582 47.111C242.254 47.5901 243.088 47.7859 243.903 47.6562C244.907 47.7183 245.903 47.441 246.73 46.8688C247.212 46.1614 247.567 45.3758 247.78 44.5469L248.123 44.3854C248.19 43.9977 248.237 43.6068 248.265 43.2143C248.019 43.0731 247.754 42.9709 247.477 42.9115C246.445 42.7847 245.4 42.7847 244.368 42.9115C243.139 43.0075 241.93 43.2725 240.774 43.6989C240.175 43.9216 239.516 43.9216 238.916 43.6989C237.76 43.2725 236.551 43.0075 235.322 42.9115C234.29 42.7847 233.246 42.7847 232.213 42.9115C231.937 42.9709 231.671 43.0731 231.426 43.2143C231.453 43.6068 231.5 43.9977 231.567 44.3854L231.89 44.5469C232.118 45.3741 232.479 46.1584 232.96 46.8688C233.787 47.441 234.783 47.7183 235.787 47.6562C236.602 47.7859 237.436 47.5901 238.109 47.111C238.503 46.4655 238.848 45.7905 239.139 45.092C239.208 44.9658 239.311 44.8606 239.435 44.7873C239.559 44.714 239.701 44.6754 239.845 44.6754C239.989 44.6754 240.131 44.714 240.255 44.7873C240.38 44.8606 240.482 44.9658 240.552 45.092ZM241.158 45.2132C240.875 44.4257 240.855 44.0825 241.158 43.921C242.153 43.5383 243.202 43.3135 244.267 43.2547C244.731 43.2547 246.972 43.2547 247.255 43.497C247.538 43.7393 247.033 44.9507 246.912 45.2737C246.785 45.772 246.559 46.2391 246.245 46.6467C245.538 47.1054 244.705 47.3314 243.863 47.2928C243.158 47.4156 242.433 47.256 241.844 46.8486C241.501 46.3461 241.235 45.7948 241.057 45.2132H241.158ZM238.533 45.2132C238.336 45.7875 238.071 46.3364 237.745 46.8486C237.157 47.256 236.432 47.4156 235.726 47.2928C234.883 47.3413 234.047 47.1145 233.344 46.6467C233.031 46.2358 232.799 45.7702 232.657 45.2737C232.556 44.9507 232.173 43.6787 232.334 43.497C232.496 43.3153 234.858 43.2345 235.322 43.2547C236.38 43.3156 237.423 43.5403 238.412 43.921C238.836 44.0825 238.815 44.4257 238.533 45.2132Z" fill="#1C1C1C"/>
<path fill-rule="evenodd" clip-rule="evenodd" d="M232.496 58.9023C231.398 59.7226 230.169 60.3507 228.861 60.7599L228.68 68.5129L232.011 68.1495L229.669 72.4702L239.441 89.8137L237.422 81.3742C235.948 75.6199 233.869 63.0616 232.496 58.9023Z" fill="white"/>
<path fill-rule="evenodd" clip-rule="evenodd" d="M285.031 138.634C287.958 146.407 299.911 142.107 300.416 149.618C297.527 152.709 293.999 155.134 290.078 156.725H267.869C264.296 155.256 261.045 153.102 258.299 150.385C258.46 143.54 273.3 146.064 273.058 138.271C273.537 136.687 273.633 135.013 273.341 133.385C272.951 133.115 272.632 132.755 272.412 132.335C272.119 131.255 271.963 130.142 271.948 129.023C271.261 129.387 270.534 127.449 270.393 126.802C270.171 125.854 269.504 124.258 269.282 123.168C269.161 122.563 269.282 122.058 269.444 121.916C269.605 121.775 270.352 121.755 270.999 122.663C270.999 121.896 271.1 121.109 270.999 120.281C270.887 118.935 270.921 117.581 271.099 116.243C271.25 115.144 271.787 114.135 272.614 113.396C273.127 112.955 273.689 112.576 274.29 112.265H274.411H274.512H274.613H274.734H274.915C276.607 111.68 278.415 111.514 280.185 111.781C281.899 111.979 283.515 112.681 284.829 113.8C285.644 114.532 286.179 115.524 286.343 116.606C286.501 117.946 286.534 119.298 286.444 120.644C286.444 121.492 286.444 122.28 286.444 123.027C287.09 122.159 287.534 121.997 287.979 122.32C288.423 122.643 288.261 122.966 288.14 123.572C287.918 124.662 287.252 126.257 287.03 127.206C286.888 127.832 286.182 129.75 285.495 129.427C285.495 130.526 285.346 131.619 285.051 132.678C284.855 133.05 284.579 133.374 284.243 133.627C284.15 135.333 284.418 137.039 285.031 138.634Z" fill="#FFDBA7"/>
<path fill-rule="evenodd" clip-rule="evenodd" d="M285.032 138.25C287.96 146.024 301.185 141.905 300.417 149.617C297.55 152.686 294.36 149.395 290.464 150.99L285.073 147.255L279.016 136.211V133.182H283.054C282.61 128.458 281.378 112.992 281.257 111.841C281.802 111.841 280.086 111.437 280.631 111.518C282.345 111.716 283.961 112.419 285.275 113.537C286.089 114.269 286.625 115.261 286.789 116.344C286.946 117.684 286.98 119.036 286.89 120.382C286.89 121.23 286.89 122.017 286.89 122.764C287.536 121.896 287.98 121.735 288.424 122.058C288.869 122.381 288.707 122.704 288.586 123.309C288.364 124.4 287.697 125.995 287.475 126.944C287.334 127.57 286.627 129.488 285.941 129.165C285.941 130.263 285.791 131.357 285.497 132.415C285.3 132.787 285.025 133.111 284.689 133.364C284.413 134.997 284.53 136.672 285.032 138.25Z" fill="#F0C17D"/>
<path fill-rule="evenodd" clip-rule="evenodd" d="M270.253 119.756C269.687 116.283 270.152 113.699 272.898 111.68C278.289 107.904 285.012 110.892 285.315 111.68C287.798 112.952 288.182 115.718 287.839 118.746C287.172 124.804 287.152 134.111 279.581 134.677C271.02 135.424 271.323 126.257 270.253 119.756Z" fill="#823008"/>
<path fill-rule="evenodd" clip-rule="evenodd" d="M278.994 109.823C281.279 109.683 283.533 110.403 285.314 111.842C287.797 113.114 288.181 115.88 287.838 118.908C287.171 124.965 287.151 134.273 279.58 134.838H278.994V109.823Z" fill="#662505"/>
<path fill-rule="evenodd" clip-rule="evenodd" d="M301.689 156.725H256.281C257.896 140.815 267.547 146.327 272.252 140.229C272.609 139.597 272.874 138.917 273.039 138.21C273.248 137.617 273.377 136.999 273.423 136.373C274.129 135.545 284.285 135.727 284.588 136.373C284.642 137.007 284.778 137.631 284.992 138.23C285.257 139.022 285.683 139.751 286.244 140.37C291.231 145.842 301.73 139.785 301.689 156.725Z" fill="#CA6D13"/>
<path fill-rule="evenodd" clip-rule="evenodd" d="M301.688 156.724H278.994V135.868C280.888 135.727 282.792 135.904 284.627 136.393C284.681 137.027 284.817 137.651 285.031 138.25C285.231 139.031 285.66 139.734 286.263 140.269C291.29 144.953 303.142 141.38 301.688 156.724Z" fill="#FF942D"/>
<path fill-rule="evenodd" clip-rule="evenodd" d="M272.433 140.168C268.779 143.419 261.47 141.844 257.937 147.053C255.918 149.88 256.301 165.77 256.422 173.806H277.279C275.745 168.051 273.665 144.126 272.433 140.168Z" fill="#CA6D13"/>
<path fill-rule="evenodd" clip-rule="evenodd" d="M286.243 140.168C289.898 143.419 297.207 141.844 300.74 147.053C302.759 149.88 302.275 163.71 302.254 173.806H281.297C282.852 168.051 284.911 144.126 286.243 140.168Z" fill="#FF942D"/>
<path fill-rule="evenodd" clip-rule="evenodd" d="M277.863 197.711L278.004 206.696H265.184L265.789 197.287C264.356 187.05 278.489 184.466 277.863 197.711Z" fill="#CA6D13"/>
<path fill-rule="evenodd" clip-rule="evenodd" d="M280.044 197.711V206.696H292.886L292.159 197.287C293.35 187.05 279.196 184.466 280.044 197.711Z" fill="#FF942D"/>
<path fill-rule="evenodd" clip-rule="evenodd" d="M297.025 172.251L300.7 172.089C301.007 172.082 301.312 172.145 301.591 172.273C301.87 172.4 302.116 172.59 302.311 172.828C302.506 173.065 302.644 173.344 302.714 173.643C302.785 173.942 302.787 174.253 302.719 174.553L299.63 193.734C299.573 194.355 299.303 194.939 298.865 195.384C298.427 195.829 297.848 196.109 297.227 196.177H292.24L297.025 172.251Z" fill="#DC9C5F"/>
<path fill-rule="evenodd" clip-rule="evenodd" d="M260.985 172.251L257.371 172.13C257.064 172.122 256.76 172.185 256.48 172.313C256.201 172.441 255.955 172.631 255.76 172.868C255.566 173.106 255.428 173.385 255.357 173.683C255.286 173.982 255.285 174.293 255.352 174.593L258.421 193.774C258.479 194.399 258.752 194.984 259.194 195.43C259.636 195.876 260.22 196.154 260.844 196.217H265.831L260.985 172.251Z" fill="#DBA46E"/>
<path fill-rule="evenodd" clip-rule="evenodd" d="M264.699 147.235H293.329C293.987 147.221 294.64 147.341 295.251 147.587C295.861 147.833 296.415 148.2 296.879 148.666C297.343 149.132 297.708 149.688 297.952 150.299C298.195 150.91 298.312 151.564 298.296 152.222L295.368 191.129C295.323 192.435 294.782 193.675 293.856 194.597C292.93 195.52 291.688 196.055 290.381 196.096H267.627C266.322 196.055 265.082 195.519 264.159 194.596C263.237 193.673 262.7 192.433 262.66 191.129L259.712 152.222C259.698 151.563 259.818 150.909 260.064 150.297C260.309 149.686 260.676 149.131 261.142 148.665C261.608 148.199 262.163 147.832 262.774 147.587C263.386 147.341 264.04 147.221 264.699 147.235Z" fill="#0A5C92"/>
<path fill-rule="evenodd" clip-rule="evenodd" d="M279.016 147.235H293.331C293.988 147.221 294.642 147.341 295.252 147.587C295.862 147.833 296.416 148.2 296.881 148.666C297.345 149.132 297.71 149.688 297.953 150.299C298.197 150.91 298.314 151.564 298.297 152.222L295.37 191.129C295.324 192.435 294.784 193.675 293.857 194.597C292.931 195.52 291.689 196.055 290.383 196.096H279.016V147.235Z" fill="#0A5C92"/>
<path fill-rule="evenodd" clip-rule="evenodd" d="M262.518 195.651H295.509C296.812 195.657 298.06 196.178 298.98 197.101C299.899 198.025 300.415 199.275 300.415 200.578V205.484C300.421 205.892 300.373 206.299 300.274 206.695H257.753C257.648 206.3 257.593 205.893 257.592 205.484V200.578C257.597 199.273 258.118 198.023 259.041 197.1C259.963 196.177 261.213 195.657 262.518 195.651Z" fill="#DBA46E"/>
<path fill-rule="evenodd" clip-rule="evenodd" d="M279.016 195.651H295.511C296.814 195.657 298.062 196.178 298.982 197.101C299.901 198.025 300.417 199.275 300.417 200.578V205.484C300.423 205.892 300.375 206.299 300.276 206.695H279.016V195.651Z" fill="#DC9C5F"/>
<path fill-rule="evenodd" clip-rule="evenodd" d="M345.118 138.634C348.046 146.407 359.998 142.107 360.503 149.618C357.614 152.709 354.086 155.134 350.166 156.724H327.956C324.369 155.26 321.104 153.106 318.346 150.385C318.507 143.54 333.347 146.064 333.105 138.271C333.583 136.687 333.68 135.013 333.388 133.384C332.997 133.115 332.679 132.755 332.459 132.335C332.166 131.255 332.01 130.142 331.994 129.023C331.308 129.387 330.581 127.449 330.44 126.802C330.238 125.853 329.551 124.258 329.329 123.168C329.208 122.562 329.329 122.058 329.491 121.916C329.652 121.775 330.399 121.755 331.045 122.663C331.045 121.896 331.045 121.109 331.045 120.281C330.934 118.935 330.967 117.581 331.146 116.243C331.297 115.144 331.833 114.135 332.661 113.396C333.173 112.955 333.736 112.576 334.336 112.265H334.458H334.559H334.66H334.801H334.983C336.674 111.682 338.482 111.515 340.252 111.781C341.966 111.979 343.582 112.681 344.896 113.8C345.711 114.532 346.246 115.524 346.41 116.606C346.579 117.946 346.613 119.298 346.511 120.644C346.511 121.492 346.511 122.28 346.511 123.027C347.157 122.159 347.602 121.997 348.046 122.32C348.49 122.643 348.328 122.966 348.207 123.572C347.985 124.662 347.319 126.257 347.097 127.206C346.955 127.832 346.249 129.75 345.562 129.427C345.562 130.526 345.413 131.619 345.118 132.678C344.922 133.05 344.646 133.373 344.31 133.627C344.223 135.334 344.499 137.041 345.118 138.634Z" fill="#FFDBA7"/>
<path fill-rule="evenodd" clip-rule="evenodd" d="M345.118 138.25C348.046 146.024 361.271 141.905 360.503 149.617C357.636 152.686 354.446 149.395 350.55 150.99L345.159 147.255L339.102 136.211V133.182H343.14C342.695 128.458 341.464 112.992 341.343 111.841C341.888 111.841 340.172 111.437 340.717 111.518C342.431 111.716 344.047 112.419 345.361 113.537C346.175 114.269 346.711 115.261 346.875 116.344C347.043 117.683 347.077 119.036 346.976 120.382C346.976 121.23 346.976 122.017 346.976 122.764C347.622 121.896 348.066 121.735 348.51 122.058C348.954 122.381 348.793 122.704 348.672 123.309C348.45 124.4 347.783 125.995 347.561 126.944C347.42 127.57 346.713 129.488 346.027 129.165C346.027 130.263 345.877 131.357 345.583 132.415C345.386 132.787 345.111 133.111 344.775 133.364C344.499 134.997 344.616 136.672 345.118 138.25Z" fill="#F0C17D"/>
<path fill-rule="evenodd" clip-rule="evenodd" d="M330.44 119.756C329.854 116.283 330.319 113.699 333.065 111.68C338.456 107.904 345.179 110.892 345.482 111.68C347.965 112.952 348.349 115.718 348.006 118.746C347.339 124.804 347.339 134.111 339.748 134.677C331.187 135.424 331.49 126.257 330.44 119.756Z" fill="#823008"/>
<path fill-rule="evenodd" clip-rule="evenodd" d="M339.162 109.823C341.447 109.683 343.701 110.403 345.482 111.842C347.965 113.114 348.349 115.88 348.005 118.908C347.339 124.965 347.339 134.273 339.748 134.838H339.162V109.823Z" fill="#662505"/>
<path fill-rule="evenodd" clip-rule="evenodd" d="M361.856 156.725H316.488C318.104 140.815 327.754 146.327 332.459 140.229C332.816 139.597 333.081 138.917 333.246 138.21C333.455 137.617 333.584 136.999 333.63 136.373C334.357 135.545 344.492 135.727 344.795 136.373C344.849 137.007 344.985 137.631 345.199 138.23C345.464 139.022 345.89 139.751 346.451 140.37C351.397 145.842 361.917 139.785 361.856 156.725Z" fill="#CA6D13"/>
<path fill-rule="evenodd" clip-rule="evenodd" d="M361.856 156.724H339.162V135.868C341.056 135.725 342.96 135.902 344.795 136.393C344.849 137.027 344.985 137.651 345.199 138.25C345.399 139.031 345.828 139.734 346.431 140.269C351.478 144.954 363.29 141.38 361.856 156.724Z" fill="#FF942D"/>
<path fill-rule="evenodd" clip-rule="evenodd" d="M332.5 140.168C328.865 143.419 321.557 141.844 318.003 147.053C315.984 149.88 316.368 165.77 316.489 173.806H337.446C335.912 168.051 333.832 144.126 332.5 140.168Z" fill="#CA6D13"/>
<path fill-rule="evenodd" clip-rule="evenodd" d="M346.41 140.168C350.064 143.419 357.373 141.844 360.906 147.053C362.925 149.88 362.441 163.71 362.42 173.806H341.463C343.098 168.051 345.117 144.126 346.41 140.168Z" fill="#FF942D"/>
<path fill-rule="evenodd" clip-rule="evenodd" d="M338.031 197.711L338.172 206.696H325.352L325.957 197.287C324.584 187.05 338.697 184.466 338.031 197.711Z" fill="#CA6D13"/>
<path fill-rule="evenodd" clip-rule="evenodd" d="M340.212 197.711V206.696H353.053L352.327 197.287C353.518 187.05 339.364 184.466 340.212 197.711Z" fill="#FF942D"/>
<path fill-rule="evenodd" clip-rule="evenodd" d="M357.231 172.251L360.845 172.13C361.152 172.122 361.457 172.185 361.736 172.313C362.015 172.441 362.262 172.631 362.456 172.868C362.651 173.106 362.789 173.385 362.86 173.683C362.93 173.982 362.932 174.293 362.864 174.593L359.775 193.774C359.737 194.436 359.456 195.061 358.987 195.53C358.518 195.999 357.893 196.279 357.231 196.318H352.244L357.231 172.251Z" fill="#DC9C5F"/>
<path fill-rule="evenodd" clip-rule="evenodd" d="M321.151 172.251L317.537 172.13C317.23 172.122 316.926 172.185 316.646 172.313C316.367 172.441 316.121 172.631 315.926 172.868C315.732 173.106 315.594 173.385 315.523 173.683C315.452 173.982 315.451 174.293 315.518 174.593L318.587 193.774C318.645 194.399 318.918 194.984 319.36 195.43C319.802 195.876 320.386 196.154 321.01 196.217H325.997L321.151 172.251Z" fill="#DBA46E"/>
<path fill-rule="evenodd" clip-rule="evenodd" d="M324.928 147.235H353.557C354.215 147.221 354.869 147.341 355.479 147.587C356.089 147.833 356.643 148.2 357.108 148.666C357.572 149.132 357.937 149.688 358.18 150.299C358.424 150.91 358.541 151.564 358.524 152.222L355.597 191.129C355.551 192.435 355.011 193.675 354.084 194.598C353.158 195.52 351.916 196.055 350.61 196.096H327.795C326.49 196.055 325.25 195.519 324.327 194.596C323.405 193.673 322.868 192.433 322.828 191.129L319.88 152.222C319.866 151.558 319.987 150.898 320.237 150.283C320.486 149.668 320.859 149.109 321.331 148.643C321.803 148.176 322.366 147.81 322.984 147.568C323.603 147.326 324.264 147.213 324.928 147.235Z" fill="#0A5C92"/>
<path fill-rule="evenodd" clip-rule="evenodd" d="M339.182 147.235H353.497C354.154 147.221 354.808 147.341 355.418 147.587C356.029 147.833 356.582 148.2 357.047 148.666C357.511 149.132 357.876 149.688 358.119 150.299C358.363 150.91 358.48 151.564 358.463 152.222L355.536 191.129C355.49 192.435 354.95 193.675 354.024 194.597C353.097 195.52 351.855 196.055 350.549 196.096H339.182V147.235Z" fill="#0A5C92"/>
<path fill-rule="evenodd" clip-rule="evenodd" d="M322.686 195.651H355.677C356.98 195.657 358.228 196.178 359.148 197.101C360.067 198.025 360.583 199.275 360.583 200.578V205.484C360.589 205.892 360.541 206.299 360.442 206.695H317.921C317.815 206.3 317.761 205.893 317.76 205.484V200.578C317.765 199.273 318.286 198.023 319.209 197.1C320.131 196.177 321.381 195.657 322.686 195.651Z" fill="#DBA46E"/>
<path fill-rule="evenodd" clip-rule="evenodd" d="M339.182 195.651H355.677C356.98 195.657 358.228 196.178 359.148 197.101C360.067 198.025 360.583 199.275 360.583 200.578V205.484C360.589 205.892 360.541 206.299 360.442 206.695H339.182V195.651Z" fill="#DC9C5F"/>
<path fill-rule="evenodd" clip-rule="evenodd" d="M254.684 160.803C257.612 168.576 269.565 164.276 270.069 171.787C267.18 174.878 263.653 177.303 259.732 178.894H237.523C233.933 177.434 230.666 175.28 227.912 172.554C228.074 165.709 242.914 168.213 242.671 160.44C243.15 158.856 243.247 157.182 242.954 155.554C242.564 155.284 242.245 154.924 242.025 154.504C241.732 153.424 241.576 152.311 241.561 151.192C240.874 151.556 240.147 149.618 240.006 148.971C239.784 148.023 239.118 146.428 238.896 145.337C238.775 144.732 238.896 144.227 239.057 144.085C239.219 143.944 239.966 143.924 240.612 144.832C240.653 144.039 240.653 143.244 240.612 142.45C240.523 141.104 240.557 139.752 240.713 138.412C240.884 137.321 241.426 136.323 242.247 135.585C242.76 135.145 243.322 134.765 243.923 134.455H244.044H244.145H244.246H244.347H244.468H244.67C246.362 133.869 248.17 133.703 249.94 133.97C251.648 134.165 253.259 134.868 254.563 135.989C255.391 136.713 255.935 137.708 256.098 138.796C256.255 140.136 256.289 141.487 256.199 142.834C256.157 143.627 256.157 144.422 256.199 145.216C256.845 144.348 257.289 144.186 257.733 144.509C258.177 144.832 258.016 145.156 257.895 145.761C257.673 146.852 257.006 148.447 256.784 149.395C256.643 150.021 255.916 151.939 255.25 151.616C255.25 152.715 255.1 153.809 254.806 154.867C254.607 155.244 254.324 155.569 253.978 155.816C253.867 157.509 254.107 159.207 254.684 160.803Z" fill="#FFDBA7"/>
<path fill-rule="evenodd" clip-rule="evenodd" d="M254.685 160.419C257.612 168.192 270.837 164.074 270.07 171.786C267.203 174.855 264.013 171.564 260.116 173.159L254.725 169.424L248.668 158.38V155.351H252.706C252.262 150.627 251.03 135.161 250.909 134.01C251.454 134.01 249.738 133.606 250.283 133.687C251.991 133.885 253.601 134.588 254.907 135.706C255.734 136.43 256.278 137.425 256.441 138.513C256.599 139.853 256.633 141.204 256.542 142.551C256.5 143.344 256.5 144.14 256.542 144.933C257.188 144.065 257.632 143.903 258.077 144.227C258.521 144.55 258.359 144.873 258.238 145.478C258.016 146.569 257.35 148.164 257.128 149.113C256.986 149.739 256.26 151.657 255.593 151.334C255.593 152.432 255.444 153.526 255.149 154.584C254.951 154.961 254.667 155.286 254.321 155.533C254.061 157.168 254.185 158.841 254.685 160.419Z" fill="#F0C17D"/>
<path fill-rule="evenodd" clip-rule="evenodd" d="M239.905 141.925C239.34 138.452 239.804 135.868 242.55 133.849C247.941 130.073 254.664 133.061 254.967 133.849C257.451 135.121 257.834 137.887 257.491 140.915C256.804 146.973 256.804 156.28 249.233 156.846C240.672 157.593 240.975 148.426 239.905 141.925Z" fill="#823008"/>
<path fill-rule="evenodd" clip-rule="evenodd" d="M248.648 131.991C250.932 131.858 253.185 132.577 254.968 134.01C257.451 135.282 257.835 138.048 257.492 141.077C256.805 147.134 256.805 156.442 249.234 157.007H248.648V131.991Z" fill="#662505"/>
<path fill-rule="evenodd" clip-rule="evenodd" d="M271.321 178.893H225.994C227.609 162.983 237.26 168.495 241.965 162.398C242.313 161.762 242.578 161.083 242.752 160.379C242.961 159.786 243.09 159.168 243.136 158.542C243.842 157.714 253.998 157.896 254.301 158.542C254.355 159.176 254.491 159.8 254.705 160.399C254.973 161.185 255.391 161.912 255.936 162.539C260.883 168.051 271.382 161.994 271.321 178.893Z" fill="#CA6D13"/>
<path fill-rule="evenodd" clip-rule="evenodd" d="M271.322 178.893H248.648V157.956C250.543 157.828 252.446 158.012 254.282 158.501C254.335 159.135 254.471 159.76 254.685 160.359C254.885 161.14 255.314 161.843 255.917 162.378C260.944 167.122 272.796 163.549 271.322 178.893Z" fill="#FF942D"/>
<path fill-rule="evenodd" clip-rule="evenodd" d="M241.985 162.337C238.331 165.588 231.022 164.013 227.489 169.222C225.47 172.049 225.833 187.919 225.974 195.974H246.932C245.377 190.261 243.318 166.295 241.985 162.337Z" fill="#CA6D13"/>
<path fill-rule="evenodd" clip-rule="evenodd" d="M255.896 162.337C259.53 165.588 266.839 164.013 270.393 169.222C272.412 172.049 271.907 185.859 271.907 195.974H250.949C252.484 190.261 254.563 166.295 255.896 162.337Z" fill="#FF942D"/>
<path fill-rule="evenodd" clip-rule="evenodd" d="M266.678 194.42L270.292 194.299C270.599 194.291 270.904 194.354 271.183 194.482C271.463 194.61 271.709 194.8 271.904 195.037C272.098 195.275 272.236 195.554 272.307 195.852C272.378 196.151 272.379 196.462 272.311 196.762L269.222 215.943C269.165 216.568 268.891 217.153 268.449 217.599C268.007 218.045 267.424 218.323 266.8 218.386H261.812L266.678 194.42Z" fill="#DC9C5F"/>
<path fill-rule="evenodd" clip-rule="evenodd" d="M230.638 194.42L227.024 194.299C226.717 194.291 226.412 194.354 226.133 194.482C225.854 194.61 225.607 194.8 225.413 195.037C225.218 195.275 225.08 195.554 225.009 195.852C224.939 196.151 224.937 196.462 225.005 196.762L228.074 215.943C228.131 216.568 228.405 217.153 228.847 217.599C229.289 218.045 229.872 218.323 230.496 218.386H235.483L230.638 194.42Z" fill="#DBA46E"/>
<path fill-rule="evenodd" clip-rule="evenodd" d="M234.353 169.404H262.983C263.64 169.393 264.293 169.515 264.902 169.762C265.51 170.009 266.063 170.376 266.527 170.842C266.991 171.307 267.356 171.861 267.6 172.471C267.845 173.081 267.964 173.734 267.95 174.391L265.022 213.298C264.977 214.604 264.436 215.844 263.51 216.767C262.584 217.689 261.342 218.225 260.035 218.265H237.281C235.976 218.224 234.737 217.688 233.814 216.765C232.891 215.842 232.355 214.602 232.314 213.298L229.366 174.391C229.353 173.732 229.472 173.078 229.718 172.467C229.964 171.855 230.33 171.3 230.796 170.834C231.262 170.368 231.817 170.001 232.429 169.756C233.04 169.51 233.695 169.39 234.353 169.404Z" fill="#0A5C92"/>
<path fill-rule="evenodd" clip-rule="evenodd" d="M248.668 169.404H262.983C263.64 169.393 264.292 169.515 264.901 169.762C265.51 170.009 266.063 170.376 266.527 170.841C266.99 171.307 267.355 171.861 267.6 172.471C267.844 173.081 267.963 173.734 267.95 174.391L265.022 213.298C264.977 214.604 264.436 215.844 263.51 216.766C262.584 217.689 261.342 218.224 260.035 218.265H248.668V169.404Z" fill="#0A5C92"/>
<path fill-rule="evenodd" clip-rule="evenodd" d="M314.833 160.803C317.761 168.576 329.713 164.276 330.218 171.787C327.329 174.878 323.801 177.303 319.881 178.894H297.671C294.081 177.434 290.815 175.28 288.061 172.554C288.222 165.709 303.062 168.213 302.82 160.44C303.298 158.856 303.395 157.182 303.102 155.554C302.712 155.284 302.394 154.924 302.174 154.504C301.88 153.424 301.724 152.311 301.709 151.192C301.023 151.556 300.296 149.618 300.155 148.971C299.932 148.023 299.266 146.428 299.044 145.337C298.923 144.732 299.044 144.227 299.206 144.085C299.367 143.944 300.114 143.924 300.76 144.832C300.76 144.065 300.861 143.278 300.76 142.45C300.65 141.104 300.684 139.751 300.861 138.412C301.016 137.32 301.552 136.319 302.375 135.585C302.888 135.145 303.451 134.765 304.051 134.455H304.172H304.273H304.374H304.496H304.677C306.369 133.869 308.177 133.703 309.947 133.97C311.656 134.165 313.266 134.868 314.57 135.989C315.398 136.713 315.942 137.708 316.105 138.796C316.262 140.136 316.296 141.487 316.206 142.834C316.206 143.661 316.206 144.469 316.206 145.216C316.852 144.348 317.296 144.186 317.74 144.509C318.185 144.832 318.023 145.156 317.902 145.761C317.68 146.852 317.013 148.447 316.791 149.395C316.65 150.021 315.943 151.939 315.257 151.616C315.257 152.715 315.108 153.809 314.813 154.867C314.615 155.244 314.331 155.569 313.985 155.816C313.919 157.519 314.208 159.217 314.833 160.803Z" fill="#FFDBA7"/>
<path fill-rule="evenodd" clip-rule="evenodd" d="M314.832 160.419C317.76 168.192 330.985 164.074 330.218 171.786C327.35 174.855 324.16 171.564 320.264 173.159L314.832 169.424L308.775 158.38V155.351H312.813C312.369 150.627 311.138 135.161 311.016 134.01C311.562 134.01 309.845 133.606 310.391 133.687C312.099 133.882 313.71 134.585 315.014 135.706C315.842 136.43 316.386 137.425 316.549 138.513C316.706 139.853 316.74 141.204 316.65 142.551C316.65 143.379 316.65 144.186 316.65 144.933C317.296 144.065 317.74 143.903 318.184 144.227C318.628 144.55 318.467 144.873 318.346 145.478C318.123 146.569 317.457 148.164 317.235 149.113C317.094 149.739 316.367 151.657 315.701 151.334C315.701 152.432 315.551 153.526 315.256 154.584C315.058 154.961 314.775 155.286 314.429 155.533C314.181 157.171 314.319 158.844 314.832 160.419Z" fill="#F0C17D"/>
<path fill-rule="evenodd" clip-rule="evenodd" d="M300.073 141.925C299.508 138.452 299.972 135.868 302.718 133.849C308.109 130.073 314.832 133.061 315.135 133.849C317.619 135.121 318.002 137.887 317.659 140.915C316.993 146.973 316.972 156.28 309.401 156.846C300.84 157.593 301.143 148.426 300.073 141.925Z" fill="#823008"/>
<path fill-rule="evenodd" clip-rule="evenodd" d="M308.775 131.991C311.059 131.858 313.312 132.577 315.095 134.01C317.578 135.282 317.962 138.048 317.619 141.077C316.952 147.134 316.932 156.442 309.361 157.007H308.775V131.991Z" fill="#662505"/>
<path fill-rule="evenodd" clip-rule="evenodd" d="M331.49 178.893H286.143C287.758 162.983 297.409 168.495 302.113 162.398C302.471 161.766 302.736 161.086 302.901 160.379C303.11 159.786 303.239 159.168 303.284 158.542C303.991 157.714 314.147 157.896 314.449 158.542C314.503 159.176 314.639 159.8 314.853 160.399C315.121 161.185 315.54 161.912 316.085 162.539C321.052 168.051 331.551 161.994 331.49 178.893Z" fill="#CA6D13"/>
<path fill-rule="evenodd" clip-rule="evenodd" d="M331.49 178.893H308.775V157.956C310.67 157.828 312.573 158.012 314.409 158.501C314.462 159.135 314.598 159.76 314.812 160.359C315.012 161.14 315.441 161.843 316.044 162.378C321.112 167.122 333.004 163.549 331.49 178.893Z" fill="#FF942D"/>
<path fill-rule="evenodd" clip-rule="evenodd" d="M302.153 162.337C298.499 165.588 291.19 164.013 287.657 169.222C285.638 172.049 286.001 187.919 286.142 195.974H307.1C305.565 190.261 303.486 166.295 302.153 162.337Z" fill="#CA6D13"/>
<path fill-rule="evenodd" clip-rule="evenodd" d="M316.064 162.337C319.718 165.588 327.027 164.013 330.56 169.222C332.58 172.049 332.075 185.859 332.075 195.974H311.117C312.652 190.261 314.832 166.295 316.064 162.337Z" fill="#FF942D"/>
<path fill-rule="evenodd" clip-rule="evenodd" d="M326.947 194.42L330.561 194.299C330.868 194.291 331.173 194.354 331.452 194.482C331.731 194.61 331.978 194.8 332.172 195.037C332.367 195.275 332.505 195.554 332.576 195.852C332.646 196.151 332.648 196.462 332.58 196.762L329.491 215.943C329.434 216.565 329.164 217.148 328.726 217.593C328.288 218.038 327.709 218.318 327.089 218.386H322.102L326.947 194.42Z" fill="#DC9C5F"/>
<path fill-rule="evenodd" clip-rule="evenodd" d="M290.806 194.42L287.192 194.299C286.885 194.291 286.58 194.354 286.301 194.482C286.022 194.61 285.775 194.8 285.581 195.037C285.386 195.275 285.248 195.554 285.177 195.852C285.107 196.151 285.105 196.462 285.173 196.762L288.242 215.943C288.299 216.568 288.573 217.153 289.015 217.599C289.457 218.045 290.04 218.323 290.664 218.386H295.651L290.806 194.42Z" fill="#DBA46E"/>
<path fill-rule="evenodd" clip-rule="evenodd" d="M294.521 169.404H323.151C323.808 169.393 324.461 169.515 325.069 169.762C325.678 170.009 326.231 170.376 326.695 170.842C327.159 171.307 327.524 171.861 327.768 172.471C328.013 173.081 328.132 173.734 328.118 174.391L325.19 213.298C325.145 214.604 324.604 215.844 323.678 216.767C322.752 217.689 321.51 218.225 320.203 218.265H297.449C296.144 218.224 294.904 217.688 293.982 216.765C293.059 215.842 292.523 214.602 292.482 213.298L289.534 174.391C289.521 173.732 289.64 173.078 289.886 172.467C290.132 171.855 290.498 171.3 290.964 170.834C291.43 170.368 291.985 170.001 292.597 169.756C293.208 169.51 293.863 169.39 294.521 169.404Z" fill="#0A5C92"/>
<path fill-rule="evenodd" clip-rule="evenodd" d="M308.775 169.404H323.09C323.747 169.393 324.4 169.515 325.009 169.762C325.618 170.009 326.17 170.376 326.634 170.841C327.098 171.307 327.463 171.861 327.707 172.471C327.952 173.081 328.071 173.734 328.057 174.391L325.13 213.298C325.084 214.604 324.543 215.844 323.617 216.766C322.691 217.689 321.449 218.224 320.143 218.265H308.775V169.404Z" fill="#0A5C92"/>
<path fill-rule="evenodd" clip-rule="evenodd" d="M375.545 160.803C378.472 168.576 390.425 164.276 390.93 171.786C388.044 174.882 384.516 177.308 380.592 178.893H358.383C354.787 177.434 351.514 175.28 348.752 172.554C348.934 165.709 363.753 168.213 363.531 160.439C363.994 158.853 364.083 157.181 363.794 155.553C363.409 155.278 363.091 154.919 362.865 154.503C362.582 153.422 362.426 152.31 362.401 151.192C361.734 151.556 360.987 149.617 360.846 148.971C360.644 148.022 359.958 146.427 359.735 145.337C359.614 144.731 359.736 144.227 359.897 144.085C360.059 143.944 360.806 143.924 361.452 144.832C361.493 144.039 361.493 143.243 361.452 142.45C361.342 141.104 361.376 139.75 361.553 138.412C361.801 137.347 362.416 136.404 363.289 135.747C363.806 135.301 364.375 134.922 364.985 134.616H365.106H365.227H365.369H365.55C367.242 134.032 369.05 133.866 370.82 134.131C372.534 134.329 374.15 135.032 375.464 136.15C376.279 136.882 376.814 137.874 376.978 138.957C377.147 140.296 377.18 141.649 377.079 142.995C377.079 143.823 377.079 144.63 377.079 145.377C377.725 144.509 378.169 144.348 378.613 144.671C379.058 144.994 378.896 145.317 378.775 145.923C378.553 147.013 377.887 148.608 377.665 149.557C377.523 150.183 376.816 152.101 376.13 151.778C376.13 152.876 375.981 153.97 375.686 155.028C375.49 155.4 375.214 155.724 374.878 155.977C374.771 157.614 374.998 159.256 375.545 160.803Z" fill="#FFDBA7"/>
<path fill-rule="evenodd" clip-rule="evenodd" d="M375.544 160.419C378.472 168.192 391.696 164.074 390.929 171.786C388.062 174.855 384.872 171.564 380.995 173.159L375.584 169.424L369.527 158.38V155.351H373.565C373.121 150.627 371.89 135.161 371.769 134.01C372.314 134.01 370.597 133.606 371.143 133.687C372.856 133.885 374.473 134.588 375.786 135.706C376.601 136.438 377.136 137.43 377.301 138.513C377.469 139.852 377.503 141.205 377.402 142.551C377.402 143.379 377.402 144.186 377.402 144.933C378.048 144.065 378.492 143.903 378.936 144.227C379.38 144.55 379.219 144.873 379.098 145.478C378.896 146.569 378.209 148.164 377.987 149.113C377.846 149.739 377.139 151.657 376.453 151.334C376.453 152.432 376.303 153.526 376.008 154.584C375.812 154.956 375.536 155.28 375.201 155.533C374.925 157.166 375.042 158.841 375.544 160.419Z" fill="#F0C17D"/>
<path fill-rule="evenodd" clip-rule="evenodd" d="M360.786 141.925C360.2 138.452 360.665 135.868 363.41 133.849C368.801 130.073 375.525 133.061 375.827 133.849C378.311 135.121 378.694 137.887 378.351 140.915C377.685 146.973 377.685 156.28 370.093 156.846C361.533 157.593 361.836 148.426 360.786 141.925Z" fill="#823008"/>
<path fill-rule="evenodd" clip-rule="evenodd" d="M369.508 131.991C371.793 131.852 374.047 132.572 375.827 134.01C378.311 135.282 378.694 138.049 378.351 141.077C377.685 147.134 377.685 156.442 370.093 157.007H369.508V131.991Z" fill="#662505"/>
<path fill-rule="evenodd" clip-rule="evenodd" d="M392.202 178.893H346.834C348.449 162.983 358.1 168.495 362.805 162.398C363.169 161.767 363.441 161.087 363.612 160.379C363.804 159.783 363.926 159.166 363.976 158.542C364.702 157.714 374.838 157.896 375.141 158.542C375.205 159.174 375.34 159.797 375.545 160.399C375.819 161.187 376.244 161.914 376.796 162.539C381.743 168.051 392.262 161.994 392.202 178.893Z" fill="#CA6D13"/>
<path fill-rule="evenodd" clip-rule="evenodd" d="M392.202 178.893H369.508V157.956C371.403 157.826 373.306 158.01 375.141 158.501C375.205 159.134 375.34 159.757 375.545 160.359C375.745 161.14 376.174 161.843 376.776 162.378C381.824 167.122 393.575 163.549 392.202 178.893Z" fill="#FF942D"/>
<path fill-rule="evenodd" clip-rule="evenodd" d="M362.845 162.337C359.211 165.588 351.902 164.013 348.349 169.222C346.33 172.049 346.713 187.919 346.835 195.974H367.792C366.258 190.261 364.178 166.295 362.845 162.337Z" fill="#CA6D13"/>
<path fill-rule="evenodd" clip-rule="evenodd" d="M376.755 162.337C380.41 165.588 387.719 164.013 391.252 169.222C393.271 172.049 392.786 185.859 392.766 195.974H371.809C373.383 190.261 375.402 166.295 376.755 162.337Z" fill="#FF942D"/>
<path fill-rule="evenodd" clip-rule="evenodd" d="M387.518 194.42L391.132 194.299C391.439 194.291 391.743 194.354 392.023 194.482C392.302 194.61 392.548 194.8 392.743 195.037C392.937 195.275 393.075 195.554 393.146 195.852C393.217 196.151 393.218 196.462 393.151 196.762L390.062 215.943C390.008 216.566 389.739 217.151 389.301 217.597C388.862 218.043 388.281 218.322 387.659 218.386H382.672L387.518 194.42Z" fill="#DC9C5F"/>
<path fill-rule="evenodd" clip-rule="evenodd" d="M351.519 194.42L347.905 194.299C347.598 194.291 347.293 194.354 347.014 194.482C346.734 194.61 346.488 194.8 346.293 195.037C346.099 195.275 345.961 195.554 345.89 195.852C345.819 196.151 345.818 196.462 345.886 196.762L348.954 215.943C349.016 216.566 349.29 217.15 349.732 217.595C350.173 218.04 350.754 218.319 351.377 218.386H356.364L351.519 194.42Z" fill="#DBA46E"/>
<path fill-rule="evenodd" clip-rule="evenodd" d="M355.213 169.404H383.843C384.501 169.387 385.156 169.505 385.768 169.75C386.379 169.995 386.934 170.362 387.399 170.829C387.864 171.296 388.229 171.852 388.471 172.465C388.714 173.077 388.829 173.733 388.809 174.391L385.882 213.298C385.841 214.606 385.302 215.849 384.375 216.772C383.448 217.695 382.203 218.229 380.895 218.265H358.16C356.852 218.229 355.607 217.695 354.68 216.772C353.753 215.849 353.214 214.606 353.173 213.298L350.226 174.391C350.212 173.732 350.332 173.078 350.577 172.467C350.823 171.855 351.19 171.3 351.656 170.834C352.122 170.368 352.677 170.002 353.288 169.756C353.899 169.51 354.554 169.39 355.213 169.404Z" fill="#0A5C92"/>
<path fill-rule="evenodd" clip-rule="evenodd" d="M369.527 169.404H383.842C384.501 169.387 385.156 169.505 385.767 169.75C386.379 169.995 386.934 170.362 387.399 170.829C387.864 171.296 388.229 171.852 388.471 172.465C388.714 173.077 388.829 173.733 388.809 174.391L385.882 213.298C385.841 214.606 385.302 215.849 384.375 216.772C383.447 217.695 382.202 218.229 380.895 218.265H369.527V169.404Z" fill="#0A5C92"/>
<path fill-rule="evenodd" clip-rule="evenodd" d="M284.345 193.471C287.272 201.244 299.225 196.944 299.73 204.454C296.84 207.545 293.313 209.971 289.392 211.561H267.183C263.593 210.102 260.327 207.948 257.572 205.222C257.734 198.377 272.574 200.881 272.331 193.107C272.81 191.524 272.907 189.849 272.614 188.221C272.224 187.952 271.905 187.591 271.685 187.171C271.392 186.092 271.236 184.979 271.221 183.86C270.534 184.224 269.808 182.285 269.666 181.639C269.525 180.993 268.778 179.095 268.556 178.005C268.435 177.399 268.556 176.895 268.717 176.753C268.879 176.612 269.626 176.592 270.272 177.5C270.272 176.733 270.373 175.946 270.272 175.118C270.14 173.775 270.14 172.423 270.272 171.08C270.444 169.989 270.985 168.991 271.806 168.253C272.319 167.812 272.882 167.433 273.482 167.122H273.603H273.704H273.805H273.906H274.027H274.229C275.921 166.536 277.729 166.37 279.499 166.638C281.208 166.832 282.818 167.536 284.123 168.657C284.953 169.379 285.497 170.374 285.657 171.463C285.814 172.803 285.848 174.155 285.758 175.501C285.717 176.295 285.717 177.09 285.758 177.884C286.404 177.016 286.848 176.854 287.292 177.177C287.737 177.5 287.575 177.823 287.454 178.429C287.232 179.519 286.545 181.114 286.343 182.063C286.202 182.689 285.475 184.607 284.809 184.284C284.809 185.383 284.66 186.476 284.365 187.535C284.167 187.911 283.883 188.236 283.537 188.484C283.453 190.184 283.728 191.884 284.345 193.471Z" fill="#FFDBA7"/>
<path fill-rule="evenodd" clip-rule="evenodd" d="M284.345 193.087C287.272 200.861 300.497 196.742 299.73 204.455C296.863 207.523 293.673 204.232 289.776 205.827L284.385 202.092L278.328 191.048V188.02H282.366C281.922 183.295 280.69 167.829 280.569 166.678C281.114 166.678 279.398 166.275 279.943 166.355C281.652 166.55 283.263 167.253 284.567 168.374C285.397 169.096 285.942 170.092 286.101 171.181C286.259 172.521 286.293 173.873 286.202 175.219C286.161 176.013 286.161 176.808 286.202 177.601C286.848 176.733 287.293 176.572 287.737 176.895C288.181 177.218 288.019 177.541 287.898 178.147C287.676 179.237 286.99 180.832 286.788 181.781C286.646 182.407 285.92 184.325 285.253 184.002C285.253 185.1 285.104 186.194 284.809 187.252C284.611 187.629 284.328 187.954 283.981 188.201C283.712 189.836 283.836 191.511 284.345 193.087Z" fill="#F0C17D"/>
<path fill-rule="evenodd" clip-rule="evenodd" d="M269.565 174.593C269 171.12 269.464 168.536 272.21 166.517C277.601 162.741 284.324 165.729 284.627 166.618C287.111 167.89 287.494 170.656 287.151 173.684C286.465 179.742 286.465 189.049 278.893 189.615C270.413 190.261 270.635 181.094 269.565 174.593Z" fill="#823008"/>
<path fill-rule="evenodd" clip-rule="evenodd" d="M278.309 164.659C280.593 164.526 282.845 165.245 284.628 166.678C287.112 167.95 287.495 170.716 287.152 173.745C286.465 179.802 286.466 189.11 278.894 189.675H278.309V164.659Z" fill="#662505"/>
<path fill-rule="evenodd" clip-rule="evenodd" d="M300.982 211.561H255.635C257.25 195.651 266.901 201.163 271.605 195.066C271.954 194.43 272.219 193.751 272.393 193.047C272.602 192.454 272.731 191.836 272.776 191.21C273.483 190.382 283.639 190.563 283.942 191.21C283.995 191.844 284.131 192.468 284.345 193.067C284.614 193.853 285.032 194.58 285.577 195.207C290.604 200.719 301.043 194.622 300.982 211.561Z" fill="#CA6D13"/>
<path fill-rule="evenodd" clip-rule="evenodd" d="M300.982 211.561H278.309V190.685C280.203 190.556 282.107 190.74 283.942 191.23C283.996 191.864 284.131 192.488 284.345 193.087C284.545 193.868 284.974 194.571 285.577 195.106C290.605 199.79 302.456 196.318 300.982 211.561Z" fill="#FF942D"/>
<path fill-rule="evenodd" clip-rule="evenodd" d="M271.645 195.005C267.991 198.256 260.682 196.681 257.149 201.89C255.13 204.717 255.493 220.587 255.635 228.642H276.592C275.037 222.868 272.978 198.963 271.645 195.005Z" fill="#CA6D13"/>
<path fill-rule="evenodd" clip-rule="evenodd" d="M285.556 195.005C289.19 198.256 296.499 196.681 300.053 201.89C302.072 204.717 301.567 218.527 301.567 228.642H280.609C282.144 222.868 284.223 198.963 285.556 195.005Z" fill="#FF942D"/>
<path fill-rule="evenodd" clip-rule="evenodd" d="M344.513 193.471C347.44 201.244 359.393 196.943 359.898 204.454C357.008 207.545 353.481 209.97 349.56 211.561H327.351C323.761 210.102 320.495 207.948 317.74 205.222C317.902 198.377 332.742 200.881 332.499 193.107C332.978 191.524 333.075 189.849 332.782 188.221C332.392 187.952 332.073 187.591 331.853 187.171C331.56 186.092 331.404 184.979 331.389 183.86C330.702 184.224 329.976 182.285 329.834 181.639C329.693 180.993 328.946 179.095 328.724 178.005C328.603 177.399 328.724 176.894 328.885 176.753C329.047 176.612 329.794 176.592 330.44 177.5C330.44 176.733 330.541 175.946 330.44 175.118C330.33 173.772 330.364 172.418 330.541 171.08C330.696 169.988 331.232 168.987 332.055 168.253C332.568 167.812 333.13 167.433 333.731 167.122H333.852H333.953H334.054H334.155H334.276H334.458C336.149 166.537 337.958 166.371 339.727 166.638C341.436 166.832 343.047 167.536 344.351 168.657C345.182 169.379 345.726 170.374 345.886 171.463C346.043 172.803 346.077 174.155 345.986 175.501C345.986 176.329 345.986 177.117 345.986 177.884C346.633 177.016 347.077 176.854 347.521 177.177C347.965 177.5 347.804 177.823 347.682 178.429C347.46 179.519 346.794 181.114 346.572 182.063C346.431 182.689 345.724 184.607 345.038 184.284C345.038 185.383 344.888 186.476 344.593 187.535C344.397 187.906 344.121 188.23 343.786 188.484C343.676 190.179 343.923 191.878 344.513 193.471Z" fill="#FFDBA7"/>
<path fill-rule="evenodd" clip-rule="evenodd" d="M344.513 193.087C347.44 200.861 360.665 196.742 359.898 204.455C357.031 207.523 353.841 204.232 349.944 205.827L344.553 202.092L338.496 191.048V188.02H342.534C342.09 183.295 340.858 167.829 340.737 166.678C341.282 166.678 339.566 166.275 340.111 166.355C341.82 166.55 343.431 167.253 344.735 168.374C345.565 169.096 346.11 170.092 346.269 171.181C346.427 172.521 346.461 173.873 346.37 175.219C346.37 176.047 346.37 176.834 346.37 177.601C347.016 176.733 347.461 176.572 347.905 176.895C348.349 177.218 348.187 177.541 348.066 178.147C347.844 179.237 347.178 180.832 346.956 181.781C346.815 182.407 346.108 184.325 345.421 184.002C345.421 185.1 345.272 186.194 344.977 187.252C344.781 187.624 344.505 187.948 344.17 188.201C343.893 189.834 344.011 191.509 344.513 193.087Z" fill="#F0C17D"/>
<path fill-rule="evenodd" clip-rule="evenodd" d="M329.733 174.593C329.168 171.12 329.632 168.536 332.378 166.517C337.769 162.741 344.492 165.729 344.795 166.618C347.279 167.89 347.662 170.656 347.319 173.684C346.633 179.742 346.633 189.049 339.061 189.615C330.501 190.261 330.803 181.094 329.733 174.593Z" fill="#823008"/>
<path fill-rule="evenodd" clip-rule="evenodd" d="M338.475 164.659C340.759 164.526 343.011 165.245 344.794 166.678C347.278 167.95 347.661 170.716 347.318 173.745C346.632 179.802 346.632 189.11 339.06 189.675H338.475V164.659Z" fill="#662505"/>
<path fill-rule="evenodd" clip-rule="evenodd" d="M361.269 211.561H315.801C317.416 195.651 327.067 201.163 331.771 195.066C332.129 194.434 332.394 193.754 332.559 193.047C332.768 192.454 332.897 191.836 332.942 191.21C333.649 190.382 343.805 190.563 344.108 191.21C344.161 191.844 344.297 192.468 344.511 193.067C344.78 193.853 345.198 194.58 345.743 195.207C350.71 200.719 361.269 194.622 361.269 211.561Z" fill="#CA6D13"/>
<path fill-rule="evenodd" clip-rule="evenodd" d="M361.27 211.561H338.475V190.685C340.369 190.556 342.273 190.74 344.108 191.23C344.162 191.864 344.297 192.488 344.512 193.087C344.711 193.868 345.14 194.571 345.743 195.106C350.771 199.79 362.622 196.318 361.27 211.561Z" fill="#FF942D"/>
<path fill-rule="evenodd" clip-rule="evenodd" d="M331.811 195.005C328.157 198.256 320.848 196.681 317.315 201.89C315.296 204.717 315.659 220.587 315.801 228.642H336.758C335.203 222.868 333.144 198.963 331.811 195.005Z" fill="#CA6D13"/>
<path fill-rule="evenodd" clip-rule="evenodd" d="M345.724 195.005C349.358 198.256 356.667 196.681 360.221 201.89C362.24 204.717 361.735 218.527 361.735 228.642H340.777C342.312 222.868 344.391 198.963 345.724 195.005Z" fill="#FF942D"/>
<path fill-rule="evenodd" clip-rule="evenodd" d="M405.204 193.471C408.132 201.244 420.084 196.944 420.589 204.454C417.704 207.55 414.175 209.976 410.252 211.561H388.042C384.455 210.097 381.19 207.943 378.432 205.222C378.613 198.377 393.433 200.881 393.211 193.107C393.704 191.535 393.828 189.87 393.574 188.241C393.189 187.966 392.872 187.607 392.646 187.192C392.352 186.112 392.196 184.999 392.181 183.88C391.515 184.244 390.768 182.306 390.627 181.659C390.485 181.013 389.738 179.115 389.516 178.025C389.395 177.419 389.516 176.915 389.678 176.773C389.839 176.632 390.586 176.612 391.232 177.52C391.274 176.727 391.274 175.932 391.232 175.138C391.122 173.792 391.156 172.439 391.333 171.1C391.488 170.008 392.025 169.007 392.848 168.273C393.364 167.828 393.934 167.448 394.544 167.143H394.665H394.786H394.927H395.109C396.793 166.557 398.595 166.391 400.358 166.658C402.072 166.856 403.689 167.559 405.002 168.677C405.821 169.406 406.357 170.399 406.516 171.484C406.685 172.823 406.719 174.176 406.617 175.522C406.617 176.349 406.617 177.137 406.617 177.904C407.263 177.036 407.708 176.874 408.152 177.197C408.596 177.52 408.434 177.843 408.313 178.449C408.091 179.539 407.425 181.134 407.203 182.083C407.062 182.709 406.355 184.627 405.668 184.304C405.668 185.403 405.519 186.497 405.224 187.555C405.028 187.927 404.752 188.251 404.417 188.504C404.329 190.196 404.597 191.888 405.204 193.471Z" fill="#FFDBA7"/>
<path fill-rule="evenodd" clip-rule="evenodd" d="M405.204 193.087C408.132 200.861 421.356 196.742 420.589 204.455C417.722 207.523 414.532 204.232 410.656 205.827L405.245 202.092L399.188 191.048V188.02H403.226C402.781 183.295 401.55 167.829 401.429 166.678C401.974 166.678 400.258 166.275 400.803 166.355C402.517 166.553 404.133 167.256 405.447 168.374C406.265 169.103 406.801 170.097 406.961 171.181C407.129 172.52 407.163 173.873 407.062 175.219C407.062 176.047 407.062 176.834 407.062 177.601C407.708 176.733 408.152 176.572 408.596 176.895C409.04 177.218 408.879 177.541 408.758 178.147C408.536 179.237 407.869 180.832 407.647 181.781C407.506 182.407 406.799 184.325 406.113 184.002C406.113 185.1 405.963 186.194 405.669 187.252C405.472 187.624 405.196 187.948 404.861 188.201C404.585 189.834 404.702 191.509 405.204 193.087Z" fill="#F0C17D"/>
<path fill-rule="evenodd" clip-rule="evenodd" d="M390.446 174.593C389.86 171.12 390.325 168.536 393.071 166.517C398.461 162.741 405.185 165.729 405.488 166.618C407.971 167.89 408.355 170.656 408.011 173.684C407.345 179.742 407.345 189.049 399.754 189.615C391.193 190.261 391.556 181.094 390.446 174.593Z" fill="#823008"/>
<path fill-rule="evenodd" clip-rule="evenodd" d="M399.188 164.659C401.466 164.523 403.713 165.243 405.487 166.678C407.97 167.95 408.354 170.716 408.011 173.745C407.344 179.802 407.344 189.11 399.753 189.675H399.188V164.659Z" fill="#662505"/>
<path fill-rule="evenodd" clip-rule="evenodd" d="M421.842 211.561H376.494C378.109 195.651 387.76 201.163 392.485 195.066C392.833 194.43 393.098 193.751 393.272 193.047C393.464 192.451 393.586 191.834 393.636 191.21C394.363 190.382 404.498 190.563 404.801 191.21C404.865 191.842 405 192.465 405.205 193.067C405.48 193.855 405.905 194.582 406.457 195.207C411.403 200.719 421.842 194.622 421.842 211.561Z" fill="#CA6D13"/>
<path fill-rule="evenodd" clip-rule="evenodd" d="M421.841 211.562H399.188V190.685C401.076 190.556 402.972 190.74 404.8 191.23C404.864 191.862 405 192.486 405.204 193.087C405.404 193.868 405.833 194.571 406.436 195.106C411.483 199.791 423.315 196.318 421.841 211.562Z" fill="#FF942D"/>
<path fill-rule="evenodd" clip-rule="evenodd" d="M392.504 195.005C388.869 198.256 381.561 196.681 378.007 201.89C375.988 204.717 376.372 220.587 376.493 228.642H397.45C395.916 222.868 393.836 198.963 392.504 195.005Z" fill="#CA6D13"/>
<path fill-rule="evenodd" clip-rule="evenodd" d="M223.289 193.471C226.237 201.244 238.19 196.944 238.695 204.454C235.805 207.545 232.278 209.971 228.357 211.561H206.148C202.558 210.102 199.291 207.948 196.537 205.222C196.699 198.377 211.539 200.881 211.296 193.107C211.775 191.524 211.872 189.849 211.579 188.221C211.189 187.952 210.87 187.591 210.65 187.171C210.357 186.092 210.201 184.979 210.186 183.86C209.499 184.224 208.772 182.285 208.631 181.639C208.49 180.993 207.743 179.095 207.521 178.005C207.4 177.399 207.521 176.895 207.682 176.753C207.844 176.612 208.571 176.592 209.237 177.5C209.278 176.707 209.278 175.911 209.237 175.118C209.148 173.771 209.182 172.42 209.338 171.08C209.501 169.986 210.045 168.986 210.872 168.253C211.385 167.812 211.947 167.433 212.548 167.122H212.669H212.77H212.871H212.992H213.194C214.885 166.536 216.694 166.37 218.464 166.638C220.171 166.836 221.781 167.539 223.087 168.657C223.918 169.379 224.462 170.374 224.622 171.463C224.779 172.803 224.813 174.155 224.723 175.501C224.681 176.295 224.681 177.09 224.723 177.884C225.369 177.016 225.813 176.854 226.257 177.177C226.701 177.5 226.54 177.823 226.419 178.429C226.197 179.519 225.51 181.114 225.308 182.063C225.167 182.689 224.44 184.607 223.774 184.284C223.752 185.381 223.603 186.472 223.33 187.535C223.132 187.911 222.848 188.236 222.502 188.484C222.417 190.183 222.685 191.881 223.289 193.471Z" fill="#FFDBA7"/>
<path fill-rule="evenodd" clip-rule="evenodd" d="M223.289 193.087C226.237 200.861 239.442 196.742 238.695 204.455C235.828 207.523 232.638 204.232 228.741 205.827L223.35 202.092L217.293 191.048V188.02H221.331C220.887 183.295 219.655 167.829 219.534 166.678C220.079 166.678 218.363 166.275 218.908 166.355C220.616 166.554 222.226 167.256 223.532 168.374C224.362 169.096 224.907 170.092 225.066 171.181C225.224 172.521 225.258 173.873 225.167 175.219C225.126 176.013 225.126 176.808 225.167 177.601C225.813 176.733 226.257 176.572 226.702 176.895C227.146 177.218 226.984 177.541 226.863 178.147C226.641 179.237 225.955 180.832 225.753 181.781C225.611 182.407 224.885 184.325 224.218 184.002C224.197 185.099 224.048 186.19 223.774 187.252C223.576 187.629 223.292 187.954 222.946 188.201C222.679 189.835 222.797 191.508 223.289 193.087Z" fill="#F0C17D"/>
<path fill-rule="evenodd" clip-rule="evenodd" d="M208.531 174.593C207.966 171.12 208.41 168.536 211.176 166.517C216.567 162.741 223.29 165.729 223.593 166.618C226.076 167.89 226.46 170.656 226.117 173.684C225.43 179.742 225.43 189.049 217.859 189.615C209.298 190.261 209.601 181.094 208.531 174.593Z" fill="#823008"/>
<path fill-rule="evenodd" clip-rule="evenodd" d="M217.273 164.659C219.557 164.526 221.81 165.245 223.593 166.678C226.076 167.95 226.46 170.716 226.117 173.745C225.43 179.802 225.43 189.11 217.859 189.675H217.273V164.659Z" fill="#662505"/>
<path fill-rule="evenodd" clip-rule="evenodd" d="M239.947 211.561H194.6C196.215 195.651 205.866 201.163 210.57 195.066C210.919 194.43 211.183 193.751 211.358 193.047C211.567 192.454 211.696 191.836 211.741 191.21C212.448 190.382 222.604 190.563 222.906 191.21C222.964 191.841 223.092 192.464 223.29 193.067C223.573 193.851 223.997 194.577 224.542 195.207C229.509 200.719 240.008 194.622 239.947 211.561Z" fill="#CA6D13"/>
<path fill-rule="evenodd" clip-rule="evenodd" d="M239.947 211.561H217.273V190.685C219.168 190.558 221.071 190.742 222.907 191.23C222.964 191.861 223.093 192.485 223.29 193.087C223.503 193.867 223.938 194.569 224.542 195.106C229.569 199.791 241.421 196.318 239.947 211.561Z" fill="#FF942D"/>
<path fill-rule="evenodd" clip-rule="evenodd" d="M210.59 195.005C206.956 198.256 199.647 196.681 196.114 201.89C194.095 204.717 194.458 220.587 194.599 228.642H215.557C214.002 222.868 211.862 198.963 210.59 195.005Z" fill="#CA6D13"/>
<path fill-rule="evenodd" clip-rule="evenodd" d="M224.521 195.005C228.155 198.256 235.464 196.681 239.018 201.89C241.037 204.717 240.532 218.527 240.532 228.642H219.574C221.109 222.868 223.188 198.963 224.521 195.005Z" fill="#FF942D"/>
<path fill-rule="evenodd" clip-rule="evenodd" d="M398.864 138.149C401.006 138.149 403.06 139 404.575 140.515C406.089 142.029 406.94 144.084 406.94 146.226C406.945 148.102 406.27 149.916 405.042 151.334C403.023 153.757 403.568 154.241 402.599 157.27C402.054 158.966 400.156 159.289 398.884 159.289C397.612 159.289 395.694 159.289 395.23 157.451C394.422 154.524 394.644 153.615 392.726 151.394C391.491 149.963 390.81 148.136 390.808 146.246C390.808 144.104 391.659 142.05 393.173 140.535C394.688 139.021 396.742 138.17 398.884 138.17L398.864 138.149ZM383.257 156.321L383.923 157.35L390.808 152.848L390.142 151.818L383.257 156.321ZM380.773 147.397V148.608L388.991 148.103V146.872L380.794 147.397H380.773ZM382.954 138.493L382.429 139.583L389.839 143.157L390.364 142.046L382.954 138.493ZM390.142 131.244L389.112 131.89L393.413 138.897L394.462 138.25L390.142 131.244ZM398.218 129.023H399.449V137.241H398.218V129.023Z" fill="#FFF4EA"/>
<path fill-rule="evenodd" clip-rule="evenodd" d="M398.865 138.149C401.007 138.149 403.061 139 404.576 140.515C406.091 142.029 406.941 144.083 406.941 146.225C406.946 148.101 406.272 149.916 405.043 151.334C403.024 153.696 403.529 154.201 402.681 157.007C402.681 159.026 403.146 163.064 400.319 163.064H398.805V138.149H398.865ZM407.547 131.184L403.247 138.19L404.296 138.836L408.597 131.83L407.547 131.184ZM414.755 138.432L415.28 139.522L407.87 143.096L407.345 141.985L414.755 138.432ZM416.936 147.336V148.547L408.718 148.042V146.811L416.915 147.336H416.936ZM414.452 156.26L407.567 151.758L406.901 152.787L413.766 157.29L414.432 156.26H414.452ZM398.865 128.963H399.471V137.18H398.865V128.963Z" fill="#F7F2C1"/>
<path fill-rule="evenodd" clip-rule="evenodd" d="M400.358 157.956C400.189 156.13 400.36 154.289 400.863 152.525C401.142 151.596 401.272 150.628 401.247 149.658C401.247 149.658 401.247 149.779 401.125 149.9C401.004 150.021 401.004 150.304 400.782 150.243C400.56 150.183 400.56 149.92 400.54 149.678C400.568 149.586 400.568 149.488 400.54 149.396C400.54 149.396 400.54 149.678 400.54 149.9C400.55 150.021 400.55 150.143 400.54 150.264C400.54 150.445 400.419 150.546 400.197 150.506C399.975 150.466 399.914 150.122 399.914 149.779C399.914 149.436 399.914 149.274 399.793 149.254C399.672 149.234 399.672 149.254 399.672 149.416C399.662 149.537 399.662 149.658 399.672 149.779C399.672 150.143 399.672 150.506 399.369 150.546C399.066 150.587 399.127 150.546 399.106 150.324C399.087 150.163 399.087 150.001 399.106 149.84C399.125 149.699 399.125 149.556 399.106 149.416V149.214C399.268 149.214 399.349 149.214 399.389 149.436C399.409 149.59 399.409 149.746 399.389 149.9C399.37 150.041 399.37 150.184 399.389 150.324C399.389 150.324 399.51 150.021 399.53 149.739V149.476C399.53 149.254 399.652 149.113 399.874 149.133C400.096 149.153 400.197 149.537 400.176 149.88C400.156 150.223 400.176 150.385 400.298 150.405C400.419 150.425 400.419 150.405 400.419 150.304C400.43 150.197 400.43 150.088 400.419 149.981C400.419 149.719 400.419 149.436 400.58 149.315C400.742 149.194 400.782 149.315 400.843 149.315C400.877 149.44 400.877 149.573 400.843 149.698C400.843 149.88 400.843 150.082 400.843 150.102C400.843 150.102 400.944 150.001 400.964 149.88C400.984 149.759 401.085 149.517 401.267 149.517H401.994C402.043 150.623 401.9 151.73 401.57 152.787C401.095 154.473 400.937 156.233 401.105 157.976L400.358 157.956Z" fill="#FFF8EB"/>
<path fill-rule="evenodd" clip-rule="evenodd" d="M402.741 156.906C402.741 158.925 403.205 162.963 400.379 162.963H397.33C394.503 162.963 394.968 158.925 394.968 156.906C397.549 157.229 400.16 157.229 402.741 156.906Z" fill="#B26822"/>
<path fill-rule="evenodd" clip-rule="evenodd" d="M402.742 156.906C402.742 158.925 403.206 162.963 400.38 162.963H398.865V157.148C400.339 157.108 401.773 156.946 402.742 156.906Z" fill="#FFF8EB"/>
<path fill-rule="evenodd" clip-rule="evenodd" d="M215.133 128.741C216.537 129.526 217.707 130.672 218.52 132.059C219.334 133.447 219.763 135.027 219.763 136.635C219.763 138.244 219.334 139.824 218.52 141.211C217.707 142.599 216.537 143.744 215.133 144.53C214.427 149.88 210.631 153.918 206.068 153.918C204.877 153.917 203.702 153.64 202.635 153.111C202.151 154.912 201.089 156.506 199.613 157.648C198.137 158.789 196.328 159.416 194.462 159.432C192.596 159.448 190.776 158.852 189.28 157.736C187.785 156.62 186.696 155.045 186.18 153.252C185.194 153.687 184.129 153.914 183.051 153.918C178.468 153.918 174.692 149.88 173.985 144.509C172.581 143.724 171.412 142.579 170.598 141.191C169.785 139.803 169.355 138.224 169.355 136.615C169.355 135.006 169.785 133.427 170.598 132.039C171.412 130.651 172.581 129.506 173.985 128.721C174.692 123.39 178.468 119.332 183.051 119.332C184.129 119.337 185.194 119.563 186.18 119.998C186.696 118.205 187.785 116.63 189.28 115.514C190.776 114.398 192.596 113.802 194.462 113.818C196.328 113.834 198.137 114.461 199.613 115.603C201.089 116.744 202.151 118.338 202.635 120.14C203.702 119.61 204.877 119.333 206.068 119.332C210.631 119.352 214.427 123.411 215.133 128.741Z" fill="white"/>
<path fill-rule="evenodd" clip-rule="evenodd" d="M200.213 156.341L207.804 167.143L195.609 158.804L200.213 156.341Z" fill="#FFF4EA"/>
<path fill-rule="evenodd" clip-rule="evenodd" d="M196.153 141.218C196.153 140.148 197.325 139.603 198.556 138.937C200.979 137.624 203.886 136.231 204.007 131.628C204.129 127.024 200.454 122.744 194.195 122.744C192.222 122.779 190.304 123.401 188.686 124.53C187.068 125.659 185.823 127.244 185.109 129.084L188.279 130.901C188.762 129.723 189.579 128.712 190.631 127.994C191.683 127.276 192.922 126.883 194.195 126.863C197.89 126.863 199.949 129.225 199.868 131.668C199.788 134.111 198.314 134.757 196.88 135.525C194.457 136.756 192.216 137.806 192.216 141.279V144.449H196.153V141.319V141.218ZM194.134 145.519C193.802 145.513 193.473 145.575 193.166 145.702C192.859 145.829 192.581 146.017 192.35 146.256C192.119 146.494 191.94 146.778 191.823 147.089C191.706 147.4 191.655 147.731 191.671 148.063C191.727 148.685 192.014 149.264 192.476 149.686C192.937 150.108 193.54 150.342 194.165 150.342C194.79 150.342 195.392 150.108 195.854 149.686C196.315 149.264 196.602 148.685 196.658 148.063C196.675 147.731 196.623 147.4 196.506 147.089C196.39 146.778 196.21 146.494 195.979 146.256C195.748 146.017 195.471 145.829 195.164 145.702C194.857 145.575 194.527 145.513 194.195 145.519H194.134Z" fill="#B26822"/>
<path fill-rule="evenodd" clip-rule="evenodd" d="M141.802 -5H198.335C199.782 -4.99466 201.169 -4.41584 202.191 -3.39029C203.212 -2.36475 203.786 -0.976085 203.786 0.471576V36.3498L212.831 54.9855L195.71 44.8903H141.802C140.352 44.885 138.964 44.3068 137.939 43.2818C136.914 42.2569 136.335 40.8682 136.33 39.4187V0.471576C136.335 -0.977939 136.914 -2.36657 137.939 -3.39154C138.964 -4.41651 140.352 -4.99468 141.802 -5Z" fill="#009AFF"/>
<path fill-rule="evenodd" clip-rule="evenodd" d="M186.26 26.0326C187.247 26.0326 188.211 25.7401 189.031 25.1922C189.851 24.6442 190.49 23.8653 190.868 22.9541C191.245 22.0428 191.344 21.0401 191.152 20.0727C190.959 19.1053 190.484 18.2167 189.787 17.5193C189.089 16.8218 188.201 16.3468 187.233 16.1544C186.266 15.962 185.263 16.0608 184.352 16.4382C183.441 16.8157 182.662 17.4549 182.114 18.275C181.566 19.0951 181.273 20.0593 181.273 21.0456C181.279 22.3666 181.806 23.632 182.74 24.5661C183.674 25.5002 184.939 26.0273 186.26 26.0326Z" fill="white"/>
<path fill-rule="evenodd" clip-rule="evenodd" d="M151.533 26.0326C152.52 26.0366 153.487 25.7475 154.309 25.2019C155.132 24.6564 155.774 23.8789 156.155 22.968C156.536 22.0571 156.637 21.0538 156.447 20.0851C156.257 19.1164 155.784 18.2259 155.087 17.5264C154.39 16.8269 153.502 16.35 152.534 16.1559C151.566 15.9618 150.562 16.0594 149.65 16.4363C148.737 16.8131 147.957 17.4523 147.408 18.2728C146.859 19.0934 146.566 20.0584 146.566 21.0456C146.572 22.3631 147.096 23.6254 148.026 24.559C148.956 25.4925 150.216 26.022 151.533 26.0326Z" fill="white"/>
<path fill-rule="evenodd" clip-rule="evenodd" d="M168.897 26.0326C169.884 26.0326 170.848 25.7401 171.668 25.1922C172.488 24.6442 173.127 23.8653 173.505 22.9541C173.882 22.0428 173.981 21.0401 173.788 20.0727C173.596 19.1053 173.121 18.2167 172.424 17.5193C171.726 16.8218 170.837 16.3468 169.87 16.1544C168.903 15.962 167.9 16.0608 166.989 16.4382C166.077 16.8157 165.299 17.4549 164.751 18.275C164.203 19.0951 163.91 20.0593 163.91 21.0456C163.915 22.3666 164.443 23.632 165.377 24.5661C166.311 25.5002 167.576 26.0273 168.897 26.0326Z" fill="white"/>
<path fill-rule="evenodd" clip-rule="evenodd" d="M125.689 80.708C127.182 80.6893 128.663 80.9658 130.049 81.5216C131.434 82.0774 132.696 82.9016 133.761 83.9467C134.827 84.9918 135.676 86.2372 136.258 87.6114C136.841 88.9856 137.147 90.4614 137.157 91.954C137.155 94.6032 136.21 97.1652 134.492 99.1821C131.565 102.614 132.473 103.22 131.019 107.561C130.272 109.944 127.587 110.408 125.77 110.408C123.953 110.408 121.288 110.267 120.601 107.824C119.471 103.785 119.814 102.392 117.088 99.2225C115.339 97.2054 114.378 94.6239 114.383 91.954C114.404 88.9534 115.615 86.084 117.75 83.9755C119.885 81.867 122.769 80.6918 125.77 80.708H125.689ZM103.682 106.289L104.61 107.723L114.322 101.423L113.393 99.9897L103.682 106.35V106.289ZM100.148 93.6702L100.249 95.3863L111.839 94.6595V92.9433L100.249 93.6702H100.148ZM103.238 81.0916L102.49 82.6462L112.929 87.6938L113.676 86.1392L103.217 81.0916H103.238ZM113.333 70.8753L111.879 71.7838L117.936 81.6771L119.41 80.7685L113.353 70.8753H113.333ZM124.76 67.7256H126.497V79.335H124.76V67.7256Z" fill="#FFF4EA"/>
<path fill-rule="evenodd" clip-rule="evenodd" d="M125.69 80.708C127.183 80.6893 128.664 80.9658 130.049 81.5216C131.435 82.0774 132.697 82.9016 133.762 83.9467C134.828 84.9918 135.677 86.2372 136.259 87.6114C136.842 88.9856 137.148 90.4614 137.158 91.954C137.156 94.6032 136.211 97.1652 134.493 99.1821C131.646 102.514 132.353 103.22 131.142 107.258H131.101C131.101 110.105 131.747 115.738 127.77 115.738H125.609V80.708H125.69ZM137.986 70.8753L131.929 80.7685L133.403 81.6771L139.46 71.7838L138.006 70.8753H137.986ZM148.081 81.0916L148.828 82.6462L138.349 87.6938L137.602 86.1392L148.081 81.0916ZM151.291 93.6702L151.191 95.3863L139.601 94.6595L139.702 92.9433L151.291 93.6702ZM147.758 106.289L138.047 99.9292L137.098 101.363L146.809 107.723L147.758 106.289ZM125.751 67.7256H126.619V79.335H125.751V67.7256Z" fill="#F1DC1C"/>
<path fill-rule="evenodd" clip-rule="evenodd" d="M127.809 108.752C127.568 106.18 127.808 103.585 128.516 101.1C128.921 99.7935 129.112 98.4298 129.081 97.0621C129.081 97.0621 128.94 97.2236 128.899 97.3852C128.859 97.5467 128.717 97.9505 128.394 97.8697C128.071 97.789 128.112 97.4255 128.071 97.0823C128.095 96.942 128.095 96.7986 128.071 96.6583C127.95 96.6583 127.95 97.0621 127.95 97.365C127.961 97.533 127.961 97.7017 127.95 97.8697C127.95 98.1322 127.769 98.2937 127.466 98.2332C127.163 98.1726 127.042 97.6678 127.062 97.2035C127.082 96.7391 127.062 96.4766 126.88 96.4564C126.698 96.4362 126.719 96.4564 126.698 96.6987C126.688 96.8668 126.688 97.0354 126.698 97.2035C126.698 97.7082 126.698 98.213 126.295 98.2735C125.891 98.3341 125.951 98.2735 125.911 97.9707C125.892 97.749 125.892 97.5261 125.911 97.3044C125.93 97.1029 125.93 96.9002 125.911 96.6987V96.5977V96.3151C126.133 96.3151 126.254 96.3151 126.295 96.5977C126.314 96.8262 126.314 97.0558 126.295 97.2842C126.276 97.4789 126.276 97.675 126.295 97.8697V97.9909C126.295 97.9909 126.476 97.5467 126.476 97.1631C126.466 96.9815 126.466 96.7995 126.476 96.6179C126.476 96.3151 126.658 96.093 126.961 96.1536C127.264 96.2141 127.405 96.6987 127.365 97.1833C127.324 97.6678 127.365 97.8899 127.546 97.9303C127.728 97.9707 127.708 97.9303 127.728 97.789C127.739 97.6344 127.739 97.4792 127.728 97.3246C127.728 96.9612 127.728 96.5776 127.95 96.3958C128.172 96.2141 128.233 96.3958 128.334 96.3958C128.417 96.5582 128.458 96.7385 128.455 96.9208C128.455 97.1833 128.455 97.4659 128.596 97.4861C128.596 97.4861 128.717 97.3448 128.778 97.1833C128.839 97.0217 128.94 96.6785 129.182 96.6785H130.212C130.276 98.2349 130.078 99.7911 129.626 101.282C128.959 103.671 128.727 106.16 128.94 108.631L127.809 108.752Z" fill="#FFF8EB"/>
<path fill-rule="evenodd" clip-rule="evenodd" d="M131.101 107.198C131.101 110.044 131.747 115.677 127.769 115.677H123.449C119.41 115.677 120.097 110.044 120.097 107.198C123.751 107.652 127.447 107.652 131.101 107.198Z" fill="#B26822"/>
<path fill-rule="evenodd" clip-rule="evenodd" d="M131.101 107.198C131.101 110.044 131.747 115.677 127.77 115.677H125.609V107.48C127.77 107.48 129.829 107.258 131.101 107.198Z" fill="#FFF8EB"/>
</g>
</svg>
