<svg width="400" height="200" viewBox="0 0 400 200" fill="none" xmlns="http://www.w3.org/2000/svg">
<mask id="mask0" mask-type="alpha" maskUnits="userSpaceOnUse" x="0" y="0" width="400" height="200">
<rect width="400" height="200" fill="#C4C4C4"/>
</mask>
<g mask="url(#mask0)">
<path opacity="0.5" d="M430 0H-29V221.55H430V0Z" fill="#4DD6CB"/>
<path fill-rule="evenodd" clip-rule="evenodd" d="M187.24 56.1941C218.425 53.9276 237.418 83.6764 263.323 98.1158C290.012 112.993 324.336 119.255 341.156 141.99C360.114 167.613 374.929 201.19 359.95 228.715C345.059 256.078 299.016 257.053 269.237 274.144C241.228 290.22 225.12 324.206 191.178 325.58C157.228 326.954 132.472 300.165 108.06 280.669C87.1431 263.965 74.0312 243.466 61.2557 221.824C46.342 196.559 14.1616 170.304 27.586 144.343C41.3017 117.819 90.8521 124.546 119.833 108.545C146.094 94.0456 155.878 58.4735 187.24 56.1941Z" fill="#4DD6CB"/>
<path d="M213.876 56.2934C213.289 56.3585 212.466 56.7421 212.037 57.1491L201.899 66.832C201.692 67.0363 201.567 67.3096 201.548 67.6001C201.528 67.8906 201.616 68.1781 201.794 68.4082L203.3 70.2891C203.669 70.7508 204.283 70.7629 204.672 70.3174L213.99 59.6253C214.379 59.1798 215.17 58.776 215.759 58.7235L260.663 54.6979L260.086 51.2476L213.876 56.2934Z" fill="#351A30"/>
<path d="M244.901 56.2639C245.506 56.3299 246.352 56.7233 246.793 57.142L257.245 67.1027C257.458 67.313 257.587 67.5942 257.608 67.8932C257.628 68.1921 257.538 68.4883 257.355 68.7256L255.806 70.6639C255.427 71.1395 254.794 71.153 254.394 70.6953L244.786 59.6954C244.384 59.236 243.569 58.8209 242.963 58.768L196.715 54.6765L197.305 51.1224L244.901 56.2639Z" fill="#351A30"/>
<path opacity="0.6" d="M201.019 55.6366C203.628 51.4979 214.577 53.5691 218.512 54.4431C220.97 54.986 222.489 55.9076 223.246 57.0764C222.969 55.2305 221.359 53.7674 217.974 53.0181C214.039 52.1445 203.09 50.0725 200.48 54.2116C199.488 55.7847 199.942 58.912 201.115 61.6149C200.368 59.3068 200.197 56.9387 201.019 55.6366Z" fill="white"/>
<path opacity="0.6" d="M237.706 54.4332C241.607 53.5623 252.405 51.5096 255.13 55.51C255.047 55.0003 254.894 54.549 254.663 54.1828C252.052 50.0464 241.102 52.1297 237.167 53.0077C231.933 54.1712 230.941 57.04 232.576 60.3849C231.861 57.6673 233.232 55.4275 237.706 54.4332Z" fill="white"/>
<path opacity="0.4" d="M250.076 66.3012C253.057 65.2544 255.707 58.9958 255.132 55.5104C252.407 51.5096 241.608 53.5623 237.708 54.4336C233.234 55.4279 231.862 57.6677 232.577 60.3858C233.033 61.3191 233.693 62.29 234.522 63.2708C238.018 67.4023 244.887 68.1238 250.076 66.3012Z" fill="white"/>
<path opacity="0.4" d="M205.079 66.3251C210.27 68.1418 217.14 67.4131 220.626 63.2785C222.506 61.0522 223.513 58.8815 223.244 57.0764C222.488 55.9098 220.968 54.986 218.51 54.4431C214.576 53.5691 203.625 51.4979 201.017 55.6366C200.195 56.9378 200.366 59.305 201.113 61.6153C202.08 63.8439 203.536 65.7844 205.079 66.3251Z" fill="white"/>
<path d="M234.486 51.4547C232.37 52.1125 229.752 52.2215 228.705 52.2399C227.662 52.2229 225.031 52.1174 222.918 51.461C218.887 50.2128 212.408 49.4271 207.466 49.5397C202.525 49.6524 197.34 50.4524 195.775 50.9719L196.723 54.7579C196.723 54.7579 198.108 54.6574 198.447 55.5166C198.87 56.5755 201.167 62.871 202.408 65.1965C203.425 67.1012 206.183 68.7326 212.586 68.7523C221.7 68.7815 224.854 63.1703 226.302 59.544C226.453 59.1662 226.679 58.4389 226.89 57.7367C227.186 56.7294 227.841 55.7383 228.134 55.5961C228.31 55.5139 228.513 55.4462 228.708 55.4453C228.91 55.453 229.109 55.5042 229.29 55.5956C229.584 55.7374 230.223 56.7281 230.525 57.7349C230.732 58.4376 230.959 59.1631 231.111 59.5422C232.561 63.1653 235.722 68.7738 244.835 68.7353C251.237 68.7097 253.993 67.0751 255.009 65.17C256.248 62.8427 258.534 56.5446 258.96 55.4848C259.301 54.626 260.683 54.7243 260.683 54.7243L261.626 50.9378C260.061 50.4201 254.876 49.6268 249.934 49.5182C244.992 49.4096 238.511 50.2033 234.486 51.4547ZM221.757 63.0083C218.269 67.1429 211.4 67.872 206.21 66.0553C202.795 64.8577 199.799 56.8124 201.609 53.9409C204.219 49.8018 215.168 51.8738 219.102 52.7474C225.8 54.2289 225.559 58.5058 221.757 63.0083ZM251.205 66.0306C246.016 67.854 239.147 67.1321 235.652 63.0011C231.848 58.5035 231.604 54.2258 238.297 52.7384C242.23 51.8603 253.183 49.7771 255.793 53.9135C257.605 56.781 254.622 64.8313 251.205 66.0306Z" fill="#492641"/>
<g opacity="0.12">
<path opacity="0.12" d="M238.299 52.7385C242.232 51.8604 253.184 49.7772 255.795 53.9136C257.606 56.7811 254.622 64.8314 251.205 66.0307C249.499 66.6311 247.611 66.9528 245.719 66.973L248.194 68.5433C252.246 68.0556 254.19 66.7011 255.006 65.1715C256.246 62.8442 258.532 56.546 258.958 55.4862C259.299 54.6275 260.68 54.7257 260.68 54.7257L261.624 50.9393C260.059 50.4215 254.874 49.6283 249.932 49.5197C244.99 49.4111 238.511 50.2039 234.486 51.4562C232.37 52.114 229.752 52.223 228.705 52.2414C227.662 52.2243 225.031 52.1189 222.918 51.4625C222.104 51.2108 221.188 50.9788 220.209 50.7684L227.989 55.7092C228.031 55.6655 228.08 55.6279 228.133 55.5975C228.309 55.5154 228.512 55.4477 228.706 55.4468C228.909 55.4545 229.108 55.5057 229.289 55.5971C229.53 55.7128 229.998 56.3984 230.326 57.1939L233.281 59.0708C232.333 56.1817 233.618 53.7781 238.299 52.7385Z" fill="white"/>
</g>
<path d="M213.627 76.9772C205.49 76.9619 198.88 83.5504 198.865 91.694L198.711 173.919C198.726 165.776 205.335 159.187 213.472 159.202L261.635 159.292L261.789 77.0669L213.627 76.9772Z" fill="#C6394E"/>
<path d="M184.147 76.9215C192.284 76.9372 198.868 83.5504 198.853 91.693L198.699 173.918C198.714 165.775 192.13 159.161 183.992 159.146L135.83 159.056L135.984 76.8318L184.147 76.9215Z" fill="#D84C5A"/>
<path d="M213.621 80.4275C205.483 80.4123 198.875 87.0016 198.859 95.1443L198.705 177.369C198.72 169.228 205.33 162.638 213.467 162.653L261.629 162.742L261.783 80.5173L213.621 80.4275Z" fill="#B7AA8A"/>
<path d="M184.141 80.3723C192.278 80.3871 198.862 87.0016 198.848 95.1434L198.692 177.368C198.707 169.227 192.124 162.613 183.985 162.597L135.822 162.507L135.977 80.2826L184.141 80.3723Z" fill="#C1B699"/>
<path d="M213.608 86.6764C205.471 86.6612 198.862 93.2496 198.847 101.393L198.691 183.619C198.707 175.477 205.316 168.887 213.453 168.902L261.615 168.992L261.771 86.7662L213.608 86.6764Z" fill="#DBD1B4"/>
<path d="M184.129 86.6222C192.267 86.6379 198.85 93.2514 198.835 101.394L198.681 183.619C198.696 175.476 192.112 168.862 183.975 168.847L135.812 168.757L135.967 86.532L184.129 86.6222Z" fill="#EEE9D8"/>
<path d="M213.608 86.6764C205.471 86.6612 198.862 93.2496 198.847 101.393L198.691 183.619C198.707 175.477 205.316 168.887 213.453 168.902L261.615 168.992L261.771 86.7662L213.608 86.6764Z" fill="white"/>
<path opacity="0.5" d="M184.129 86.6222C192.267 86.6379 198.85 93.2514 198.835 101.394L198.681 183.619C198.696 175.476 192.112 168.862 183.975 168.847L135.812 168.757L135.967 86.532L184.129 86.6222Z" fill="white"/>
<g opacity="0.28">
<path opacity="0.5" d="M184.127 86.6221L135.965 86.5323L135.939 100L198.732 155.525L198.834 101.393C198.849 93.2514 192.265 86.6378 184.127 86.6221Z" fill="white"/>
</g>
<path d="M213.34 82.2632C206.746 82.252 201.144 86.5126 199.177 92.4168L199.174 94.3784C200.443 87.7555 206.308 82.7428 213.339 82.7577L261.228 82.8474V82.3538L213.34 82.2632Z" fill="#EEE9D8"/>
<path d="M213.339 84.3463C206.731 84.336 201.121 88.6146 199.174 94.5345L199.17 96.5396C200.397 89.8812 206.278 84.826 213.338 84.8394L261.236 84.9292V84.4356L213.339 84.3463Z" fill="#EEE9D8"/>
<path d="M184.422 82.2094C191.016 82.2224 196.602 86.5037 198.547 92.416L198.544 94.3767C197.298 87.7497 191.453 82.7146 184.42 82.7029L136.535 82.6132V82.1196L184.422 82.2094Z" fill="#EEE9D8"/>
<path d="M184.42 84.2921C191.027 84.306 196.621 88.6066 198.543 94.5328L198.539 96.5384C197.338 89.8755 191.476 84.7982 184.416 84.783L136.518 84.6933V84.1997L184.42 84.2921Z" fill="#EEE9D8"/>
<path d="M302.929 92.352L351.681 105.725L351.661 105.829L351.645 105.828L351.661 105.833L351.713 105.84L351.715 105.834L351.764 105.837L351.787 105.756L351.74 105.743L368.493 44.6776L368.462 44.674L368.597 44.4792L319.74 31.0765C319.601 31.0369 319.462 31.0045 319.323 30.9731L302.368 92.2295C302.554 92.2615 302.741 92.3017 302.929 92.352Z" fill="#119FAC"/>
<path d="M348.096 118.804L299.342 105.43C295.74 104.445 293.613 100.708 294.602 97.1038C294.644 96.9487 294.697 96.8043 294.75 96.6537C295.854 93.5036 299.103 91.6218 302.368 92.2276L319.324 30.9712C314.694 29.9244 310.007 32.5119 308.385 36.9428L308.379 36.9411L308.346 37.0571C308.273 37.2667 308.197 37.475 308.137 37.6926C308.077 37.9102 308.036 38.1283 307.993 38.3455L292.243 95.7587C292.168 95.9708 292.092 96.1794 292.032 96.3986C290.655 101.418 293.596 106.618 298.589 107.986L347.188 121.318L348.096 118.804Z" fill="#108B91"/>
<path d="M348.222 118.752L348.131 118.706L348.097 118.803L348.2 118.831L348.222 118.752Z" fill="#119FAC"/>
<path d="M344.995 110.297C345.517 108.851 346.503 107.618 347.799 106.791L298.212 92.7909C296.785 93.4776 295.642 94.6424 294.983 96.0834L344.995 110.297Z" fill="#FFC34A"/>
<path d="M344.807 110.876C344.864 110.678 344.926 110.486 344.996 110.297L294.982 96.0829C294.897 96.2683 294.818 96.456 294.749 96.6537L294.7 96.7925L344.793 110.935C344.798 110.916 344.801 110.896 344.807 110.876Z" fill="#E8AB3F"/>
<path d="M344.58 112.137C344.617 111.731 344.688 111.329 344.792 110.935L294.699 96.7913C294.663 96.8935 294.629 96.9966 294.6 97.1026C294.491 97.5055 294.42 97.9176 294.387 98.3335L344.58 112.137Z" fill="#FFC34A"/>
<path d="M348.13 118.706C345.874 117.629 344.481 115.208 344.556 112.58L294.373 99.1336C294.476 102.016 296.418 104.627 299.341 105.43L348.095 118.804L348.13 118.706Z" fill="#FFC34A"/>
<path d="M344.581 112.137L294.387 98.3341C294.366 98.6001 294.361 98.8671 294.373 99.1337L344.556 112.58C344.561 112.433 344.568 112.286 344.581 112.137Z" fill="#E8AB3F"/>
<path d="M351.645 105.828L351.662 105.829L351.681 105.725L302.929 92.3521C301.356 91.9215 299.68 92.0775 298.213 92.791L347.8 106.791C348.945 106.068 350.285 105.708 351.645 105.828Z" fill="#E8AB3F"/>
<path d="M334.2 122.671C333.397 121.239 332.945 120.489 331.935 118.945C329.678 119.595 328.496 119.9 326.031 120.441C328.746 116.914 329.963 112.459 329.418 108.042C332.686 108.934 334.319 109.38 337.587 110.273C338.132 114.69 336.915 119.145 334.2 122.671Z" fill="#D84C5A"/>
<path d="M295.179 87.5608L295.731 85.6354C295.765 85.4758 295.797 85.3169 295.843 85.1564C295.889 84.996 295.946 84.8439 296.004 84.689L296.028 84.6028L296.033 84.6041C297.293 81.2895 300.89 79.42 304.355 80.366L303.449 83.5136C300.048 82.6178 296.539 84.3856 295.179 87.5608Z" fill="#B7AA8A"/>
<path d="M296.912 81.5164L297.464 79.591C297.498 79.4313 297.53 79.2725 297.576 79.1124C297.621 78.9524 297.679 78.799 297.736 78.645L297.761 78.5588L297.766 78.5601C299.025 75.2455 302.622 73.3765 306.087 74.3225L305.181 77.47C301.78 76.5733 298.272 78.3412 296.912 81.5164Z" fill="#B7AA8A"/>
<path d="M317.86 78.7473L362.59 91.2826L362.573 91.371L362.559 91.3699L362.573 91.3738L362.618 91.3806L362.619 91.3754L362.663 91.3775L362.682 91.3094L362.642 91.2979L377.202 39.2556L377.176 39.2513L377.293 39.0835L332.473 26.5231C331.73 26.3143 330.96 26.2143 330.187 26.2263L315.279 78.6326C316.137 78.4734 317.02 78.5126 317.86 78.7473Z" fill="#D84C5A"/>
<path d="M359.579 102.385L359.502 102.345L359.472 102.428L359.561 102.453L359.579 102.385Z" fill="#D84C5A"/>
<path d="M359.472 102.429L314.741 89.8933C311.672 89.0347 309.872 85.8375 310.731 82.7661C310.769 82.6367 310.815 82.5099 310.86 82.3829C311.203 81.4251 311.792 80.5743 312.567 79.916C313.342 79.2577 314.277 78.8149 315.277 78.6323L330.185 26.226C328.562 26.2544 326.986 26.7709 325.661 27.7084C324.336 28.6459 323.323 29.9608 322.755 31.482L322.75 31.4805L322.721 31.5797C322.658 31.7589 322.592 31.9361 322.54 32.1214C322.488 32.3067 322.453 32.4922 322.414 32.6776L308.725 81.609C308.661 81.7891 308.594 81.9678 308.542 82.1541C307.346 86.4319 309.834 90.8822 314.088 92.0727L358.687 104.571L359.472 102.429Z" fill="#C73258"/>
<path d="M362.558 91.3703L362.572 91.3714L362.589 91.283L317.859 78.7477C316.584 78.3911 315.225 78.4866 314.012 79.0179L360.317 91.6666C361.033 91.4037 361.799 91.3025 362.558 91.3703Z" fill="#C9BDA1"/>
<path d="M359.503 102.345C357.168 101.218 355.929 98.4069 356.702 95.6486C357.242 93.7152 358.642 92.2733 360.318 91.6661L314.013 79.0174C313.285 79.3323 312.63 79.7935 312.087 80.3725C311.545 80.9514 311.128 81.6356 310.861 82.3827C310.815 82.5098 310.768 82.6363 310.732 82.766C309.872 85.8386 311.672 89.0345 314.742 89.8932L359.473 102.429L359.503 102.345Z" fill="#DBD1B4"/>
<path d="M305.969 69.567L306.032 69.5701L306.02 69.6341L305.955 69.6164L305.969 69.567Z" fill="#119FAC"/>
<path d="M364.285 33.3253L364.289 33.3263L364.268 33.3974C364.241 33.5296 364.214 33.6662 364.175 33.7998C364.136 33.9333 364.089 34.0608 364.042 34.1892L351.589 77.8591C351.561 77.9946 351.534 78.129 351.496 78.2631C350.616 81.349 347.403 83.1475 344.335 82.2718L305.693 71.2499L306.02 69.634L344.756 80.6833C345.82 80.9859 346.961 80.8536 347.929 80.3154C348.896 79.7773 349.611 78.8772 349.916 77.8126C349.943 77.7173 349.962 77.6232 349.983 77.5279C350.198 76.5072 350.023 75.4433 349.495 74.5447C348.966 73.6462 348.12 72.9779 347.124 72.6709L360.255 26.6261C363.134 27.4905 364.858 30.4123 364.285 33.3253Z" fill="#8E9E2E"/>
<path d="M364.285 33.3253L364.289 33.3263L364.268 33.3974C364.241 33.5296 364.214 33.6662 364.175 33.7998C364.136 33.9333 364.089 34.0608 364.042 34.1892L351.589 77.8591C351.561 77.9946 351.534 78.129 351.496 78.2631C350.616 81.349 347.403 83.1475 344.335 82.2718L305.693 71.2499L306.02 69.634L344.756 80.6833C345.82 80.9859 346.961 80.8536 347.929 80.3154C348.896 79.7773 349.611 78.8772 349.916 77.8126C349.943 77.7173 349.962 77.6232 349.983 77.5279C350.198 76.5072 350.023 75.4433 349.495 74.5447C348.966 73.6462 348.12 72.9779 347.124 72.6709L360.255 26.6261C363.134 27.4905 364.858 30.4123 364.285 33.3253Z" fill="#8E9E2E"/>
<path d="M353.921 68.217L354.291 66.923C354.329 66.8204 354.367 66.718 354.398 66.6106C354.429 66.5032 354.451 66.3955 354.472 66.2883L354.489 66.2314L354.485 66.2304C354.708 65.0932 354.501 63.9138 353.904 62.9211C353.307 61.9285 352.362 61.1934 351.254 60.8585L350.651 62.9727C351.733 63.3102 352.658 64.025 353.258 64.9874C353.858 65.9497 354.093 67.0957 353.921 68.217Z" fill="#DBD1B4"/>
<path d="M355.325 63.3173L355.696 62.0233C355.734 61.9203 355.771 61.8187 355.802 61.7109C355.833 61.603 355.855 61.4957 355.877 61.3886L355.893 61.3312L355.89 61.3302C356.113 60.1931 355.905 59.0137 355.308 58.0211C354.711 57.0284 353.767 56.2933 352.658 55.9584L352.055 58.0726C354.31 58.773 355.679 61.0258 355.325 63.3173Z" fill="#DBD1B4"/>
<path d="M308.289 61.6581L308.259 61.6452L308.26 61.6408L308.233 61.6261L308.247 61.5778L308.275 61.5859L321.368 15.6719L321.385 15.6797L321.377 15.533L360.176 26.6004C360.201 26.6078 360.226 26.6183 360.253 26.6258L347.123 72.6706C347.097 72.6631 347.073 72.6521 347.046 72.6446L308.311 61.5956L308.289 61.6572L308.298 61.6597L308.289 61.6581Z" fill="#A1B742"/>
<path d="M308.297 61.6615L308.288 61.659L308.31 61.5975L347.046 72.6464C348.046 72.931 348.902 73.5816 349.444 74.4689L309.9 63.1884C309.53 62.5309 308.972 61.9991 308.297 61.6615Z" fill="#E8AB3F"/>
<path d="M310.285 66.5085C310.446 65.9572 310.495 65.3791 310.429 64.8085C310.363 64.2379 310.183 63.6865 309.901 63.1867L349.445 74.4672C350.01 75.3803 350.202 76.4764 349.981 77.5278C349.96 77.6231 349.941 77.7172 349.914 77.8125C349.609 78.877 348.894 79.7771 347.927 80.3153C346.959 80.8535 345.818 80.9858 344.754 80.6832L306.018 69.6339L306.031 69.5703C307.892 69.7588 309.718 68.4979 310.285 66.5085Z" fill="#FFC34A"/>
<path d="M317.349 176.283C325.073 168.554 325.073 156.022 317.349 148.292C309.625 140.563 297.102 140.563 289.378 148.292C281.654 156.022 281.654 168.554 289.378 176.283C297.102 184.013 309.625 184.013 317.349 176.283Z" fill="#DBD1B4"/>
<path d="M317.054 156.138L320.787 152.93C320.241 151.914 319.608 150.948 318.895 150.042L315.328 153.261L317.054 156.138Z" fill="#B7AA8A"/>
<path d="M318.458 154.427C322.856 161.961 320.318 171.634 312.791 176.035C305.264 180.436 295.597 177.897 291.199 170.364C286.801 162.831 289.34 153.157 296.867 148.756C304.394 144.355 314.061 146.893 318.458 154.427Z" fill="#B7AA8A"/>
<path d="M316.992 154.32C321.39 161.853 318.852 171.527 311.324 175.928C303.797 180.329 294.13 177.789 289.732 170.256C285.334 162.723 287.873 153.049 295.4 148.649C302.928 144.248 312.594 146.787 316.992 154.32Z" fill="#EEE9D8"/>
<path d="M314.703 155.658C313.421 153.458 311.526 151.679 309.25 150.541C310.682 151.601 311.884 152.942 312.781 154.482C316.44 160.75 314.329 168.798 308.066 172.459C304.087 174.785 299.39 174.778 295.557 172.857C299.651 175.883 305.316 176.368 309.989 173.636C316.251 169.975 318.362 161.926 314.703 155.658Z" fill="#36162D"/>
<path d="M308.067 172.459C314.33 168.798 316.441 160.749 312.782 154.482C311.885 152.942 310.683 151.601 309.25 150.541C305.415 148.621 300.719 148.612 296.741 150.94C290.478 154.601 288.367 162.65 292.026 168.917C292.923 170.458 294.124 171.798 295.557 172.857C299.391 174.778 304.088 174.785 308.067 172.459Z" fill="#492641"/>
<path opacity="0.45" d="M299.506 150.878C299.548 151.234 299.484 151.595 299.322 151.915C299.159 152.235 298.905 152.5 298.592 152.675C298.28 152.851 297.922 152.93 297.564 152.902C297.207 152.874 296.865 152.741 296.583 152.519C296.301 152.297 296.091 151.997 295.98 151.656C295.869 151.314 295.861 150.948 295.958 150.602C296.055 150.257 296.252 149.947 296.524 149.714C296.797 149.48 297.132 149.333 297.488 149.29C297.725 149.262 297.965 149.28 298.195 149.345C298.424 149.409 298.639 149.518 298.826 149.666C299.013 149.813 299.17 149.996 299.286 150.204C299.403 150.412 299.478 150.641 299.506 150.878Z" fill="#EEE9D8"/>
<path opacity="0.45" d="M296.91 155.033C296.929 155.189 296.901 155.346 296.83 155.486C296.759 155.625 296.649 155.741 296.512 155.817C296.376 155.894 296.22 155.928 296.064 155.916C295.908 155.904 295.759 155.846 295.636 155.749C295.513 155.652 295.421 155.521 295.373 155.372C295.324 155.224 295.321 155.064 295.364 154.913C295.406 154.762 295.492 154.627 295.611 154.526C295.73 154.424 295.876 154.36 296.031 154.341C296.24 154.316 296.449 154.375 296.614 154.505C296.779 154.635 296.885 154.825 296.91 155.033Z" fill="#EEE9D8"/>
<path opacity="0.45" d="M301.215 151.845C301.248 152.119 301.199 152.397 301.074 152.643C300.949 152.89 300.754 153.094 300.513 153.229C300.272 153.364 299.997 153.425 299.722 153.404C299.447 153.383 299.184 153.28 298.967 153.109C298.75 152.939 298.588 152.707 298.502 152.445C298.417 152.182 298.411 151.9 298.486 151.634C298.56 151.368 298.712 151.13 298.922 150.95C299.131 150.771 299.39 150.657 299.664 150.624C300.031 150.58 300.401 150.684 300.692 150.913C300.983 151.142 301.171 151.477 301.215 151.845Z" fill="#EEE9D8"/>
<path d="M321.619 147.819C321.432 147.589 321.202 147.398 320.941 147.256C320.681 147.115 320.395 147.027 320.1 146.996C319.805 146.966 319.507 146.994 319.223 147.079C318.939 147.163 318.674 147.303 318.444 147.491L312.873 152.022L315.592 155.633L321.292 150.998C321.522 150.811 321.713 150.581 321.854 150.319C321.995 150.058 322.084 149.772 322.114 149.477C322.144 149.181 322.116 148.883 322.032 148.599C321.947 148.314 321.806 148.049 321.619 147.819Z" fill="#EEE9D8"/>
<path d="M36.4982 43.9264L33.1287 28.9333L71.1989 20.3768C72.2921 20.1314 73.438 20.3305 74.3846 20.9305C75.3312 21.5304 76.0011 22.482 76.2467 23.5759L78.689 34.4444L36.4982 43.9264Z" fill="#872571"/>
<path d="M83.0351 53.7778L40.8435 63.2604L41.2251 64.9581L83.3537 55.2081L83.0351 53.7778Z" fill="#351A30"/>
<path d="M41.225 64.9581L46.6467 89.0789L82.53 80.1226C83.5567 79.892 84.9464 79.796 86.1179 79.5538L88.0359 77.9829L88.403 77.8714L83.3534 55.2073L41.225 64.9581Z" fill="#872571"/>
<path d="M83.0361 53.7778L40.8445 63.2604L36.4996 43.9264L78.6905 34.4449L83.0361 53.7778Z" fill="#D84C5A"/>
<path d="M46.9931 89.0983C46.9834 89.0545 46.9764 89.0101 46.9699 88.9679C46.8978 88.4932 47.0081 88.0089 47.2786 87.6124C47.5491 87.216 47.9597 86.9369 48.4277 86.8313L88.391 77.8498L88.2578 77.4266L48.3283 86.4007C47.7531 86.5316 47.2486 86.8751 46.9157 87.3624C46.5828 87.8497 46.4461 88.4448 46.5329 89.0287C46.5393 89.0838 46.5486 89.1385 46.5607 89.1926C46.697 89.7969 47.0673 90.3225 47.5904 90.654C48.1134 90.9855 48.7465 91.0959 49.3506 90.961L89.2797 81.987L89.2216 81.5477L49.2561 90.5297C48.7665 90.6396 48.2532 90.5506 47.8289 90.2822C47.4047 90.0139 47.104 89.5881 46.9931 89.0983Z" fill="#36162D"/>
<path d="M88.4012 77.874L88.3926 77.8472L88.3887 77.848L88.3972 77.8762L88.4012 77.874Z" fill="#FFC34A"/>
<path d="M89.2209 81.5475L89.2235 81.5469L89.2174 81.5196L89.2209 81.5475Z" fill="#FFC34A"/>
<path d="M47.5553 89.2066C47.4831 88.7319 47.5933 88.2475 47.8639 87.8511C48.1344 87.4546 48.5451 87.1755 49.0131 87.07L87.7614 78.3606C87.9326 78.1508 88.1514 77.9849 88.3994 77.8765L88.3931 77.8475L48.4298 86.8291C47.9618 86.9346 47.5512 87.2137 47.2807 87.6102C47.0102 88.0066 46.8999 88.491 46.972 88.9657C46.979 89.01 46.9856 89.0545 46.9952 89.0961C47.074 89.4421 47.2485 89.7589 47.4987 90.0104C47.7489 90.2619 48.0648 90.438 48.4102 90.5184C48.2009 90.3857 48.0198 90.2131 47.8771 90.0104C47.7345 89.8077 47.6332 89.5788 47.5789 89.3369C47.5684 89.2933 47.5618 89.2488 47.5553 89.2066Z" fill="#E09B2D"/>
<path d="M89.0152 81.5931L89.2209 81.5478L89.2171 81.5179C89.0778 81.5219 88.9386 81.5081 88.8027 81.4768C88.8706 81.5207 88.9416 81.5596 89.0152 81.5931Z" fill="#FFC34A"/>
<path d="M89.015 81.5932C88.9414 81.5595 88.8704 81.5204 88.8024 81.4764C88.1228 81.3338 87.5407 80.7834 87.37 80.0207C87.3032 79.7327 87.3035 79.4333 87.3706 79.1456C87.4378 78.8578 87.5702 78.5893 87.7575 78.3609L49.0094 87.0703C48.5413 87.1758 48.1306 87.4549 47.8601 87.8514C47.5895 88.2478 47.4793 88.7322 47.5515 89.2069C47.5585 89.2513 47.5651 89.2958 47.5742 89.337C47.6284 89.5789 47.7297 89.8077 47.8724 90.0104C48.015 90.2132 48.1961 90.3858 48.4054 90.5185C48.6834 90.587 48.9734 90.5907 49.253 90.5294L89.015 81.5932Z" fill="#FFC34A"/>
<path d="M63.1903 21.6997L60.2891 22.3517C60.2466 22.3612 60.2065 22.3789 60.171 22.404C60.1355 22.429 60.1052 22.4608 60.082 22.4975C60.0588 22.5342 60.043 22.5752 60.0357 22.6181C60.0283 22.6609 60.0295 22.7048 60.0391 22.7472L74.1318 85.4258C74.1414 85.4682 74.1592 85.5083 74.1842 85.5439C74.2093 85.5795 74.2411 85.6097 74.2778 85.633C74.3146 85.6562 74.3556 85.6719 74.3984 85.6793C74.4413 85.6866 74.4852 85.6855 74.5275 85.6758L77.4283 85.0239C77.4708 85.0144 77.5109 84.9966 77.5465 84.9715C77.582 84.9465 77.6123 84.9147 77.6355 84.8779C77.6587 84.8411 77.6745 84.8001 77.6819 84.7572C77.6893 84.7143 77.6882 84.6704 77.6786 84.6279L63.5861 21.9526C63.5768 21.9099 63.5592 21.8695 63.5343 21.8336C63.5093 21.7978 63.4775 21.7672 63.4408 21.7437C63.404 21.7202 63.3629 21.7042 63.3199 21.6967C63.2769 21.6891 63.2329 21.6902 63.1903 21.6997Z" fill="#A1B742"/>
<path d="M56.29 86.725L53.2188 87.4011L54.7128 94.1878L57.7841 93.5117L56.29 86.725Z" fill="#D84C5A"/>
<path d="M39.2989 149.603L38.2305 149.993V152.596L42.0447 151.129L39.2989 149.603Z" fill="#A09780"/>
<path d="M44.6963 152.611L42.0452 151.131L38.2305 152.598V152.613C38.8703 153.23 39.2931 154.288 39.2931 155.494C39.2931 156.672 38.8896 157.708 38.2722 158.33L43.8171 156.391C43.7045 156.032 43.6337 155.717 43.6337 155.493C43.6337 154.287 44.0565 153.228 44.6963 152.611Z" fill="#877D68"/>
<path d="M43.8171 156.389L38.2722 158.328C38.2578 158.342 38.2453 158.359 38.2305 158.373V160.982L40.2427 160.248L40.4593 160.169L40.2427 160.248H45.5617C45.1487 159.499 44.2125 157.649 43.8171 156.389Z" fill="#A09780"/>
<path d="M40.2424 160.248L38.2324 160.983V160.992H44.6982L45.7514 160.574C45.7295 160.546 45.6618 160.429 45.5613 160.248H40.2424Z" fill="#877D68"/>
<path d="M44.6962 155.097C44.6962 153.892 45.119 152.833 45.7583 152.216V149.598H39.293V152.216C39.9328 152.833 40.3556 153.892 40.3556 155.097C40.3556 156.302 39.9328 157.361 39.293 157.978V160.597H45.757V157.978C45.119 157.361 44.6962 156.303 44.6962 155.097Z" fill="#BFB7A1"/>
<path d="M43.445 151.636C43.2154 151.484 42.9487 151.397 42.6735 151.384C42.3983 151.371 42.1247 151.433 41.8819 151.563C41.6391 151.694 41.4361 151.887 41.2946 152.124C41.1531 152.361 41.0783 152.631 41.0781 152.907V160.599H43.445V151.636Z" fill="#A09780"/>
<path d="M44.1263 152.905C44.126 152.654 44.0637 152.407 43.9449 152.185C43.8261 151.964 43.6545 151.775 43.4453 151.636V160.599H44.1263V152.905Z" fill="#877D68"/>
<path d="M42.6969 155.35C42.6969 155.44 42.6701 155.529 42.6199 155.604C42.5697 155.679 42.4983 155.738 42.4148 155.773C42.3313 155.807 42.2394 155.816 42.1508 155.798C42.0621 155.781 41.9807 155.737 41.9169 155.673C41.853 155.609 41.8095 155.528 41.7919 155.439C41.7743 155.35 41.7835 155.258 41.8181 155.175C41.8528 155.091 41.9114 155.02 41.9866 154.97C42.0618 154.919 42.1501 154.893 42.2405 154.893C42.3005 154.893 42.3599 154.905 42.4153 154.928C42.4707 154.951 42.521 154.984 42.5634 155.027C42.6058 155.069 42.6394 155.12 42.6623 155.175C42.6852 155.231 42.697 155.29 42.6969 155.35Z" fill="#DBD4C3"/>
<path d="M42.2869 155.67C42.2869 155.682 42.2822 155.694 42.2738 155.702C42.2654 155.71 42.254 155.715 42.2421 155.715C42.2302 155.715 42.2188 155.71 42.2104 155.702C42.202 155.694 42.1973 155.682 42.1973 155.67V155.029C42.1973 155.017 42.202 155.006 42.2104 154.998C42.2188 154.989 42.2302 154.984 42.2421 154.984C42.254 154.984 42.2654 154.989 42.2738 154.998C42.2822 155.006 42.2869 155.017 42.2869 155.029V155.67Z" fill="#877D68"/>
<path d="M41.9198 155.397C41.9079 155.397 41.8965 155.392 41.8881 155.383C41.8797 155.375 41.875 155.363 41.875 155.352C41.875 155.34 41.8797 155.328 41.8881 155.32C41.8965 155.311 41.9079 155.307 41.9198 155.307H42.5605C42.5724 155.307 42.5838 155.311 42.5923 155.32C42.6007 155.328 42.6054 155.34 42.6054 155.352C42.6054 155.363 42.6007 155.375 42.5923 155.383C42.5838 155.392 42.5724 155.397 42.5605 155.397H41.9198Z" fill="#877D68"/>
<path d="M52.8413 148.443L52.1652 143.401C52.1499 143.406 52.1336 143.407 52.1176 143.405C52.1016 143.403 52.0862 143.397 52.0728 143.388L51.9042 143.286C51.8882 143.277 51.8706 143.272 51.8524 143.271C51.8342 143.27 51.816 143.272 51.7989 143.279C51.7819 143.285 51.7664 143.295 51.7536 143.308C51.7408 143.321 51.731 143.337 51.7249 143.354L51.6491 143.545C51.6435 143.562 51.634 143.578 51.6215 143.591C51.6089 143.604 51.5936 143.614 51.5766 143.621C51.5597 143.627 51.5415 143.629 51.5234 143.628C51.5054 143.626 51.488 143.62 51.4724 143.611L51.2855 143.513C51.2695 143.504 51.2518 143.499 51.2336 143.497C51.2154 143.496 51.1972 143.499 51.1801 143.505C51.163 143.511 51.1476 143.522 51.1348 143.535C51.122 143.548 51.1122 143.563 51.1061 143.58L51.0465 143.769C51.0354 143.802 51.0119 143.83 50.9809 143.846C50.95 143.862 50.914 143.866 50.8806 143.856L50.6927 143.793C50.6751 143.787 50.6564 143.786 50.638 143.788C50.6197 143.791 50.6021 143.797 50.5866 143.808C50.5711 143.818 50.5581 143.831 50.5485 143.847C50.5388 143.863 50.5328 143.881 50.5309 143.899L50.4999 144.107C50.4983 144.125 50.4926 144.142 50.4833 144.158C50.474 144.173 50.4613 144.186 50.4463 144.196C50.4312 144.206 50.4141 144.212 50.3962 144.215C50.3783 144.217 50.3602 144.216 50.343 144.21L50.2305 144.18L52.5274 148.477C52.6313 148.459 52.7361 148.448 52.8413 148.443Z" fill="#FFC34A"/>
<path d="M50.227 144.181L50.1373 144.157C50.1196 144.152 50.101 144.151 50.0827 144.153C50.0645 144.156 50.047 144.162 50.0316 144.173C50.0162 144.183 50.0033 144.196 49.9937 144.212C49.9842 144.228 49.9782 144.246 49.9763 144.264L49.9597 144.462C49.956 144.497 49.939 144.528 49.9123 144.551C49.8857 144.573 49.8514 144.584 49.8167 144.582L49.619 144.562C49.6005 144.561 49.582 144.563 49.5648 144.57C49.5475 144.577 49.5319 144.587 49.519 144.6C49.5062 144.614 49.4964 144.63 49.4905 144.647C49.4845 144.665 49.4825 144.683 49.4845 144.702L49.5006 144.911C49.5028 144.928 49.501 144.946 49.4954 144.963C49.4897 144.98 49.4803 144.996 49.4679 145.009C49.4555 145.022 49.4404 145.032 49.4236 145.038C49.4068 145.044 49.3889 145.047 49.371 145.045L49.1608 145.038C49.1423 145.037 49.1237 145.039 49.1063 145.046C49.089 145.052 49.0733 145.063 49.0604 145.076C49.0476 145.09 49.0378 145.106 49.0319 145.123C49.026 145.141 49.0241 145.16 49.0263 145.178L49.0541 145.375L49.085 145.512L49.081 145.517C49.7983 146.445 50.791 147.731 51.6214 148.805C51.8983 148.639 52.2043 148.527 52.523 148.475L50.227 144.181Z" fill="#E09B2D"/>
<path d="M52.9491 148.436H52.9523L52.3645 143.158C52.3613 143.162 52.3555 143.162 52.3524 143.166L52.2515 143.335C52.2307 143.366 52.1998 143.389 52.1641 143.4L52.8415 148.443C52.877 148.442 52.9124 148.436 52.9491 148.436Z" fill="#FFD892"/>
<path d="M53.3434 143.206L53.1995 143.066C53.1861 143.054 53.1701 143.044 53.1525 143.038C53.135 143.032 53.1164 143.03 53.0981 143.033C53.0797 143.035 53.062 143.041 53.0463 143.051C53.0306 143.06 53.0172 143.073 53.0071 143.089L52.8888 143.261C52.8792 143.276 52.8664 143.289 52.8511 143.299C52.8359 143.309 52.8186 143.315 52.8007 143.317C52.7827 143.319 52.7645 143.317 52.7474 143.311C52.7303 143.305 52.7147 143.296 52.7018 143.283L52.5426 143.145C52.5301 143.133 52.5153 143.125 52.4993 143.119C52.4833 143.114 52.4664 143.112 52.4495 143.113C52.4327 143.115 52.4164 143.12 52.4016 143.128C52.3867 143.136 52.3737 143.147 52.3633 143.16L52.9511 148.438C53.0621 148.439 53.173 148.447 53.2829 148.464L53.4232 143.237C53.4085 143.238 53.3938 143.235 53.38 143.23C53.3663 143.224 53.3538 143.216 53.3434 143.206Z" fill="#EFAE3C"/>
<path d="M53.9831 143.225L53.858 143.055C53.8477 143.04 53.8342 143.027 53.8183 143.018C53.8025 143.008 53.7848 143.002 53.7665 143.001C53.7482 142.999 53.7297 143.001 53.7123 143.007C53.6949 143.013 53.6792 143.023 53.6661 143.036L53.5294 143.184C53.5171 143.2 53.5011 143.213 53.4827 143.222C53.4643 143.231 53.444 143.236 53.4235 143.236L53.2832 148.462C53.3927 148.477 53.5012 148.499 53.6078 148.528L54.1602 143.246C54.1477 143.257 54.1329 143.266 54.1168 143.271C54.1007 143.276 54.0836 143.278 54.0668 143.276C54.05 143.274 54.0339 143.268 54.0194 143.259C54.005 143.251 53.9926 143.239 53.9831 143.225Z" fill="#E09B2D"/>
<path d="M57.472 144.798C57.4593 144.779 57.4527 144.757 57.4532 144.735V144.574L54.377 148.877C54.394 148.889 54.4092 148.903 54.4258 148.915L57.472 144.798Z" fill="#E09B2D"/>
<path d="M57.9172 145C57.9204 144.982 57.9196 144.964 57.9148 144.946C57.9101 144.928 57.9014 144.911 57.8896 144.897C57.8777 144.883 57.8629 144.872 57.8462 144.864C57.8295 144.857 57.8113 144.853 57.793 144.853L57.593 144.859C57.5692 144.859 57.5457 144.854 57.5244 144.844C57.5031 144.833 57.4848 144.817 57.471 144.798L54.4258 148.915C54.4576 148.936 54.4859 148.959 54.5155 148.984L57.9068 145.057L57.9172 145Z" fill="#EFAE3C"/>
<path d="M58.9713 146.527C58.955 146.505 58.9312 146.49 58.9045 146.484L58.6978 146.432C58.6799 146.429 58.6629 146.422 58.648 146.412C58.6332 146.401 58.6209 146.388 58.612 146.372C58.6031 146.356 58.5979 146.338 58.5968 146.32C58.5956 146.302 58.5986 146.284 58.6055 146.267L58.6781 146.074C58.6847 146.057 58.6875 146.039 58.6861 146.02C58.6848 146.002 58.6794 145.984 58.6704 145.968C58.6614 145.952 58.6489 145.938 58.6339 145.927C58.6189 145.916 58.6016 145.909 58.5835 145.906L58.384 145.869C58.3663 145.866 58.3496 145.859 58.3351 145.848C58.3205 145.838 58.3085 145.824 58.2999 145.809C58.2913 145.793 58.2863 145.775 58.2854 145.757C58.2844 145.739 58.2874 145.722 58.2943 145.705L58.3418 145.508C58.345 145.49 58.3442 145.471 58.3394 145.453C58.3346 145.436 58.326 145.419 58.3141 145.405C58.3022 145.391 58.2874 145.379 58.2706 145.372C58.2539 145.364 58.2356 145.36 58.2172 145.36L58.01 145.352C57.992 145.352 57.974 145.349 57.9575 145.341C57.941 145.334 57.9264 145.323 57.9148 145.309C57.9032 145.295 57.8948 145.279 57.8903 145.261C57.8859 145.244 57.8854 145.226 57.889 145.208L57.9109 145.057L54.5195 148.984C54.5711 149.022 54.624 149.057 54.6715 149.1L58.9713 146.527Z" fill="#FFC34A"/>
<path d="M57.4536 144.534C57.4535 144.515 57.4493 144.497 57.4413 144.48C57.4334 144.464 57.4218 144.449 57.4076 144.437C57.3933 144.425 57.3766 144.417 57.3587 144.412C57.3407 144.408 57.322 144.407 57.3039 144.411L57.0999 144.447C57.0822 144.451 57.0639 144.451 57.0463 144.447C57.0287 144.443 57.0122 144.434 56.9982 144.423C56.9842 144.412 56.9729 144.397 56.9653 144.381C56.9577 144.364 56.9539 144.346 56.9542 144.328L56.9398 144.116C56.9322 144.035 56.8676 143.973 56.7869 143.999L56.5834 144.066C56.5667 144.073 56.5486 144.076 56.5304 144.076C56.5122 144.075 56.4944 144.07 56.4784 144.061C56.4624 144.053 56.4485 144.04 56.4379 144.026C56.4273 144.011 56.4201 143.994 56.417 143.976L56.3753 143.775C56.3713 143.757 56.3635 143.741 56.3523 143.726C56.3412 143.711 56.3269 143.699 56.3107 143.691C56.2944 143.682 56.2765 143.678 56.2582 143.677C56.2398 143.676 56.2215 143.679 56.2045 143.686L56.0157 143.762C55.9991 143.77 55.981 143.773 55.9629 143.772C55.9447 143.771 55.927 143.766 55.9111 143.758C55.8951 143.749 55.8813 143.737 55.8707 143.722C55.8601 143.708 55.853 143.691 55.8498 143.673L55.7889 143.47C55.7818 143.453 55.771 143.438 55.7574 143.426C55.7437 143.413 55.7275 143.404 55.7099 143.398C55.6923 143.393 55.6737 143.391 55.6554 143.394C55.6371 143.396 55.6196 143.403 55.6041 143.413L55.4212 143.52L55.3149 143.534L55.2988 143.583L55.3154 143.534L55.2437 143.466L55.1585 143.276C55.1515 143.258 55.1408 143.243 55.1271 143.231C55.1135 143.218 55.0972 143.209 55.0795 143.203C55.0618 143.198 55.0432 143.197 55.0249 143.199C55.0066 143.202 54.9891 143.209 54.9737 143.219L54.8078 143.332C54.7932 143.341 54.7768 143.348 54.7596 143.351C54.7424 143.354 54.7248 143.353 54.7078 143.349C54.6908 143.345 54.6748 143.338 54.6606 143.328C54.6465 143.318 54.6345 143.305 54.6254 143.29L54.5178 143.122C54.5075 143.106 54.494 143.093 54.4781 143.084C54.4623 143.074 54.4446 143.068 54.4262 143.067C54.4078 143.065 54.3893 143.067 54.3719 143.073C54.3544 143.079 54.3386 143.089 54.3254 143.102L54.1716 143.244C54.1685 143.247 54.1644 143.244 54.1618 143.248L53.6094 148.528C53.883 148.602 54.1426 148.72 54.3779 148.878L57.4541 144.575L57.4536 144.534Z" fill="#FFC34A"/>
<path d="M58.9722 146.526L54.668 149.1C54.6899 149.119 54.7092 149.144 54.7303 149.163L58.8655 146.933C58.8583 146.905 58.862 146.875 58.8758 146.849L58.9785 146.661C58.9917 146.641 58.9982 146.617 58.997 146.593C58.9959 146.568 58.9872 146.545 58.9722 146.526Z" fill="#FFD892"/>
<path d="M59.1264 147.107L58.9367 147.027C58.9174 147.02 58.9007 147.007 58.8885 146.99C58.8763 146.974 58.869 146.954 58.8676 146.933L54.7324 149.163C54.7952 149.223 54.8544 149.286 54.9118 149.352L59.0775 147.464C59.0775 147.464 59.0775 147.462 59.0775 147.461L59.1864 147.29C59.1964 147.275 59.2027 147.257 59.2051 147.239C59.2074 147.22 59.2056 147.202 59.1999 147.184C59.1941 147.167 59.1845 147.151 59.1718 147.137C59.1591 147.124 59.1436 147.113 59.1264 147.107Z" fill="#EFAE3C"/>
<path d="M59.39 148.398L59.2187 148.279C59.2034 148.269 59.1904 148.256 59.1807 148.241C59.171 148.226 59.1649 148.208 59.1628 148.19C59.1608 148.172 59.1628 148.154 59.1687 148.137C59.1747 148.12 59.1844 148.104 59.1972 148.092L59.3353 147.932C59.3481 147.919 59.3577 147.903 59.3636 147.885C59.3694 147.868 59.3712 147.849 59.369 147.831C59.3668 147.812 59.3605 147.795 59.3507 147.779C59.3408 147.763 59.3276 147.75 59.312 147.74L59.1327 147.64C59.1161 147.634 59.1011 147.624 59.0888 147.611C59.0765 147.598 59.0673 147.583 59.0616 147.566C59.056 147.549 59.0542 147.532 59.0563 147.514C59.0585 147.496 59.0645 147.479 59.0739 147.464L54.9082 149.352C55.0993 149.573 55.251 149.825 55.3566 150.097L59.1613 148.823V148.82H59.1663L59.269 148.731L59.4093 148.588C59.4221 148.575 59.4318 148.56 59.4379 148.542C59.4439 148.525 59.4461 148.507 59.4443 148.488C59.4424 148.47 59.4366 148.453 59.4272 148.437C59.4179 148.421 59.4052 148.408 59.39 148.398Z" fill="#FFC34A"/>
<path d="M51.7399 148.984L51.5938 148.766L51.6354 148.707L51.6655 148.572C51.668 148.56 51.6734 148.548 51.6811 148.538C51.6889 148.528 51.6989 148.52 51.7103 148.515C51.7217 148.509 51.7342 148.507 51.7468 148.507C51.7594 148.507 51.7718 148.511 51.783 148.516L51.9067 148.576C51.9171 148.581 51.9286 148.585 51.9403 148.585C51.9521 148.586 51.9639 148.584 51.9749 148.58C51.9859 148.576 51.9958 148.569 52.004 148.561C52.0122 148.552 52.0185 148.542 52.0224 148.531L52.0735 148.404C52.0781 148.393 52.0851 148.383 52.0941 148.374C52.1031 148.366 52.1138 148.36 52.1255 148.356C52.1372 148.352 52.1496 148.351 52.1618 148.353C52.1739 148.354 52.1856 148.359 52.1959 148.365L52.3093 148.444C52.3183 148.452 52.329 148.458 52.3405 148.461C52.352 148.464 52.364 148.464 52.3757 148.462C52.3874 148.46 52.3984 148.455 52.4079 148.448C52.4174 148.44 52.4251 148.431 52.4304 148.42L52.4999 148.301C52.5055 148.289 52.5137 148.28 52.5237 148.272C52.5338 148.265 52.5454 148.26 52.5578 148.258C52.5701 148.256 52.5827 148.257 52.5946 148.261C52.6065 148.264 52.6174 148.271 52.6263 148.28L52.7268 148.378C52.7347 148.387 52.7445 148.394 52.7555 148.399C52.7666 148.403 52.7785 148.405 52.7904 148.405C52.8023 148.404 52.8139 148.401 52.8243 148.395C52.8347 148.389 52.8437 148.381 52.8505 148.371L52.9375 148.262C52.9447 148.251 52.9544 148.243 52.9656 148.237C52.9768 148.231 52.9892 148.228 53.0018 148.228C53.0145 148.228 53.0269 148.231 53.0381 148.237C53.0493 148.243 53.0589 148.251 53.0662 148.262L53.1496 148.375C53.156 148.385 53.1646 148.394 53.1748 148.4C53.185 148.406 53.1965 148.41 53.2084 148.412C53.2203 148.413 53.2324 148.411 53.2436 148.407C53.2549 148.403 53.265 148.396 53.2733 148.388L53.3765 148.293C53.3851 148.284 53.3958 148.277 53.4077 148.273C53.4196 148.269 53.4323 148.268 53.4447 148.27C53.4572 148.271 53.4691 148.276 53.4793 148.283C53.4896 148.291 53.498 148.3 53.5038 148.311L53.5683 148.437C53.5728 148.449 53.5797 148.458 53.5886 148.466C53.5975 148.474 53.608 148.48 53.6195 148.483C53.6309 148.487 53.643 148.487 53.6547 148.485C53.6664 148.483 53.6775 148.479 53.6872 148.472L53.8015 148.397C53.8116 148.39 53.8231 148.385 53.8352 148.383C53.8473 148.381 53.8597 148.382 53.8715 148.385C53.8833 148.389 53.8943 148.394 53.9035 148.402C53.9128 148.41 53.9203 148.42 53.9253 148.432L53.9701 148.559C53.9727 148.57 53.9779 148.581 53.9854 148.591C53.9929 148.6 54.0024 148.607 54.0132 148.613C54.024 148.618 54.0358 148.62 54.0478 148.62C54.0597 148.62 54.0715 148.617 54.0822 148.612L54.2068 148.555C54.2178 148.55 54.2299 148.547 54.242 148.547C54.2542 148.547 54.2662 148.55 54.2772 148.555C54.2882 148.56 54.2979 148.568 54.3056 148.577C54.3132 148.587 54.3187 148.598 54.3216 148.61L54.3521 148.74C54.3539 148.751 54.3581 148.762 54.3645 148.772C54.3708 148.782 54.3792 148.79 54.389 148.797C54.3989 148.803 54.4099 148.807 54.4215 148.809C54.4331 148.811 54.4449 148.81 54.4561 148.807L54.5879 148.77C54.5998 148.767 54.6123 148.766 54.6244 148.769C54.6366 148.771 54.6481 148.775 54.6582 148.783C54.6683 148.79 54.6768 148.799 54.6829 148.809C54.689 148.82 54.6927 148.832 54.6937 148.844L54.7036 148.979C54.7034 148.991 54.7056 149.002 54.7101 149.013C54.7146 149.023 54.7213 149.033 54.7298 149.041C54.7383 149.049 54.7483 149.054 54.7592 149.058C54.7702 149.062 54.7818 149.063 54.7933 149.062L54.93 149.049C54.9423 149.047 54.9547 149.049 54.9663 149.053C54.978 149.057 54.9886 149.063 54.9975 149.072C55.0063 149.08 55.0132 149.091 55.0177 149.102C55.0222 149.114 55.0241 149.126 55.0233 149.138L55.0063 149.273C55.0033 149.285 55.0029 149.297 55.0054 149.308C55.0078 149.32 55.0129 149.331 55.0202 149.341C55.0276 149.35 55.037 149.358 55.0478 149.363C55.0586 149.369 55.0705 149.372 55.0825 149.372L55.2215 149.383C55.2343 149.383 55.2468 149.386 55.258 149.392C55.2693 149.399 55.2789 149.407 55.286 149.418C55.2932 149.428 55.2977 149.441 55.2992 149.453C55.3007 149.466 55.2991 149.479 55.2946 149.491L55.2497 149.623C55.2454 149.634 55.2437 149.646 55.2445 149.658C55.2454 149.67 55.2488 149.682 55.2546 149.692C55.2604 149.703 55.2685 149.712 55.2782 149.719C55.2879 149.726 55.299 149.731 55.3107 149.733L55.4412 149.775C55.4534 149.779 55.4646 149.785 55.474 149.794C55.4833 149.802 55.4907 149.813 55.4954 149.825C55.5001 149.837 55.5021 149.85 55.5013 149.862C55.5004 149.875 55.4967 149.888 55.4905 149.899L55.4183 150.019L55.4044 150.086L55.1461 150.131C54.7852 148.834 52.8918 148.242 51.7399 148.984Z" fill="#D84C5A"/>
<path d="M41.2732 174.124H40.7715V179.473H41.2732V174.124Z" fill="#BFB7A1"/>
<path d="M41.5357 174.124H41.2734V179.473H41.5357V174.124Z" fill="#DDD5C3"/>
<path d="M42.2415 174.124H41.5371V179.473H42.2415V174.124Z" fill="#BFB7A1"/>
<path d="M42.5045 174.124H42.2422V179.473H42.5045V174.124Z" fill="#DDD5C3"/>
<path d="M44.1373 174.124H42.5039V179.473H44.1373V174.124Z" fill="#BFB7A1"/>
<path d="M44.1367 179.473H69.6454C69.422 179.442 69.2188 179.327 69.0766 179.152C68.9345 178.976 68.864 178.754 68.8795 178.529C68.895 178.303 68.9952 178.093 69.16 177.938C69.3248 177.784 69.5418 177.698 69.7674 177.698V177.684H44.1367V179.473Z" fill="#E09B2D"/>
<path d="M44.1367 176.024H69.3145C69.4509 175.941 69.6071 175.896 69.7669 175.893C69.5456 175.892 69.3324 175.809 69.1689 175.66C69.0054 175.511 68.9031 175.306 68.8819 175.086C68.8607 174.865 68.9222 174.645 69.0543 174.467C69.1865 174.289 69.3798 174.167 69.597 174.124H44.1367V176.024Z" fill="#E09B2D"/>
<path d="M44.1367 177.684H69.7674V177.681C69.5725 177.68 69.3832 177.616 69.2285 177.497C69.0737 177.379 68.9621 177.213 68.9107 177.025C68.8593 176.837 68.871 176.637 68.9439 176.456C69.0169 176.275 69.147 176.124 69.3145 176.024H44.1367V177.684Z" fill="#EFB041"/>
<path d="M39.1296 174.124C37.4007 174.124 36 175.321 36 176.798C36 178.275 37.4007 179.473 39.1296 179.473H40.7724V174.124H39.1296Z" fill="#D84C5A"/>
<path d="M75.521 177.232L75.7523 177.111C76.0594 176.952 76.0599 176.691 75.7523 176.527L75.5667 176.429L74.791 176.019V177.609L75.521 177.232Z" fill="#D84C5A"/>
<path d="M74.552 175.893L70.8992 174.124H69.5963C69.3791 174.167 69.1857 174.289 69.0536 174.467C68.9215 174.645 68.86 174.865 68.8812 175.085C68.9024 175.306 69.0046 175.511 69.1682 175.66C69.3317 175.809 69.5448 175.892 69.7662 175.893C69.5293 175.893 69.3021 175.988 69.1346 176.155C68.9671 176.323 68.873 176.55 68.873 176.787C68.873 177.024 68.9671 177.251 69.1346 177.419C69.3021 177.587 69.5293 177.681 69.7662 177.681V177.698C69.5407 177.699 69.3236 177.784 69.1588 177.939C68.994 178.093 68.8938 178.304 68.8783 178.529C68.8629 178.754 68.9333 178.976 69.0754 179.152C69.2176 179.327 69.4209 179.442 69.6442 179.473H70.8996L74.6237 177.698L74.6556 177.681L74.7901 177.61V176.02L74.5529 175.894L74.552 175.893Z" fill="#FFC34A"/>
<path d="M41.6016 164.813L41.6038 165.57L42.1745 165.569L42.1723 164.812L41.6016 164.813Z" fill="#877B60"/>
<path d="M42.1781 165.567L41.6074 165.569L41.6223 170.898L42.193 170.897L42.1781 165.567Z" fill="#A0977F"/>
<path d="M42.1877 170.898L42.4863 170.897L42.472 165.568L42.1738 165.569L42.1877 170.898Z" fill="#BFB7A1"/>
<path d="M42.1719 164.812L42.1741 165.569L42.4723 165.568L42.4705 164.811L42.1719 164.812Z" fill="#A0977F"/>
<path d="M42.4707 164.811L42.4725 165.568L43.2751 165.567L43.2724 164.809L42.4707 164.811Z" fill="#877B60"/>
<path d="M42.487 170.897L43.2892 170.895L43.2753 165.567L42.4727 165.568L42.487 170.897Z" fill="#A0977F"/>
<path d="M43.2715 164.809L43.2742 165.567L43.5723 165.566L43.5701 164.809H43.2715Z" fill="#A0977F"/>
<path d="M43.5794 165.565L43.2812 165.565L43.2924 170.893L43.5905 170.892L43.5794 165.565Z" fill="#BFB7A1"/>
<path d="M43.5862 170.894L45.4442 170.889L45.4298 165.563L43.5723 165.567L43.5862 170.894Z" fill="#A0977F"/>
<path d="M43.5703 164.809L43.5726 165.567L45.4301 165.563L45.4279 164.804L43.5703 164.809Z" fill="#877B60"/>
<path d="M45.4435 170.889L74.4664 170.812C74.2128 170.776 73.9821 170.646 73.8206 170.447C73.6591 170.248 73.5788 169.996 73.5959 169.74C73.6129 169.484 73.726 169.244 73.9124 169.069C74.0989 168.893 74.3449 168.795 74.6009 168.793V168.776L45.4395 168.853L45.4435 170.889Z" fill="#52E8E8"/>
<path d="M47.7803 165.559L45.43 165.563L45.4336 166.965L74.0808 166.888C74.2355 166.793 74.4127 166.742 74.5942 166.738C74.3428 166.737 74.1009 166.643 73.9151 166.473C73.7293 166.304 73.6128 166.072 73.5881 165.822C73.5634 165.571 73.6322 165.321 73.7814 165.118C73.9305 164.916 74.1493 164.776 74.3955 164.726L45.4277 164.804V165.563L47.7803 165.559Z" fill="#119FAC"/>
<path d="M45.4381 168.854L74.5996 168.777V168.772C74.3779 168.772 74.1624 168.699 73.9861 168.565C73.8099 168.43 73.6826 168.241 73.6237 168.028C73.5648 167.814 73.5776 167.586 73.6602 167.38C73.7428 167.175 73.8905 167.001 74.0808 166.888L45.4336 166.964L45.4381 168.854Z" fill="#2CC7CE"/>
<path d="M36.1797 167.87C36.1797 168.596 36.4814 169.261 36.9787 169.782C36.7931 169.415 36.6957 169.009 36.6944 168.597C36.689 166.916 38.2807 165.549 40.2459 165.546L41.6031 165.542L41.6008 164.815L39.7312 164.819C37.7656 164.823 36.1748 166.19 36.1797 167.87Z" fill="#DBD1B4"/>
<path d="M36.6953 168.596C36.6966 169.008 36.794 169.414 36.9796 169.782C37.6342 170.469 38.6314 170.907 39.7491 170.904L41.6179 170.898L41.604 165.54L40.2468 165.543C38.2816 165.549 36.6899 166.916 36.6953 168.596Z" fill="#ECE7D5"/>
<path d="M81.1432 168.244L81.4064 168.107C81.7552 167.924 81.7552 167.627 81.4064 167.444L81.1938 167.333L80.3105 166.868L80.3159 168.678L81.1432 168.244Z" fill="#D84C5A"/>
<path d="M80.0394 166.724L75.8786 164.722L74.3964 164.726C74.1501 164.776 73.9313 164.916 73.7822 165.118C73.6331 165.321 73.5642 165.571 73.5889 165.822C73.6136 166.072 73.7301 166.304 73.9159 166.474C74.1017 166.643 74.3437 166.737 74.595 166.738C74.3292 166.745 74.0763 166.855 73.8908 167.046C73.7052 167.236 73.6017 167.492 73.6024 167.758C73.6031 168.024 73.708 168.279 73.8946 168.469C74.0811 168.659 74.3345 168.767 74.6004 168.772V168.793C74.3443 168.794 74.0983 168.893 73.9119 169.068C73.7254 169.244 73.6123 169.484 73.5953 169.739C73.5783 169.995 73.6585 170.248 73.82 170.447C73.9815 170.646 74.2123 170.776 74.4659 170.812L75.8925 170.807L80.1246 168.777L80.1605 168.758L80.3152 168.677L80.3098 166.868L80.0408 166.725L80.0394 166.724Z" fill="#FFC34A"/>
<path d="M76.2392 155.954V156.711L75.6684 156.712L75.668 155.954H76.2392Z" fill="#A59B83"/>
<path d="M76.241 162.041H75.6707L75.668 156.712L76.2387 156.711L76.241 162.041Z" fill="#BFB7A1"/>
<path d="M75.6709 162.041H75.3727L75.3691 156.713L75.6682 156.712L75.6709 162.041Z" fill="#DDD5C3"/>
<path d="M75.6677 155.954L75.6682 156.712L75.3691 156.713V155.955L75.6677 155.954Z" fill="#BFB7A1"/>
<path d="M75.3681 155.955H74.5664V156.713H75.3681V155.955Z" fill="#A59B83"/>
<path d="M75.3717 162.041H74.5695L74.5664 156.714L75.3681 156.713L75.3717 162.041Z" fill="#BFB7A1"/>
<path d="M74.5677 155.956V156.714H74.2695V155.956L74.5677 155.956Z" fill="#BFB7A1"/>
<path d="M74.5696 156.711L74.2715 156.712L74.2771 162.04L74.5752 162.039L74.5696 156.711Z" fill="#DDD5C3"/>
<path d="M74.2709 162.042H72.4128L72.4102 156.716L74.2682 156.714L74.2709 162.042Z" fill="#BFB7A1"/>
<path d="M74.2682 155.956V156.713L72.4102 156.716V155.957L74.2682 155.956Z" fill="#A59B83"/>
<path d="M72.4128 162.042L59.5726 162.058C59.8265 162.022 60.0575 161.892 60.219 161.692C60.3805 161.493 60.4605 161.24 60.4429 160.984C60.4252 160.728 60.3113 160.488 60.124 160.313C59.9368 160.137 59.69 160.04 59.4336 160.039V160.023L72.4119 160.007L72.4128 162.042Z" fill="#A37B9D"/>
<path d="M70.0592 156.72L72.4104 156.716V158.118L59.9459 158.134C59.7909 158.039 59.6133 157.988 59.4316 157.986C59.6835 157.985 59.926 157.89 60.112 157.72C60.2981 157.55 60.4144 157.317 60.4384 157.066C60.4625 156.815 60.3925 156.564 60.2421 156.362C60.0916 156.16 59.8715 156.021 59.6244 155.972L72.4086 155.957V156.716L70.0592 156.72Z" fill="#492641"/>
<path d="M72.4119 160.007L59.4336 160.023V160.019C59.6548 160.018 59.8695 159.944 60.0448 159.809C60.2202 159.674 60.3466 159.486 60.4048 159.272C60.463 159.059 60.4498 158.832 60.3671 158.627C60.2844 158.421 60.1369 158.249 59.947 158.135L72.4114 158.119L72.4119 160.007Z" fill="#7F5377"/>
<path d="M81.6684 158.995C81.6684 159.72 81.3716 160.385 80.8757 160.909C81.0602 160.54 81.1563 160.134 81.1564 159.722C81.1564 158.042 79.5606 156.679 77.5955 156.681H76.2383V155.953H78.1075C80.0736 155.952 81.6684 157.315 81.6684 158.995Z" fill="#C9394E"/>
<path d="M81.1564 159.723C81.1563 160.135 81.0602 160.541 80.8757 160.909C80.2233 161.598 79.2275 162.04 78.1097 162.039H76.2405L76.2383 156.68H77.5955C79.5606 156.68 81.1555 158.043 81.1564 159.723Z" fill="#D84C5A"/>
<path d="M52.8896 159.512L52.626 159.374C52.2767 159.195 52.2758 158.896 52.6228 158.713L52.8349 158.6L53.7164 158.133V159.942L52.8896 159.512Z" fill="#492641"/>
<path d="M53.7172 158.133L53.9863 157.989H53.9894L59.3603 155.949L59.6262 155.974C59.7911 156.007 59.9451 156.081 60.0743 156.189C60.2036 156.297 60.3042 156.435 60.3669 156.591L53.7168 158.789L53.7172 158.133Z" fill="#E8AB3F"/>
<path d="M59.5729 162.058L59.3621 162.034L53.9082 160.042L53.8719 160.023L53.7168 159.942V158.788L60.3669 156.59C60.4302 156.743 60.4547 156.91 60.4383 157.075C60.4218 157.241 60.3649 157.399 60.2727 157.537C60.1804 157.675 60.0555 157.789 59.9092 157.867C59.7628 157.945 59.5994 157.986 59.4334 157.986C59.6992 157.992 59.9523 158.101 60.1383 158.291C60.3243 158.482 60.4285 158.737 60.4285 159.003C60.4285 159.269 60.3243 159.525 60.1383 159.715C59.9523 159.905 59.6992 160.014 59.4334 160.02V160.04C59.6899 160.04 59.9366 160.138 60.1239 160.313C60.3112 160.489 60.4251 160.728 60.4427 160.985C60.4603 161.241 60.3803 161.494 60.2189 161.693C60.0574 161.892 59.8264 162.023 59.5724 162.059L59.5729 162.058Z" fill="#FFC34A"/>
<path d="M115.527 103.375C116.117 103.375 116.684 103.609 117.101 104.027C117.519 104.445 117.754 105.012 117.754 105.603V121.613C117.754 121.906 117.696 122.196 117.584 122.466C117.473 122.737 117.309 122.983 117.102 123.19C116.895 123.397 116.649 123.561 116.379 123.673C116.109 123.785 115.819 123.843 115.527 123.843H85.3027C85.0103 123.842 84.7207 123.785 84.4505 123.673C84.1804 123.561 83.9349 123.396 83.7281 123.189C83.5214 122.982 83.3574 122.737 83.2455 122.466C83.1337 122.196 83.0761 121.906 83.0762 121.613V105.603C83.0763 105.012 83.3109 104.445 83.7284 104.027C84.146 103.609 84.7123 103.375 85.3027 103.375H115.527Z" fill="#492641"/>
<path d="M113.654 104.985H87.5254V122.232H113.654V104.985Z" fill="#ECE7D5"/>
<path d="M87.5254 104.985V122.232H87.7886L113.342 104.985H87.5254Z" fill="#ECE7D5"/>
<path d="M87.7891 122.232H113.706V104.985H113.342L87.7891 122.232Z" fill="#DBD1B4"/>
<path d="M85.5544 111.665C85.6056 111.665 85.6546 111.686 85.6907 111.722C85.7268 111.758 85.7471 111.807 85.7472 111.859V115.358C85.7472 115.41 85.7269 115.459 85.6908 115.495C85.6546 115.531 85.6056 115.552 85.5544 115.552C85.5289 115.552 85.5036 115.547 85.4801 115.537C85.4565 115.528 85.435 115.513 85.4169 115.496C85.3988 115.478 85.3844 115.456 85.3745 115.433C85.3646 115.409 85.3595 115.384 85.3594 115.358V111.859C85.3596 111.807 85.3803 111.758 85.4168 111.721C85.4534 111.685 85.5029 111.665 85.5544 111.665Z" fill="#848484"/>
<path d="M116.121 113.608C116.121 113.863 116.054 114.113 115.928 114.334C115.802 114.555 115.62 114.739 115.4 114.868C115.43 114.872 115.46 114.874 115.49 114.874C115.826 114.874 116.147 114.741 116.384 114.503C116.622 114.266 116.755 113.944 116.755 113.608C116.755 113.273 116.622 112.951 116.384 112.713C116.147 112.476 115.826 112.343 115.49 112.343C115.46 112.343 115.431 112.346 115.4 112.348C115.62 112.477 115.802 112.661 115.928 112.882C116.054 113.103 116.121 113.354 116.121 113.608Z" fill="#848484"/>
<path d="M184.713 49.5973L190.297 41.7508H210.052C210.662 41.7508 211.266 41.6307 211.83 41.3971C212.393 41.1636 212.905 40.8213 213.336 40.3897C213.768 39.9581 214.11 39.4458 214.343 38.8819C214.577 38.318 214.697 37.7136 214.697 37.1033V23.6092C214.697 22.9989 214.576 22.3946 214.343 21.8308C214.11 21.267 213.768 20.7548 213.336 20.3233C212.905 19.8918 212.393 19.5495 211.83 19.3161C211.266 19.0826 210.662 18.9625 210.052 18.9626H189.386C188.155 18.9628 186.974 19.4524 186.103 20.3237C185.233 21.1951 184.743 22.3769 184.743 23.6092V33.0629L184.713 49.5973Z" stroke="white" stroke-width="14.64"/>
<path d="M181.609 71.9958L173.901 61.1673H146.637C145.795 61.1673 144.962 61.0015 144.184 60.6791C143.407 60.3568 142.7 59.8844 142.105 59.2888C141.51 58.6933 141.038 57.9863 140.716 57.2081C140.394 56.43 140.228 55.5961 140.229 54.7539V36.1336C140.228 35.2912 140.394 34.4571 140.716 33.6788C141.037 32.9005 141.509 32.1933 142.104 31.5976C142.7 31.0019 143.406 30.5294 144.184 30.207C144.961 29.8846 145.795 29.7187 146.637 29.7188H175.157C176.857 29.7191 178.486 30.3949 179.688 31.5974C180.889 32.8 181.564 34.4308 181.564 36.1313V49.1777L181.609 71.9958Z" fill="#FFC34A"/>
</g>
</svg>
