<svg width="12" height="12" viewBox="0 0 12 12" fill="none" xmlns="http://www.w3.org/2000/svg">
<path d="M6 12C7.18669 12 8.34674 11.6481 9.33343 10.9888C10.3201 10.3295 11.0891 9.39245 11.5433 8.29609C11.9974 7.19974 12.1162 5.99333 11.8847 4.82945C11.6532 3.66556 11.0818 2.59648 10.2427 1.75737C9.40354 0.918256 8.33443 0.346802 7.17054 0.115291C6.00665 -0.11622 4.80024 0.00259982 3.70388 0.456725C2.60752 0.91085 1.67045 1.6799 1.01116 2.66659C0.351867 3.65329 0 4.81329 0 5.99998C0.0015707 7.59079 0.634204 9.11601 1.75908 10.2409C2.88396 11.3658 4.40918 11.9984 6 12ZM6 3.09793C6.57281 3.09793 7.13275 3.26776 7.60902 3.586C8.08528 3.90423 8.4565 4.35657 8.6757 4.88577C8.8949 5.41497 8.95226 5.99728 8.84052 6.55907C8.72877 7.12087 8.45292 7.63692 8.04789 8.04196C7.64286 8.44699 7.1268 8.72279 6.565 8.83454C6.00321 8.94629 5.4209 8.88893 4.8917 8.66973C4.36249 8.45053 3.91019 8.07935 3.59195 7.60308C3.27372 7.12682 3.10385 6.56688 3.10385 5.99407C3.10699 5.22748 3.41329 4.49325 3.95592 3.95174C4.49854 3.41022 5.2334 3.10543 6 3.10387V3.09793Z" fill="#EA6425"/>
</svg>
