<svg width="104" height="107" viewBox="0 0 104 107" fill="none" xmlns="http://www.w3.org/2000/svg">
<path d="M23.7667 156.806C7.99684 156.806 -7.4189 152.212 -20.531 143.605C-33.6432 134.998 -43.863 122.765 -49.8979 108.452C-55.9327 94.1395 -57.5117 78.3901 -54.4352 63.1958C-51.3586 48.0016 -43.7646 34.045 -32.6137 23.0905C-21.4627 12.1361 -7.25532 4.67586 8.21149 1.65354C23.6783 -1.36879 39.7097 0.182378 54.2792 6.11089C68.8486 12.0394 81.3013 22.0792 90.0625 34.9603C98.8238 47.8413 103.5 62.985 103.5 78.4769C103.5 88.7632 101.438 98.9489 97.4307 108.452C93.4237 117.955 87.5509 126.59 80.147 133.864C72.743 141.137 63.9529 146.907 54.2792 150.843C44.6054 154.78 34.2374 156.806 23.7667 156.806ZM23.7667 40.5913C16.1547 40.5913 8.71373 42.8084 2.38462 46.9629C-3.94448 51.1173 -8.87752 57.0226 -11.7905 63.9312C-14.7034 70.8398 -15.4657 78.4417 -13.9807 85.7758C-12.4957 93.1099 -8.83 99.8469 -3.44754 105.134C1.93492 110.422 8.79272 114.023 16.2584 115.482C23.7241 116.94 31.4623 116.192 38.4949 113.33C45.5274 110.468 51.5381 105.623 55.767 99.4051C59.996 93.1875 62.2534 85.8776 62.2534 78.3998C62.2117 68.3921 58.1407 58.8068 50.9298 51.7375C43.719 44.6682 33.9539 40.6892 23.7667 40.6689V40.5913Z" fill="white"/>
</svg>
