<svg width="953" height="626" xmlns="http://www.w3.org/2000/svg">
 <mask height="2184" width="953" y="0" x="0" maskUnits="userSpaceOnUse" id="mask0">
  <rect id="svg_1" fill="#C4C4C4" height="2184" width="953"/>
 </mask>

 <g>
  <title>background</title>
  <rect fill="none" id="canvas_background" height="628" width="955" y="-1" x="-1"/>
 </g>
 <g>
  <title>Layer 1</title>
  <g id="svg_2" mask="url(#mask0)">
   <path id="svg_3" fill="#4DD6CB" d="m953,1695l-105.798,88.5l-105.789,-88.49l-105.807,88.49l-105.789,-88.5l-105.817,88.51l0,43.49l105.808,-88.42l105.798,88.41l105.798,-88.41l105.807,88.39l105.789,-88.4l0,-43.57z"/>
   <path id="svg_4" fill="#4DD6CB" d="m953,803l-105.798,88.502l-105.789,-88.493l-105.807,88.493l-105.789,-88.502l-105.817,88.511l0,43.489l105.808,-88.42l105.798,88.411l105.798,-88.411l105.807,88.393l105.789,-88.402l0,-43.571z"/>
   <path id="svg_5" fill="#4DD6CB" d="m953,0l-105.798,88.5015l-105.789,-88.49249l-105.807,88.49249l-105.789,-88.5015l-105.817,88.5106l0,43.4894l105.808,-88.4205l105.798,88.4115l105.798,-88.4115l105.807,88.3935l105.789,-88.4025l0,-43.5705z"/>
   <path id="svg_6" fill="#4DD6CB" d="m953,1784l-105.798,89.17l-105.789,-89.15l-105.807,89.16l-105.789,-89.18l-105.817,89.18l0,43.82l105.808,-89.08l105.798,89.08l105.798,-89.08l105.807,89.06l105.789,-89.07l0,-43.91z"/>
   <path id="svg_7" fill="#4DD6CB" d="m953,892l-105.798,89.172l-105.789,-89.154l-105.807,89.163l-105.789,-89.181l-105.817,89.181l0,43.819l105.808,-89.081l105.798,89.081l105.798,-89.081l105.807,89.061l105.789,-89.07l0,-43.91z"/>
   <path id="svg_8" fill="#4DD6CB" d="m953,89l-105.798,89.172l-105.789,-89.1538l-105.807,89.1628l-105.789,-89.181l-105.817,89.181l0,43.819l105.808,-89.081l105.798,89.081l105.798,-89.081l105.807,89.063l105.789,-89.072l0,-43.91z"/>
   <path id="svg_9" fill="#4DD6CB" d="m953,1874l-105.798,88.5l-105.789,-88.49l-105.807,88.49l-105.789,-88.5l-105.817,88.51l0,43.49l105.808,-88.42l105.798,88.41l105.798,-88.41l105.807,88.4l105.789,-88.4l0,-43.58z"/>
   <path id="svg_10" fill="#4DD6CB" d="m953,982l-105.798,88.5l-105.789,-88.491l-105.807,88.491l-105.789,-88.5l-105.817,88.51l0,43.49l105.808,-88.42l105.798,88.41l105.798,-88.41l105.807,88.4l105.789,-88.4l0,-43.58z"/>
   <path id="svg_11" fill="#4DD6CB" d="m953,179l-105.798,88.502l-105.789,-88.493l-105.807,88.493l-105.789,-88.502l-105.817,88.511l0,43.489l105.808,-88.42l105.798,88.411l105.798,-88.411l105.807,88.402l105.789,-88.402l0,-43.58z"/>
   <path id="svg_12" fill="#4DD6CB" d="m953,1963l-105.798,88.49l-105.789,-88.48l-105.807,88.49l-105.789,-88.5l-105.817,88.5l0,43.5l105.808,-88.42l105.798,88.41l105.798,-88.41l105.807,88.39l105.789,-88.4l0,-43.57z"/>
   <path id="svg_13" fill="#4DD6CB" d="m953,1071l-105.798,88.49l-105.789,-88.48l-105.807,88.49l-105.789,-88.5l-105.817,88.5l0,43.5l105.808,-88.42l105.798,88.41l105.798,-88.41l105.807,88.39l105.789,-88.4l0,-43.57z"/>
   <path id="svg_14" fill="#4DD6CB" d="m953,268l-105.798,88.493l-105.789,-88.484l-105.807,88.493l-105.789,-88.502l-105.817,88.502l0,43.498l105.808,-88.42l105.798,88.411l105.798,-88.411l105.807,88.393l105.789,-88.402l0,-43.571z"/>
   <path id="svg_15" fill="#4DD6CB" d="m953,2052l-105.798,88.49l-105.789,-88.48l-105.807,88.49l-105.789,-88.5l-105.817,88.5l0,43.5l105.808,-88.42l105.798,88.41l105.798,-88.41l105.807,88.39l105.789,-88.4l0,-43.57z"/>
   <path id="svg_16" fill="#4DD6CB" d="m953,1160l-105.798,88.49l-105.789,-88.48l-105.807,88.49l-105.789,-88.5l-105.817,88.5l0,43.5l105.808,-88.42l105.798,88.41l105.798,-88.41l105.807,88.39l105.789,-88.4l0,-43.57z"/>
   <path id="svg_17" fill="#4DD6CB" d="m953,357l-105.798,88.493l-105.789,-88.484l-105.807,88.493l-105.789,-88.502l-105.817,88.502l0,43.498l105.808,-88.42l105.798,88.411l105.798,-88.411l105.807,88.393l105.789,-88.402l0,-43.571z"/>
   <path id="svg_18" fill="#4DD6CB" d="m529,1695l-105.798,88.5l-105.789,-88.49l-105.807,88.49l-105.789,-88.5l-105.817,88.51l0,43.49l105.808,-88.42l105.798,88.41l105.798,-88.41l105.807,88.39l105.789,-88.4l0,-43.57z"/>
   <path id="svg_19" fill="#4DD6CB" d="m529,803l-105.798,88.502l-105.789,-88.493l-105.807,88.493l-105.789,-88.502l-105.817,88.511l0,43.489l105.808,-88.42l105.798,88.411l105.798,-88.411l105.807,88.393l105.789,-88.402l0,-43.571z"/>
   <path id="svg_20" fill="#4DD6CB" d="m529,0l-105.798,88.5015l-105.789,-88.49249l-105.807,88.49249l-105.789,-88.5015l-105.817,88.5106l0,43.4894l105.808,-88.4205l105.798,88.4115l105.798,-88.4115l105.807,88.3935l105.789,-88.4025l0,-43.5705z"/>
   <path id="svg_21" fill="#4DD6CB" d="m953,-89l-105.798,88.50153l-105.789,-88.49253l-105.807,88.49253l-105.789,-88.50153l-105.817,88.51055l0,43.48945l105.808,-88.4205l105.798,88.4115l105.798,-88.4115l105.807,88.3935l105.789,-88.4025l0,-43.5705z"/>
   <path id="svg_22" fill="#4DD6CB" d="m529,-89l-105.798,88.50153l-105.789,-88.49253l-105.807,88.49253l-105.789,-88.50153l-105.817,88.51055l0,43.48945l105.808,-88.4205l105.798,88.4115l105.798,-88.4115l105.807,88.3935l105.789,-88.4025l0,-43.5705z"/>
   <path id="svg_23" fill="#4DD6CB" d="m529,1784l-105.798,89.17l-105.789,-89.15l-105.807,89.16l-105.789,-89.18l-105.817,89.18l0,43.82l105.808,-89.08l105.798,89.08l105.798,-89.08l105.807,89.06l105.789,-89.07l0,-43.91z"/>
   <path id="svg_24" fill="#4DD6CB" d="m529,892l-105.798,89.172l-105.789,-89.154l-105.807,89.163l-105.789,-89.181l-105.817,89.181l0,43.819l105.808,-89.081l105.798,89.081l105.798,-89.081l105.807,89.061l105.789,-89.07l0,-43.91z"/>
   <path id="svg_25" fill="#4DD6CB" d="m529,89l-105.798,89.172l-105.789,-89.1538l-105.807,89.1628l-105.789,-89.181l-105.817,89.181l0,43.819l105.808,-89.081l105.798,89.081l105.798,-89.081l105.807,89.063l105.789,-89.072l0,-43.91z"/>
   <path id="svg_26" fill="#4DD6CB" d="m529,1874l-105.798,88.5l-105.789,-88.49l-105.807,88.49l-105.789,-88.5l-105.817,88.51l0,43.49l105.808,-88.42l105.798,88.41l105.798,-88.41l105.807,88.4l105.789,-88.4l0,-43.58z"/>
   <path id="svg_27" fill="#4DD6CB" d="m529,982l-105.798,88.5l-105.789,-88.491l-105.807,88.491l-105.789,-88.5l-105.817,88.51l0,43.49l105.808,-88.42l105.798,88.41l105.798,-88.41l105.807,88.4l105.789,-88.4l0,-43.58z"/>
   <path id="svg_28" fill="#4DD6CB" d="m529,179l-105.798,88.502l-105.789,-88.493l-105.807,88.493l-105.789,-88.502l-105.817,88.511l0,43.489l105.808,-88.42l105.798,88.411l105.798,-88.411l105.807,88.402l105.789,-88.402l0,-43.58z"/>
   <path id="svg_29" fill="#4DD6CB" d="m529,1963l-105.798,88.49l-105.789,-88.48l-105.807,88.49l-105.789,-88.5l-105.817,88.5l0,43.5l105.808,-88.42l105.798,88.41l105.798,-88.41l105.807,88.39l105.789,-88.4l0,-43.57z"/>
   <path id="svg_30" fill="#4DD6CB" d="m529,1071l-105.798,88.49l-105.789,-88.48l-105.807,88.49l-105.789,-88.5l-105.817,88.5l0,43.5l105.808,-88.42l105.798,88.41l105.798,-88.41l105.807,88.39l105.789,-88.4l0,-43.57z"/>
   <path id="svg_31" fill="#4DD6CB" d="m529,268l-105.798,88.493l-105.789,-88.484l-105.807,88.493l-105.789,-88.502l-105.817,88.502l0,43.498l105.808,-88.42l105.798,88.411l105.798,-88.411l105.807,88.393l105.789,-88.402l0,-43.571z"/>
   <path id="svg_32" fill="#4DD6CB" d="m529,2052l-105.798,88.49l-105.789,-88.48l-105.807,88.49l-105.789,-88.5l-105.817,88.5l0,43.5l105.808,-88.42l105.798,88.41l105.798,-88.41l105.807,88.39l105.789,-88.4l0,-43.57z"/>
   <path id="svg_33" fill="#4DD6CB" d="m953,2141l-105.798,88.49l-105.789,-88.48l-105.807,88.49l-105.789,-88.5l-105.817,88.5l0,43.5l105.808,-88.42l105.798,88.41l105.798,-88.41l105.807,88.39l105.789,-88.4l0,-43.57z"/>
   <path id="svg_34" fill="#4DD6CB" d="m529,2141l-105.798,88.49l-105.789,-88.48l-105.807,88.49l-105.789,-88.5l-105.817,88.5l0,43.5l105.808,-88.42l105.798,88.41l105.798,-88.41l105.807,88.39l105.789,-88.4l0,-43.57z"/>
   <path id="svg_35" fill="#4DD6CB" d="m529,1160l-105.798,88.49l-105.789,-88.48l-105.807,88.49l-105.789,-88.5l-105.817,88.5l0,43.5l105.808,-88.42l105.798,88.41l105.798,-88.41l105.807,88.39l105.789,-88.4l0,-43.57z"/>
   <path id="svg_36" fill="#4DD6CB" d="m529,357l-105.798,88.493l-105.789,-88.484l-105.807,88.493l-105.789,-88.502l-105.817,88.502l0,43.498l105.808,-88.42l105.798,88.411l105.798,-88.411l105.807,88.393l105.789,-88.402l0,-43.571z"/>
   <path id="svg_37" fill="#4DD6CB" d="m953,1249l-105.798,88.5l-105.789,-88.49l-105.807,88.49l-105.789,-88.5l-105.817,88.51l0,43.49l105.808,-88.42l105.798,88.41l105.798,-88.41l105.807,88.39l105.789,-88.4l0,-43.57z"/>
   <path id="svg_38" fill="#4DD6CB" d="m953,446l-105.798,88.502l-105.789,-88.493l-105.807,88.493l-105.789,-88.502l-105.817,88.511l0,43.489l105.808,-88.42l105.798,88.411l105.798,-88.411l105.807,88.393l105.789,-88.402l0,-43.571z"/>
   <path id="svg_39" fill="#4DD6CB" d="m953,1338l-105.798,89.17l-105.789,-89.15l-105.807,89.16l-105.789,-89.18l-105.817,89.18l0,43.82l105.808,-89.08l105.798,89.08l105.798,-89.08l105.807,89.06l105.789,-89.07l0,-43.91z"/>
   <path id="svg_40" fill="#4DD6CB" d="m953,535l-105.798,89.172l-105.789,-89.154l-105.807,89.163l-105.789,-89.181l-105.817,89.181l0,43.819l105.808,-89.081l105.798,89.081l105.798,-89.081l105.807,89.063l105.789,-89.072l0,-43.91z"/>
   <path id="svg_41" fill="#4DD6CB" d="m953,1428l-105.798,88.5l-105.789,-88.49l-105.807,88.49l-105.789,-88.5l-105.817,88.51l0,43.49l105.808,-88.42l105.798,88.41l105.798,-88.41l105.807,88.4l105.789,-88.4l0,-43.58z"/>
   <path id="svg_42" fill="#4DD6CB" d="m953,625l-105.798,88.502l-105.789,-88.493l-105.807,88.493l-105.789,-88.502l-105.817,88.511l0,43.489l105.808,-88.42l105.798,88.411l105.798,-88.411l105.807,88.402l105.789,-88.402l0,-43.58z"/>
   <path id="svg_43" fill="#4DD6CB" d="m953,1517l-105.798,88.49l-105.789,-88.48l-105.807,88.49l-105.789,-88.5l-105.817,88.5l0,43.5l105.808,-88.42l105.798,88.41l105.798,-88.41l105.807,88.39l105.789,-88.4l0,-43.57z"/>
   <path id="svg_44" fill="#4DD6CB" d="m953,714l-105.798,88.493l-105.789,-88.484l-105.807,88.493l-105.789,-88.502l-105.817,88.502l0,43.498l105.808,-88.42l105.798,88.411l105.798,-88.411l105.807,88.393l105.789,-88.402l0,-43.571z"/>
   <path id="svg_45" fill="#4DD6CB" d="m953,1606l-105.798,88.49l-105.789,-88.48l-105.807,88.49l-105.789,-88.5l-105.817,88.5l0,43.5l105.808,-88.42l105.798,88.41l105.798,-88.41l105.807,88.39l105.789,-88.4l0,-43.57z"/>
   <path id="svg_46" fill="#4DD6CB" d="m529,1249l-105.798,88.5l-105.789,-88.49l-105.807,88.49l-105.789,-88.5l-105.817,88.51l0,43.49l105.808,-88.42l105.798,88.41l105.798,-88.41l105.807,88.39l105.789,-88.4l0,-43.57z"/>
   <path id="svg_47" fill="#4DD6CB" d="m529,446l-105.798,88.502l-105.789,-88.493l-105.807,88.493l-105.789,-88.502l-105.817,88.511l0,43.489l105.808,-88.42l105.798,88.411l105.798,-88.411l105.807,88.393l105.789,-88.402l0,-43.571z"/>
   <path id="svg_48" fill="#4DD6CB" d="m529,1338l-105.798,89.17l-105.789,-89.15l-105.807,89.16l-105.789,-89.18l-105.817,89.18l0,43.82l105.808,-89.08l105.798,89.08l105.798,-89.08l105.807,89.06l105.789,-89.07l0,-43.91z"/>
   <path id="svg_49" fill="#4DD6CB" d="m529,535l-105.798,89.172l-105.789,-89.154l-105.807,89.163l-105.789,-89.181l-105.817,89.181l0,43.819l105.808,-89.081l105.798,89.081l105.798,-89.081l105.807,89.063l105.789,-89.072l0,-43.91z"/>
   <path id="svg_50" fill="#4DD6CB" d="m529,1428l-105.798,88.5l-105.789,-88.49l-105.807,88.49l-105.789,-88.5l-105.817,88.51l0,43.49l105.808,-88.42l105.798,88.41l105.798,-88.41l105.807,88.4l105.789,-88.4l0,-43.58z"/>
   <path id="svg_51" fill="#4DD6CB" d="m529,625l-105.798,88.502l-105.789,-88.493l-105.807,88.493l-105.789,-88.502l-105.817,88.511l0,43.489l105.808,-88.42l105.798,88.411l105.798,-88.411l105.807,88.402l105.789,-88.402l0,-43.58z"/>
   <path id="svg_52" fill="#4DD6CB" d="m529,1517l-105.798,88.49l-105.789,-88.48l-105.807,88.49l-105.789,-88.5l-105.817,88.5l0,43.5l105.808,-88.42l105.798,88.41l105.798,-88.41l105.807,88.39l105.789,-88.4l0,-43.57z"/>
   <path id="svg_53" fill="#4DD6CB" d="m529,714l-105.798,88.493l-105.789,-88.484l-105.807,88.493l-105.789,-88.502l-105.817,88.502l0,43.498l105.808,-88.42l105.798,88.411l105.798,-88.411l105.807,88.393l105.789,-88.402l0,-43.571z"/>
   <path id="svg_54" fill="#4DD6CB" d="m529,1606l-105.798,88.49l-105.789,-88.48l-105.807,88.49l-105.789,-88.5l-105.817,88.5l0,43.5l105.808,-88.42l105.798,88.41l105.798,-88.41l105.807,88.39l105.789,-88.4l0,-43.57z"/>
  </g>
 </g>
</svg>