<svg width="953" height="626" xmlns="http://www.w3.org/2000/svg">

 <g>
  <title>background</title>
  <rect fill="none" id="canvas_background" height="628" width="955" y="-1" x="-1"/>
 </g>
 <g>
  <title>Layer 1</title>
  <path id="svg_1" fill="#009AFF" d="m953.000013,-87.333468l-105.798,88.5015l-105.789,-88.49249l-105.807,88.49249l-105.789,-88.5015l-105.817,88.5106l0,43.4894l105.808,-88.4205l105.798,88.4115l105.798,-88.4115l105.807,88.3935l105.789,-88.4025l0,-43.5705z"/>
  <path id="svg_2" fill="#009AFF" d="m953.000013,358.666532l-105.798,88.502l-105.789,-88.493l-105.807,88.493l-105.789,-88.502l-105.817,88.511l0,43.489l105.808,-88.42l105.798,88.411l105.798,-88.411l105.807,88.393l105.789,-88.402l0,-43.571z"/>
  <path id="svg_3" fill="#009AFF" d="m953,892l-105.798,88.502l-105.789,-88.493l-105.807,88.493l-105.789,-88.502l-105.817,88.511l0,43.489l105.808,-88.42l105.798,88.41l105.798,-88.41l105.807,88.39l105.789,-88.399l0,-43.571z"/>
  <path id="svg_4" fill="#009AFF" d="m953,1605l-105.798,88.5l-105.789,-88.49l-105.807,88.49l-105.789,-88.5l-105.817,88.51l0,43.49l105.808,-88.42l105.798,88.41l105.798,-88.41l105.807,88.39l105.789,-88.4l0,-43.57z"/>
  <path id="svg_5" fill="#009AFF" d="m953.000013,1.666532l-105.798,89.172l-105.789,-89.1538l-105.807,89.1628l-105.789,-89.181l-105.817,89.181l0,43.819l105.808,-89.081l105.798,89.081l105.798,-89.081l105.807,89.063l105.789,-89.072l0,-43.91z"/>
  <path id="svg_6" fill="#009AFF" d="m953.000013,447.666532l-105.798,89.172l-105.789,-89.154l-105.807,89.163l-105.789,-89.181l-105.817,89.181l0,43.819l105.808,-89.081l105.798,89.081l105.798,-89.081l105.807,89.063l105.789,-89.072l0,-43.91z"/>
  <path id="svg_7" fill="#009AFF" d="m953,981l-105.798,89.17l-105.789,-89.152l-105.807,89.162l-105.789,-89.18l-105.817,89.18l0,43.82l105.808,-89.08l105.798,89.08l105.798,-89.08l105.807,89.06l105.789,-89.07l0,-43.91z"/>
  <path id="svg_8" fill="#009AFF" d="m953,1694l-105.798,89.17l-105.789,-89.15l-105.807,89.16l-105.789,-89.18l-105.817,89.18l0,43.82l105.808,-89.08l105.798,89.08l105.798,-89.08l105.807,89.06l105.789,-89.07l0,-43.91z"/>
  <path id="svg_9" fill="#009AFF" d="m953.000013,91.666532l-105.798,88.502l-105.789,-88.493l-105.807,88.493l-105.789,-88.502l-105.817,88.511l0,43.489l105.808,-88.42l105.798,88.411l105.798,-88.411l105.807,88.402l105.789,-88.402l0,-43.58z"/>
  <path id="svg_10" fill="#009AFF" d="m953.000013,537.666532l-105.798,88.502l-105.789,-88.493l-105.807,88.493l-105.789,-88.502l-105.817,88.511l0,43.489l105.808,-88.42l105.798,88.411l105.798,-88.411l105.807,88.402l105.789,-88.402l0,-43.58z"/>
  <path id="svg_11" fill="#009AFF" d="m953,1338l-105.798,88.5l-105.789,-88.49l-105.807,88.49l-105.789,-88.5l-105.817,88.51l0,43.49l105.808,-88.42l105.798,88.41l105.798,-88.41l105.807,88.4l105.789,-88.4l0,-43.58z"/>
  <path id="svg_12" fill="#009AFF" d="m953,1071l-105.798,88.5l-105.789,-88.49l-105.807,88.49l-105.789,-88.5l-105.817,88.51l0,43.49l105.808,-88.42l105.798,88.41l105.798,-88.41l105.807,88.4l105.789,-88.4l0,-43.58z"/>
  <path id="svg_13" fill="#009AFF" d="m953,1784l-105.798,88.5l-105.789,-88.49l-105.807,88.49l-105.789,-88.5l-105.817,88.51l0,43.49l105.808,-88.42l105.798,88.41l105.798,-88.41l105.807,88.4l105.789,-88.4l0,-43.58z"/>
  <path id="svg_14" fill="#009AFF" d="m953.000013,180.666532l-105.798,88.493l-105.789,-88.484l-105.807,88.493l-105.789,-88.502l-105.817,88.502l0,43.498l105.808,-88.42l105.798,88.411l105.798,-88.411l105.807,88.393l105.789,-88.402l0,-43.571z"/>
  <path id="svg_15" fill="#009AFF" d="m952,626.666532l-105.798,88.493l-105.789,-88.484l-105.807,88.493l-105.789,-88.502l-105.817,88.502l0,43.498l105.808,-88.42l105.798,88.411l105.798,-88.411l105.807,88.393l105.789,-88.402l0,-43.571z"/>
  <path id="svg_16" fill="#009AFF" d="m953,1427l-105.798,88.49l-105.789,-88.48l-105.807,88.49l-105.789,-88.5l-105.817,88.5l0,43.5l105.808,-88.42l105.798,88.41l105.798,-88.41l105.807,88.39l105.789,-88.4l0,-43.57z"/>
  <path id="svg_17" fill="#009AFF" d="m953,1160l-105.798,88.49l-105.789,-88.48l-105.807,88.49l-105.789,-88.5l-105.817,88.5l0,43.5l105.808,-88.42l105.798,88.41l105.798,-88.41l105.807,88.39l105.789,-88.4l0,-43.57z"/>
  <path id="svg_18" fill="#009AFF" d="m953,1873l-105.798,88.49l-105.789,-88.48l-105.807,88.49l-105.789,-88.5l-105.817,88.5l0,43.5l105.808,-88.42l105.798,88.41l105.798,-88.41l105.807,88.39l105.789,-88.4l0,-43.57z"/>
  <path id="svg_19" fill="#009AFF" d="m953.000013,269.666532l-105.798,88.493l-105.789,-88.484l-105.807,88.493l-105.789,-88.502l-105.817,88.502l0,43.498l105.808,-88.42l105.798,88.411l105.798,-88.411l105.807,88.393l105.789,-88.402l0,-43.571z"/>
  <path id="svg_20" fill="#009AFF" d="m953,803l-105.798,88.493l-105.789,-88.484l-105.807,88.493l-105.789,-88.502l-105.817,88.502l0,43.498l105.808,-88.42l105.798,88.411l105.798,-88.411l105.807,88.393l105.789,-88.402l0,-43.571z"/>
  <path id="svg_21" fill="#009AFF" d="m953,1516l-105.798,88.49l-105.789,-88.48l-105.807,88.49l-105.789,-88.5l-105.817,88.5l0,43.5l105.808,-88.42l105.798,88.41l105.798,-88.41l105.807,88.39l105.789,-88.4l0,-43.57z"/>
  <path id="svg_22" fill="#009AFF" d="m953,1249l-105.798,88.49l-105.789,-88.48l-105.807,88.49l-105.789,-88.5l-105.817,88.5l0,43.5l105.808,-88.42l105.798,88.41l105.798,-88.41l105.807,88.39l105.789,-88.4l0,-43.57z"/>
  <path id="svg_23" fill="#009AFF" d="m953,1962l-105.798,88.49l-105.789,-88.48l-105.807,88.49l-105.789,-88.5l-105.817,88.5l0,43.5l105.808,-88.42l105.798,88.41l105.798,-88.41l105.807,88.39l105.789,-88.4l0,-43.57z"/>
  <path id="svg_24" fill="#009AFF" d="m529.000013,-87.333468l-105.798,88.5015l-105.789,-88.49249l-105.807,88.49249l-105.789,-88.5015l-105.817,88.5106l0,43.4894l105.808,-88.4205l105.798,88.4115l105.798,-88.4115l105.807,88.3935l105.789,-88.4025l0,-43.5705z"/>
  <path id="svg_25" fill="#009AFF" d="m529.000013,358.666532l-105.798,88.502l-105.789,-88.493l-105.807,88.493l-105.789,-88.502l-105.817,88.511l0,43.489l105.808,-88.42l105.798,88.411l105.798,-88.411l105.807,88.393l105.789,-88.402l0,-43.571z"/>
  <path id="svg_26" fill="#009AFF" d="m529,892l-105.798,88.502l-105.789,-88.493l-105.807,88.493l-105.789,-88.502l-105.817,88.511l0,43.489l105.808,-88.42l105.798,88.41l105.798,-88.41l105.807,88.39l105.789,-88.399l0,-43.571z"/>
  <path id="svg_27" fill="#009AFF" d="m529,1605l-105.798,88.5l-105.789,-88.49l-105.807,88.49l-105.789,-88.5l-105.817,88.51l0,43.49l105.808,-88.42l105.798,88.41l105.798,-88.41l105.807,88.39l105.789,-88.4l0,-43.57z"/>
  <path id="svg_28" fill="#009AFF" d="m529.000013,1.666532l-105.798,89.172l-105.789,-89.1538l-105.807,89.1628l-105.789,-89.181l-105.817,89.181l0,43.819l105.808,-89.081l105.798,89.081l105.798,-89.081l105.807,89.063l105.789,-89.072l0,-43.91z"/>
  <path id="svg_29" fill="#009AFF" d="m529.000013,447.666532l-105.798,89.172l-105.789,-89.154l-105.807,89.163l-105.789,-89.181l-105.817,89.181l0,43.819l105.808,-89.081l105.798,89.081l105.798,-89.081l105.807,89.063l105.789,-89.072l0,-43.91z"/>
  <path id="svg_30" fill="#009AFF" d="m529,981l-105.798,89.17l-105.789,-89.152l-105.807,89.162l-105.789,-89.18l-105.817,89.18l0,43.82l105.808,-89.08l105.798,89.08l105.798,-89.08l105.807,89.06l105.789,-89.07l0,-43.91z"/>
  <path id="svg_31" fill="#009AFF" d="m529,1694l-105.798,89.17l-105.789,-89.15l-105.807,89.16l-105.789,-89.18l-105.817,89.18l0,43.82l105.808,-89.08l105.798,89.08l105.798,-89.08l105.807,89.06l105.789,-89.07l0,-43.91z"/>
  <path id="svg_32" fill="#009AFF" d="m529.000013,91.666532l-105.798,88.502l-105.789,-88.493l-105.807,88.493l-105.789,-88.502l-105.817,88.511l0,43.489l105.808,-88.42l105.798,88.411l105.798,-88.411l105.807,88.402l105.789,-88.402l0,-43.58z"/>
  <path id="svg_33" fill="#009AFF" d="m529.000013,537.666532l-105.798,88.502l-105.789,-88.493l-105.807,88.493l-105.789,-88.502l-105.817,88.511l0,43.489l105.808,-88.42l105.798,88.411l105.798,-88.411l105.807,88.402l105.789,-88.402l0,-43.58z"/>
  <path id="svg_34" fill="#009AFF" d="m529,1338l-105.798,88.5l-105.789,-88.49l-105.807,88.49l-105.789,-88.5l-105.817,88.51l0,43.49l105.808,-88.42l105.798,88.41l105.798,-88.41l105.807,88.4l105.789,-88.4l0,-43.58z"/>
  <path id="svg_35" fill="#009AFF" d="m529,1071l-105.798,88.5l-105.789,-88.49l-105.807,88.49l-105.789,-88.5l-105.817,88.51l0,43.49l105.808,-88.42l105.798,88.41l105.798,-88.41l105.807,88.4l105.789,-88.4l0,-43.58z"/>
  <path id="svg_36" fill="#009AFF" d="m529,1784l-105.798,88.5l-105.789,-88.49l-105.807,88.49l-105.789,-88.5l-105.817,88.51l0,43.49l105.808,-88.42l105.798,88.41l105.798,-88.41l105.807,88.4l105.789,-88.4l0,-43.58z"/>
  <path id="svg_37" fill="#009AFF" d="m529.000013,180.666532l-105.798,88.493l-105.789,-88.484l-105.807,88.493l-105.789,-88.502l-105.817,88.502l0,43.498l105.808,-88.42l105.798,88.411l105.798,-88.411l105.807,88.393l105.789,-88.402l0,-43.571z"/>
  <path id="svg_38" fill="#009AFF" d="m528,626.666532l-105.798,88.493l-105.789,-88.484l-105.807,88.493l-105.789,-88.502l-105.817,88.502l0,43.498l105.808,-88.42l105.798,88.411l105.798,-88.411l105.807,88.393l105.789,-88.402l0,-43.571z"/>
  <path id="svg_39" fill="#009AFF" d="m529,1427l-105.798,88.49l-105.789,-88.48l-105.807,88.49l-105.789,-88.5l-105.817,88.5l0,43.5l105.808,-88.42l105.798,88.41l105.798,-88.41l105.807,88.39l105.789,-88.4l0,-43.57z"/>
  <path id="svg_40" fill="#009AFF" d="m529,1160l-105.798,88.49l-105.789,-88.48l-105.807,88.49l-105.789,-88.5l-105.817,88.5l0,43.5l105.808,-88.42l105.798,88.41l105.798,-88.41l105.807,88.39l105.789,-88.4l0,-43.57z"/>
  <path id="svg_41" fill="#009AFF" d="m529,1873l-105.798,88.49l-105.789,-88.48l-105.807,88.49l-105.789,-88.5l-105.817,88.5l0,43.5l105.808,-88.42l105.798,88.41l105.798,-88.41l105.807,88.39l105.789,-88.4l0,-43.57z"/>
  <path id="svg_42" fill="#009AFF" d="m529.000013,269.666532l-105.798,88.493l-105.789,-88.484l-105.807,88.493l-105.789,-88.502l-105.817,88.502l0,43.498l105.808,-88.42l105.798,88.411l105.798,-88.411l105.807,88.393l105.789,-88.402l0,-43.571z"/>
  <path id="svg_43" fill="#009AFF" d="m529,803l-105.798,88.493l-105.789,-88.484l-105.807,88.493l-105.789,-88.502l-105.817,88.502l0,43.498l105.808,-88.42l105.798,88.411l105.798,-88.411l105.807,88.393l105.789,-88.402l0,-43.571z"/>
  <path id="svg_44" fill="#009AFF" d="m529,1516l-105.798,88.49l-105.789,-88.48l-105.807,88.49l-105.789,-88.5l-105.817,88.5l0,43.5l105.808,-88.42l105.798,88.41l105.798,-88.41l105.807,88.39l105.789,-88.4l0,-43.57z"/>
  <path id="svg_45" fill="#009AFF" d="m529,1249l-105.798,88.49l-105.789,-88.48l-105.807,88.49l-105.789,-88.5l-105.817,88.5l0,43.5l105.808,-88.42l105.798,88.41l105.798,-88.41l105.807,88.39l105.789,-88.4l0,-43.57z"/>
  <path id="svg_46" fill="#009AFF" d="m529,1962l-105.798,88.49l-105.789,-88.48l-105.807,88.49l-105.789,-88.5l-105.817,88.5l0,43.5l105.808,-88.42l105.798,88.41l105.798,-88.41l105.807,88.39l105.789,-88.4l0,-43.57z"/>
  <line stroke-linecap="null" stroke-linejoin="null" id="svg_51" y2="39.119657" x2="222.000013" y1="-94.880343" x1="-297.999987" fill-opacity="null" stroke-opacity="null" stroke-width="null" stroke="null" fill="none"/>
  <line stroke-linecap="null" stroke-linejoin="null" id="svg_52" y2="70.119657" x2="294.000013" y1="-12.880343" x1="186.000013" fill-opacity="null" stroke-opacity="null" stroke-width="null" stroke="null" fill="none"/>
  <line stroke-linecap="null" stroke-linejoin="null" id="svg_53" y2="87.119657" x2="396.000013" y1="-8.880343" x1="130.000013" fill-opacity="null" stroke-opacity="null" stroke-width="null" stroke="null" fill="none"/>
 </g>
</svg>