<svg width="346" height="85" viewBox="0 0 346 85" fill="none" xmlns="http://www.w3.org/2000/svg">
<path d="M156.301 3.24048H154.306V84.2249H156.301V3.24048Z" fill="#0070BA"/>
<path d="M108.7 40.8814C108.194 40.8814 107.763 40.4933 107.763 39.9983V25.1102C107.815 24.6773 108.216 24.3339 108.691 24.3339C109.18 24.3339 109.577 24.6773 109.636 25.1102V39.9983C109.636 40.4933 109.227 40.8814 108.7 40.8814ZM110.456 21.6062H106.946C103.975 21.6062 103.793 24.0084 103.793 25.5457V39.6742C103.793 41.2055 103.975 43.5939 106.946 43.5939H110.456C113.432 43.5939 113.612 41.2055 113.612 39.6742V25.5457C113.612 24.0084 113.432 21.6062 110.456 21.6062Z" fill="#0070BA"/>
<path d="M44.283 21.6062H52.3722V24.3339H48.5095V43.5954H44.283V21.6062Z" fill="#0070BA"/>
<path d="M53.279 43.5924H57.4473L57.829 37.7426H59.8372L60.2234 43.5924H64.3892L62.1618 21.6062H55.4862L53.279 43.5924ZM57.995 35.3364L58.7141 24.3309H58.954L59.6884 35.3364H57.995Z" fill="#0070BA"/>
<path d="M69.9839 35.8986V40.0293C69.9839 40.6067 70.4156 40.77 70.6469 40.77C71.028 40.77 71.3109 40.4154 71.3109 40.0293V34.9162C71.3109 34.2345 71.2031 33.4888 69.6235 33.4888H67.8764V31.0622H69.6721C70.8838 31.0622 71.3109 30.7748 71.3109 29.4348V25.066C71.3109 24.6793 71.028 24.3355 70.6469 24.3355C70.4156 24.3355 69.9839 24.4911 69.9839 25.066V28.6402H65.733V25.5472C65.733 24.0129 65.9097 21.6062 68.8907 21.6062H72.4132C75.3851 21.6062 75.5557 24.0129 75.5557 25.5472V29.0543C75.5557 31.4412 73.9442 32.1046 72.681 32.0389V32.2633C75.5299 32.1915 75.5557 34.4314 75.5557 35.252V39.6727C75.5557 41.2075 75.3851 43.6 72.4132 43.6H68.8907C65.9097 43.6 65.733 41.2075 65.733 39.6727V35.8986H69.9839Z" fill="#0070BA"/>
<path d="M78.1919 21.6062H88.0161V43.5954H84.0512V24.3339H82.1355V43.5954H78.1919V21.6062Z" fill="#0070BA"/>
<path d="M91.3385 43.5924H95.5742V36.1295H97.9929C100.969 36.1295 101.449 33.7243 101.449 32.1885V25.5426C101.449 24.0068 100.969 21.6062 97.9929 21.6062H91.3385V43.5924ZM95.5742 33.6938V24.3309H96.6917C97.1487 24.3309 97.4807 24.7404 97.4807 25.4328V32.5995C97.4807 33.3036 97.1487 33.6938 96.6917 33.6938H95.5742Z" fill="#0070BA"/>
<path d="M127.298 21.6062H132.819V43.5954H128.575V29.8077H128.434L126.254 43.5954H122.856L120.655 29.8077H120.52V43.5954H116.249V21.6062H121.784L124.542 37.063L127.298 21.6062Z" fill="#0070BA"/>
<path d="M35.232 23.8238C35.1682 26.0535 34.9005 28.4048 34.5649 29.82C34.6909 27.3874 34.3837 23.9764 33.8194 21.298C33.2541 18.6375 31.676 14.1801 30.428 12.1137C29.2482 14.0824 27.8088 17.9344 27.0496 21.2935C26.291 24.6367 26.2697 28.6882 26.2697 29.8862C26.0739 28.882 25.5708 25.207 25.7135 21.5392C25.834 18.523 26.5283 15.4285 26.9327 13.9878C28.4242 9.21861 30.0858 6.15614 30.428 5.68202C30.7382 6.15614 32.8497 9.90894 33.9581 13.8698C35.0528 17.823 35.2624 21.5926 35.232 23.8238ZM30.4492 40.876C29.7771 39.655 28.7573 37.3078 28.6566 33.6771C28.6323 30.1578 30.0403 27.1518 30.4614 26.518C30.8354 27.1518 32.0516 29.7758 32.1882 33.3653C32.2904 36.8495 31.1304 39.623 30.4492 40.876ZM35.6227 13.9171C34.2759 8.07807 30.9098 3.32464 30.4492 2.56665C29.7194 3.65123 27.0147 7.85373 25.6467 12.5008C24.1734 17.6719 23.9497 22.2926 24.47 26.814C24.9761 31.3543 26.916 35.9938 26.916 35.9938C27.9212 38.4372 29.4759 41.0423 30.4614 42.337C31.9149 40.4466 35.2912 34.8019 36.3404 27.4438C36.9148 23.3441 36.9502 19.7638 35.6227 13.9171Z" fill="#0070BA"/>
<path d="M22.14 43.5927V50.5L22.1718 50.4573C24.589 48.0744 28.5479 48.0744 30.9772 50.4573C33.3944 52.8635 33.3944 56.7847 30.9772 59.1888L30.9393 59.2204C30.9393 59.2204 30.9119 59.2204 30.9028 59.2387C28.5008 61.6317 25.3113 62.8134 22.14 62.8134C18.9626 62.8134 15.7791 61.6093 13.3467 59.2204C9.07918 54.9848 8.57155 48.4382 11.8203 43.6476C12.2657 43.0137 12.7824 42.3778 13.3467 41.803C15.7791 39.3871 18.9626 38.2125 22.14 38.2125V21.7148C9.91073 21.7148 0 31.5483 0 43.6476C0 55.7438 9.91073 65.559 22.14 65.559C28.516 65.559 34.2644 62.8943 38.2992 58.643V43.5927H22.14Z" fill="#0070BA"/>
<path d="M128.723 60.3651C128.723 62.4569 127.779 62.8436 125.336 62.8436H123.104V53.2869H125.336V56.9679H125.708C127.924 56.9679 128.723 57.4893 128.723 59.3746V60.3651ZM110.026 55.0765H108.305V62.8436H106.193V55.0765H104.365V53.2869H110.026V55.0765ZM92.7753 59.425C92.7753 61.3708 91.7873 61.8882 89.5888 61.8882V62.8436H87.4029V61.8882C85.1937 61.8882 84.1749 61.3708 84.1749 59.425V56.4439C84.1749 54.5032 85.1314 54.0143 87.4029 54.0143V53.2869H89.5888V54.0143C91.8283 54.0143 92.7753 54.5032 92.7753 56.4439V59.425ZM72.4644 55.0765H69.3933V56.9679H72.1531V58.7647H69.3933V61.0285H72.4644V62.8436H67.0707V53.2869H72.4644V55.0765ZM53.8774 62.8436H51.6201V58.6523H50.4722V62.8436H48.2281V53.2869H50.4722V56.9679H51.6201V53.2869H53.8774V62.8436ZM132.693 50.9045H44.283V65.5576H132.693V50.9045ZM86.3522 56.3844V59.4494C86.3522 59.9993 86.5318 60.1235 87.0547 60.1235H87.4029V55.6829H87.0547C86.5318 55.6829 86.3522 55.8391 86.3522 56.3844ZM89.9203 55.6829H89.5888V60.1235H89.9203C90.4264 60.1235 90.5985 59.9876 90.5985 59.425V56.3676C90.5985 55.7963 90.4264 55.6829 89.9203 55.6829ZM125.834 58.6523H125.336V61.1551H125.834C126.342 61.1551 126.489 61.0285 126.489 60.4623V59.3319C126.489 58.782 126.342 58.6523 125.834 58.6523Z" fill="#0070BA"/>
<path d="M243.46 61.4624L232.966 66.2841L232.966 27.4596L243.46 33.3947L243.46 61.4624Z" fill="#FF942D"/>
<path d="M208.973 67.3359L228.089 61.5773L228.089 18.0447L208.973 4.1378L208.973 67.3359Z" fill="#4DD6CB"/>
<path d="M178.369 57.4078L191.466 61.0732L191.438 27.3525L178.37 33.7811L178.369 57.4078Z" fill="#009AFF"/>
<path d="M205.735 75.7213L196.254 71.2314L196.253 17.4914L205.735 11.3733L205.735 75.7213Z" fill="#0070BA"/>
<path d="M337.673 21.6062H346.001L345.096 24.3889H340.995V28.9841H345.202L345.191 31.7942H340.994V37.6353H345.871V40.4297H337.673V21.6062Z" fill="#0070BA"/>
<path d="M263.487 65.5575H260.172V46.7314H268.909L267.95 49.7166H263.487V65.5575Z" fill="#0070BA"/>
<path d="M295.76 37.6287V24.4062H293.086C292.814 28.2022 292.451 32.6351 292.337 34.0046C292.222 35.3741 292.204 36.6596 291.457 37.6287H295.76ZM289.94 21.6062H299.095V37.6373H300.839L300.844 43.7618H298.266L298.06 40.4261H289.268L289.041 43.7633H286.476L286.467 37.6399H287.776C288.601 37.1464 288.852 36.275 289.013 34.6715C289.218 32.6275 289.94 21.6062 289.94 21.6062Z" fill="#0070BA"/>
<path d="M263.491 32.822H265.443C266.336 32.822 267.05 32.2141 267.05 31.2272C267.05 30.2403 267.059 27.1437 267.059 26.0408C267.059 24.9384 266.499 24.3844 265.451 24.3844H263.491V32.822ZM260.172 21.5891C260.172 21.5891 263.575 21.5845 266.387 21.5845C268.996 21.5845 270.409 23.3202 270.409 25.6751C270.409 27.7186 270.416 29.2986 270.416 31.5955C270.416 33.8923 268.659 35.597 266.582 35.597C265.041 35.597 263.491 35.6001 263.491 35.6001V40.4105H260.172V21.5891Z" fill="#0070BA"/>
<path d="M288.406 57.969H290.358C291.252 57.969 291.965 57.3616 291.965 56.3741C291.965 55.3877 291.973 52.2907 291.973 51.1883C291.973 50.0854 291.414 49.5314 290.366 49.5314H288.406V57.969ZM285.087 46.736C285.087 46.736 288.49 46.7314 291.302 46.7314C293.911 46.7314 295.324 48.4672 295.324 50.822C295.324 52.8655 295.332 54.4456 295.332 56.7425C295.332 59.0393 293.574 60.744 291.498 60.744C289.956 60.744 288.406 60.7476 288.406 60.7476V65.557H285.087V46.736Z" fill="#0070BA"/>
<path d="M276.644 35.2604C276.644 36.933 277.609 37.9296 278.986 37.9296C280.389 37.9296 281.3 36.8191 281.3 35.2553V26.7119C281.3 25.1812 280.478 24.0986 278.973 24.0986C277.486 24.0986 276.652 25.1685 276.652 26.7307C276.652 28.0849 276.644 33.5877 276.644 35.2604ZM273.324 26.4794C273.324 22.9835 275.992 21.1934 278.973 21.1934C282.03 21.1934 284.634 22.8563 284.634 26.5038C284.634 30.2576 284.638 32.0524 284.638 35.4486C284.638 39.4522 281.399 40.8542 278.986 40.8542C276.539 40.8542 273.32 39.4842 273.32 35.4455C273.32 31.5015 273.324 30.0369 273.324 26.4794Z" fill="#0070BA"/>
<path d="M273.879 60.3856C273.879 62.0577 274.844 63.0543 276.221 63.0543C277.623 63.0543 278.535 61.9438 278.535 60.38V51.8371C278.535 50.3059 277.713 49.2239 276.207 49.2239C274.72 49.2239 273.887 50.2937 273.887 51.8555C273.887 53.2102 273.879 58.7129 273.879 60.3856ZM270.558 51.6047C270.558 48.1083 273.227 46.3186 276.207 46.3186C279.265 46.3186 281.868 47.9816 281.868 51.6286C281.868 55.3829 281.872 57.1771 281.872 60.5733C281.872 64.5769 278.634 65.9789 276.221 65.9789C273.773 65.9789 270.555 64.6095 270.555 60.5703C270.555 56.6262 270.558 55.1616 270.558 51.6047Z" fill="#0070BA"/>
<path d="M301.555 60.3856C301.555 62.0577 302.52 63.0543 303.897 63.0543C305.299 63.0543 306.211 61.9438 306.211 60.38V51.8371C306.211 50.3059 305.389 49.2239 303.883 49.2239C302.396 49.2239 301.563 50.2937 301.563 51.8555C301.563 53.2102 301.555 58.7129 301.555 60.3856ZM298.234 51.6047C298.234 48.1083 300.902 46.3186 303.883 46.3186C306.941 46.3186 309.544 47.9816 309.544 51.6286C309.544 55.3829 309.548 57.1771 309.548 60.5733C309.548 64.5769 306.31 65.9789 303.897 65.9789C301.449 65.9789 298.231 64.6095 298.231 60.5703C298.231 56.6262 298.234 55.1616 298.234 51.6047Z" fill="#0070BA"/>
<path d="M303.769 21.6062H307.073V28.9663H311.278V21.6103H314.597V40.4287H311.287V31.7942H307.088V40.4297H303.769V21.6062Z" fill="#0070BA"/>
<path d="M321.606 37.6099C321.606 37.6099 322.661 37.6094 323.41 37.6094C324.466 37.6094 324.947 36.9806 324.947 36.0527V32.2358C324.947 31.1645 324.388 30.5835 323.211 30.5835C322.546 30.5835 321.606 30.586 321.606 30.586V37.6099ZM318.296 40.4312V21.6062H321.605V27.7734H324.168C326.758 27.7734 328.326 29.4231 328.326 31.8466C328.326 32.9755 328.303 35.1192 328.303 36.3488C328.303 38.8018 326.735 40.4317 324.126 40.4317C322.639 40.4317 318.296 40.4312 318.296 40.4312Z" fill="#0070BA"/>
<path d="M330.242 21.6062H333.523V40.4312H330.242V21.6062Z" fill="#0070BA"/>
<path d="M319.978 62.7534V49.5309H317.304C317.032 53.3274 316.669 57.7604 316.554 59.1293C316.44 60.4988 316.422 61.7848 315.675 62.7534H319.978ZM314.158 46.7314H323.313V62.7621H325.057L325.062 68.887H322.484L322.278 65.5509H313.486L313.259 68.888H310.694L310.685 62.7646H311.994C312.819 62.2712 313.07 61.4002 313.231 59.7963C313.437 57.7523 314.158 46.7314 314.158 46.7314Z" fill="#0070BA"/>
<path d="M331.164 58.5501L332.756 49.4781L332.821 49.4787L334.412 58.5501H331.164ZM335.639 65.5474H339.008L335.265 46.7097H330.397L326.599 65.5449H329.935L330.666 61.3836H334.908L335.639 65.5474Z" fill="#0070BA"/>
</svg>
