<svg width="66" height="66" viewBox="0 0 66 66" fill="none" xmlns="http://www.w3.org/2000/svg">
<path d="M66.0004 0H0V66H66.0004V0Z" fill="#EA6425"/>
<path fill-rule="evenodd" clip-rule="evenodd" d="M30.1878 38.9875C29.1645 38.7461 28.1731 38.3853 27.2337 37.913L26.2543 37.36C25.8107 37.0796 25.4934 36.6381 25.3696 36.1282C25.2458 35.6182 25.3251 35.0797 25.5908 34.6271C25.7255 34.4009 25.9039 34.2039 26.1155 34.0471C26.327 33.8902 26.5677 33.777 26.8234 33.7139C27.079 33.6507 27.3447 33.6389 27.6049 33.6791C27.8652 33.7194 28.1148 33.8101 28.3394 33.9476C29.2657 34.5208 30.2879 34.9222 31.3567 35.1324C33.4268 35.5302 35.5707 35.148 37.3753 34.0586C37.7425 33.8175 38.1686 33.6809 38.6076 33.6637C39.0343 33.6643 39.4498 33.8012 39.7935 34.054C40.1373 34.3069 40.3915 34.6627 40.5192 35.0699C40.6488 35.482 40.6384 35.9253 40.4898 36.331C40.3413 36.7367 40.0628 37.082 39.6977 37.3129C38.536 38.0463 37.2599 38.5802 35.9221 38.8927H35.7168L35.8589 39.0346L39.4607 42.636C39.674 42.813 39.8482 43.033 39.9725 43.2808C40.0967 43.5286 40.1683 43.7993 40.1827 44.0761C40.197 44.3529 40.1539 44.6298 40.056 44.8891C39.958 45.1484 39.8074 45.3843 39.6136 45.5825C39.4198 45.7807 39.1871 45.937 38.93 46.0407C38.6729 46.1444 38.3972 46.1931 38.1201 46.1849C37.843 46.1768 37.5705 46.1116 37.32 45.9929C37.0695 45.8742 36.8463 45.7046 36.6646 45.4954L33.0944 41.9256L32.9206 41.7358C32.8933 41.7993 32.856 41.8577 32.8102 41.9094C31.6254 43.11 30.4406 44.3106 29.24 45.4954C28.8797 45.8829 28.3802 46.1117 27.8514 46.1309C27.3226 46.1502 26.8077 45.9583 26.4202 45.5979C26.0326 45.2376 25.804 44.7383 25.7848 44.2095C25.7655 43.6807 25.9571 43.1662 26.3174 42.7787L26.6176 42.4624C27.7708 41.325 28.9083 40.1878 30.0457 39.0346L30.1878 38.8927" fill="white"/>
<path fill-rule="evenodd" clip-rule="evenodd" d="M35.7809 26.6178C35.784 26.0599 35.6218 25.5134 35.315 25.0474C35.0083 24.5814 34.5706 24.2169 34.057 23.9991C33.5433 23.7814 32.9767 23.7205 32.4285 23.824C31.8803 23.9276 31.3749 24.1906 30.976 24.5807C30.5772 24.9708 30.3026 25.4704 30.1869 26.0162C30.0713 26.562 30.1197 27.1292 30.326 27.6476C30.5323 28.1659 30.8872 28.6117 31.3463 28.9288C31.8053 29.2458 32.3479 29.42 32.9057 29.4294C33.2792 29.4336 33.6498 29.364 33.9964 29.225C34.343 29.0859 34.6587 28.8798 34.9257 28.6187C35.1927 28.3576 35.4057 28.0465 35.5524 27.7031C35.6991 27.3597 35.7768 26.9913 35.7809 26.6178ZM32.9532 19.793C34.3036 19.7899 35.6244 20.1874 36.7488 20.9353C37.8731 21.6833 38.7504 22.7486 39.2693 23.9953C39.7883 25.242 39.9256 26.6143 39.6641 27.9391C39.4025 29.264 38.7539 30.4812 37.8001 31.4372C36.8463 32.3932 35.6303 33.0454 34.3061 33.31C32.9819 33.5746 31.609 33.4404 30.3611 32.9243C29.1132 32.4083 28.0463 31.5331 27.2958 30.4105C26.5452 29.2879 26.1445 27.9682 26.1445 26.6178C26.1487 24.8119 26.867 23.0808 28.1425 21.8023C29.418 20.5239 31.1473 19.8013 32.9532 19.793Z" fill="white"/>
</svg>
