<svg width="66" height="66" viewBox="0 0 66 66" fill="none" xmlns="http://www.w3.org/2000/svg">
<path d="M66.0004 0H0V66H66.0004V0Z" fill="#0070BA"/>
<path fill-rule="evenodd" clip-rule="evenodd" d="M28.4345 26.3022C28.4905 26.1552 28.5752 26.0212 28.6837 25.9072C28.7922 25.7933 28.9224 25.7019 29.0665 25.6388C29.6101 25.3886 30.2065 25.2748 30.8041 25.3071C31.6572 25.3071 32.5102 25.3069 33.3474 25.4174C33.7286 25.4095 34.1081 25.4689 34.469 25.5918C34.7188 25.6726 34.9364 25.8306 35.0899 26.0438C35.2433 26.2569 35.3247 26.5139 35.3221 26.7765C35.3221 27.2505 35.3221 27.7084 35.3221 28.1665C35.3221 29.1617 35.3221 30.1413 35.3221 31.1208C35.3525 31.4437 35.4215 31.7613 35.5274 32.068C35.5568 32.1565 35.6053 32.238 35.6696 32.3055C35.8591 32.5899 35.9383 32.5896 36.2226 32.4158C36.7471 32.0628 37.1933 31.6056 37.5337 31.0729C38.0395 30.3843 38.4785 29.6488 38.8448 28.8769C39.2081 28.1029 39.5715 27.2972 39.9191 26.539C39.9809 26.366 40.0979 26.2185 40.2521 26.1186C40.4063 26.0187 40.589 25.9725 40.7722 25.9867C42.373 25.9867 43.9527 25.9867 45.5113 25.9867C45.6291 25.9829 45.746 26.006 45.853 26.0553C45.96 26.1047 46.0538 26.1786 46.1274 26.2705C46.201 26.3625 46.2522 26.4701 46.2769 26.5853C46.3015 26.7004 46.2991 26.8199 46.2695 26.9339C46.1327 27.4499 45.914 27.9404 45.6218 28.3871C44.8432 29.6762 43.9496 30.8927 42.952 32.0209C42.5842 32.4037 42.304 32.862 42.1307 33.3638C42.0347 33.6153 42.0165 33.8894 42.0784 34.1514C42.1404 34.4133 42.2797 34.6506 42.4782 34.8325C43.2207 35.5749 44.058 36.2864 44.7056 37.0447C45.1257 37.5039 45.5161 37.9892 45.8746 38.4979C46.1282 38.8027 46.2579 39.1917 46.2379 39.5878C46.2403 39.6866 46.2222 39.7849 46.1845 39.8763C46.1468 39.9676 46.0904 40.0501 46.0191 40.1185C45.9477 40.1869 45.863 40.2398 45.7701 40.2735C45.6772 40.3073 45.5783 40.321 45.4797 40.3144L42.7941 40.4409H41.2144C40.8101 40.4504 40.4128 40.3345 40.077 40.1092C39.4976 39.7774 38.9661 39.3682 38.4973 38.8928C38.0088 38.4196 37.5792 37.8892 37.2178 37.3131C37.0724 37.1261 36.874 36.9868 36.6488 36.9135C36.4235 36.8403 36.1816 36.8363 35.954 36.902C35.8176 36.957 35.7003 37.0506 35.6161 37.1712C35.532 37.2918 35.4846 37.4345 35.48 37.5815C35.48 38.1028 35.48 38.6241 35.3379 39.1612C35.3268 39.4498 35.2094 39.7239 35.0081 39.931C34.8069 40.1381 34.5361 40.2635 34.248 40.2828C33.0161 40.4332 31.768 40.3855 30.5513 40.1408C29.6698 39.9358 28.8412 39.548 28.1187 39.0031C27.1234 38.2737 26.2214 37.4247 25.4331 36.4754C25.0214 35.9731 24.6416 35.4455 24.2957 34.8957C23.1408 33.2163 22.0859 31.4702 21.1363 29.6668C20.6441 28.8142 20.2519 27.9079 19.9673 26.9655C19.9673 26.7444 19.9674 26.5237 19.841 26.3184C19.8301 26.2703 19.8369 26.2199 19.8601 26.1764C19.8833 26.1329 19.9213 26.0985 19.9673 26.0808C20.2191 25.9906 20.478 25.9221 20.7414 25.8756C21.5944 25.8756 22.4316 25.8756 23.2847 25.8756C23.648 25.8756 24.0114 25.8756 24.3748 25.8756C24.5892 25.8555 24.8044 25.9044 24.9891 26.0152C25.1738 26.1261 25.3182 26.2932 25.4014 26.4919C25.6226 26.9026 25.7964 27.3292 26.0017 27.74C26.6868 29.251 27.5288 30.6858 28.5136 32.0209C28.6788 32.2123 28.8767 32.3724 29.0981 32.4945C29.1517 32.5299 29.2124 32.5536 29.2759 32.5632C29.3394 32.5727 29.4042 32.5681 29.4658 32.5501C29.5275 32.532 29.5843 32.5005 29.6326 32.4583C29.681 32.416 29.7195 32.3642 29.7456 32.3055C29.9272 32.005 30.0255 31.6609 30.0301 31.3097C30.0301 30.3145 30.0301 29.3198 30.0301 28.3246C30.0468 27.862 29.9104 27.4066 29.6419 27.0295C29.3734 26.6525 28.9877 26.3744 28.545 26.2389H28.4504" fill="white"/>
</svg>
