<svg width="48" height="48" viewBox="0 0 48 48" fill="none" xmlns="http://www.w3.org/2000/svg">
<path d="M23.9997 14.4633L20.9872 11.4508C19.4051 9.86878 17.2594 8.97998 15.022 8.97998C12.7846 8.97998 10.6389 9.86878 9.0568 11.4508C7.47474 13.0329 6.58594 15.1787 6.58594 17.416C6.58594 19.6534 7.47474 21.7992 9.0568 23.3812L23.9997 38.3241" stroke="#009CFF" stroke-width="4" stroke-miterlimit="10" stroke-linecap="square"/>
<path d="M24.707 33.6023L21.648 30.5423C20.8242 29.7184 20.3613 28.6011 20.3613 27.436C20.3613 26.2709 20.8242 25.1535 21.648 24.3296C22.4719 23.5058 23.5892 23.043 24.7543 23.043C25.9194 23.043 27.0368 23.5058 27.8606 24.3296L29.4293 25.8983" stroke="#FB4C00" stroke-width="4" stroke-miterlimit="10" stroke-linecap="square"/>
<path d="M38.9429 23.3812C40.5249 21.7992 41.4137 19.6534 41.4137 17.416C41.4137 15.1787 40.5249 13.0329 38.9429 11.4508C38.1595 10.6675 37.2295 10.0461 36.206 9.62214C35.1825 9.19819 34.0855 8.97998 32.9777 8.97998C30.7403 8.97998 28.5945 9.86878 27.0125 11.4508L24 14.4633" stroke="#00DACC" stroke-width="4" stroke-miterlimit="10" stroke-linecap="square"/>
<path d="M29.4297 38.3242L37.2114 30.5425C38.0353 29.7185 38.4981 28.6011 38.4981 27.436C38.498 26.2708 38.0351 25.1534 37.2112 24.3296C36.3873 23.5057 35.2699 23.0429 34.1047 23.043C32.9396 23.043 31.8222 23.5059 30.9983 24.3298L29.4297 25.8985" stroke="#009CFF" stroke-width="4" stroke-miterlimit="10" stroke-linecap="square"/>
<path d="M24.707 33.6025L29.4293 38.3243" stroke="#FB4C00" stroke-width="4" stroke-miterlimit="10" stroke-linecap="square"/>
</svg>
